<svg width="30" height="30" viewBox="0 0 30 30" fill="none" xmlns="http://www.w3.org/2000/svg">
<circle cx="15" cy="15" r="14.5" stroke="#D3D3D3"/>
<path d="M16.4 9.0493C15.7818 9.16268 15.1727 9.51761 14.8864 9.92183C14.4682 10.5183 14.3545 11.031 14.3273 12.4852L14.3091 13.5845H13.6545H13V14.7923V16H13.6591H14.3182V19.5V23H15.6591H17V19.5V16H17.8818H18.7682L18.7909 15.788C18.8273 15.4923 19 13.7324 19 13.6535C19 13.5993 18.8091 13.5845 18 13.5845H17V12.7563C17 11.4599 17.0409 11.4155 18.2409 11.4155H19V10.2077V9L17.8091 9.00493C17.15 9.00986 16.5182 9.02958 16.4 9.0493Z" fill="#D3D3D3"/>
</svg>
