<svg width="30" height="30" viewBox="0 0 30 30" fill="none" xmlns="http://www.w3.org/2000/svg">
<circle cx="15" cy="15" r="14.5" stroke="#131313"/>
<g clip-path="url(#clip0_28_1034)">
<path d="M11.5687 8.02857C11.0795 8.08718 10.5024 8.27764 10.063 8.52671C8.92642 9.18016 8.1765 10.3171 8.03296 11.6093C7.98901 11.9991 7.98901 18.9965 8.03296 19.3863C8.24094 21.2704 9.72908 22.759 11.6127 22.967C12.0023 23.011 18.9977 23.011 19.3873 22.967C21.2709 22.759 22.7591 21.2704 22.967 19.3863C23.011 18.9965 23.011 11.9991 22.967 11.6093C22.7591 9.72519 21.2709 8.23662 19.3873 8.02857C19.0416 7.99048 11.9056 7.99048 11.5687 8.02857ZM20.0406 9.99477C20.48 10.1266 20.8169 10.5134 20.8901 10.9735C20.978 11.5156 20.647 12.0811 20.1255 12.2774C19.6803 12.4474 19.15 12.3273 18.8278 11.9815C18.1511 11.2577 18.57 10.0885 19.5572 9.95082C19.6744 9.93617 19.9117 9.95668 20.0406 9.99477ZM16.039 11.4394C16.9442 11.5595 17.7293 11.9493 18.3884 12.6086C19.9996 14.2202 19.9996 16.7754 18.3884 18.387C16.7772 19.9987 14.2228 19.9987 12.6116 18.387C11.0004 16.7754 11.0004 14.2202 12.6116 12.6086C13.5344 11.6885 14.7618 11.2694 16.039 11.4394Z" fill="#131313"/>
<path d="M19.3725 11.0089C19.2278 11.045 19.038 11.2524 19.0063 11.4102C18.9702 11.6176 19.0922 11.8521 19.2911 11.9468C19.4991 12.046 19.7025 12.0054 19.8698 11.8341C20.0732 11.6221 20.0325 11.2479 19.7884 11.0946C19.6663 11.0179 19.4945 10.9819 19.3725 11.0089Z" fill="#131313"/>
<path d="M15.1221 13.0298C14.5917 13.1117 14.1183 13.3531 13.7358 13.7355C12.7547 14.7144 12.7547 16.2852 13.7358 17.2641C14.7147 18.2453 16.2853 18.2453 17.2642 17.2641C18.2453 16.2852 18.2453 14.7144 17.2642 13.7355C16.6974 13.1687 15.9052 12.9069 15.1221 13.0298Z" fill="#131313"/>
</g>
<defs>
<clipPath id="clip0_28_1034">
<rect width="15" height="15" fill="white" transform="translate(8 8)"/>
</clipPath>
</defs>
</svg>
