<svg width="30" height="30" viewBox="0 0 30 30" fill="none" xmlns="http://www.w3.org/2000/svg">
<circle cx="15" cy="15" r="14.5" stroke="#131313"/>
<path fill-rule="evenodd" clip-rule="evenodd" d="M19.5498 10.0889C19.722 10.0102 19.9104 9.98303 20.0954 10.0103C20.2805 10.0375 20.4555 10.1182 20.6021 10.2439C20.7488 10.3696 20.8617 10.5357 20.9293 10.725C20.9968 10.9143 21.0165 11.1197 20.9861 11.32L19.4063 21.736C19.2531 22.7407 18.2389 23.3169 17.3912 22.8164C16.6821 22.3977 15.6289 21.7526 14.6816 21.0795C14.2079 20.7426 12.757 19.6637 12.9353 18.8959C13.0886 18.2395 15.5265 15.7728 16.9196 14.3062C17.4664 13.73 17.2171 13.3976 16.5713 13.9276C14.9679 15.2435 12.3934 17.2446 11.5422 17.8079C10.7913 18.3046 10.3998 18.3894 9.93174 18.3046C9.07776 18.1502 8.28577 17.9109 7.63936 17.6194C6.76588 17.2257 6.80837 15.9204 7.63867 15.5403L19.5498 10.0889Z" fill="#131313"/>
</svg>
