<svg width="30" height="30" viewBox="0 0 30 30" fill="none" xmlns="http://www.w3.org/2000/svg">
<circle cx="15" cy="15" r="14.5" stroke="#D3D3D3"/>
<g clip-path="url(#clip0_20_747)">
<path d="M14.9581 8.0044C13.8244 8.11292 12.9696 8.3593 12.0415 8.83738C10.6258 9.57065 9.48326 10.7351 8.77541 12.1664C8.50225 12.7149 8.37595 13.0522 8.23203 13.5919C8.05581 14.2723 8.00294 14.6859 8 15.4367C8 15.8122 8.01469 16.2169 8.03525 16.3753C8.19679 17.5779 8.57274 18.6132 9.20423 19.5811L9.4157 19.9067L8.9487 21.2823C8.69023 22.042 8.48463 22.6638 8.4905 22.6696C8.49638 22.6755 9.13668 22.476 9.91796 22.2267C10.6992 21.9774 11.3483 21.7721 11.363 21.7721C11.3748 21.7721 11.4952 21.8396 11.6303 21.9246C11.7654 22.0068 12.0474 22.1593 12.2559 22.259C14.1563 23.1653 16.3268 23.2445 18.2712 22.4731C20.4741 21.602 22.1659 19.6926 22.7709 17.3989C22.9559 16.695 23 16.3108 23 15.4954C23 14.68 22.9559 14.2958 22.7709 13.5919C22.0601 10.9022 19.9013 8.81099 17.1756 8.17452C16.7174 8.06893 16.2416 8.0132 15.663 8.0044C15.3399 7.99853 15.0227 7.99853 14.9581 8.0044ZM13.1664 11.483C13.2164 11.5094 13.2839 11.5798 13.3192 11.6443C13.4043 11.7998 14.121 13.5156 14.1416 13.6212C14.168 13.7532 14.0358 13.979 13.7451 14.3075C13.4396 14.6507 13.375 14.7592 13.4014 14.8824C13.4513 15.1053 14.1298 16.0057 14.5498 16.4017C15.1989 17.0147 16.1799 17.5984 16.6176 17.6307C16.8437 17.6453 16.923 17.5837 17.2696 17.1262C17.4253 16.9179 17.5898 16.7097 17.6397 16.6627C17.7513 16.5484 17.9187 16.5249 18.1097 16.5953C18.3505 16.6862 19.8279 17.4048 19.9336 17.484L20.0335 17.5573L20.0159 17.8682C19.9747 18.666 19.6928 19.0796 18.9526 19.4403C18.2477 19.7835 17.6955 19.7747 16.6176 19.4022C15.1666 18.9007 14.4 18.4226 13.3574 17.3755C12.8345 16.8534 12.4645 16.4105 12.0415 15.8034C11.3425 14.8061 11.0752 14.0347 11.1545 13.2516C11.2191 12.6239 11.4394 12.1605 11.8829 11.7176C12.0973 11.5035 12.3763 11.4155 12.7993 11.4302C12.9785 11.4361 13.1106 11.4537 13.1664 11.483Z" fill="#D3D3D3"/>
</g>
<defs>
<clipPath id="clip0_20_747">
<rect width="15" height="15" fill="white" transform="translate(8 8)"/>
</clipPath>
</defs>
</svg>
