<?xml version="1.0" encoding="UTF-8"?>
<svg id="_Слой_1" data-name="Слой 1" xmlns="http://www.w3.org/2000/svg" viewBox="0 0 1200 1200">
  <defs>
    <style>
      .cls-1 {
        fill: #3c5904;
      }

      .cls-1, .cls-2 {
        stroke-width: 0px;
      }

      .cls-2 {
        fill: #252d2a;
      }
    </style>
  </defs>
  <path class="cls-2" d="m34.31,812.91c-.19-151.78,59.01-294.73,166.7-402.52,107.69-107.79,250.72-167.26,402.74-167.45.25,0,.48,0,.73,0,151.47,0,294.12,59.2,401.72,166.72,107.78,107.71,167.24,250.76,167.43,402.81.02,15.59-.6,31.03-1.82,46.31l23.07,6.17c1.62-19,2.32-38.13,2.07-57.38-2.02-158.68-65.01-306.94-177.35-417.47-54.36-53.48-117.47-95.46-187.59-124.76-72.24-30.19-148.76-45.54-227.44-45.62h-.01c-81.45.09-160.18,16.2-234.01,47.88-71.05,30.48-134.69,74.06-189.13,129.51-54.73,55.74-97.36,120.6-126.72,192.77-30.31,74.5-44.96,153.34-43.57,234.32.22,12.91.86,25.75,1.91,38.52l22.97-6.14c-1.11-14.45-1.68-29.01-1.7-43.65Z"/>
  <g>
    <path class="cls-1" d="m1044.01,687.85h-1.96l3.14.84c-.11-.18-.22-.34-.32-.46h11.89c.06.34.13.68.19,1.01-2.05.31-4.09.67-6.14.95l35.85,9.59-.2,2.5c4.92,2.13,9.54,2.22,13.8-2.8v-3.42c4.79,3.96,6.04-1.73,9.04-2.95-2.84.47-5.34-3.1-8.34-.75-.3.24-1.98-1.29-3.38-2.24-2.66,1.57-5.53,4.68-9.93,2.51-3.24-1.6-7.42-1.63-9.8-6.07,4.04.97,7.35,1.77,10.74,2.59.36-1.16.7-2.25,1.11-3.59,2.29,1.05,4.29,1.97,6.3,2.89.13-.22.26-.44.39-.66-.97-1.08-1.94-2.16-3.34-3.71,2.49.93,4.45,1.66,6.24,2.33.89-4.3,4.89-4.4,7.71-5.89-.09-.42-.18-.84-.27-1.26-4.29-.34-8.58-.68-13.82-1.09-1.89-2.56-4.36-2.98-8.32-1.33-2.23.93-4.88.85-7.86,1.3.73-1.97,1.03-2.8,1.37-3.71-7.94-.46-9.22-1.57-8.72-6.73.89,1.37,2.02,3.11,3.15,4.85.75-.66,1.5-1.32,1.98-1.74,1.58,1.01,3.08,1.96,4.37,2.78.72-1.63,1.15-2.63,1.57-3.58,2.01,1.71,3.59,3.07,5.28,4.52.88-1.38,1.46-2.28,2.03-3.18.11.33.23.65.34.98,2.74-.62,5.48-1.24,8.22-1.85-.06-.37-.12-.73-.17-1.1-3.35-1.94-6.69-3.88-10.04-5.82.13-.42.26-.84.39-1.27-2.05.53-4.09,1.05-6.45,1.66,1.27-2.2,2.38-4.14,3.47-6.04-1.3-.39-2.72-.81-4.51-1.34,3.87-1.53,6.89-2.73,11.04-4.37-2.65-.92-4.1-1.41-5.84-2.01,1.44-1.72,2.66-3.17,4.07-4.85-1.59-.3-2.73-.51-3.93-.73.73-1.53,1.38-2.87,2.16-4.5-2.92,1.08-5.29,1.95-7.65,2.82-.2-.36-.4-.72-.61-1.08-2.4,4.27-4.14,9.17-9.61,10.66-.48-2.72-1.28-5.27-1.23-7.81.03-1.33,1.55-2.63,2.4-3.95,2.44,3.31,4.87-.42,7.62-.46-1.82-1.21-3.64-2.43-6.17-4.12h9.21c-2-1.33-3.11-2.07-4.25-2.83,1-1.09,1.86-2.02,3.02-3.28-2.82.57-5.07,1.02-7.32,1.47-.09-.33-.19-.66-.28-.99-1.39,2.08-2.77,4.17-4.66,7.01-1.11-6.63,4.1-9.31,5.18-14.33-1.53.98-3.05,1.96-4.58,2.94-.68-2.6-1.35-5.19-2.03-7.78-.47.08-.95.16-1.42.24v9.98c-2.06-1.7-3.56-2.93-5.87-4.84,1.32,5.63,7.5,8.55,4.53,15.04-1.15-3.19-2.05-5.7-3.28-9.12-1.7,5.89-4.57.52-7.26,1.94,1.03,1.54,2.32,2.85,2.82,4.41.42,1.32-.08,2.93-.16,4.3,1.33.61,2.74,1.25,4.15,1.89-.2.38-.39.77-.59,1.15-1.37-.27-2.74-.55-5.12-1.02,1.43,1.96,2.27,3.12,3.27,4.48-4.83,4.15-7.82-2.96-12.84-1.93,1.35,1.63,2.39,2.89,3.36,4.06-.77.43-1.74.98-2.52,1.42,2.03,1.67,3.85,3.17,5.88,4.85-2.1.77-3.49,1.28-4.87,1.79.05.49.09.97.14,1.46,3.67.24,7.33.49,10.88.73-.33.51-.88,1.35-1.67,2.56,1.66-.18,3.74-.61,3.82-.39,1.55,4.83,3.38.33,5.3.19.29,1.01.6,2.06,1.29,4.41-6.74-1.07-12.46-1.97-18.23-2.88.5.66.92,1.21,1.78,2.33-1.46-.48-2.2-.86-2.97-.94-3.49-.36-6.43-6.47-10.49-1.03-.1.14-.54-.01-.81.04-1.42.26-2.84.55-4.26.82-.03.44-.06.88-.09,1.32,2.85.52,5.69,1.05,8.7,1.6-.62.66-1.37,1.47-2.96,3.18,2.66-.35,4.16-.55,5.5-.73.83,1.11,1.62,2.18,2.4,3.22,1.96-.74,3.82-1.45,6.44-2.44-1.26,1.58-1.96,2.45-3.3,4.13,6.85-1.26,13.11-1.02,18.1-5.57-1.09,1.7-2.42,3.2-3.99,4.38-4.82,3.59-9.83,6.38-15.99.99.07,1.69.1,2.38.11,2.51-4.32.35-8.51.69-12.82,1.04,1.52,6.17,7.91,5.98,11.53,9.92Z"/>
    <path class="cls-1" d="m1143.6,806.06c.02-.28.04-.56.07-.84-1.39-.31-2.78-.63-4.2-.95.22-.71.43-1.35.58-1.83-4.06-1.4-8.8,1.98-12.38-2.42-9.43,2.33-17.87-1.75-26.39-5.64.95-.86,1.85-1.41,2.69-1.32,5.23.52,10.43,1.47,15.67,1.68,2.96.12,6.86,2.16,8.65-2.45.09-.23.49-.4.78-.48,4.27-1.21,8.55-2.39,12.7-3.55-1.05-1.52-1.93-2.8-2.89-4.2,1.9-.83,3.35-1.46,4.09-1.78-8.24-1.3-16.98-2.69-25.71-4.07.04-.63.08-1.25.12-1.88,3.08-.23,6.15-.45,9.2-.68-.07-.17-.36-.84-.71-1.66,1.4-.08,2.69-.16,4.4-.26-1-.85-1.59-1.35-1.71-1.45,2.69-1.77,5.45-3.59,8.22-5.41-9.65-.93-18.94.95-27.28-4.38,2.53-.37,4.98-.11,7.41.24,2.79.4,8.58-3.2,8.92-5.57.25-1.72.57-3.43.86-5.15-5.28-.03-11.09,4.97-17.55-.62h6.44c-.92-1.16-1.59-2-1.7-2.15,1.19-1.35,2.25-2.56,4.02-4.56h-21.39c1.33-1.71,1.94-2.49,2.54-3.26.1.35.2.71.3,1.07,2.92-.38,5.84-.75,9.46-1.22-1.58-1.76-2.4-2.68-3.6-4.02,2.57.28,4.47.48,5.32.57,3.48-2.49,6.22-4.45,8.96-6.41-.06-.53-.12-1.05-.18-1.58-4.07-.69-8.15-1.38-11.96-2.02,0,0,.61-.79,1.42-1.84-1.15.22-1.92.37-2.72.52v-2.12c-8.42,4.78-17.79,3.43-19.17-1.48,2.88-.42,6.17-1.81,8.88-1.08,4.21,1.14,7.8-1.75,10.28-.73,3.18-3.58,5.72-6.44,8.08-9.1-4.41-2.16-9.22-3.94-15.17-1.02.47-1.54.74-1.98.71-2.4-.04-.6-.29-1.19-.5-1.99-4.81,2.37-9.08,2.15-13.12.82-.41,4.9-.87,9.74-1.4,14.39l-.95,8.39-20.71-5.54h-7.86l18.7,5.83h-40.55v16.69c.07,0,.14,0,.21,0,1.71.02,3.42-.66,5.14-.97,1.08-.19,2.17-.25,3.25-.42,2.49-.39,4.98-.8,7.47-1.21.13.52.26,1.04.39,1.56-4.73,1.47-9.45,2.94-14.95,4.64,2.03.76,3.73,1.41,5.44,2.05.07.28.13.55.2.83-2.38.2-4.76.39-7.14.59v15.42c3.83-2.32,7.31-1.33,10.83,1.08h-10.83v14.03c.09-.03.17-.05.26-.08-.07.15-.16.3-.26.46v66.6s.04,0,.06,0c.03.12.23.98.48,2.1,1.79-1.31,3.21-2.35,4.83-3.55.47,1.28.86,2.33,1.54,4.18,5.48-2.78,10.6-5.38,16.17-8.21.99.75,3.19-.74,5.45-4.98q4.27,1.62.31,15.63h15.56c-.49-3.58-.97-7.02-1.44-10.46.38-.15.76-.3,1.13-.45,6.18,8.22,15.12,6.07,23.68,6.51.14-1.14.29-2.38.37-3.02,2.18-.19,4.27-.81,6.18-.43,1.91.37,3.57,1.87,5.43,2.62,4.1,1.66,6.45-.15,5.73-4.68,2.01,1.4,3.84,2.68,5.7,3.98.91-.96,1.55-1.63,2.15-2.26,1.62.79,3.08,1.5,4.46,2.17.53-1.36,1.01-2.58,1.64-4.17-.17-.21-.73-.9-1.73-2.13,2.82,1.07,4.94,1.87,7.53,2.85-.49-.94-.74-1.41-1.02-1.97,1.7-.5,3.3-.97,5.68-1.66-6.67-1.33-12.41-2.47-18.74-3.73,3.33-1.44,5.67-2.46,8.01-3.47-.16-.36-.31-.72-.47-1.07,1.41-.18,2.82-.37,4.23-.55.01-.23.02-.46.03-.68-.77-.29-1.53-.58-2.86-1.08,2.62-1.33,4.8-2.45,6.8-3.46-.46-.27-1.35-.78-2.79-1.61,1.98-.22,3.29-.36,4.6-.5.02-.23.05-.45.07-.68-2.32-.41-4.65-.82-6.97-1.24.06-.23.11-.46.17-.69,2.76-.97,5.51-1.95,8.27-2.92-.08-.28-.16-.56-.24-.84-2.74.38-5.47.76-8.66,1.2,1.02-1.35,1.7-2.24,3-3.96-6.25,2.4-11.35,5.94-17.44,3.54-5.37-2.12-10.7-4.31-16.05-6.48.11-.39.21-.78.32-1.17,2.02.36,4.04.71,5.66,1,2.57-3.34,4.45.82,6.21-.06,1.95-.9,3.89-1.8,5.79-2.67,1.54,1.06,2.94,2.03,4.34,3,.16-.19.32-.38.48-.56-.69-1.09-1.38-2.18-2.71-4.3,5.49-.69,10.34-1.3,15.51-1.95-1.51-.8-2.75-1.45-3.99-2.11.04-.22.07-.45.11-.67h7.76Z"/>
    <path class="cls-1" d="m90.33,707.9c3.7.74,7.2.63,9.71,2.15,3.67,2.22,6.02.4,9.16-.97-.76,1.27-1.53,2.54-2.52,4.2,1.02.2,1.95.7,2.54.43,2.78-1.27,5.4-2.8,7.21,1.38.16.36,2.2.23,3.17-.17,1.77-.73,3.39-1.82,5.4-2.95-.15,1.92-.28,3.56-.5,6.36,3.04-1.25,5.37-2.21,8.01-3.3-.06,1.03-.11,2-.16,2.87,2.69.45,5.38.89,8.06,1.34-.55-5.02-1.03-10.14-1.42-15.25l-.46-6.03.44-.12-.29-3.8c-.29.05-.57.11-.86.13-12.86.96-25.74,1.7-38.59,2.73-3.76.3-7.46,1.3-11.49,3.03,2.9,1.04,5.81,2.09,9.19,3.31-2.18,1.54-4.21,2.97-6.6,4.66Z"/>
    <path class="cls-1" d="m980.46,635.43c1.4-1.52,2.8-3.05,4.82-5.26-2.68.83-4.29,1.33-6.22,1.93.57-1.73.95-2.91,1.33-4.08-5.8,4.09-11.51,6.53-18.74,5.05-10.34-2.12-13.28-4.05-14.06-9.77,4.05.95,8.51,1.99,12.89,3.02.67-1.64,1.09-2.68,1.53-3.76,2.37,1.18,4.43,2.2,6.9,3.42.16-1.42.26-2.37.43-3.86h13.9c-.78-1.9-1.23-2.98-1.66-4.03,1.6-.9,2.97-1.67,4.66-2.61-1.03-.75-1.66-1.21-2.22-1.62,3.66-2.61,7.07-5.04,10.95-7.8-4.65-1.41-8.47-2.57-12.33-3.73-.08-.79-.18-1.77-.25-2.39-5.1,1.21-9.92,2.35-14.61,3.46.75-2.8,1.29-4.84,2.13-7.98-15.39,9.15-26.45.66-37.9-5.88.12-.53.25-1.06.37-1.6,4.25,1.04,8.49,2.08,12.69,3.1.13-.87.33-2.15.52-3.4,3.26.17,5.48,6.48,8.42,1.94,2.37.97,4.72,2.89,6.49,2.46,2.86-.7,5.52-2.83,4.56-6.92,2.14.42,3.83.75,5.46,1.07v-8.04c2.31.77,5.18,1.72,8.04,2.67.28-.21.55-.43.83-.64-1.98-2.94-1.07-4.15,1.79-4.93,2.05-.56,3.85-2.02,5.77-3.08-.14-.34-.28-.67-.42-1.01h-9.82c.64-1.31,1.06-2.16,2.03-4.11-3.87,2.18-6.66,3.76-9.09,5.13-1.06-1.44-1.8-2.44-2.58-3.5.43-.83.94-1.82,2.02-3.93-6.56,3.65-10.68,10.24-18.62,6.81-5.98-2.59-12.79-3.63-15.68-10.75,1.92.18,3.65.8,4.93,1.93,2.34,2.06,3.86,2.12,4.37-1.4,2.8,1.84,4.55,5.14,8.45,3.79,0-.9-.08-1.59.02-2.25.2-1.31.49-2.6.75-3.9,1.27.58,2.55,1.17,3.82,1.76,2.21,1.02,4.43,2.04,6.64,3.05.26-.41.52-.82.78-1.23-1.8-1.97-3.6-3.95-5.4-5.92.16-.13.31-.26.47-.39,3.29,1.55,6.59,3.09,9.88,4.64.21-.33.42-.65.63-.98-.62-.88-1.23-1.77-2.09-2.99,2.33-.88,4.22-1.6,6.28-2.38-.56-.83-1.02-1.52-1.76-2.62,1.99,0,3.65.39,4.98-.11,1.32-.5,2.3-1.89,3.43-2.88-1.27-.59-2.5-1.36-3.84-1.71-1.57-.41-4.17.1-4.7-.77-2.07-3.39-4.42-1.7-6.74-.94-2.2.72-4.33,1.65-6.33,2.42-1.11-2.15-2.1-4.06-3.11-6.03-1.5.36-2.97.71-4.52,1.08-.32-1.18-.61-2.24-.99-3.64-5.77,4.33-11.14,8.97-18.3,4.09.75-1.33,1.51-2.68,2.22-3.93-4.22-1.13-8.7-1.19-11.52-3.38-3.01-2.34-4.35-6.73-3.3-11.48q4.12,10.29,6.63,11.67c.8-1.76,1.59-3.49,2.49-5.45,1.62,3.73,3.42,6.55,8.12,5.89-.39-1.68-.66-2.85-.94-4.02.96-.73,1.89-1.45,2.43-1.85,2.81,2.88,5.48,5.62,8.41,8.63,1.45-2.86,2.44-4.81,3.48-6.86,3.7,3.08,10.53,1.63,14.25-3.12-5.55-2.7-10.95-5.32-16.14-7.85.09-1.17.61-3.19.18-3.41-1.22-.64-2.85-.83-4.26-.67-1.15.14-2.17,1.19-3.33,1.58-1.23.41-2.56.52-4.48.88,1.7-2.58,6.24-1.86,4.21-5.38,2.27-1.3,4.29-2.47,6.32-3.63-.09-.38-.18-.77-.26-1.15-3.26-.67-6.52-1.35-9.79-2.02.69-6.17,4.05-3.25,5.78-2.62,3.3-2.27,6.01-4.13,9.57-6.58-3.03-1.27-5.63-2.36-8.39-3.52,2.67-2.96,4.94-5.46,7.65-8.47-3.09-.55-5.31-.95-7.53-1.34.86-2.87,4.59-4.63,2.85-9.03-2.96,2.49-5.43,4.57-7.88,6.64-1.2-1.11-2.26-2.1-3.73-3.46-4.88,7.62-6.92,17.21-17.09,20.56-.54-5.74-1.16-11.14-1.53-16.56-.27-3.9,1.92-5.39,5.55-5.11.07,1.36.14,2.53.2,3.74,3.81-1.19,7.28-2.28,11.9-3.72-3.96-2.81-7.26-5.15-10.5-7.45,4.29-1.62,9.16,2.47,13.61-1.29-2.45-1.49-4.64-2.81-7.03-4.26,2.07-1.95,4.02-3.78,5.96-5.61-.23-.4-.46-.8-.68-1.2-3.45,1.52-6.9,3.04-10.33,4.56-.16-1.18-.32-2.28-.49-3.49-5.03,2.46-3.24,10.03-9.12,11.33-1.67-9.84,6.85-15.14,10.41-22.9-5.38-1.92-6.16,3.18-9.24,5.64-1.69-5.72.25-11.94-4.21-16.28h-.83v18.97c-.34.2-.68.4-1.03.59-2.26-2.81-4.53-5.63-6.79-8.44-1.93,4.85.5,7.46,2.68,9.95,3.44,3.93,4.41,8.49,4.17,13.46-.02.44-.14.87-.42,1.32.23,1.46.13,2.98-.37,4.57-1.9-4.22-3.65-8.1-5.67-12.6.99.62,1.82,1.29,2.57,1.99-.27-.85-.54-1.7-.84-2.54-.53-1.5-1.71-2.76-2.59-4.13-.83,1.26-1.66,2.51-2.67,4.03-2.19-1.09-4.74-2.35-7.29-3.61-.45.42-.91.84-1.36,1.25,1.42,2.44,2.71,4.97,4.3,7.29,1.51,2.19,3.77,4.09-.1,6.2-.44.24-.62,2.03-.21,2.52.57.69,1.83,1.2,2.73,1.11,1.13-.12,2.19-.92,3.59-1.56v3.62c2.33,1.1,4.66,2.21,6.18,4.39-1.41-3.12-2.78-6.18-4.32-9.6,5.25,3.31,7.22,7.69,5.67,12.6,0-.02-.01-.03-.02-.05.17.68.3,1.42.36,2.24-2.97-2.66-5.47-4.89-7.87-7.05v.12c-2.46-1.05-4.65-1.97-6.83-2.9l-1.17,1.1c1.67,2.4,3.33,4.8,4.97,7.17-3.89,5.08-7.8,2.13-11.87-.68-2.22-1.53-4.71-2.67-7.37-4.14-2.19,5.13,2.28,6.33,4.37,8.72-1.82.77-3.58,1.52-5.23,2.22,3.6,3.04,6.82,5.77,10.67,9.02-2.76.72-4.69.99-6.39,1.75-.99.45-1.62,1.7-2.41,2.59,1.2.7,2.56,2.17,3.59,1.97,2.83-.54,5.29-1.02,7.65,1.32.49.49,2.22-.1,3.3-.42,1.3-.38,2.52-1.01,4.17-.81-1.2,1.4-2.4,2.8-3.6,4.2.15.39.29.78.44,1.17,1.94-.32,3.89-.63,5.67-.92.38,1.05.89,2.47,1.4,3.89,2.4-1.09,4.8-2.18,7.42-3.37.33.93,1,2.84,1.67,4.76-10.66,4.83-19.92.34-29.18-4.14-.22.57-.44,1.15-.67,1.72,1.36,1.28,2.73,2.55,4.09,3.83-.14.32-.27.64-.41.95-3.95-1.9-7.93-3.76-11.84-5.74-1.09-.55-1.9-1.72-3.02-2.14-1.29-.48-2.77-.45-4.17-.63-.11,1.24-.22,2.48-.35,4.05-3.43.58-7.15,1.21-10.94,1.86,1.72,4.01,2.71,4.35,14.11,5.21-.05.22-.06.47-.17.66-.89,1.5-1.8,3-2.7,4.49,1.99-.29,4.15-.18,5.92-.97,2.1-.93,3.86-2.62,6.48-3.55-5.5,2.61-5.51,5.86-1.53,9.97,3.94-1.85,8.14-3.82,12.34-5.78.12.13.25.26.37.39-1.51,1.24-3.14,2.37-4.48,3.77-.9.95-1.38,2.29-2.05,3.45,1.39-.07,2.79-.07,4.17-.25.49-.06.91-.57,1.7-1.1.26,1.26.48,2.31.71,3.4.37-.17.73-.21.85-.4,2.59-4.13,7.15-4.22,11.12-5,4.45-.87,7.48-2.84,8.87-7.19.39.16.78.32,1.17.48-.75,1.76-1.01,4.18-2.34,5.16-5.52,4.08-11.32,7.79-17.15,11.43-.75.47-2.33,0-3.35-.44-3.27-1.42-6.46-3.03-10.65-5.04.68,2.34,1.1,3.78,1.64,5.61-3.4-.95-6.78-1.9-10.41-2.91-.35,3.9-2.67,4.17-5.81,3.07-2.69-.94-4.93-.63-5.8,3.03,1.05.4,2.09.81,3.27,1.26-.49.95-.97,1.89-1.29,2.53,2.86,1.46,5.53,2.83,8.74,4.47.07.41.26,1.4.43,2.35q7.96,1.41,6.37,4.13h-12.28c1.02,3.14,1.93,5.96,2.85,8.78-.44.22-.87.44-1.31.66-1.66-1.01-3.34-2.03-5.18-3.15.42-.48.87-.99,1.4-1.59h-4.02c-.72-.44-1.45-.88-2.24-1.36.12.5.23.94.33,1.36h-13.7c1.22-1.57,1.78-2.28,2.33-2.99.09.33.19.65.28.98,2.68-.34,5.36-.69,8.68-1.12-1.45-1.62-2.2-2.46-3.3-3.69,2.36.25,4.11.44,4.88.53,3.2-2.29,5.71-4.09,8.22-5.88-.06-.48-.11-.97-.17-1.45-3.74-.63-7.48-1.26-10.97-1.85,0,0,.56-.73,1.31-1.69-1.06.2-1.76.34-2.49.48v-1.94c-7.72,4.39-16.33,3.15-17.59-1.36,2.64-.38,5.66-1.66,8.15-.99,3.87,1.05,7.16-1.6,9.44-.67,2.92-3.29,5.25-5.91,7.41-8.35-4.05-1.98-8.46-3.61-13.92-.93.43-1.41.67-1.82.65-2.21-.03-.55-.26-1.09-.46-1.83-7.77,3.82-14,.33-20.21-3.23.07-.34.14-.67.21-1.01,2.17.48,4.34.95,6.58,1.45.15-.36.41-1,.68-1.65,4.92,2.42,9.53,2.9,13.75-2.07v-3.14c4.4,3.64,5.54-1.59,8.3-2.7-2.61.43-4.9-2.84-7.65-.69-.28.22-1.82-1.18-3.1-2.06-2.44,1.44-5.07,4.3-9.12,2.3-2.98-1.47-6.81-1.5-8.99-5.57,3.7.89,6.74,1.63,9.85,2.37.33-1.06.64-2.07,1.02-3.3,2.1.96,3.94,1.81,5.78,2.65.12-.2.24-.41.36-.61-.89-.99-1.78-1.98-3.07-3.4,2.29.86,4.08,1.53,5.72,2.14.82-3.95,4.49-4.04,7.07-5.41-.08-.38-.17-.77-.25-1.15-3.94-.31-7.87-.62-12.68-1-1.73-2.35-4-2.73-7.64-1.22-2.05.85-4.48.78-7.21,1.19.67-1.81.94-2.57,1.25-3.4-7.28-.42-8.46-1.44-8-6.18.82,1.26,1.85,2.86,2.89,4.45.69-.61,1.38-1.21,1.82-1.6,1.45.92,2.83,1.8,4.01,2.55.66-1.5,1.06-2.42,1.44-3.28,1.84,1.57,3.3,2.82,4.85,4.15.81-1.26,1.34-2.09,1.87-2.92.11.3.21.6.32.9,2.51-.57,5.03-1.13,7.54-1.7-.05-.34-.11-.67-.16-1.01-3.07-1.78-6.14-3.56-9.21-5.34.12-.39.24-.77.36-1.16-1.88.48-3.76.97-5.92,1.52,1.16-2.02,2.18-3.8,3.19-5.55-1.19-.36-2.49-.74-4.14-1.23,3.55-1.41,6.32-2.5,10.13-4.01-2.43-.84-3.76-1.3-5.36-1.85,1.32-1.58,2.44-2.91,3.73-4.45-1.46-.27-2.51-.47-3.61-.67.67-1.4,1.26-2.63,1.99-4.13-2.68.99-4.85,1.79-7.02,2.59l-.56-.99c-2.2,3.92-3.8,8.41-8.82,9.78-.44-2.49-1.18-4.84-1.13-7.17.03-1.22,1.42-2.42,2.2-3.62,2.24,3.03,4.47-.39,6.99-.42-1.67-1.11-3.34-2.23-5.67-3.78h8.45c-1.83-1.22-2.86-1.9-3.9-2.6.92-1,1.7-1.85,2.77-3.01-2.59.52-4.66.93-6.72,1.35-.09-.3-.17-.6-.26-.9-1.27,1.91-2.55,3.83-4.28,6.43-1.02-6.09,3.76-8.55,4.75-13.15-1.4.9-2.8,1.8-4.2,2.69-.62-2.39-1.24-4.77-1.86-7.14-.44.07-.87.15-1.31.22v9.16c-1.89-1.56-3.27-2.69-5.39-4.44,1.21,5.16,6.88,7.85,4.16,13.8-1.05-2.93-1.88-5.23-3.01-8.37-1.56,5.4-4.19.48-6.66,1.78.95,1.42,2.13,2.61,2.59,4.05.39,1.21-.07,2.69-.15,3.94,1.22.56,2.51,1.15,3.81,1.74-.18.35-.36.7-.54,1.06-1.26-.25-2.51-.5-4.7-.94,1.31,1.8,2.08,2.86,3,4.11-4.43,3.81-7.17-2.72-11.78-1.77,1.24,1.5,2.19,2.65,3.08,3.73-.71.4-1.59.9-2.31,1.31,1.86,1.53,3.53,2.91,5.39,4.45-1.93.71-3.2,1.18-4.47,1.64.04.45.09.89.13,1.34,3.36.22,6.73.45,9.99.67-.31.47-.81,1.23-1.53,2.35,1.53-.17,3.44-.56,3.5-.36,1.43,4.43,3.1.3,4.86.17.27.92.55,1.89,1.18,4.04-6.19-.98-11.44-1.81-16.73-2.64.46.61.85,1.11,1.64,2.14-1.34-.44-2.02-.79-2.73-.87-3.2-.33-5.9-5.94-9.63-.94-.09.12-.49-.01-.74.03-1.3.24-2.6.5-3.9.75-.03.4-.05.81-.08,1.21,2.61.48,5.22.96,7.98,1.47-.57.61-1.25,1.35-2.72,2.92,2.44-.32,3.82-.5,5.04-.67.76,1.02,1.49,2,2.2,2.95,1.8-.68,3.51-1.33,5.91-2.24-1.16,1.45-1.8,2.25-3.03,3.79,6.29-1.15,12.03-.94,16.61-5.11-1,1.56-2.22,2.94-3.66,4.02-4.43,3.3-9.02,5.85-14.67.91.07,1.55.1,2.19.1,2.3-3.96.32-7.81.63-11.76.96,1.4,5.66,7.26,5.49,10.59,9.11h-7.82c.5,1.66.9,3.01,1.48,4.96-1.51-.72-2.7-1.28-3.81-1.81.02-.1.04-.19.06-.29-2.24-1.28-4.49-2.57-6.92-3.96,1.97-1.59,3.86-3.11,5.75-4.63-.16-.36-.31-.73-.47-1.09-3.42,1.22-6.84,2.45-10.49,3.75-.09-.72-.23-1.8-.5-3.93-3.15,4.3-5.78,7.9-8.41,11.5-.19-.76-.29-1.48-.36-2.17,1.72-1.81,3.58-3.51,1.17-6.32,2.14-4.4,6.52-7.65,8.67-12.19-4.64-1.41-6.3,1.89-8.53,5.14-3.39-4.26,1.06-11.1-5.49-13.67-.28,5.16-.56,10.32-.88,16.2-3-2.48-5.58-4.61-8.16-6.73-.43.28-.87.57-1.3.85,1.18,1.99,2.13,4.17,3.59,5.93.5.6.95,1.15,1.37,1.68-1.19.29-2.39.56-3.59.82-4.3.92-7.2-.87-8.6-5.2,2.86.28,5.54.53,9.13.88-1.96-2.22-3.18-3.59-4.48-5.06,2.17-.44,4.1-.83,6.02-1.23-.03-.27-.06-.53-.09-.8-.61-.28-1.23-.57-1.86-.86,1.21-1.12,2.39-2.2,3.91-3.61-11.42,1.54-21.95,2.47-32.21-1.1,1.44-1.54,2.49-2.66,3.71-3.96,4.49,4.59,8.79-.06,13.36-.56.3-.41.61-.83.91-1.24-2.17-1.4-4.33-2.79-6.5-4.19.29-.3.58-.6.86-.9,2.37.34,4.72.73,7.1,1.01,1.71.2,3.58.85,3.53-2.28-.01-.93,1.83-2.12,3.04-2.78,1.22-.66,2.71-.8,4.26-1.21-.45-.52-.73-.85-.82-.94,1.67-1.45,3.09-2.68,4.67-4.05-6.46-4.32-12.52-6.74-19.65-4.09,1.28-1.4,2.57-2.8,4.43-4.83-2.46.76-3.94,1.22-5.71,1.77.52-1.59.87-2.67,1.22-3.74-5.32,3.75-10.57,5.99-17.2,4.63-9.49-1.94-12.19-3.72-12.9-8.97,3.71.87,7.81,1.83,11.83,2.77.61-1.5,1-2.46,1.4-3.45,2.18,1.08,4.07,2.02,6.33,3.14.15-1.31.24-2.18.39-3.55h12.76c-.72-1.74-1.13-2.74-1.52-3.7,1.47-.82,2.73-1.53,4.28-2.4-.94-.69-1.52-1.11-2.04-1.49,3.36-2.39,6.49-4.62,10.04-7.16-4.27-1.29-7.77-2.36-11.31-3.43-.07-.72-.17-1.62-.23-2.2-4.68,1.11-9.1,2.16-13.41,3.18.69-2.57,1.18-4.44,1.95-7.33-14.12,8.4-24.27.61-34.78-5.39.11-.49.23-.98.34-1.46,3.9.95,7.79,1.91,11.64,2.85.12-.8.3-1.98.48-3.12,3,.16,5.03,5.95,7.73,1.78,2.17.89,4.33,2.65,5.96,2.25,2.63-.64,5.06-2.6,4.18-6.35,1.96.38,3.52.69,5.01.98v-7.38c2.12.7,4.75,1.58,7.38,2.45l.76-.59c-1.82-2.7-.98-3.8,1.64-4.52,1.88-.52,3.54-1.85,5.29-2.82-.13-.31-.26-.62-.39-.93h-9.01c.59-1.2.97-1.98,1.86-3.78-3.55,2-6.12,3.45-8.34,4.71-.97-1.32-1.65-2.24-2.37-3.21.39-.77.86-1.67,1.86-3.61-6.02,3.35-9.8,9.4-17.08,6.25-5.49-2.38-11.74-3.33-14.39-9.86,1.76.17,3.35.74,4.53,1.77,2.14,1.89,3.54,1.95,4.01-1.28,2.57,1.69,4.17,4.72,7.76,3.48,0-.83-.07-1.46.02-2.06.18-1.2.45-2.39.68-3.58,1.17.54,2.34,1.07,3.5,1.61,2.03.93,4.06,1.87,6.09,2.8.24-.37.48-.75.71-1.12-1.65-1.81-3.31-3.62-4.96-5.43.14-.12.29-.24.43-.36,3.02,1.42,6.05,2.84,9.07,4.25.19-.3.38-.6.57-.9-.57-.81-1.13-1.62-1.91-2.74,2.14-.81,3.87-1.47,5.77-2.18-.51-.76-.94-1.4-1.61-2.41,1.83,0,3.35.36,4.57-.1,1.21-.46,2.11-1.73,3.15-2.65-1.17-.54-2.29-1.25-3.52-1.57-1.44-.38-3.82.1-4.31-.71-1.9-3.11-4.06-1.56-6.18-.87-2.02.66-3.98,1.51-5.81,2.22-1.02-1.97-1.92-3.73-2.86-5.53-1.38.33-2.72.65-4.15.99-.3-1.08-.56-2.06-.91-3.34-5.29,3.98-10.22,8.23-16.79,3.75.69-1.22,1.39-2.46,2.04-3.6-3.87-1.03-7.98-1.09-10.58-3.1-2.76-2.15-3.99-6.17-3.03-10.54q3.78,9.44,6.08,10.71c.74-1.62,1.46-3.2,2.28-5,1.49,3.42,3.14,6.01,7.45,5.4-.36-1.54-.61-2.61-.86-3.69.88-.67,1.74-1.33,2.23-1.7,2.58,2.64,5.03,5.16,7.72,7.92,1.33-2.63,2.24-4.41,3.19-6.3,3.39,2.83,9.66,1.5,13.08-2.86-5.1-2.48-10.04-4.89-14.81-7.21.08-1.07.56-2.93.17-3.13-1.12-.59-2.62-.77-3.91-.61-1.06.13-1.99,1.09-3.06,1.45-1.13.38-2.35.48-4.11.81,1.56-2.36,5.73-1.71,3.86-4.94,2.08-1.2,3.94-2.27,5.79-3.33-.08-.35-.16-.7-.24-1.06-2.99-.62-5.98-1.24-8.98-1.85.63-5.67,3.72-2.99,5.31-2.41,3.03-2.08,5.52-3.79,8.79-6.04-2.78-1.16-5.16-2.16-7.7-3.23,2.45-2.71,4.53-5.01,7.02-7.78-2.84-.51-4.87-.87-6.91-1.23.79-2.64,4.21-4.25,2.62-8.28-2.71,2.29-4.98,4.2-7.24,6.09-1.1-1.02-2.08-1.93-3.42-3.18-4.48,7-6.35,15.8-15.68,18.87-.5-5.26-1.06-10.22-1.4-15.19-.24-3.58,1.76-4.95,5.1-4.69.07,1.25.13,2.32.19,3.43,3.5-1.09,6.68-2.09,10.92-3.41-3.64-2.58-6.66-4.73-9.63-6.83,3.94-1.49,8.41,2.27,12.49-1.18-2.25-1.37-4.25-2.58-6.45-3.91,1.9-1.79,3.69-3.47,5.47-5.15-.21-.37-.42-.73-.63-1.1-3.16,1.4-6.33,2.79-9.48,4.18-.15-1.08-.29-2.1-.45-3.21-4.61,2.26-2.97,9.2-8.37,10.4-1.53-9.03,6.29-13.89,9.55-21.01-4.94-1.76-5.65,2.92-8.48,5.18-1.55-5.25.23-10.96-3.86-14.94h-.76v17.41c-.31.18-.63.36-.94.54-2.08-2.58-4.16-5.17-6.23-7.75-1.77,4.45.46,6.85,2.46,9.13,3.16,3.61,4.05,7.79,3.83,12.35-.04.8-.44,1.58-1.6,2.48-.89-3.05-1.67-6.15-2.74-9.14-.49-1.37-1.57-2.53-2.38-3.79-.76,1.15-1.53,2.31-2.45,3.69-2.01-1-4.35-2.15-6.69-3.31-.42.38-.83.77-1.25,1.15,1.3,2.24,2.48,4.56,3.95,6.69,1.38,2.01,3.46,3.75-.09,5.69-.41.22-.57,1.86-.19,2.32.52.63,1.68,1.1,2.51,1.02,1.04-.11,2.01-.84,3.3-1.43v5.76c-2.26-.96-4.26-1.81-6.27-2.66-.36.34-.72.67-1.08,1.01,1.53,2.2,3.06,4.41,4.57,6.58-3.57,4.67-7.16,1.95-10.89-.62-2.04-1.41-4.33-2.45-6.76-3.8-2.01,4.71,2.09,5.81,4.01,8.01-1.67.71-3.28,1.39-4.8,2.03,3.3,2.79,6.26,5.29,9.79,8.28-2.53.66-4.3.91-5.86,1.61-.91.41-1.48,1.56-2.21,2.37,1.11.65,2.34,1.99,3.29,1.81,2.59-.5,4.86-.93,7.02,1.21.45.45,2.03-.09,3.03-.39,1.19-.35,2.31-.93,3.82-.75-1.1,1.28-2.21,2.57-3.31,3.85.14.36.27.71.41,1.07,1.78-.29,3.57-.58,5.21-.85.35.97.81,2.27,1.28,3.57,2.2-1,4.41-2,6.81-3.09.3.85.91,2.6,1.53,4.37-9.78,4.43-18.28.32-26.77-3.8-.2.53-.41,1.05-.61,1.58,1.25,1.17,2.5,2.34,3.75,3.51-.12.29-.25.58-.37.87-3.63-1.75-7.27-3.45-10.86-5.26-1-.51-1.75-1.58-2.77-1.96-1.18-.44-2.55-.41-3.83-.58-.1,1.14-.2,2.28-.32,3.71-3.15.53-6.56,1.11-10.04,1.71,1.58,3.68,2.49,3.99,12.95,4.78-.05.2-.05.43-.15.6-.82,1.38-1.65,2.75-2.48,4.12,1.82-.26,3.81-.17,5.43-.89,1.92-.85,3.54-2.4,5.95-3.26-5.05,2.4-5.06,5.38-1.41,9.15,3.62-1.7,7.47-3.5,11.33-5.31.11.12.23.24.34.36-1.38,1.14-2.88,2.17-4.11,3.46-.83.87-1.27,2.1-1.88,3.17,1.28-.06,2.56-.06,3.83-.23.45-.06.84-.52,1.56-1.01.24,1.16.44,2.12.65,3.12.34-.15.67-.19.78-.37,2.38-3.79,6.56-3.87,10.21-4.59,4.08-.8,6.87-2.61,8.14-6.6.36.15.72.29,1.08.44-.69,1.61-.93,3.83-2.14,4.73-5.07,3.74-10.39,7.15-15.73,10.49-.69.43-2.14,0-3.08-.4-3-1.3-5.93-2.78-9.77-4.62.63,2.14,1.01,3.47,1.5,5.14-3.12-.87-6.22-1.74-9.55-2.67-.32,3.58-2.45,3.83-5.33,2.82-2.46-.86-4.53-.58-5.32,2.78.96.37,1.92.74,3,1.16-.45.88-.89,1.74-1.19,2.32,2.63,1.34,5.08,2.59,8.02,4.1.07.37.23,1.29.39,2.16q7.31,1.29,5.85,3.79h-11.26c.94,2.88,1.78,5.47,2.61,8.06-.4.2-.8.4-1.2.61-2.76-1.68-5.52-3.36-9.2-5.6.6,2.48.88,3.63,1.28,5.27-3.73-.44-7.05-.83-10.36-1.23-.19.4-.39.79-.58,1.19,2.43,1.38,4.86,2.77,7.74,4.41-.04.37-.16,1.38-.21,1.83,4.16,1.95,8.03,3.77,11.9,5.59-.13.39-.26.78-.38,1.17.95-.79,1.89-1.59,2.77-2.32,4.32,4.55,8.58,9.03,13,13.7-7.54,2.68-15.13,6.1-23.19-.45-.34,2.03-.53,3.2-.7,4.2-2.9,2.75-6.92-2.87-9.47,1.21,2.01,2.31,3.9,4.48,5.79,6.66-.22.23-.44.46-.65.69,1.11.13,2.22.26,3.27.39,1.08,4.64,1.84,4.96,6.74,2.86-1.28,5.95,3.56,2.87,5.78,3.77-2.77,3.38-9,4.22-13.09,2.01-1.56-.84-3.44-3.1-4.52.64-.1.33-1.59.36-2.43.36-1.58,0-3.15-.14-4.73-.23-.1.34-.2.67-.3,1.01.86.51,1.73,1.01,2.58,1.54.96.6,2.59,1.11,2.72,1.87.79,4.4,3.5,3.84,6.47,2.73.64,2.35,6.69,7.91,8.43,7.3,1.79-.63,3.25-2.29,4.74-3.63,3.2-2.87,4.82-3.01,8.11-.09-2.02.2-3.65.37-5.99.6.78,2.17,1.46,4.08,2.13,5.91-7.32,4.67-15.6,6.51-24.31,6.82-.58.02-1.54.3-1.67.68-1.88,5.64-7.04,3.61-12.19,5.17,3.64,1.94,6.42,3.43,9.36,5-.03.63,0,1.8-.22,2.91-.06.3-1.07.77-1.24.64-3.14-2.47-6.24-.2-9.34-.02-.72.04-1.45,0-2.8,0,1.39-1.3,2.35-2.2,4.05-3.79-2.29.35-3.63.55-5.39.82.56-1.21.94-2.04,1.83-3.97-5.94,3.38-10.87,6.42-17.35,4.93-5.79-1.33-12.04-1.04-14.1-7.79,3.93.76,8.08,1.56,12.45,2.41.31-1.29.54-2.21.8-3.3,2.24.98,4.39,1.91,6.88,2.99.17-1.22.28-2.02.42-3h13.36c-1.07-1.61-1.59-2.38-2.25-3.37,1.43-.65,2.65-1.2,4.09-1.85-.48-.74-.85-1.3-1.22-1.86,3.12-1.91,6.2-3.78,9.8-5.98-4.19-1.16-7.66-2.12-11.38-3.15.04-.22.15-.89.33-1.94-4.78.94-9.45,1.86-14.08,2.78.62-2.27,1.07-3.92,1.79-6.55-13.8,7.9-24.38.67-35.31-4.45.07-.41.14-.83.21-1.24,3.79.67,7.59,1.33,11.83,2.08.15-.4.53-1.38.91-2.36,2.62-.36,5.03,5.3,7.95.32,1.11,2.89,3.87,3.69,6.28,2.86,1.69-.58,5.37-1.23,3.05-5.29,2.18.27,3.76.46,5.55.68v-6.75c.98.51,2.15,1.37,3.47,1.74,1.37.39,2.86.3,4.48.44-.25-1.32-.4-2.14-.55-2.94,2.6-1.11,5.1-2.17,7.6-3.24-.04-.3-.09-.6-.13-.89h-8.75c.45-1.33.71-2.09,1.18-3.46-3.04,1.48-5.7,2.78-8.33,4.06-.48-.91-.94-1.78-1.75-3.32.02-.05.42-.88,1.16-2.43-5.72,2.51-9.9,7.79-16.69,5.17-5.45-2.1-11.5-2.83-15.35-7.82.15-.39.3-.79.45-1.18,1.54.61,3.16,1.06,4.59,1.86,1.93,1.09,3.62,2.07,4.24-.92,2.25,1.25,4.48,2.49,6.83,3.79.43-.98.69-1.31.7-1.64.19-5.23.33-5.24,4.99-2.61,1.75.99,3.86,1.35,5.81,1.99.17-.32.34-.65.51-.97-1.61-1.49-3.22-2.99-4.84-4.48.07-.15.14-.3.22-.45,3.08,1.18,6.16,2.35,9.24,3.53l.38-.73c-.42-.68-.85-1.36-1.44-2.3,1.93-.69,3.65-1.31,5.45-1.95-.57-.74-1.05-1.35-1.41-1.83,2.85-.5,5.52-.97,8.18-1.44l-.03-1.5c-1.23-.43-2.43-1.01-3.7-1.25-2.07-.38-4.59.83-5.91-2.06-.15-.34-1.93-.16-2.86.12-2.65.79-5.26,1.75-8.12,2.73-1.14-3.32-2.69-6.09-6.98-3.97-.25-1.09-.47-2-.76-3.24-5.45,3.47-10.58,7.41-17.21,3.47.63-1.08,1.22-2.1,2-3.44-2.82-.96-6.13-.13-8.77-.94,1.63-2.59,2.53-4.02,3.47-5.5,1.54,2.99,3.62,5.1,7.6,4.22-.36-1.13-.69-2.16-1.03-3.21.97-.45,1.93-.9,2.43-1.13,2.71,2.32,5.18,4.44,7.83,6.72,1.27-2.3,2.09-3.78,2.97-5.38,5.09,3.74,8.87-.05,13.04-1.14.12-.46.25-.92.37-1.38-4.97-2.17-9.94-4.35-15.13-6.61.29-.57.68-1.36,1.07-2.15-.14-.41-.27-.82-.41-1.22-3.6.7-7.19,1.4-11.11,2.16,1.59-1.44,2.89-2.61,4.19-3.79-.17-.2-.35-.4-.52-.6,1.89-.88,3.78-1.75,5.68-2.63l-.12-.92c-3-.62-6-1.23-9.43-1.94.58-1.27,1.08-2.34,1.64-3.55,1.7.63,3.09,1.15,3.98,1.49,2.8-1.68,5.27-3.17,8.7-5.24-2.71-1.05-4.84-1.88-7.7-2.99,2.09-2.31,4.04-4.46,6.16-6.81-1.46-.26-3.55-.62-5.89-1.03,1.19-1.85,2.42-3.77,3.98-6.2-4.54-.85-5.85,3.36-9,4.24-.81-.72-1.72-1.53-3.11-2.76-4.85,5.98-6.97,14.51-16.19,16.58-.12-1.36-.2-2.65-.37-3.94-.3-2.35-.49-4.74-1-7.05-.87-3.92.49-5.85,4.89-6.54.31,1.05.62,2.11.94,3.16,1-.42,1.97-.92,3-1.25.98-.31,2-.49,3.02-.64,1.16-.17,2.33-.24,3.49-.35.15-.44.29-.87.44-1.31-2.96-1.84-5.92-3.67-9.15-5.68h12.54c.06-.29.12-.57.17-.86-2.06-1.18-4.12-2.36-6.35-3.63,1.81-1.46,3.54-2.85,5.27-4.25l-.43-1c-3.14,1.12-6.27,2.24-9.63,3.44-.08-.66-.21-1.65-.45-3.6-2.89,3.95-5.31,7.25-7.72,10.55-2.25-8.96,5.65-12.58,8.7-18.98-4.26-1.3-5.78,1.74-7.83,4.72-3.11-3.91.97-10.19-5.03-12.54-.26,4.74-.51,9.47-.8,14.87-2.76-2.27-5.12-4.23-7.49-6.18l-1.19.78c1.09,1.82,1.95,3.83,3.3,5.44,4.94,5.93,5.46,7.32,3.63,14.34-1.63-3.96-3.27-7.92-4.9-11.88-.4.08-.8.15-1.2.23-.55,1.19-1.09,2.38-1.65,3.6-2.48-1.01-4.96-2.02-7.44-3.03-.32.45-.64.89-.96,1.34,2.1,2.86,4.2,5.72,6.02,8.21-.83,1.64-1.56,3.08-2.29,4.53,1.79.15,3.59.29,5.91.48.09.64.3,2.07.62,4.29-2.77-.98-4.91-1.74-7.25-2.57-.92,3.97,2.8,4.78,4.29,6.96-6.3,1.99-6.28,1.96-12.59-1.37-1.83-.96-3.8-1.65-5.99-2.59-1.47,4.32,2.42,4.86,4.08,6.87-1.63.68-3.15,1.31-4.73,1.97,3.32,2.33,6.31,4.43,9.95,7-3.45,1.02-5.95,1.76-8.45,2.49-.02.54-.05,1.08-.07,1.61,1.6.36,3.19.84,4.81,1.02.96.11,2.06-.59,2.94-.35,1.63.46,3.13,1.88,4.7,1.89,1.55.02,3.12-1.2,5.18-1.21-1.02,1.07-2.04,2.15-3.06,3.22.08.34.17.68.25,1.02,1.78-.21,3.56-.41,5.67-.66.11.75.27,1.9.51,3.67,2.49-1.15,4.73-2.18,7.39-3.4.37.86,1.02,2.34,2.12,4.85-5.45.19-10.17.5-14.89.49-4.66-.02-8.03-5.04-14.29-3.81,1.99,1.58,3.18,2.53,4.38,3.48-.12.29-.24.58-.36.87-3.92-1.72-7.85-3.42-11.75-5.19-.79-.36-1.42-1.18-2.23-1.4-1.13-.31-2.46-.55-3.5-.21-.41.13-.3,1.9-.45,3.15-3.19.48-6.64,1-10.76,1.62,4.3,4.8,9.44,3.46,14.34,3.81-1.48,1.4-2.69,2.55-4.23,4.01,5.57,3.4,8.01-3.66,12.98-2.99-1.95,1.2-3.4,2.08-5.05,3.09,1.01,1.7,1.94,3.26,2.94,4.92,4.09-1.72,8.07-3.38,12.04-5.05.09.12.17.25.26.37-2.3,1.72-4.6,3.44-6.89,5.17.12.38.25.76.37,1.14,1.8-.23,3.59-.46,5.67-.72.11.38.35,1.24.74,2.62,3.35-4.32,8.05-4.02,12.29-5.21,2.87-.81,5.33-3.07,8.08-4.75-1.67,6.49-8.5,7.47-13.11,10.98-6.45,4.9-11.56-.81-18.01-1.9.66,1.57,1.09,2.61,1.71,4.07-3.36-.74-6.53-1.44-9.86-2.18-1.01,3.71-3.84,2.6-6.22,2.04-2.49-.58-3.84.1-4.52,2.83,1.02.29,1.92.55,2.9.83-.41.71-.82,1.42-.99,1.71,3.09,1.72,6.05,3.36,9.01,5-.12.09-.25.18-.37.28,1.87.53,3.8.92,5.56,1.7.38.17.16,1.71.22,2.61-.76-.02-1.52-.02-2.28-.07-3.15-.21-6.31-.43-9.5-.64,1.11,2.77,1.99,4.94,2.86,7.11-.38.29-.76.57-1.14.85-2.87-1.49-5.75-2.98-9.26-4.8.4,1.87.62,2.91.94,4.42-3.64-.33-6.99-.63-10.34-.93l-.48,1.12c2.51,1.2,5.03,2.41,7.83,3.75-.05.47-.15,1.35-.17,1.61,4.29,1.79,8.17,3.42,12.69,5.3,0,0,.9-.67,1.81-1.35,4.32,3.95,8.63,7.89,13.19,12.05-7.76,2.56-15.48,4.92-23.79-.28.32,4.91-2.09,4.68-5.04,4.05-1.67-.35-3.47-.06-5.83-.06,2.64,2.63,4.48,4.46,6.31,6.29-.22.28-.43.56-.65.84,1.1.11,2.21.23,3.58.37.36,4.62,3.13,4.19,6.65,2.46-.51,5.85,3.86,2.36,6.02,3.34-2.68,3.1-8.56,3.82-13.06,1.85-1.52-.67-2.89-2.6-4.94.28-.89,1.25-4.72.42-8.37.59,1.77,1.02,2.64,1.54,3.53,2.02.88.48,2.45.79,2.58,1.41.88,4.3,3.98,3.28,6.75,2.96,1.61,3.84,5.03,5.39,8.46,5.95,1.53.25,3.57-1.98,5.25-3.25,2.52-1.92,4.96-2.76,8.35.24-2.38.22-4.02.37-6.28.58.69,1.87,1.3,3.51,1.85,4.96-7.68,4.65-16.16,5.54-24.69,6.27-.5.04-1.37-.03-1.45.19-2.11,5.44-7.3,3.21-11.06,4.5-.08.03-.11.19-.51.97,2.83,1.17,5.62,2.31,8.69,3.58-.29.73-.68,1.69-.85,2.12,1.19.87,2.16,1.92,3.36,2.36,1.18.42,2.61.41,3.89.24,2.56-.35,5.15-1.1,5.48,3.44,1.54-1.44,2.52-2.35,3.74-3.49.54,3.2,3.08,3.53,5.22,2.93,2.13-.59,3.94-2.3,6.05-3.61.07.13.63,1.15,1.34,2.45,1.11-1.04,2.15-2.01,3.38-3.16.42,1.11.73,1.94,1.29,3.45,1.2-1.81,2.04-3.08,2.56-3.87,2.33.27,4.21.49,7.15.84-7.46,5.04-15.12,6.55-23.11,7.22q1.15,2.18,8.69,4.56c-1.55.4-3.07,1.05-4.64,1.16-10.88.81-21.78,1.44-32.65,2.31-3.18.25-6.31,1.1-9.72,2.56,2.46.88,4.91,1.77,7.78,2.8-1.85,1.3-3.56,2.52-5.58,3.94,3.13.63,6.09.53,8.22,1.82,3.1,1.88,5.09.34,7.75-.82-.65,1.07-1.29,2.15-2.14,3.55.86.17,1.65.59,2.15.37,2.35-1.07,4.57-2.37,6.1,1.17.13.3,1.86.19,2.68-.14,1.5-.61,2.87-1.54,4.57-2.49-.13,1.62-.24,3.01-.42,5.38,2.57-1.06,4.54-1.87,6.78-2.79-.05.87-.09,1.69-.14,2.43,5.02.83,10.03,1.66,15.04,2.5.01.38.03.76.04,1.14-11.18,3.28-22.14,8.46-35.25,2.41,1.16,1.79,1.69,2.6,2.51,3.87-7.44-.97-14.5-1.89-21.56-2.81-.11.24-.22.48-.34.72,3.45,1.57,6.89,3.14,10.25,4.67-1.24.21-2.79.48-4.34.74-.05.45-.1.9-.14,1.36,2.25.56,4.49,1.11,7.11,1.76-.65.92-1.24,1.74-1.71,2.4,5.62,2.01,12.52-.6,17.35,5.16.69-.49,1.56-1.11,2.98-2.11-.7,1.79-1.17,3-2.04,5.23,3.36-1.05,5.91-1.85,8.66-2.71-.08,2.63-1.77,3.77-3.97,4.67-8.54,3.47-17.17,4.89-26.19,1.77-1.58-.55-4.36-1.45-3.47,2.58-3.65-.59-7.22-1.17-11.87-1.92,1.51,2.07,2.41,3.3,3.31,4.53-3.86-.3-7.73-.61-11.6-.91-1.71-.52-3.38-1.02-5.05-1.53-.09-.86-.2-1.92-.27-2.6-5.53,1.31-10.76,2.55-15.85,3.75.81-3.04,1.4-5.24,2.31-8.66-16.69,9.92-28.69.72-41.1-6.38.13-.58.27-1.15.4-1.73,4.61,1.13,9.21,2.25,13.76,3.37.14-.94.36-2.34.56-3.69,3.54.19,5.95,7.03,9.13,2.1,2.57,1.06,5.12,3.14,7.04,2.66,3.11-.76,5.98-3.07,4.94-7.5,2.32.45,4.16.82,5.92,1.16v-8.72c2.51.83,5.62,1.87,8.72,2.9.3-.23.6-.47.9-.7-2.15-3.19-1.16-4.5,1.94-5.35,2.22-.61,4.18-2.19,6.25-3.34-.15-.37-.31-.73-.46-1.1h-10.65c.7-1.42,1.15-2.34,2.2-4.46-4.19,2.37-7.23,4.08-9.86,5.57-1.15-1.56-1.95-2.65-2.8-3.8.47-.91,1.02-1.98,2.19-4.26-7.11,3.95-11.58,11.11-20.19,7.38-6.49-2.81-13.87-3.93-17.01-11.66,2.08.2,3.96.87,5.35,2.09,2.53,2.23,4.18,2.3,4.74-1.51,3.03,1.99,4.93,5.57,9.17,4.11,0-.98-.09-1.72.02-2.44.21-1.42.53-2.82.81-4.23,1.38.63,2.76,1.27,4.14,1.9,2.4,1.1,4.8,2.21,7.2,3.31.28-.44.56-.89.84-1.33-1.95-2.14-3.91-4.28-5.86-6.42.17-.14.34-.28.51-.42,3.57,1.68,7.15,3.35,10.72,5.03.23-.35.45-.71.68-1.06-.67-.96-1.34-1.92-2.26-3.24,2.53-.96,4.58-1.73,6.81-2.58-.6-.9-1.11-1.65-1.91-2.85,2.16,0,3.96.42,5.4-.12,1.43-.54,2.5-2.05,3.72-3.13-1.38-.63-2.71-1.47-4.16-1.85-1.7-.45-4.52.11-5.09-.83-2.24-3.68-4.79-1.85-7.31-1.02-2.39.78-4.7,1.79-6.87,2.63-1.2-2.33-2.27-4.4-3.37-6.54-1.63.39-3.22.77-4.91,1.17-.35-1.28-.66-2.43-1.08-3.95-6.26,4.7-12.08,9.73-19.85,4.43.82-1.45,1.64-2.91,2.41-4.26-4.58-1.22-9.44-1.29-12.5-3.67-.17-.13-.32-.3-.48-.44.11,2.15.23,4.31.34,6.46-.58.04-1.17.08-1.75.12v-8.15c-1.89-2.67-2.58-6.42-1.7-10.44q4.47,11.16,7.19,12.65c.87-1.91,1.72-3.78,2.7-5.91,1.76,4.05,3.71,7.1,8.81,6.39-.42-1.82-.72-3.09-1.02-4.36,1.04-.79,2.05-1.57,2.63-2.01,3.05,3.13,5.94,6.1,9.12,9.36,1.57-3.11,2.64-5.22,3.77-7.44,4.01,3.34,11.42,1.77,15.45-3.39-6.02-2.93-11.87-5.77-17.51-8.52.09-1.27.66-3.46.2-3.7-1.32-.7-3.09-.9-4.62-.72-1.25.15-2.35,1.29-3.61,1.71-1.34.45-2.78.57-4.86.96,1.85-2.79,6.77-2.02,4.56-5.84,2.46-1.41,4.65-2.68,6.85-3.94-.1-.42-.19-.83-.29-1.25-3.54-.73-7.07-1.46-10.62-2.19.75-6.7,4.4-3.53,6.27-2.85,3.58-2.46,6.52-4.48,10.38-7.14-3.29-1.38-6.1-2.56-9.1-3.81,2.9-3.21,5.35-5.93,8.3-9.19-3.36-.6-5.76-1.03-8.16-1.45.94-3.12,4.98-5.03,3.09-9.79-3.21,2.7-5.89,4.96-8.55,7.2-1.3-1.2-2.45-2.28-4.05-3.76-4.19,6.54-6.47,14.4-12.68,19.21,2.95-.57,4.67-3.12,6.95-4.84.87-.65,1.83-1.18,2.74-1.76.37.59.74,1.18,1.11,1.77-4.98,3.28-9.97,6.56-15.52,10.22-.29-.93-.48-1.78-.56-2.51-.2.07-.37.16-.58.22-.59-6.22-1.26-12.08-1.65-17.96-.29-4.23,2.08-5.85,6.02-5.54.08,1.47.15,2.75.22,4.05,4.14-1.29,7.9-2.47,12.91-4.04-4.3-3.05-7.87-5.58-11.38-8.08,4.65-1.76,9.93,2.68,14.76-1.39-2.66-1.61-5.03-3.05-7.62-4.62,2.25-2.12,4.36-4.1,6.47-6.09l-.74-1.3c-3.74,1.65-7.48,3.3-11.21,4.94-.18-1.28-.35-2.48-.53-3.79-5.45,2.67-3.51,10.87-9.89,12.29-1.81-10.67,7.43-16.42,11.29-24.83-5.83-2.08-6.68,3.45-10.02,6.12-1.83-6.2.27-12.95-4.57-17.66h-.9v20.57c-.37.21-.74.43-1.11.64-2.46-3.05-4.91-6.1-7.37-9.16-2.09,5.26.54,8.09,2.91,10.8,3.73,4.26,4.78,9.2,4.52,14.6-.02.52-.2,1.04-.57,1.58.44,1.81.35,3.73-.29,5.74-2.06-4.58-3.95-8.79-6.15-13.67,1.24.78,2.27,1.62,3.17,2.51-.4-1.35-.82-2.7-1.29-4.03-.58-1.62-1.85-3-2.81-4.48-.9,1.36-1.81,2.73-2.89,4.37-2.38-1.18-5.15-2.55-7.91-3.92-.49.45-.98.91-1.47,1.36,1.54,2.65,2.93,5.39,4.67,7.91,1.63,2.37,4.09,4.43-.11,6.73-.48.26-.67,2.2-.23,2.74.61.74,1.99,1.3,2.96,1.2,1.23-.13,2.38-.99,3.9-1.7v4.85c4.02,1.89,8.04,3.81,8.54,10.4-3.93-3.52-7.08-6.34-10.24-9.16,0,0,0,0,0,0-2-.85-3.85-1.64-5.71-2.43l-1.27,1.19c1.81,2.61,3.62,5.21,5.4,7.77-4.22,5.51-8.46,2.31-12.87-.74-2.41-1.66-5.11-2.9-7.99-4.5-2.38,5.57,2.47,6.86,4.74,9.46-1.98.84-3.88,1.64-5.67,2.4,3.91,3.3,7.4,6.25,11.57,9.78-2.99.78-5.08,1.07-6.93,1.9-1.07.48-1.75,1.84-2.61,2.81,1.31.76,2.77,2.35,3.89,2.13,3.07-.59,5.74-1.1,8.3,1.44.53.53,2.4-.11,3.58-.46,1.41-.42,2.73-1.1,4.52-.88-1.3,1.52-2.61,3.03-3.91,4.55l.48,1.27c2.11-.34,4.22-.69,6.15-1,.41,1.14.96,2.68,1.52,4.22,2.6-1.18,5.21-2.37,8.04-3.66.35,1.01,1.08,3.08,1.81,5.16-11.56,5.24-21.6.37-31.64-4.49-.24.62-.48,1.25-.72,1.87,1.48,1.38,2.96,2.77,4.44,4.15-.15.34-.29.69-.44,1.03-4.29-2.06-8.6-4.08-12.84-6.22-1.18-.6-2.07-1.87-3.28-2.32-1.4-.52-3.01-.48-4.53-.69-.12,1.34-.23,2.69-.38,4.39-3.73.63-7.75,1.32-11.87,2.02,1.87,4.35,2.94,4.72,15.3,5.65-.06.24-.06.51-.18.71-.96,1.63-1.95,3.25-2.93,4.87,2.16-.31,4.5-.2,6.42-1.05,2.27-1.01,4.18-2.84,7.03-3.85-5.96,2.83-5.98,6.35-1.66,10.81,4.28-2,8.83-4.14,13.39-6.27.14.14.27.28.41.42-1.64,1.35-3.41,2.57-4.86,4.09-.98,1.03-1.5,2.48-2.23,3.75,1.51-.07,3.03-.07,4.52-.27.53-.07.99-.62,1.85-1.19.28,1.37.52,2.51.77,3.69.4-.18.79-.23.92-.44,2.81-4.48,7.75-4.58,12.06-5.42,4.82-.95,8.12-3.08,9.62-7.8.42.17.85.34,1.27.52-.81,1.91-1.1,4.53-2.53,5.59-5.99,4.42-12.28,8.45-18.59,12.4-.81.51-2.53,0-3.64-.47-3.55-1.54-7.01-3.29-11.55-5.46.74,2.53,1.2,4.1,1.77,6.08-3.68-1.03-7.35-2.06-11.29-3.16-.38,4.23-2.9,4.53-6.3,3.33-2.91-1.02-5.35-.69-6.29,3.28,1.14.44,2.27.88,3.55,1.37-.53,1.03-1.05,2.05-1.4,2.74,3.1,1.59,6,3.07,9.48,4.84.08.44.28,1.52.46,2.55q8.64,1.53,6.91,4.48h-13.31c1.11,3.41,2.1,6.46,3.09,9.52-.47.24-.95.48-1.42.72-3.26-1.99-6.53-3.97-10.88-6.61.71,2.93,1.04,4.29,1.51,6.22-4.41-.52-8.33-.99-12.24-1.45-.23.47-.46.93-.69,1.4,2.87,1.64,5.75,3.27,9.15,5.21-.05.43-.19,1.63-.25,2.16,4.91,2.31,9.49,4.46,14.07,6.6-.15.46-.3.93-.45,1.39,1.12-.94,2.24-1.88,3.27-2.75,5.1,5.38,10.14,10.68,15.37,16.19-8.91,3.17-17.88,7.21-27.41-.53-.4,2.4-.63,3.78-.83,4.96-3.43,3.25-8.17-3.39-11.19,1.43,2.38,2.73,4.61,5.3,6.85,7.87-.26.27-.52.54-.77.82,1.31.16,2.62.31,3.86.46,1.27,5.48,2.18,5.87,7.97,3.38-1.51,7.03,4.2,3.4,6.84,4.46-3.28,3.99-10.64,4.98-15.47,2.38-1.84-.99-4.07-3.67-5.34.76-.11.39-1.88.43-2.88.42-1.86,0-3.72-.17-5.59-.27-.12.4-.24.8-.35,1.19,1.02.6,2.05,1.19,3.05,1.82,1.13.71,3.06,1.31,3.22,2.21.93,5.2,4.14,4.54,7.64,3.22.76,2.77,7.91,9.35,9.96,8.62,2.11-.74,3.84-2.71,5.6-4.29,3.78-3.4,5.7-3.56,9.59-.11-2.38.24-4.32.44-7.08.71.92,2.56,1.73,4.82,2.51,6.99-8.65,5.52-18.43,7.7-28.73,8.06-.69.02-1.82.35-1.97.8-2.22,6.67-8.31,4.26-14.41,6.1,4.3,2.29,7.59,4.05,11.06,5.9-.04.69-.02,1.92-.21,3.15.87-.27,1.74-.56,2.5-.88-.37-.46-.79-.99-1.37-1.71,3.41-.04,6.67-.27,5.33-5.28,3.09.25,7.18-2.56,7.31,4.33l1.41-.38c1.43-1.54,2.24-2.41,2.56-2.75.82.38,1.67.91,2.49,1.4l10.45-2.79c.3-.23.61-.45.92-.66.03.06.09.19.18.36l5.2-1.39s.07-.07.1-.11c0,.03.02.05.03.08.49,1.51.85,2.65,1.52,4.72h.04c1.33-2.55,2.22-4.27,2.77-5.33,2.73.28,4.96.5,8.35.85-1,.84-2.01,1.61-3.04,2.31l100.61-26.9c.56-1.71.95-2.92,1.34-4.12-6.29,4.43-12.49,7.08-20.32,5.47-11.21-2.3-14.41-4.39-15.25-10.6,4.39,1.03,9.23,2.16,13.98,3.27.72-1.77,1.18-2.9,1.66-4.07,2.57,1.28,4.81,2.39,7.48,3.71.17-1.55.29-2.57.47-4.19h15.08c-.85-2.06-1.33-3.24-1.8-4.37,1.73-.97,3.23-1.81,5.05-2.83-1.11-.81-1.8-1.31-2.41-1.76,3.37-2.4,6.56-4.68,10.01-7.14,1.37.37,2.75.74,4.12,1.11-1.12,1.19-2.53,2.69-4.09,4.34,3.08,2.1,5.86,3.94,8.57,5.86,1.77,1.25,3.31,1.18,5.15-.02.74-.48,2.55-.43,3.08.13.74.78,1.16,2.37.92,3.42-.15.64-1.78,1.14-2.81,1.33-3.85.71-7.74,1.27-12.17,1.98,3.04,3.72,6.5,2.46,10.1,2.22-.71-.23-1.4-.46-2.16-.7l14.46-3.87c-1.6-.29-3.21-.61-4.85-.98,1.41-1.02,2.82-2.03,4.33-3.12.88.83,2.11,1.99,3.51,3.3l.96-.26c.92-.98,1.84-1.95,2.85-3.02.94.5,1.87.99,2.83,1.5l134.95-36.08,1.88.5,244.44,65.4c.28-.35.55-.61.81-.78.25.39.57.81.92,1.25l11.23,3c.54-.5,1.07-1.01,1.6-1.49,3.48-3.13,5.25-3.28,8.84-.1-2.2.22-3.98.4-6.52.66.27.76.53,1.48.79,2.19l92.49,24.74c1.02-1.09,1.9-2.03,2.88-3.08,4.89,5,9.58-.07,14.56-.61.33-.45.66-.9.99-1.35-2.36-1.52-4.72-3.04-7.08-4.57.31-.33.63-.65.94-.98,2.58.37,5.15.8,7.73,1.1,1.86.22,3.9.93,3.85-2.48-.01-1.02,1.99-2.31,3.32-3.03,1.33-.72,2.96-.87,4.65-1.32-.49-.57-.8-.92-.89-1.02,1.82-1.58,3.37-2.92,5.09-4.42-7.04-4.71-13.65-7.34-21.42-4.45Zm-79.26-141.93c.44-.42.87-.84,1.31-1.26,3.79,1.79,7.66,3.5,8.14,9.71-3.62-3.24-6.53-5.85-9.44-8.45Zm-237.28-156.63c.4-.39.8-.77,1.2-1.16,3.48,1.64,7.03,3.21,7.47,8.91-3.32-2.98-5.99-5.36-8.66-7.75Zm8.35-4.31c-1.74-3.88-3.35-7.44-5.2-11.56,4.81,3.04,6.63,7.06,5.2,11.56Zm-149.06,46.26c5.06-.47,8.05,1.94,8.84,6.54-3.26-2.41-6.05-4.47-8.84-6.54Zm8.51-3.88c-1.73-3.4-3.36-6.61-5.13-10.11,4.88,2.53,6.59,5.9,5.13,10.11Zm-191.94,90.78c.47-.46.94-.91,1.42-1.37,4.11,1.94,8.31,3.79,8.82,10.53-3.93-3.52-7.08-6.34-10.24-9.16Zm9.87-5.1c-2.06-4.58-3.95-8.79-6.15-13.67,5.69,3.59,7.83,8.34,6.15,13.67Zm-13.8,83.44c-4.78.92-9.62,2-14.45,2.06-3.86.05-4.22-3.34-4.04-7.56,4.82,3.77,9.43,7.64,13.79,1.67,1.58.93,2.7,2.09,3.83,2.1,1.09.01,2.19-1.16,3.29-1.81.27.4.53.8.8,1.2-1.07.81-2.04,2.11-3.22,2.34Zm0-10.95c-4.78.92-9.62,2-14.45,2.06-3.86.05-4.22-3.34-4.04-7.56,4.82,3.77,9.43,7.64,13.79,1.67,1.58.93,2.7,2.09,3.83,2.1,1.09.01,2.19-1.16,3.29-1.81.27.4.53.8.8,1.2-1.07.81-2.04,2.11-3.22,2.34Zm25.79-52.45c4.72.87,6.67-2.68,9.56-4.85.87-.65,1.83-1.18,2.74-1.76.37.59.74,1.18,1.11,1.77-4.98,3.28-9.97,6.56-15.52,10.22-1.12-3.55-.84-5.91,2.1-5.37Zm.04,48.35v-10.3c.4-.03.8-.06,1.2-.08.18,3.42.36,6.85.55,10.27-.58.04-1.17.08-1.75.12Zm157.84-91.88c-3.82.67-7.68,1.18-11.54,1.54-3.42.32-4.06-1.94-4.15-5.52,4.32,2.41,8.34,5.49,12.61.34,1.57,5.44,3.91,0,6.15,1.74-1.11.72-2.02,1.72-3.08,1.9Zm0-10.95c-3.82.67-7.68,1.18-11.54,1.54-3.42.32-4.06-1.94-4.15-5.52,4.32,2.41,8.34,5.49,12.61.34,1.57,5.44,3.91,0,6.15,1.74-1.11.72-2.02,1.72-3.08,1.9Zm23.46-.33c-.3.02-.61.05-.91.07v-7.72c.3,0,.61-.02.91-.03v7.68Zm0-13.2v2.25c-.3.02-.61.05-.91.07v-4.09c-.89-2.14-1.39-4.46-1.58-6.85.52,1.07,1.04,2.16,1.58,3.26v-.05c.3,0,.61-.02.91-.03v1.95c.8,1.66,1.66,3.44,2.63,5.45-1.01-.34-1.9-.94-2.63-1.98Zm-.57-11.91c-1.07-2.21-1.62-4.67-1.86-7.19-.42-.41-.84-.82-1.26-1.24.72-.83,1.49-2.41,2.15-2.36,4.04.28,6.87-1.56,9.38-4.41.37-.41,1.36-.27,2.06-.39.19.39.39.77.58,1.16-4.25,2.4-8.51,4.79-12.76,7.19,1.48,3.06,2.98,6.17,4.92,10.18-1.29-.43-2.4-1.26-3.21-2.93Zm57.33,117.48c-5.67-.69-11.34-1.38-17.32-2.11,1.54-1.65,2.52-2.7,3.64-3.89,4.3,1.53,9.1,3.24,13.9,4.95l-.22,1.05Zm2.42,8.49c3.8-2.94,8.18,4.05,11.65-1.68,1.16,1.77,2.01,3.06,3.23,4.93-5.65.37-11.08,2.56-14.89-3.25Zm10.44,36.85c4.81-1.35,8.88-3.68,13.27-.68-4.02,3.84-7.77,4.14-13.27.68Zm5.35-24.87c4.23,2.71,6.06-.13,7.88-1.92.85-.84.4-2.99.54-4.55l-1.16-.4c1.45-1.12,2.91-2.24,4.8-3.71-.21,1.52-.35,2.52-.55,3.9,2.73.16,5.21.31,8.05.48,1.93.62,4.35,1.4,6.64,2.15-3.36,4.67-22.19,8.57-26.2,4.06Zm12.15-36.25c1.48,4.33,5.57,3.17,8.47,4.21l.19,1.14c-3.13.58-6.24,1.44-9.4,1.7-8.46.68-16.96.87-25.39,1.74-4.34.45-5.97-2.95-8.76-5.01,1.99.14,3.99.22,5.98.45,2.34.27,4.46,1.2,5.37-2.58.32-1.35,3.97-1.89,6.32-2.9-.31-.39-.67-.84-1.16-1.45,2.89-.03,5.65-.23,4.51-4.46,2.75.23,6.45-2.44,6.18,4.63,1.98-2.12,3.02-3.24,3.36-3.62,1.89.87,3.9,2.66,5.38,2.29,2.29-.56,4.21-2.59,6.35-4.03.11.22.71,1.4,1.37,2.72,1.12-1.26,2.09-2.35,3.27-3.68.42,1.32.73,2.28,1.32,4.09,1.13-2.18,1.9-3.64,2.37-4.54,2.31.23,4.19.43,7.07.72-6.89,5.82-14.57,7.35-22.79,8.58Zm30.49-99.29c-4.04.78-8.14,1.69-12.22,1.75-3.27.04-3.57-2.83-3.42-6.4,4.07,3.19,7.98,6.46,11.66,1.41,1.34.78,2.28,1.77,3.24,1.78.92.01,1.86-.98,2.78-1.53.22.34.45.68.67,1.02-.9.68-1.73,1.79-2.73,1.98Zm21.82-53.65c4,.73,5.65-2.27,8.09-4.11.73-.55,1.55-1,2.32-1.49.31.5.63,1,.94,1.49-4.22,2.78-8.43,5.55-13.13,8.65-.95-3.01-.71-5,1.78-4.54Zm.03,40.91v-8.72c.34-.02.68-.05,1.02-.07.15,2.9.31,5.79.46,8.69-.49.03-.99.06-1.48.1Zm74.87,128.47c-.02.09-.03.18-.05.27-.1-.13-.19-.24-.3-.38.13.04.23.07.35.11Zm-.45,9.79c-1,.01-2-.02-2.99-.13-.76-1.5-1.53-3.01-2.32-4.58,2.6,1.35,4.37,2.92,5.31,4.71Zm-7.44-2.5c.05.34.13.89.24,1.63-1.92-.47-3.81-1.14-5.62-2.07,1.62.13,3.3.27,5.38.44Zm-4.47-4.42c-.62,1.22-1.21,2.39-1.78,3.52-1.05-.59-2.07-1.28-3.04-2.07,1.77-.53,3.33-1.01,4.83-1.45Zm-16.31,53.6c1.37-.57,2.74-1.15,4.1-1.72.88.13,1.76.25,2.64.38-1.39,1.04-2.78,2.08-4.16,3.12-.87-.56-1.72-1.18-2.57-1.79Zm5.07,3.03c1.16-.15,2.36-.3,3.67-.47.1.34.29,1.04.59,2.09-1.42-.56-2.83-1.11-4.26-1.62Zm12.38,3.5c-.4.3-.79.56-1.18.79-2.1-.76-4.19-1.58-6.28-2.41,2.62-3.02,5.92-3.72,9.23-4.35,1.91.3,3.82.59,5.77.89.08-1.22.12-1.89.16-2.52.86.05,1.55,1.09,2.29,1.76-3.03,2.23-6.94,3.54-9.97,5.85Zm9.64-36.87c.45-.16.91-.3,1.36-.41.18.54.32,1.11.42,1.73-.61-.45-1.2-.88-1.78-1.32Zm9.59-.28s0-.09-.01-.13c.1.02.21.03.31.05-.1.03-.2.06-.3.08Zm-.21-2.39c-.02-.19-.04-.38-.06-.57,2.48-.16,4.63-.29,7.19-.45-1.51,1.26-3.26,2.3-5.4,2.98-.5-.57-1.06-1.2-1.73-1.97Zm11.73,5.37c.52.34,1.05.68,1.58,1.02-1.7.96-3.41,1.92-5.11,2.88-.85-.19-1.71-.34-2.57-.45,2.38-.47,4.33-1.71,6.1-3.45Zm-7.47,24.46c-.34-.42-.58-.71-.58-.71.07-.02.13-.05.2-.07.13.26.25.52.38.78Zm.06,15.55c-.2-.83-.17-1.41,0-1.84v1.84Zm1.16-10.39c-.69-.53-1.29-1.27-1.79-2.3-.17-.34-.29-.71-.44-1.06.48-.3.97-.59,1.47-.84.62,1.28,1.28,2.64,1.98,4.1-.41.03-.82.07-1.23.1Zm2.57-.21c1.34-2.12,2.18-3.46,3.06-4.85.99,1.93,2.2,3.49,3.9,4.28-2.32.19-4.64.38-6.96.57Zm-.5-36.15c-2.04-1.16-3.51-2-5.23-2.99,6.19-.67,12.83-5.42,13.75-10.26-4.44,1-8.58,1.94-13.15,2.97v-2.97c-1.28.09-2.54.22-3.8.36.81-1.27,2.4-2.06,4.93-2.45.34,1.15.68,2.29,1.02,3.44,1.09-.46,2.15-1.01,3.27-1.36,1.06-.34,2.18-.54,3.29-.7,1.26-.18,2.53-.26,3.8-.38.16-.47.32-.95.48-1.42-3.22-2-6.45-4-9.98-6.19h11.6c-1.41,1.77-4.2-.72-5.59.79,3.56,3.65,8.63,5.01,13.08,7.32-1.18,1.03-2.29,2.13-3.78,2.55-.88-.78-1.87-1.66-3.39-3.01-3.67,4.53-5.91,10.39-10.3,14.31Zm11.63,35.23c-.31-.97-.61-1.89-.91-2.83,1.06-.49,2.11-.98,2.65-1.23.28.24.55.47.82.71-.12.04-.23.07-.34.11.29.11.56.21.84.32.96.82,1.92,1.65,2.85,2.45-1.97.16-3.94.32-5.92.49Zm7.54-44.4c.53-.83,1.08-1.69,1.65-2.58,1.23.94,2.34,2.06,3.28,3.44-1.4-.25-3.1-.54-4.93-.86Zm5.8-14.06c-.66.03-1.4-1.61-1.86-2.18h10.91c.06.31.12.62.17.93-3.07.46-6.14,1.08-9.22,1.25Zm64.23,55.22c.75.11,1.74-.11,2.78-.51.84.39,1.68.79,2.52,1.18-.14.43-.28.85-.42,1.28,1.03-.87,2.06-1.73,3.02-2.53,1.29,1.36,2.58,2.72,3.87,4.08-6.53-.11-12.79-.04-18.57-3.72,2.32-.34,4.57-.1,6.8.22Zm-11.87,38.78c2.29.23,4.58.54,6.86.83,1.12,4.58,2.07,4.85,7.23,2.63-.39,1.82-.25,2.84.2,3.43-5.78-.57-11.25-3.16-16.76-5.68.87-.79,1.7-1.29,2.47-1.22Zm22.58,11.99c.42,1.18.82,2.29,1.2,3.35-2.91,1.05-5.77,1.53-8.91.29-4.92-1.94-9.82-3.96-14.73-5.94.1-.36.19-.71.29-1.07,1.85.33,3.71.65,5.2.91.3-.4.6-.67.88-.86,1.83,2.87,6.95,7.29,8.58,6.71,1.95-.68,3.54-2.5,5.16-3.96,3.48-3.13,5.25-3.28,8.84-.1-2.2.22-3.98.4-6.52.66Zm4.81-23.21c-4.99-.79-10.09-1.6-15.2-2.4.04-.58.08-1.15.11-1.73,2.82-.21,5.65-.42,8.45-.62-.07-.16-.33-.78-.65-1.52,1.29-.08,2.47-.15,4.04-.24-.92-.78-1.46-1.24-1.57-1.33,1.23-.81,2.48-1.63,3.74-2.46,2.52,2.65,5.05,5.32,7.63,8.04-2.18.77-4.36,1.6-6.55,2.27Zm0-10.95c-4.99-.79-10.09-1.6-15.2-2.4.01-.21.03-.41.04-.62-2.46-.52-4.85-1.38-7.16-2.86,2.32-.34,4.57-.1,6.8.22.75.11,1.74-.11,2.78-.51.84.39,1.68.79,2.52,1.18-.06.17-.11.34-.17.51.24-.02.49-.04.73-.05.7-.59,1.39-1.16,2.04-1.71.21.22.42.44.63.66-.09-.21-.19-.44-.3-.69,1.29-.08,2.47-.15,4.04-.24-.92-.78-1.46-1.24-1.57-1.33,1.23-.81,2.48-1.63,3.74-2.46,2.52,2.65,5.05,5.32,7.63,8.04-2.18.77-4.36,1.6-6.55,2.27Zm20.21-23.85c-4.41.85-8.87,1.85-13.32,1.9-3.56.04-3.9-3.08-3.72-6.97,4.44,3.48,8.7,7.04,12.71,1.54,1.46.85,2.49,1.93,3.54,1.94,1,.01,2.02-1.07,3.03-1.67.24.37.49.74.73,1.11-.99.75-1.88,1.95-2.97,2.16Zm0-10.95c-4.41.85-8.87,1.85-13.32,1.9-3.56.04-3.9-3.08-3.72-6.97,4.44,3.48,8.7,7.04,12.71,1.54,1.46.85,2.49,1.93,3.54,1.94,1,.01,2.02-1.07,3.03-1.67.24.37.49.74.73,1.11-.99.75-1.88,1.95-2.97,2.16Zm23.78-47.51c4.35.8,6.15-2.47,8.82-4.47.8-.6,1.68-1.09,2.53-1.62.34.54.68,1.09,1.03,1.63-4.6,3.03-9.19,6.05-14.31,9.42-1.03-3.28-.77-5.45,1.93-4.95Zm.04,44.58v-9.5c.37-.03.74-.05,1.11-.08.17,3.16.34,6.31.5,9.47-.54.04-1.07.07-1.61.11Z"/>
    <path class="cls-1" d="m264.42,650.9c-.85.05-1.71,0-3.31,0,1.64-1.54,2.78-2.6,4.79-4.48-2.71.41-4.29.65-6.37.97.66-1.43,1.11-2.41,2.16-4.69-7.02,3.99-12.84,7.59-20.51,5.82-6.84-1.57-14.23-1.23-16.66-9.2,4.64.9,9.55,1.85,14.71,2.85.37-1.52.64-2.61.95-3.9,2.65,1.15,5.19,2.26,8.13,3.53.2-1.44.34-2.39.5-3.55h15.79c-1.27-1.9-1.88-2.81-2.66-3.99,1.69-.76,3.13-1.42,4.83-2.19-.57-.87-1-1.54-1.44-2.2,3.69-2.25,7.33-4.47,11.58-7.06-4.96-1.37-9.05-2.5-13.45-3.72.04-.26.18-1.05.39-2.3-5.64,1.11-11.17,2.2-16.64,3.28.73-2.68,1.26-4.63,2.11-7.74-16.3,9.34-28.81.8-41.73-5.26.08-.49.17-.98.25-1.47,4.48.79,8.97,1.58,13.98,2.46.18-.47.63-1.63,1.08-2.79,3.09-.43,5.94,6.27,9.4.38,1.31,3.41,4.58,4.36,7.43,3.38,2-.69,6.35-1.45,3.61-6.25,2.57.31,4.44.54,6.56.8v-7.98c1.16.6,2.55,1.62,4.1,2.05,1.61.45,3.38.35,5.3.51-.29-1.56-.48-2.53-.65-3.48,3.07-1.31,6.03-2.57,8.98-3.83-.05-.35-.1-.7-.16-1.06h-10.35c.53-1.57.84-2.47,1.39-4.09-3.59,1.75-6.73,3.28-9.85,4.8-.57-1.08-1.11-2.1-2.07-3.93.03-.06.5-1.04,1.37-2.87-6.76,2.97-11.7,9.2-19.73,6.11-6.44-2.49-13.59-3.34-18.14-9.24.18-.47.35-.93.53-1.4,1.82.72,3.74,1.25,5.42,2.2,2.28,1.29,4.28,2.44,5.01-1.09,2.66,1.48,5.29,2.94,8.07,4.48.51-1.16.82-1.54.83-1.94.22-6.19.4-6.19,5.89-3.09,2.07,1.17,4.56,1.59,6.86,2.35.2-.38.4-.76.61-1.14-1.91-1.76-3.81-3.53-5.72-5.29.09-.18.17-.35.26-.53,3.64,1.39,7.28,2.78,10.92,4.17.15-.29.3-.58.44-.87-.5-.8-1-1.6-1.7-2.71,2.28-.82,4.31-1.54,6.45-2.31-.68-.88-1.24-1.6-1.67-2.16,3.36-.59,6.52-1.15,9.67-1.7,0-.59-.02-1.18-.03-1.77-1.46-.5-2.88-1.2-4.38-1.47-2.45-.45-5.43.98-6.99-2.43-.18-.4-2.29-.18-3.38.14-3.14.93-6.21,2.07-9.59,3.23-1.34-3.92-3.18-7.2-8.25-4.7-.3-1.28-.55-2.36-.9-3.82-6.45,4.1-12.51,8.75-20.34,4.1.74-1.27,1.44-2.48,2.36-4.06-3.33-1.14-7.25-.15-10.37-1.11,1.93-3.06,2.99-4.75,4.1-6.51,1.82,3.54,4.27,6.03,8.99,4.99-.43-1.33-.82-2.55-1.22-3.8,1.14-.53,2.29-1.06,2.88-1.34,3.2,2.74,6.12,5.25,9.26,7.94,1.5-2.72,2.47-4.47,3.51-6.36,6.02,4.42,10.48-.06,15.41-1.34l.44-1.64c-5.87-2.57-11.75-5.14-17.88-7.82.34-.68.8-1.61,1.26-2.54-.16-.48-.32-.96-.49-1.45-4.25.83-8.5,1.65-13.13,2.55,1.88-1.7,3.42-3.09,4.96-4.47-.21-.24-.41-.47-.62-.71,2.24-1.04,4.47-2.07,6.71-3.11-.05-.36-.1-.72-.14-1.08-3.55-.73-7.1-1.46-11.15-2.29.69-1.5,1.27-2.76,1.94-4.2,2,.75,3.65,1.36,4.71,1.76,3.31-1.99,6.23-3.75,10.28-6.19-3.2-1.24-5.73-2.22-9.1-3.53,2.46-2.73,4.77-5.28,7.28-8.05-1.73-.3-4.2-.73-6.96-1.21,1.4-2.19,2.86-4.45,4.7-7.33-5.36-1.01-6.91,3.97-10.64,5.02-.96-.85-2.03-1.8-3.68-3.26-3.67,4.52-6.02,10.27-10.09,14.47,1.72-.92,3.24-2.26,4.67-3.88.43-.49,1.61-.32,2.44-.46.23.46.46.91.68,1.37-5.08,2.86-10.15,5.72-15.23,8.58l-.74-.73c-.29.08-.56.17-.86.24-.15-1.6-.24-3.14-.43-4.66-.35-2.78-.58-5.6-1.19-8.33-1.03-4.64.58-6.91,5.78-7.73.37,1.24.74,2.49,1.11,3.73,1.18-.5,2.33-1.09,3.55-1.48,1.15-.37,2.37-.58,3.57-.76,1.37-.2,2.75-.28,4.12-.41.17-.51.34-1.03.52-1.54-3.5-2.17-6.99-4.34-10.82-6.71h14.82l.2-1.01c-2.43-1.39-4.87-2.78-7.5-4.29,2.14-1.72,4.18-3.37,6.23-5.02-.17-.39-.34-.79-.51-1.18-3.71,1.33-7.41,2.65-11.38,4.07-.1-.78-.25-1.95-.54-4.26-3.41,4.67-6.27,8.57-9.13,12.47-2.66-10.59,6.68-14.86,10.28-22.43-5.03-1.53-6.83,2.05-9.25,5.58-3.67-4.62,1.14-12.04-5.95-14.83-.3,5.6-.6,11.19-.95,17.57-3.26-2.69-6.05-5-8.85-7.3-.47.31-.94.62-1.41.92,1.28,2.16,2.31,4.53,3.9,6.43,4.99,5.99,6.15,8.07,5.04,13.72.67,1.79.67,3.76-.08,5.93-2.04-4.02-3.97-7.81-6.07-11.94.77.4,1.46.82,2.09,1.25-.83-2.02-1.66-4.03-2.49-6.05-.47.09-.95.18-1.42.27-.64,1.41-1.29,2.81-1.95,4.26-2.93-1.19-5.86-2.39-8.79-3.58-.38.53-.76,1.05-1.14,1.58,2.48,3.38,4.96,6.76,7.12,9.7-.98,1.93-1.85,3.64-2.71,5.35,2.12.17,4.24.35,6.99.57.08.55.23,1.61.45,3.13,2.57.14,4.57,1.05,5.99,2.62-1.36-2.67-2.71-5.33-4.14-8.14,5.73,2.96,7.75,6.91,6.1,11.83.14.47.27.95.36,1.47-2.92-2.16-5.52-4.08-8.04-5.95,0,.04.01.07.02.11-3.27-1.16-5.81-2.06-8.57-3.04-1.08,4.69,3.31,5.65,5.07,8.22-7.44,2.35-7.42,2.31-14.88-1.62-2.16-1.14-4.49-1.95-7.08-3.06-1.74,5.1,2.86,5.75,4.83,8.12-1.92.8-3.72,1.55-5.59,2.33,3.92,2.76,7.45,5.24,11.77,8.27-4.07,1.2-7.03,2.08-9.99,2.95-.03.64-.05,1.27-.08,1.91,1.89.42,3.77.99,5.69,1.21,1.13.13,2.44-.7,3.47-.41,1.92.54,3.7,2.22,5.55,2.24,1.84.02,3.69-1.42,6.12-1.42-1.21,1.27-2.41,2.54-3.62,3.81.1.4.2.81.3,1.21,2.1-.24,4.21-.49,6.7-.78.12.89.31,2.25.61,4.33,2.94-1.36,5.59-2.58,8.73-4.02.44,1.01,1.21,2.76,2.51,5.73-6.44.23-12.02.59-17.6.58-5.51-.02-9.49-5.95-16.89-4.5,2.36,1.87,3.76,2.99,5.17,4.11-.14.34-.28.69-.42,1.03-4.63-2.04-9.28-4.05-13.89-6.13-.94-.43-1.68-1.39-2.64-1.65-1.34-.36-2.9-.65-4.14-.25-.49.16-.35,2.24-.53,3.72-3.77.57-7.84,1.18-12.72,1.92,5.08,5.67,11.16,4.09,16.95,4.5-1.75,1.66-3.18,3.02-5,4.74,6.58,4.02,9.46-4.33,15.34-3.53-2.31,1.41-4.02,2.46-5.97,3.65,1.2,2.01,2.3,3.85,3.47,5.81,4.84-2.03,9.53-4,14.23-5.96.1.15.2.29.31.44-2.72,2.04-5.43,4.07-8.15,6.11.15.45.29.9.44,1.35,2.12-.27,4.24-.54,6.7-.85.13.45.42,1.47.88,3.1,3.96-5.11,9.51-4.75,14.52-6.16,3.39-.96,6.3-3.63,9.55-5.61-1.98,7.66-10.05,8.83-15.5,12.97-7.62,5.79-13.66-.96-21.28-2.24.78,1.85,1.29,3.09,2.02,4.81-3.97-.88-7.72-1.7-11.66-2.57-1.19,4.39-4.54,3.07-7.35,2.42-2.94-.69-4.54.11-5.34,3.34,1.21.34,2.27.65,3.43.98-.49.84-.97,1.68-1.17,2.02,3.65,2.03,7.15,3.97,10.65,5.91-.15.11-.29.22-.44.33,2.21.63,4.49,1.09,6.57,2.01.45.2.19,2.02.26,3.09-.9-.03-1.8-.03-2.69-.09-3.73-.24-7.46-.5-11.22-.76,1.32,3.27,2.35,5.83,3.38,8.4l-1.34,1.01c-3.4-1.76-6.79-3.52-10.95-5.67.47,2.21.73,3.44,1.11,5.22-4.31-.39-8.26-.75-12.21-1.1l-.57,1.33c2.97,1.42,5.94,2.85,9.25,4.43-.06.55-.17,1.6-.21,1.91,5.07,2.12,9.66,4.04,14.99,6.27,0,0,1.07-.8,2.14-1.6,5.11,4.67,10.2,9.32,15.58,14.24-9.18,3.02-18.29,5.81-28.12-.33.38,5.8-2.46,5.53-5.95,4.79-1.97-.42-4.11-.08-6.89-.08,3.12,3.11,5.29,5.27,7.46,7.44-.26.33-.51.66-.77,1,1.3.13,2.61.27,4.23.43.43,5.47,3.69,4.95,7.86,2.91-.61,6.91,4.56,2.79,7.12,3.95-3.17,3.67-10.12,4.51-15.43,2.19-1.8-.79-3.41-3.07-5.83.33-1.05,1.48-5.58.5-9.89.69,2.09,1.2,3.12,1.82,4.17,2.39,1.05.57,2.9.94,3.05,1.67,1.04,5.08,4.71,3.88,7.98,3.5,1.9,4.54,5.95,6.37,9.99,7.04,1.81.3,4.22-2.34,6.2-3.85,2.98-2.27,5.87-3.26,9.87.29-2.81.26-4.76.44-7.42.68.82,2.21,1.54,4.14,2.18,5.87-9.07,5.49-19.1,6.55-29.18,7.41-.59.05-1.61-.03-1.72.22-2.5,6.43-8.63,3.8-13.07,5.32-.09.03-.13.23-.61,1.15,3.35,1.38,6.64,2.73,10.27,4.23-.35.86-.8,2-1.01,2.51,1.4,1.02,2.55,2.27,3.97,2.78,1.39.5,3.09.48,4.6.28,3.02-.41,6.09-1.3,6.48,4.07,1.82-1.7,2.98-2.78,4.42-4.12.64,3.78,3.64,4.17,6.17,3.46,2.51-.7,4.66-2.71,7.15-4.27.08.15.75,1.36,1.58,2.89,1.31-1.23,2.55-2.38,4-3.73.49,1.32.86,2.29,1.52,4.08,1.41-2.14,2.41-3.65,3.03-4.57,2.75.32,4.98.58,8.45.99-8.82,5.95-17.87,7.74-27.31,8.54,1.16,2.21,1.35,2.53,6.95,4.34l106.62-28.5c.39-.41.77-.82,1.16-1.24.48.17,1,.36,1.49.53l13.68-3.66c-1.48-1.23-2.75-2.78-4.35-3.95,2.36.17,4.72.26,7.06.53,2.76.32,5.27,1.42,6.35-3.05.18-.75,1.24-1.28,2.59-1.77.1-.04.21-.07.31-.1-3.52-2.26-7,.16-10.48.37Zm-90.93-135.6c5.98-.55,9.52,2.29,10.44,7.73-3.85-2.85-7.15-5.29-10.44-7.73Zm-4.36,68.93c-4.51.79-9.07,1.4-13.64,1.82-4.05.38-4.79-2.29-4.9-6.52,5.11,2.85,9.86,6.49,14.9.4,1.86,6.43,4.62,0,7.27,2.06-1.32.85-2.39,2.03-3.63,2.25Zm0-10.95c-4.51.79-9.07,1.4-13.64,1.82-4.05.37-4.79-2.29-4.9-6.52,5.11,2.85,9.86,6.49,14.9.4,1.86,6.43,4.62,0,7.27,2.06-1.32.85-2.39,2.03-3.63,2.25Zm25.91-44.82c4.78.34,8.12-1.85,11.08-5.21.43-.49,1.61-.32,2.44-.46.23.46.46.91.68,1.37-5.08,2.86-10.15,5.72-15.23,8.58-.51-.5-1.01-.99-1.52-1.49.85-.98,1.76-2.84,2.54-2.79Zm1.82,42.44c-.36.03-.72.06-1.07.09v-9.13c.36-.01.72-.02,1.07-.03v9.07Zm0-15.6v4.65c-.36.03-.72.06-1.07.09v-6.83c-1.06-2.53-1.64-5.27-1.87-8.09.91,1.87,1.81,3.75,2.79,5.77.05,0,.1,0,.15,0v.32c.95,1.96,1.97,4.07,3.11,6.44-1.19-.4-2.25-1.11-3.11-2.33Zm-.68-12.09c-1.34-2.77-2.01-5.87-2.26-9.05,1.83,3.78,3.66,7.56,6.05,12.52-1.52-.51-2.84-1.49-3.79-3.47Z"/>
    <path class="cls-1" d="m163.81,724.64h-8.41l-13.98,3.74-.37-3.33c-10.19,3.15-20.61,5.5-32.53,0,1.37,2.11,1.99,3.07,2.96,4.57-8.79-1.15-17.14-2.23-25.49-3.32-.13.28-.27.57-.4.85,4.07,1.86,8.15,3.71,12.11,5.52-1.47.25-3.3.56-5.13.87-.06.53-.11,1.07-.17,1.6,2.66.66,5.31,1.31,8.4,2.08-.77,1.09-1.46,2.05-2.02,2.83,6.65,2.38,14.79-.71,20.5,6.09.82-.58,1.85-1.31,3.52-2.5-.83,2.12-1.39,3.55-2.42,6.18,3.97-1.24,6.98-2.19,10.23-3.2-.09,3.11-2.09,4.46-4.7,5.52-10.1,4.1-20.29,5.77-30.95,2.09-1.87-.65-5.15-1.71-4.11,3.05-4.31-.7-8.53-1.38-14.03-2.27,1.79,2.45,2.85,3.9,3.91,5.35-4.82-.38-9.66-.76-14.49-1.13-.14.74-.27,1.49-.41,2.23,4.57,1.23,9.15,2.47,13.68,3.69-1.32,1.4-2.99,3.17-4.83,5.12,3.63,2.48,6.92,4.65,10.13,6.93,2.09,1.48,3.91,1.4,6.09-.03.87-.57,3.01-.51,3.64.16.88.93,1.37,2.8,1.08,4.04-.18.75-2.1,1.34-3.32,1.57-4.56.84-9.14,1.5-14.38,2.34,4.03,4.92,8.68,2.46,13.49,2.58-2.64,1.89-4.81,3.45-7.14,5.12,4.06,1.31,7.34,2.38,10.63,3.44-.13.41-.27.81-.4,1.22,2.11-.61,4.21-1.22,6.91-2.01-.58,1.25-.9,1.94-1.23,2.64,2.88.26,5.75.51,8.61.77-.01.77-.02,1.53-.04,2.3h-34.11c-.03.44-.07.89-.1,1.33,1.66.93,3.32,1.85,4.98,2.78-.06.39-.11.78-.17,1.16-4.18.79-8.35,1.57-12.53,2.36-.02.68-.05,1.37-.07,2.05,2.67.36,5.37,1.11,8.02.96,2.89-.16,5.73-1.17,9.25-1.95-1.94,2.53-3.41,4.45-4.88,6.37l.62,1.06c2.48-.56,5.28-2.07,7.34-1.39,1.65.55,2.41,3.77,3.82,6.27,2.65-1.45,5.33-2.91,8.73-4.77-.37,2.5-.69,4.68-1.16,7.88,4.88-3.6,9.11-6.72,13.81-10.19-1.31,2.53-2.41,4.64-3.5,6.74.42.33.85.66,1.27.99,1.85-1.24,3.69-2.47,5.54-3.71.33.41.67.81,1,1.22-1.44,1.17-2.71,2.93-4.35,3.41-7.23,2.08-14.43,2.9-22.02.72-3.17-.91-7.1.81-11.09,1.39.34.89.7,1.81,1.4,3.61h-10.8c-.03.47-.06.95-.09,1.42,1.89.43,3.79.85,6.85,1.54-4.53,2.4-8.37,4.43-12.21,6.47.14.39.27.78.41,1.17,4.13-.69,8.25-1.39,12.87-2.16-1.19,1.6-2.03,2.73-3.26,4.39,2.05.24,3.54.42,5.18.62-.37,1.05-.7,1.98-1.36,3.81,2.97-1.32,5.22-2.31,7.66-3.39,2.27,4.84,5.48,1.99,8.83.54.32,4.17,2.49,3.59,5.03,2.32,2.5-1.24,5.04-3,7.8-.3-4.9,1.34-9.79,2.68-15.05,4.12q2.19,2.41,11.27.99c-2.27,2.38-4.07,4.26-5.87,6.15.11.33.22.65.33.98,4.07-1.14,8.13-2.27,12.95-3.62-1.18,2.13-2.11,3.81-3.04,5.48,1.89.85,3.6,1.63,5.99,2.71.55-.3,1.97-1.09,3.38-1.87,2.62,4.87,5.81,2.54,12.19-2,.09,1.83.17,3.53.29,5.92,2.04-1.06,3.67-1.73,5.09-2.71,1.46-1,2.72-2.3,4.42-3.76.48,1.44,1,2.48,1.16,3.58.42,2.87,1.77,2.93,4.1,1.87,1.48-.68,3.26-.7,5.15-.17,2.31-2.09,4.62-4.19,7.12-6.45,8.29,5.68,7.93-5.21,12.72-7.29v4.32c4.63-3.63,10.14-5.19,10.54-11.71,2.34,1.25,3.92,2.11,4.97,2.96.13-.46.29-.92.41-1.38v-113.74h-40.55l18.7-5.83Zm-65.08,56.72c1.66-1.2,3.33-2.4,5.12-3.69,1.14,1.07,2.76,2.6,4.59,4.33,1.34-1.42,2.6-2.76,4.05-4.29,2.38,1.26,4.69,2.49,7.51,3.98,1.16-.39,3.16-1.06,5.17-1.72.08.42.16.84.25,1.25-8.59,3.65-17.39,2.23-26.67.14Z"/>
  </g>
  <g>
    <polygon class="cls-2" points="302.62 718.3 302.62 684.13 192.94 718.3 302.62 718.3"/>
    <polygon class="cls-2" points="423.02 651.15 313.74 681.35 313.74 718.3 423.02 718.3 423.02 651.15"/>
    <polygon class="cls-2" points="432.95 718.3 544.61 718.3 544.61 619.36 432.95 651.15 432.95 718.3"/>
    <rect class="cls-2" x="192.94" y="728.24" width="109.67" height="135.5"/>
    <rect class="cls-2" x="315.33" y="728.24" width="109.67" height="135.5"/>
    <rect class="cls-2" x="434.94" y="728.24" width="109.67" height="135.5"/>
    <polygon class="cls-2" points="916.34 718.3 1026.01 718.3 916.34 684.13 916.34 718.3"/>
    <polygon class="cls-2" points="795.94 718.3 905.22 718.3 905.22 681.35 795.94 651.15 795.94 718.3"/>
    <polygon class="cls-2" points="674.35 718.3 786.01 718.3 786.01 651.15 674.35 619.36 674.35 718.3"/>
    <rect class="cls-2" x="916.34" y="728.24" width="109.67" height="135.5"/>
    <rect class="cls-2" x="793.95" y="728.24" width="109.67" height="135.5"/>
    <rect class="cls-2" x="674.35" y="728.24" width="109.67" height="135.5"/>
    <rect class="cls-2" x="554.54" y="728.24" width="109.67" height="135.5"/>
    <polygon class="cls-2" points="609.38 600.68 556.13 616.19 554.54 718.3 609.38 718.3 664.22 718.3 662.63 616.19 609.38 600.68"/>
    <path class="cls-2" d="m609.38,574.75l-463.12,123.81c.4,5.26.89,10.5,1.47,15.72l461.65-123.42,468.05,125.22c.59-5.21,1.09-10.45,1.51-15.71l-469.56-125.63Z"/>
  </g>
</svg>