<?xml version="1.0" encoding="utf-8"?>
<!-- Generator: Adobe Illustrator 28.4.1, SVG Export Plug-In . SVG Version: 6.00 Build 0)  -->
<svg version="1.1" id="Слой_1" xmlns="http://www.w3.org/2000/svg" xmlns:xlink="http://www.w3.org/1999/xlink" x="0px" y="0px"
	 viewBox="0 0 1920 1080" style="enable-background:new 0 0 1920 1080;" xml:space="preserve">
<style type="text/css">
	.st0{fill:#3C5904;}
	.st1{fill:#252D2A;}
</style>
<g>
	<g>
		<path class="st0" d="M127.66,801.06v-9.47c2.2-0.09,4.04-0.38,5.52-0.86c1.48-0.48,2.63-1.58,3.44-3.3
			c0.81-1.72,1.22-4.49,1.22-8.32v-54.92c0-2.58,0.07-5.07,0.22-7.46c0.14-2.39,0.26-4.21,0.36-5.45c-1.53,0.1-3.44,0.17-5.74,0.22
			c-2.29,0.05-3.97,0.12-5.02,0.22v-11.04h41.16v9.47c-2.1,0.1-3.92,0.38-5.45,0.86c-1.53,0.48-2.7,1.56-3.51,3.23
			c-0.81,1.67-1.22,4.47-1.22,8.39v67.54l20.36-0.29c2.1-0.19,3.89-0.5,5.38-0.93c1.48-0.43,2.63-1.51,3.44-3.23
			c0.81-1.72,1.22-4.49,1.22-8.32v-53.2c0-2.58,0.05-5.07,0.14-7.46c0.09-2.39,0.19-4.21,0.29-5.45c-1.53,0.1-3.44,0.17-5.74,0.22
			c-2.29,0.05-3.97,0.12-5.02,0.22v-11.04h41.16v9.47c-2.1,0.1-3.92,0.38-5.45,0.86c-1.53,0.48-2.7,1.56-3.51,3.23
			c-0.81,1.67-1.22,4.47-1.22,8.39v54.92c0,2.49-0.05,4.9-0.14,7.24c-0.1,2.34-0.24,4.14-0.43,5.38l20.94-0.29
			c2.1-0.09,3.89-0.36,5.38-0.79c1.48-0.43,2.63-1.53,3.44-3.3c0.81-1.77,1.22-4.56,1.22-8.39v-53.2c0-2.58,0.05-5.07,0.14-7.46
			c0.09-2.39,0.24-4.21,0.43-5.45c-1.53,0.1-3.44,0.17-5.74,0.22c-2.29,0.05-3.97,0.12-5.02,0.22v-11.04h41.16v9.47
			c-2.1,0.1-3.92,0.38-5.45,0.86c-1.53,0.48-2.7,1.56-3.51,3.23c-0.81,1.67-1.22,4.47-1.22,8.39v54.92c0,2.58-0.05,5.07-0.14,7.46
			c-0.1,2.39-0.24,4.21-0.43,5.45c1.53-0.19,3.46-0.31,5.81-0.36c2.34-0.05,3.99-0.07,4.95-0.07v11.04H127.66z"/>
		<path class="st0" d="M278.81,801.06v-9.9c2.68,0,4.83-0.76,6.45-2.29c1.62-1.53,2.99-3.54,4.09-6.02c1.1-2.49,2.17-5.16,3.23-8.03
			l27.96-76.72h10.04l30.55,78.15c0.57,1.43,1.34,3.61,2.29,6.53c0.95,2.92,1.53,5.47,1.72,7.67c1.62-0.19,3.18-0.31,4.66-0.36
			c1.48-0.05,2.7-0.07,3.66-0.07v11.04h-38.58v-9.47c2.68,0,4.52-0.55,5.52-1.65c1-1.1,1.46-2.6,1.36-4.52
			c-0.1-1.91-0.62-4.06-1.58-6.45l-2.87-7.89l-31.12,0.57l-2.29,6.74c-0.48,1.24-1.17,3.08-2.08,5.52
			c-0.91,2.44-1.75,4.47-2.51,6.09c1.53-0.19,3.37-0.31,5.52-0.36c2.15-0.05,3.7-0.07,4.66-0.07v11.47H278.81z M309.79,760.9h23.95
			l-6.6-17.92c-1.24-3.44-2.34-6.91-3.3-10.4c-0.96-3.49-1.67-6.57-2.15-9.25h-0.14c-0.38,1.63-0.96,4.06-1.72,7.31
			c-0.77,3.25-1.96,7.12-3.58,11.62L309.79,760.9z"/>
		<path class="st0" d="M379.05,801.06v-9.47c2.77-0.67,5.54-2.22,8.32-4.66c2.77-2.44,5.93-6,9.46-10.68l16.64-22.23
			c-3.82-4.88-7.65-9.75-11.47-14.63c-3.83-4.88-7.7-9.75-11.62-14.63c-1.53-2.01-2.92-4.23-4.16-6.67
			c-1.24-2.44-2.25-4.71-3.01-6.81c-1.53,0.1-2.85,0.17-3.94,0.22c-1.1,0.05-2.18,0.12-3.23,0.22v-11.04h43.59v9.47h-1.43
			c-2.96,0-5.02,0.43-6.17,1.29c-1.15,0.86-1.56,2.03-1.22,3.51c0.33,1.48,1.22,3.13,2.65,4.95c2.2,2.68,4.35,5.36,6.45,8.03
			c2.1,2.68,4.21,5.4,6.31,8.17l10.9-15.06c2.01-2.77,3.61-4.8,4.8-6.09c1.19-1.29,2.41-2.51,3.66-3.66
			c-1.53,0.1-3.44,0.17-5.74,0.22c-2.29,0.05-3.97,0.12-5.02,0.22v-11.04h32.55v9.47c-2.2,0.29-4.37,1.05-6.53,2.29
			c-2.15,1.24-4.33,2.99-6.52,5.23c-2.2,2.25-4.59,5.14-7.17,8.68l-13.77,18.79c3.06,3.83,6.07,7.65,9.03,11.47
			c2.96,3.83,5.95,7.65,8.96,11.47c3.01,3.82,6,7.65,8.96,11.47c1.62,2.01,3.11,3.92,4.45,5.74c1.34,1.82,2.34,3.54,3.01,5.16
			c1.62-0.19,2.77-0.31,3.44-0.36c0.67-0.05,1.48-0.07,2.44-0.07v11.04h-42.88v-9.47c3.54,0,5.83-0.43,6.88-1.29
			c1.05-0.86,1.31-2.03,0.79-3.51c-0.53-1.48-1.51-3.13-2.94-4.95c-2.39-3.06-4.8-6.14-7.24-9.25c-2.44-3.11-4.9-6.19-7.39-9.25
			c-2.1,2.87-4.21,5.76-6.31,8.68c-2.1,2.92-4.21,5.81-6.31,8.68c-2.01,2.68-3.54,4.69-4.59,6.02c-1.05,1.34-2.15,2.58-3.3,3.73
			c1.62-0.09,3.49-0.19,5.59-0.29c2.1-0.09,3.63-0.14,4.59-0.14v11.04H379.05z"/>
		<path class="st0" d="M529.19,803.35c-9.08,0-16.8-1.53-23.16-4.59c-6.36-3.06-11.5-7.15-15.42-12.26
			c-3.92-5.11-6.79-10.78-8.6-16.99c-1.82-6.21-2.72-12.43-2.72-18.64c0-6.02,1.03-12.12,3.08-18.28
			c2.05-6.17,5.16-11.83,9.32-16.99c4.16-5.16,9.39-9.32,15.7-12.48c6.31-3.15,13.72-4.73,22.23-4.73c8.7,0,16.2,1.58,22.51,4.73
			c6.31,3.16,11.47,7.34,15.49,12.55c4.02,5.21,7,10.88,8.96,16.99c1.96,6.12,2.94,12.19,2.94,18.21c0,5.93-1.03,11.95-3.08,18.07
			c-2.06,6.12-5.16,11.78-9.32,16.99c-4.16,5.21-9.39,9.42-15.7,12.62C545.11,801.75,537.7,803.35,529.19,803.35z M530.77,792.88
			c4.97,0,9.13-1.22,12.48-3.66c3.35-2.44,6.02-5.62,8.03-9.54c2.01-3.92,3.44-8.2,4.3-12.83c0.86-4.64,1.29-9.15,1.29-13.55
			c0-6.6-0.57-12.62-1.72-18.07c-1.15-5.45-2.92-10.16-5.31-14.13c-2.39-3.97-5.43-7.03-9.11-9.18c-3.68-2.15-8.01-3.18-12.98-3.08
			c-4.88,0.1-8.99,1.41-12.33,3.94c-3.35,2.53-6.02,5.79-8.03,9.75c-2.01,3.97-3.44,8.29-4.3,12.98c-0.86,4.69-1.29,9.23-1.29,13.62
			c0,4.5,0.5,9.28,1.51,14.34c1,5.07,2.6,9.85,4.8,14.34c2.2,4.5,5.16,8.13,8.89,10.9C520.73,791.5,525.32,792.88,530.77,792.88z"/>
		<path class="st0" d="M590,801.06v-9.47c2.2-0.09,4.04-0.38,5.52-0.86c1.48-0.48,2.63-1.58,3.44-3.3c0.81-1.72,1.22-4.49,1.22-8.32
			v-54.92c0-2.58,0.07-5.07,0.22-7.46c0.14-2.39,0.26-4.21,0.36-5.45c-1.53,0.1-3.44,0.17-5.74,0.22c-2.29,0.05-3.97,0.12-5.02,0.22
			v-11.04c6.6-0.09,13.22-0.14,19.86-0.14c6.64,0,13.26-0.05,19.86-0.14c11.47-0.09,20.58,2.03,27.32,6.38
			c6.74,4.35,9.87,10.92,9.39,19.72c-0.19,2.77-1.05,5.47-2.58,8.1c-1.53,2.63-3.8,5-6.81,7.1c-3.01,2.1-6.76,3.78-11.26,5.02v0.14
			c9.56,1.53,16.59,4.71,21.08,9.54c4.49,4.83,6.74,10.21,6.74,16.13c0,6.21-1.51,11.45-4.52,15.7c-3.01,4.26-7.15,7.46-12.4,9.61
			c-5.26,2.15-11.24,3.23-17.92,3.23H590z M620.4,790.88c1.72,0,3.35,0,4.88,0c1.53,0,3.06-0.02,4.59-0.07
			c1.53-0.05,3.01-0.07,4.45-0.07c5.83-0.29,10.09-2.15,12.76-5.59c2.68-3.44,4.02-7.79,4.02-13.05c0-4.4-0.91-7.86-2.72-10.4
			c-1.82-2.53-4.14-4.32-6.95-5.38c-2.82-1.05-5.76-1.58-8.82-1.58c-2.39,0-4.45,0-6.17,0c-1.72,0-3.54,0.05-5.45,0.14v23.37
			c0,2.58-0.05,5.02-0.14,7.31C620.73,787.86,620.59,789.63,620.4,790.88z M620.97,744.7l7.46-0.14c4.02-0.09,7.19-1,9.54-2.72
			c2.34-1.72,4.02-4.04,5.02-6.96c1-2.91,1.51-6.09,1.51-9.54c0-3.82-0.77-6.81-2.29-8.96c-1.53-2.15-3.44-3.7-5.74-4.66
			c-2.29-0.95-4.68-1.38-7.17-1.29c-1.53,0-2.92,0.24-4.16,0.72c-1.24,0.48-2.25,1.56-3.01,3.23c-0.77,1.67-1.15,4.37-1.15,8.1
			V744.7z"/>
		<path class="st0" d="M758.78,732.8c-1.24-7.93-3.9-13.91-7.96-17.93c-4.06-4.02-9.44-6.07-16.13-6.17
			c-4.97,0-9.32,1.15-13.05,3.44c-3.73,2.29-6.81,5.36-9.25,9.18c-2.44,3.83-4.25,8.17-5.45,13.05c-1.2,4.88-1.79,9.9-1.79,15.06
			c0,8.22,1.17,15.51,3.51,21.87c2.34,6.36,5.76,11.35,10.25,14.99c4.49,3.63,9.94,5.45,16.35,5.45c6.02,0,12-1.55,17.93-4.66
			c5.93-3.11,10.9-7.43,14.91-12.98l6.88,6.31c-4.68,6.41-9.61,11.26-14.77,14.56c-5.16,3.3-10.21,5.52-15.13,6.67
			c-4.92,1.15-9.35,1.72-13.27,1.72c-7.36,0-14.05-1.31-20.08-3.94c-6.02-2.63-11.21-6.26-15.56-10.9
			c-4.35-4.64-7.7-10.04-10.04-16.2c-2.34-6.17-3.51-12.83-3.51-20c0-6.5,1.05-12.95,3.15-19.36c2.1-6.4,5.23-12.21,9.39-17.42
			c4.16-5.21,9.39-9.37,15.7-12.48c6.31-3.11,13.62-4.66,21.94-4.66c3.73,0,7.82,0.6,12.26,1.79c4.45,1.2,8.63,2.94,12.55,5.23
			l-0.57-6.02h11.04v33.41H758.78z"/>
		<path class="st0" d="M783.45,801.06v-9.47c2.2-0.09,4.04-0.38,5.52-0.86c1.48-0.48,2.63-1.58,3.44-3.3
			c0.81-1.72,1.22-4.49,1.22-8.32v-54.92c0-2.58,0.07-5.07,0.22-7.46c0.14-2.39,0.26-4.21,0.36-5.45c-1.53,0.1-3.44,0.17-5.74,0.22
			c-2.29,0.05-3.97,0.12-5.02,0.22v-11.04h41.16v9.47c-2.1,0.1-3.92,0.38-5.45,0.86c-1.53,0.48-2.7,1.56-3.51,3.23
			c-0.81,1.67-1.22,4.47-1.22,8.39v21.8h10.32l11.04-18.79c1.62-2.87,3.34-5.74,5.16-8.6c1.81-2.87,3.35-4.83,4.59-5.88
			c-1.53,0.1-3.16,0.19-4.88,0.29c-1.72,0.1-3.11,0.19-4.16,0.29v-11.04h35.13v9.47c-2.1,0.1-4.37,0.48-6.81,1.15
			c-2.44,0.67-4.95,2.01-7.53,4.02c-2.58,2.01-5.21,5.16-7.89,9.47l-13.77,22.08c1.91,1.24,3.61,2.56,5.09,3.94
			c1.48,1.39,2.8,2.89,3.94,4.52l14.77,20.79c1.91,2.68,3.89,5.19,5.95,7.53c2.05,2.34,4.18,4.23,6.38,5.66
			c2.2,1.43,4.35,2.2,6.45,2.29v9.47h-22.08c-0.77-0.09-2.01-0.95-3.73-2.58c-1.72-1.62-3.54-3.59-5.45-5.88
			c-1.91-2.29-3.54-4.35-4.88-6.17l-14.2-20.65c-1.24-1.81-2.61-3.68-4.09-5.59c-1.48-1.91-2.89-3.34-4.23-4.3h-5.16v21.65
			c0,2.58-0.05,5.07-0.14,7.46c-0.1,2.39-0.24,4.21-0.43,5.45c1.53-0.19,3.46-0.31,5.81-0.36c2.34-0.05,3.99-0.07,4.95-0.07v11.04
			H783.45z"/>
		<path class="st0" d="M878.95,801.06v-9.9c2.68,0,4.83-0.76,6.45-2.29c1.62-1.53,2.99-3.54,4.09-6.02c1.1-2.49,2.17-5.16,3.23-8.03
			l27.96-76.72h10.04l30.55,78.15c0.57,1.43,1.34,3.61,2.29,6.53c0.96,2.92,1.53,5.47,1.72,7.67c1.62-0.19,3.18-0.31,4.66-0.36
			c1.48-0.05,2.7-0.07,3.66-0.07v11.04h-38.58v-9.47c2.68,0,4.52-0.55,5.52-1.65c1-1.1,1.46-2.6,1.36-4.52
			c-0.1-1.91-0.62-4.06-1.58-6.45l-2.87-7.89l-31.12,0.57l-2.3,6.74c-0.48,1.24-1.17,3.08-2.08,5.52c-0.91,2.44-1.75,4.47-2.51,6.09
			c1.53-0.19,3.37-0.31,5.52-0.36c2.15-0.05,3.7-0.07,4.66-0.07v11.47H878.95z M909.93,760.9h23.95l-6.6-17.92
			c-1.24-3.44-2.34-6.91-3.3-10.4c-0.96-3.49-1.67-6.57-2.15-9.25h-0.14c-0.38,1.63-0.96,4.06-1.72,7.31
			c-0.77,3.25-1.96,7.12-3.58,11.62L909.93,760.9z"/>
		<path class="st0" d="M978.76,801.06v-9.47c2.2-0.09,4.37-0.84,6.52-2.22c2.15-1.38,4.28-3.25,6.38-5.59
			c2.1-2.34,4.06-4.9,5.88-7.67l5.45-8.32c2.1-3.25,4.11-5.64,6.02-7.17c1.91-1.53,4.16-2.68,6.74-3.44
			c-8.32-2.49-14.53-5.95-18.64-10.4c-4.11-4.45-6.26-9.97-6.45-16.56c-0.19-6.31,1.41-11.69,4.8-16.13
			c3.39-4.45,8.22-7.86,14.48-10.25c6.26-2.39,13.55-3.54,21.87-3.44l40.73,0.29v9.47c-2.1,0.1-3.92,0.38-5.45,0.86
			c-1.53,0.48-2.7,1.56-3.51,3.23c-0.81,1.67-1.22,4.47-1.22,8.39v54.92c0,2.58-0.05,5.07-0.14,7.46c-0.1,2.39-0.24,4.21-0.43,5.45
			l10.76-0.43v11.04h-41.16v-9.47c2.2-0.09,4.04-0.38,5.52-0.86c1.48-0.48,2.63-1.58,3.44-3.3c0.81-1.72,1.22-4.49,1.22-8.32
			l0.14-17.06h-7.17c-2.1,0-4.09,0.91-5.95,2.72c-1.86,1.82-3.75,4.25-5.66,7.31l-9.18,14.34c-1.15,1.91-2.68,3.99-4.59,6.24
			c-1.91,2.25-3.75,4.18-5.52,5.81c-1.77,1.63-3.04,2.49-3.8,2.58H978.76z M1035.26,751.73c1.15,0,2.27-0.05,3.37-0.14
			c1.1-0.09,2.13-0.19,3.08-0.29v-29.68c0-1.91,0-3.8,0-5.66s0-3.7,0-5.52c-1.63,0-3.25,0-4.88,0c-1.63,0-3.25,0-4.88,0
			c-3.73,0-7.05,0.57-9.97,1.72c-2.92,1.15-5.19,3.11-6.81,5.88c-1.63,2.77-2.44,6.69-2.44,11.76c0,4.59,0.81,8.53,2.44,11.83
			c1.62,3.3,4.11,5.81,7.46,7.53C1025.99,750.87,1030.19,751.73,1035.26,751.73z"/>
		<path class="st0" d="M1164.18,778.54l-33.99-53.2c-1.34-2.2-2.58-4.71-3.73-7.53c-1.15-2.82-1.72-4.99-1.72-6.52l-7.03,0.43
			v-11.04h42.3v9.47c-2.77-0.19-5.07,0.1-6.88,0.86c-1.82,0.77-2.92,1.99-3.3,3.66c-0.38,1.67,0.19,3.85,1.72,6.53l11.9,20.65
			c1.43,2.39,3.11,5.07,5.02,8.03c1.91,2.96,3.3,5.26,4.16,6.88L1164.18,778.54z M1145.11,803.35c-3.06,0-5.93-0.6-8.6-1.79
			c-2.68-1.19-4.83-2.87-6.45-5.02c-1.63-2.15-2.44-4.61-2.44-7.39c0-2.96,0.86-5.69,2.58-8.17c1.72-2.49,4.49-3.73,8.32-3.73
			c3.25,0,5.71,0.88,7.39,2.65c1.67,1.77,2.51,3.85,2.51,6.24c0,1.05-0.17,2.1-0.5,3.15c-0.34,1.05-0.88,2.1-1.65,3.15
			c0.19,0.29,0.45,0.53,0.79,0.72c0.33,0.19,0.74,0.29,1.22,0.29c2.48,0,5.11-1.86,7.89-5.59c0.86-1.24,1.67-2.53,2.44-3.87
			c0.76-1.34,1.58-2.99,2.44-4.95c0.86-1.96,1.86-4.4,3.01-7.31c1.15-2.92,2.51-6.5,4.09-10.75c1.58-4.25,3.46-9.39,5.66-15.42
			c2.2-6.02,4.78-13.1,7.74-21.22c1.05-2.68,2.05-5.16,3.01-7.46c0.95-2.29,2.05-4.21,3.3-5.74l-11.04,0.57v-11.04h31.12v9.47
			c-2.2,0-4.11,0.36-5.74,1.08c-1.63,0.72-3.11,2.06-4.45,4.02c-1.34,1.96-2.72,4.8-4.16,8.53l-20.94,55.21
			c-2.68,6.98-5.55,12.21-8.6,15.7c-3.06,3.49-6.19,5.81-9.39,6.96C1151.44,802.78,1148.26,803.35,1145.11,803.35z"/>
		<path class="st0" d="M1292.96,732.8c-1.24-7.93-3.9-13.91-7.96-17.93c-4.06-4.02-9.44-6.07-16.13-6.17
			c-4.97,0-9.32,1.15-13.05,3.44c-3.73,2.29-6.81,5.36-9.25,9.18c-2.44,3.83-4.25,8.17-5.45,13.05c-1.2,4.88-1.79,9.9-1.79,15.06
			c0,8.22,1.17,15.51,3.51,21.87c2.34,6.36,5.76,11.35,10.25,14.99c4.49,3.63,9.94,5.45,16.35,5.45c6.02,0,12-1.55,17.93-4.66
			c5.93-3.11,10.9-7.43,14.91-12.98l6.88,6.31c-4.68,6.41-9.61,11.26-14.77,14.56c-5.16,3.3-10.21,5.52-15.13,6.67
			c-4.92,1.15-9.35,1.72-13.27,1.72c-7.36,0-14.05-1.31-20.08-3.94c-6.02-2.63-11.21-6.26-15.56-10.9
			c-4.35-4.64-7.7-10.04-10.04-16.2c-2.34-6.17-3.51-12.83-3.51-20c0-6.5,1.05-12.95,3.15-19.36c2.1-6.4,5.23-12.21,9.39-17.42
			c4.16-5.21,9.39-9.37,15.7-12.48c6.31-3.11,13.62-4.66,21.94-4.66c3.73,0,7.82,0.6,12.26,1.79c4.45,1.2,8.63,2.94,12.55,5.23
			l-0.57-6.02h11.04v33.41H1292.96z"/>
		<path class="st0" d="M1310.02,801.06v-9.9c2.68,0,4.83-0.76,6.45-2.29c1.62-1.53,2.99-3.54,4.09-6.02
			c1.1-2.49,2.17-5.16,3.23-8.03l27.96-76.72h10.04l30.55,78.15c0.57,1.43,1.34,3.61,2.29,6.53c0.96,2.92,1.53,5.47,1.72,7.67
			c1.62-0.19,3.18-0.31,4.66-0.36c1.48-0.05,2.7-0.07,3.66-0.07v11.04h-38.58v-9.47c2.68,0,4.52-0.55,5.52-1.65
			c1-1.1,1.46-2.6,1.36-4.52c-0.1-1.91-0.62-4.06-1.58-6.45l-2.87-7.89l-31.12,0.57l-2.3,6.74c-0.48,1.24-1.17,3.08-2.08,5.52
			c-0.91,2.44-1.75,4.47-2.51,6.09c1.53-0.19,3.37-0.31,5.52-0.36c2.15-0.05,3.7-0.07,4.66-0.07v11.47H1310.02z M1341,760.9h23.95
			l-6.6-17.92c-1.24-3.44-2.34-6.91-3.3-10.4c-0.96-3.49-1.67-6.57-2.15-9.25h-0.14c-0.38,1.63-0.96,4.06-1.72,7.31
			c-0.77,3.25-1.96,7.12-3.58,11.62L1341,760.9z"/>
		<path class="st0" d="M1409.11,826.58v-36.14h5.31c2.68,0,5.11-0.76,7.31-2.29c2.2-1.53,4.16-3.8,5.88-6.81
			c1.72-3.01,3.23-6.76,4.52-11.26c1.29-4.49,2.37-9.68,3.23-15.56c0.86-5.88,1.48-12.43,1.86-19.65
			c0.38-7.22,0.52-15.08,0.43-23.59l-3.58,0.14l-11.33,0.29v-11.04h80.45v9.47c-2.1,0.1-3.94,0.38-5.52,0.86
			c-1.58,0.48-2.77,1.56-3.58,3.23c-0.81,1.67-1.22,4.47-1.22,8.39v54.92c0,2.58-0.05,5.07-0.14,7.46c-0.1,2.39-0.24,4.21-0.43,5.45
			l15.2-0.57v36.71h-10.32c0.09-7.55-0.53-13.7-1.86-18.43c-1.34-4.73-3.87-7.1-7.6-7.1h-58.8c-3.73,0-6.26,2.37-7.6,7.1
			c-1.34,4.73-1.96,10.87-1.86,18.43H1409.11z M1432.78,790.45h26.67c2.2-0.19,4.25-0.5,6.17-0.93c1.91-0.43,3.49-1.51,4.73-3.23
			c1.24-1.72,1.86-4.49,1.86-8.32v-66.54l-14.05,0.43c-3.15,0.1-5.55,0.69-7.17,1.79c-1.63,1.1-2.44,3.32-2.44,6.67
			c-0.1,9.08-0.6,17.3-1.51,24.67c-0.91,7.36-2.08,13.91-3.51,19.65c-1.43,5.74-3.06,10.73-4.88,14.99
			C1436.84,783.87,1434.88,787.48,1432.78,790.45z"/>
		<path class="st0" d="M1560.4,710.14c-2.1,0.1-3.92,0.38-5.45,0.86c-1.53,0.48-2.7,1.56-3.51,3.23c-0.81,1.67-1.22,4.47-1.22,8.39
			v20.08l7.89-0.29c8.6-0.29,15.61,0.38,21.01,2.01c5.4,1.63,9.56,3.92,12.48,6.88c2.91,2.96,4.95,6.29,6.09,9.97
			c1.15,3.68,1.72,7.43,1.72,11.26c0,6.21-1.51,11.45-4.52,15.7c-3.01,4.26-7.15,7.46-12.4,9.61c-5.26,2.15-11.24,3.23-17.93,3.23
			h-45.32v-9.47c2.2-0.09,4.04-0.38,5.52-0.86c1.48-0.48,2.63-1.58,3.44-3.3c0.81-1.72,1.22-4.49,1.22-8.32v-54.92
			c0-2.58,0.07-5.07,0.22-7.46c0.14-2.39,0.26-4.21,0.36-5.45c-1.53,0.1-3.44,0.17-5.74,0.22c-2.29,0.05-3.97,0.12-5.02,0.22v-11.04
			h41.16V710.14z M1550.22,778.26c0,2.58-0.05,5.02-0.14,7.31c-0.1,2.3-0.24,4.06-0.43,5.31c1.15,0,2.32,0,3.51,0
			c1.19,0,2.37-0.02,3.51-0.07c1.15-0.05,2.29-0.07,3.44-0.07c5.83-0.29,10.06-2.17,12.69-5.66c2.63-3.49,3.94-8.05,3.94-13.7
			c0-4.78-0.79-8.51-2.37-11.19c-1.58-2.68-3.75-4.59-6.52-5.74c-2.77-1.15-5.98-1.72-9.61-1.72c-1.34,0-2.68,0-4.02,0
			c-1.34,0-2.68,0.1-4.02,0.29V778.26z"/>
		<path class="st0" d="M1677.56,728.5c0-5.26-0.91-9.2-2.72-11.83c-1.82-2.63-4.09-4.42-6.81-5.38c-2.73-0.95-5.38-1.38-7.96-1.29
			l-9.32,0.14c-2.01,0-3.73,0.26-5.16,0.79c-1.43,0.53-2.53,1.67-3.3,3.44c-0.77,1.77-1.15,4.52-1.15,8.25v20.08l8.6-0.29
			c9.37-0.29,16.94,0.34,22.73,1.86c5.78,1.53,10.23,3.71,13.34,6.52c3.11,2.82,5.21,6.05,6.31,9.68c1.1,3.64,1.65,7.46,1.65,11.47
			c0,6.31-1.51,11.64-4.52,15.99c-3.01,4.35-7.15,7.63-12.4,9.82c-5.26,2.2-11.23,3.3-17.92,3.3h-48.76v-9.47
			c2.2-0.09,4.04-0.38,5.52-0.86c1.48-0.48,2.63-1.58,3.44-3.3c0.81-1.72,1.22-4.49,1.22-8.32v-54.92c0-2.58,0.07-5.07,0.22-7.46
			c0.14-2.39,0.26-4.21,0.36-5.45c-1.53,0.1-3.44,0.17-5.74,0.22c-2.29,0.05-3.97,0.12-5.02,0.22v-11.04h76l0.72,27.82H1677.56z
			 M1641.14,778.26c0,2.58-0.05,5.02-0.14,7.31c-0.1,2.3-0.24,4.06-0.43,5.31c1.72,0,3.35,0,4.88,0c1.53,0,3.06-0.02,4.59-0.07
			c1.53-0.05,3.01-0.07,4.45-0.07c5.83-0.29,10.09-2.2,12.76-5.74c2.68-3.54,4.02-8.08,4.02-13.62c0-4.97-0.91-8.79-2.72-11.47
			c-1.82-2.68-4.14-4.54-6.95-5.59c-2.82-1.05-5.76-1.58-8.82-1.58c-2.39,0-4.45-0.02-6.17-0.07c-1.72-0.05-3.54,0.03-5.45,0.22
			V778.26z"/>
		<path class="st0" d="M1698.36,801.06v-9.9c2.68,0,4.83-0.76,6.45-2.29c1.62-1.53,2.99-3.54,4.09-6.02
			c1.1-2.49,2.17-5.16,3.23-8.03l27.96-76.72h10.04l30.55,78.15c0.57,1.43,1.34,3.61,2.29,6.53c0.96,2.92,1.53,5.47,1.72,7.67
			c1.62-0.19,3.18-0.31,4.66-0.36c1.48-0.05,2.7-0.07,3.66-0.07v11.04h-38.58v-9.47c2.68,0,4.52-0.55,5.52-1.65
			c1-1.1,1.46-2.6,1.36-4.52c-0.1-1.91-0.62-4.06-1.58-6.45l-2.87-7.89l-31.12,0.57l-2.3,6.74c-0.48,1.24-1.17,3.08-2.08,5.52
			c-0.91,2.44-1.75,4.47-2.51,6.09c1.53-0.19,3.37-0.31,5.52-0.36c2.15-0.05,3.7-0.07,4.66-0.07v11.47H1698.36z M1729.33,760.9
			h23.95l-6.6-17.92c-1.24-3.44-2.34-6.91-3.3-10.4c-0.96-3.49-1.67-6.57-2.15-9.25h-0.14c-0.38,1.63-0.96,4.06-1.72,7.31
			c-0.77,3.25-1.96,7.12-3.58,11.62L1729.33,760.9z"/>
	</g>
	<g>
		<path d="M651.47,575.68c-0.1-82.29,31.99-159.79,90.37-218.22c58.38-58.44,135.93-90.68,218.35-90.79c0.14,0,0.26,0,0.4,0
			c82.12,0,159.46,32.09,217.79,90.39c58.43,58.39,90.67,135.95,90.77,218.38c0.01,8.45-0.33,16.82-0.99,25.11l12.51,3.35
			c0.88-10.3,1.26-20.67,1.12-31.11c-1.1-86.03-35.24-166.4-96.15-226.33c-29.47-29-63.69-51.75-101.7-67.64
			c-39.16-16.37-80.65-24.69-123.31-24.74h-0.01c-44.16,0.05-86.84,8.78-126.87,25.96c-38.52,16.53-73.02,40.15-102.54,70.21
			c-29.67,30.22-52.79,65.38-68.7,104.51c-16.43,40.39-24.38,83.13-23.62,127.03c0.12,7,0.47,13.96,1.03,20.88l12.45-3.33
			C651.79,591.51,651.48,583.62,651.47,575.68z"/>
		<g>
			<path class="st0" d="M1198.87,507.89c-0.38,0-0.72,0-1.06,0l1.7,0.46c-0.06-0.1-0.12-0.19-0.17-0.25c2.47,0,4.46,0,6.45,0
				c0.03,0.18,0.07,0.37,0.1,0.55c-1.11,0.17-2.22,0.36-3.33,0.52l19.43,5.2l-0.11,1.35c2.67,1.16,5.17,1.2,7.48-1.52
				c0-0.21,0-0.94,0-1.86c2.6,2.15,3.27-0.94,4.9-1.6c-1.54,0.26-2.89-1.68-4.52-0.41c-0.16,0.13-1.07-0.7-1.83-1.22
				c-1.44,0.85-3,2.54-5.39,1.36c-1.76-0.87-4.02-0.88-5.31-3.29c2.19,0.53,3.98,0.96,5.82,1.4c0.19-0.63,0.38-1.22,0.6-1.95
				c1.24,0.57,2.33,1.07,3.42,1.57c0.07-0.12,0.14-0.24,0.21-0.36c-0.53-0.58-1.05-1.17-1.81-2.01c1.35,0.51,2.41,0.9,3.38,1.26
				c0.48-2.33,2.65-2.39,4.18-3.2c-0.05-0.23-0.1-0.45-0.15-0.68c-2.33-0.18-4.65-0.37-7.49-0.59c-1.02-1.39-2.36-1.61-4.51-0.72
				c-1.21,0.5-2.65,0.46-4.26,0.71c0.39-1.07,0.56-1.52,0.74-2.01c-4.3-0.25-5-0.85-4.73-3.65c0.48,0.74,1.09,1.69,1.71,2.63
				c0.41-0.36,0.81-0.72,1.07-0.95c0.86,0.55,1.67,1.06,2.37,1.51c0.39-0.89,0.63-1.43,0.85-1.94c1.09,0.93,1.95,1.67,2.86,2.45
				c0.48-0.75,0.79-1.23,1.1-1.72c0.06,0.18,0.12,0.35,0.19,0.53c1.49-0.33,2.97-0.67,4.46-1c-0.03-0.2-0.06-0.4-0.09-0.6
				c-1.81-1.05-3.63-2.1-5.44-3.16c0.07-0.23,0.14-0.46,0.21-0.69c-1.11,0.29-2.22,0.57-3.5,0.9c0.69-1.19,1.29-2.24,1.88-3.28
				c-0.71-0.21-1.47-0.44-2.45-0.73c2.1-0.83,3.73-1.48,5.98-2.37c-1.44-0.5-2.22-0.77-3.17-1.09c0.78-0.93,1.44-1.72,2.2-2.63
				c-0.86-0.16-1.48-0.28-2.13-0.4c0.4-0.83,0.75-1.55,1.17-2.44c-1.58,0.58-2.87,1.06-4.15,1.53c-0.11-0.19-0.22-0.39-0.33-0.58
				c-1.3,2.32-2.25,4.97-5.21,5.78c-0.26-1.47-0.69-2.86-0.67-4.23c0.01-0.72,0.84-1.43,1.3-2.14c1.32,1.79,2.64-0.23,4.13-0.25
				c-0.99-0.66-1.97-1.32-3.35-2.23c1.78,0,3.14,0,4.99,0c-1.08-0.72-1.69-1.12-2.31-1.53c0.54-0.59,1.01-1.09,1.64-1.78
				c-1.53,0.31-2.75,0.55-3.97,0.8c-0.05-0.18-0.1-0.36-0.15-0.53c-0.75,1.13-1.5,2.26-2.53,3.8c-0.6-3.6,2.22-5.05,2.81-7.77
				c-0.83,0.53-1.66,1.06-2.48,1.59c-0.37-1.41-0.73-2.82-1.1-4.22c-0.26,0.04-0.51,0.09-0.77,0.13c0,1.72,0,3.44,0,5.41
				c-1.12-0.92-1.93-1.59-3.18-2.62c0.71,3.05,4.07,4.64,2.45,8.16c-0.62-1.73-1.11-3.09-1.78-4.95c-0.92,3.19-2.48,0.28-3.94,1.05
				c0.56,0.84,1.26,1.54,1.53,2.39c0.23,0.72-0.04,1.59-0.09,2.33c0.72,0.33,1.48,0.68,2.25,1.03c-0.11,0.21-0.21,0.42-0.32,0.62
				c-0.74-0.15-1.49-0.3-2.78-0.55c0.78,1.06,1.23,1.69,1.77,2.43c-2.62,2.25-4.24-1.61-6.96-1.04c0.73,0.89,1.29,1.57,1.82,2.2
				c-0.42,0.24-0.94,0.53-1.37,0.77c1.1,0.91,2.09,1.72,3.19,2.63c-1.14,0.42-1.89,0.69-2.64,0.97c0.03,0.26,0.05,0.53,0.08,0.79
				c1.99,0.13,3.98,0.27,5.9,0.39c-0.18,0.28-0.48,0.73-0.91,1.39c0.9-0.1,2.03-0.33,2.07-0.21c0.84,2.62,1.83,0.18,2.87,0.1
				c0.16,0.55,0.33,1.12,0.7,2.39c-3.66-0.58-6.76-1.07-9.89-1.56c0.27,0.36,0.5,0.65,0.97,1.26c-0.79-0.26-1.19-0.47-1.61-0.51
				c-1.89-0.2-3.49-3.51-5.69-0.56c-0.05,0.07-0.29-0.01-0.44,0.02c-0.77,0.14-1.54,0.3-2.31,0.45c-0.02,0.24-0.03,0.48-0.05,0.72
				c1.54,0.28,3.09,0.57,4.72,0.87c-0.34,0.36-0.74,0.8-1.61,1.73c1.44-0.19,2.25-0.3,2.98-0.39c0.45,0.6,0.88,1.18,1.3,1.74
				c1.06-0.4,2.07-0.78,3.49-1.32c-0.69,0.86-1.06,1.33-1.79,2.24c3.72-0.68,7.11-0.55,9.81-3.02c-0.59,0.92-1.31,1.74-2.16,2.37
				c-2.61,1.95-5.33,3.46-8.67,0.54c0.04,0.92,0.06,1.29,0.06,1.36c-2.34,0.19-4.61,0.37-6.95,0.56
				C1193.44,505.85,1196.91,505.75,1198.87,507.89z"/>
			<path class="st0" d="M1252.86,571.97c0.01-0.15,0.02-0.3,0.04-0.46c-0.75-0.17-1.51-0.34-2.28-0.51
				c0.12-0.39,0.23-0.73,0.31-0.99c-2.2-0.76-4.77,1.07-6.71-1.31c-5.11,1.26-9.69-0.95-14.31-3.06c0.52-0.47,1-0.76,1.46-0.72
				c2.84,0.28,5.66,0.8,8.5,0.91c1.6,0.06,3.72,1.17,4.69-1.33c0.05-0.12,0.26-0.22,0.42-0.26c2.32-0.65,4.64-1.3,6.89-1.92
				c-0.57-0.82-1.04-1.52-1.56-2.27c1.03-0.45,1.82-0.79,2.22-0.96c-4.47-0.71-9.2-1.46-13.94-2.21c0.02-0.34,0.04-0.68,0.07-1.02
				c1.67-0.12,3.34-0.25,4.99-0.37c-0.04-0.09-0.2-0.46-0.39-0.9c0.76-0.05,1.46-0.09,2.39-0.14c-0.54-0.46-0.86-0.73-0.93-0.79
				c1.46-0.96,2.96-1.95,4.46-2.94c-5.23-0.5-10.27,0.51-14.79-2.37c1.37-0.2,2.7-0.06,4.02,0.13c1.51,0.22,4.65-1.74,4.84-3.02
				c0.13-0.93,0.31-1.86,0.47-2.79c-2.86-0.01-6.01,2.7-9.52-0.34c1.43,0,2.35,0,3.49,0c-0.5-0.63-0.86-1.08-0.92-1.16
				c0.65-0.73,1.22-1.39,2.18-2.47c-4.2,0-7.67,0-11.59,0c0.72-0.93,1.05-1.35,1.38-1.77c0.05,0.19,0.11,0.38,0.16,0.58
				c1.58-0.2,3.17-0.41,5.13-0.66c-0.85-0.95-1.3-1.45-1.95-2.18c1.4,0.15,2.43,0.26,2.88,0.31c1.89-1.35,3.37-2.41,4.86-3.48
				c-0.03-0.29-0.07-0.57-0.1-0.86c-2.21-0.37-4.42-0.75-6.48-1.09c0,0,0.33-0.43,0.77-1c-0.63,0.12-1.04,0.2-1.47,0.28
				c0-0.4,0-0.74,0-1.15c-4.56,2.59-9.65,1.86-10.39-0.8c1.56-0.23,3.34-0.98,4.81-0.58c2.28,0.62,4.23-0.95,5.58-0.39
				c1.72-1.94,3.1-3.49,4.38-4.93c-2.39-1.17-5-2.13-8.22-0.55c0.26-0.83,0.4-1.07,0.38-1.3c-0.02-0.33-0.16-0.64-0.27-1.08
				c-2.61,1.28-4.92,1.17-7.11,0.45c-0.22,2.66-0.47,5.28-0.76,7.8l-0.52,4.55l-11.23-3h-4.26l10.14,3.16h-21.98v5.89v3.16
				c0.04,0,0.08,0,0.11,0c0.93,0.01,1.85-0.36,2.78-0.52c0.58-0.1,1.18-0.14,1.76-0.23c1.35-0.21,2.7-0.43,4.05-0.65
				c0.07,0.28,0.14,0.56,0.21,0.85c-2.56,0.8-5.12,1.59-8.11,2.52c1.1,0.41,2.02,0.76,2.95,1.11c0.04,0.15,0.07,0.3,0.11,0.45
				c-1.29,0.11-2.58,0.21-3.87,0.32v5.2v0.58v2.58c2.08-1.26,3.96-0.72,5.87,0.58c-1.86,0-3.74,0-5.87,0v4.45v0.2v2.95
				c0.05-0.01,0.09-0.03,0.14-0.04c-0.04,0.08-0.09,0.16-0.14,0.25v30.17v2.78v3.16c0.01,0,0.02,0,0.03,0
				c0.01,0.06,0.12,0.53,0.26,1.14c0.97-0.71,1.74-1.28,2.62-1.92c0.25,0.69,0.46,1.26,0.83,2.27c2.97-1.51,5.75-2.92,8.77-4.45
				c0.53,0.41,1.73-0.4,2.95-2.7c2.31,0.88,2.31,0.88,0.17,8.47c2.84,0,5.68,0,8.44,0c-0.27-1.94-0.52-3.81-0.78-5.67
				c0.2-0.08,0.41-0.16,0.61-0.24c3.35,4.46,8.2,3.29,12.84,3.53c0.08-0.62,0.16-1.29,0.2-1.64c1.18-0.11,2.32-0.44,3.35-0.24
				c1.03,0.2,1.93,1.01,2.95,1.42c2.22,0.9,3.49-0.08,3.11-2.53c1.09,0.76,2.08,1.45,3.09,2.16c0.49-0.52,0.84-0.88,1.16-1.23
				c0.88,0.43,1.67,0.81,2.42,1.17c0.29-0.74,0.55-1.4,0.89-2.26c-0.09-0.11-0.4-0.49-0.94-1.16c1.53,0.58,2.68,1.02,4.08,1.55
				c-0.27-0.51-0.4-0.77-0.56-1.07c0.92-0.27,1.79-0.52,3.08-0.9c-3.62-0.72-6.73-1.34-10.16-2.02c1.8-0.78,3.07-1.33,4.34-1.88
				c-0.09-0.19-0.17-0.39-0.26-0.58c0.76-0.1,1.53-0.2,2.29-0.3c0.01-0.12,0.01-0.25,0.02-0.37c-0.42-0.16-0.83-0.31-1.55-0.59
				c1.42-0.72,2.6-1.33,3.69-1.88c-0.25-0.15-0.73-0.42-1.51-0.87c1.08-0.12,1.78-0.2,2.49-0.27c0.01-0.12,0.03-0.25,0.04-0.37
				c-1.26-0.22-2.52-0.45-3.78-0.67c0.03-0.13,0.06-0.25,0.09-0.38c1.49-0.53,2.99-1.06,4.48-1.58c-0.04-0.15-0.09-0.3-0.13-0.46
				c-1.48,0.21-2.97,0.41-4.69,0.65c0.55-0.73,0.92-1.21,1.63-2.15c-3.39,1.3-6.15,3.22-9.46,1.92c-2.91-1.15-5.8-2.34-8.7-3.51
				c0.06-0.21,0.11-0.42,0.17-0.63c1.1,0.19,2.19,0.39,3.07,0.54c1.39-1.81,2.41,0.44,3.37-0.03c1.05-0.49,2.11-0.97,3.14-1.45
				c0.83,0.58,1.59,1.1,2.35,1.63c0.09-0.1,0.17-0.2,0.26-0.31c-0.37-0.59-0.75-1.18-1.47-2.33c2.97-0.37,5.61-0.71,8.41-1.06
				c-0.82-0.43-1.49-0.79-2.16-1.14c0.02-0.12,0.04-0.24,0.06-0.37C1250.06,571.97,1251.46,571.97,1252.86,571.97z"/>
			<path class="st0" d="M681.83,518.75c2.01,0.4,3.91,0.34,5.27,1.16c1.99,1.21,3.26,0.22,4.97-0.53c-0.41,0.69-0.83,1.38-1.37,2.28
				c0.55,0.11,1.06,0.38,1.38,0.24c1.5-0.69,2.93-1.52,3.91,0.75c0.08,0.19,1.19,0.12,1.72-0.09c0.96-0.39,1.84-0.99,2.93-1.6
				c-0.08,1.04-0.15,1.93-0.27,3.45c1.65-0.68,2.91-1.2,4.34-1.79c-0.03,0.56-0.06,1.08-0.09,1.56c1.46,0.24,2.91,0.48,4.37,0.73
				c-0.3-2.72-0.56-5.5-0.77-8.27l-0.25-3.27l0.24-0.06l-0.16-2.06c-0.16,0.03-0.31,0.06-0.47,0.07
				c-6.97,0.52-13.95,0.92-20.92,1.48c-2.04,0.16-4.04,0.7-6.23,1.64c1.57,0.57,3.15,1.13,4.98,1.79
				C684.23,517.06,683.13,517.84,681.83,518.75z"/>
			<path class="st0" d="M1164.42,479.46c0.76-0.83,1.52-1.65,2.62-2.85c-1.45,0.45-2.33,0.72-3.37,1.05
				c0.31-0.94,0.51-1.57,0.72-2.21c-3.15,2.22-6.24,3.54-10.16,2.74c-5.6-1.15-7.2-2.19-7.62-5.3c2.19,0.51,4.61,1.08,6.99,1.64
				c0.36-0.89,0.59-1.45,0.83-2.04c1.29,0.64,2.4,1.19,3.74,1.86c0.09-0.77,0.14-1.29,0.23-2.1c2.43,0,4.87,0,7.54,0
				c-0.42-1.03-0.67-1.62-0.9-2.19c0.87-0.49,1.61-0.9,2.53-1.42c-0.56-0.41-0.9-0.66-1.2-0.88c1.98-1.41,3.83-2.73,5.93-4.23
				c-2.52-0.76-4.59-1.39-6.68-2.02c-0.04-0.43-0.1-0.96-0.13-1.3c-2.77,0.66-5.38,1.27-7.92,1.88c0.41-1.52,0.7-2.62,1.15-4.33
				c-8.34,4.96-14.34,0.36-20.55-3.19c0.07-0.29,0.13-0.58,0.2-0.86c2.3,0.56,4.6,1.13,6.88,1.68c0.07-0.47,0.18-1.17,0.28-1.84
				c1.77,0.09,2.97,3.51,4.56,1.05c1.28,0.53,2.56,1.57,3.52,1.33c1.55-0.38,2.99-1.53,2.47-3.75c1.16,0.23,2.08,0.41,2.96,0.58
				c0-1.6,0-3.02,0-4.36c1.25,0.42,2.81,0.93,4.36,1.45c0.15-0.12,0.3-0.23,0.45-0.35c-1.07-1.59-0.58-2.25,0.97-2.67
				c1.11-0.3,2.09-1.09,3.13-1.67c-0.08-0.18-0.15-0.37-0.23-0.55c-1.69,0-3.37,0-5.33,0c0.35-0.71,0.58-1.17,1.1-2.23
				c-2.1,1.18-3.61,2.04-4.93,2.78c-0.57-0.78-0.98-1.32-1.4-1.9c0.23-0.45,0.51-0.99,1.1-2.13c-3.56,1.98-5.79,5.55-10.09,3.69
				c-3.24-1.4-6.93-1.97-8.5-5.83c1.04,0.1,1.98,0.43,2.67,1.05c1.27,1.11,2.09,1.15,2.37-0.76c1.52,1,2.46,2.79,4.58,2.05
				c0-0.49-0.04-0.86,0.01-1.22c0.11-0.71,0.27-1.41,0.4-2.12c0.69,0.32,1.38,0.63,2.07,0.95c1.2,0.55,2.4,1.1,3.6,1.66
				c0.14-0.22,0.28-0.44,0.42-0.66c-0.98-1.07-1.95-2.14-2.93-3.21c0.09-0.07,0.17-0.14,0.26-0.21c1.79,0.84,3.57,1.68,5.36,2.51
				c0.11-0.18,0.23-0.35,0.34-0.53c-0.33-0.48-0.67-0.96-1.13-1.62c1.26-0.48,2.29-0.87,3.41-1.29c-0.3-0.45-0.55-0.83-0.95-1.42
				c1.08,0,1.98,0.21,2.7-0.06c0.72-0.27,1.25-1.02,1.86-1.56c-0.69-0.32-1.36-0.74-2.08-0.93c-0.85-0.22-2.26,0.06-2.55-0.42
				c-1.12-1.84-2.4-0.92-3.65-0.51c-1.19,0.39-2.35,0.89-3.43,1.31c-0.6-1.16-1.14-2.2-1.69-3.27c-0.82,0.2-1.61,0.38-2.45,0.59
				c-0.17-0.64-0.33-1.21-0.54-1.97c-3.13,2.35-6.04,4.86-9.92,2.22c0.41-0.72,0.82-1.45,1.2-2.13c-2.29-0.61-4.72-0.64-6.25-1.83
				c-1.63-1.27-2.36-3.65-1.79-6.22c2.24,5.58,2.24,5.58,3.59,6.33c0.44-0.95,0.86-1.89,1.35-2.96c0.88,2.02,1.85,3.55,4.4,3.19
				c-0.21-0.91-0.36-1.54-0.51-2.18c0.52-0.4,1.03-0.78,1.32-1.01c1.52,1.56,2.97,3.05,4.56,4.68c0.79-1.55,1.32-2.61,1.89-3.72
				c2,1.67,5.71,0.88,7.73-1.69c-3.01-1.46-5.93-2.89-8.75-4.26c0.05-0.63,0.33-1.73,0.1-1.85c-0.66-0.35-1.55-0.45-2.31-0.36
				c-0.63,0.07-1.18,0.64-1.81,0.85c-0.67,0.22-1.39,0.28-2.43,0.48c0.92-1.4,3.38-1.01,2.28-2.92c1.23-0.71,2.33-1.34,3.42-1.97
				c-0.05-0.21-0.1-0.42-0.14-0.62c-1.77-0.36-3.54-0.73-5.31-1.1c0.37-3.35,2.2-1.76,3.14-1.42c1.79-1.23,3.26-2.24,5.19-3.57
				c-1.64-0.69-3.05-1.28-4.55-1.91c1.45-1.6,2.68-2.96,4.15-4.59c-1.68-0.3-2.88-0.51-4.08-0.73c0.47-1.56,2.49-2.51,1.55-4.89
				c-1.6,1.35-2.94,2.48-4.27,3.6c-0.65-0.6-1.23-1.14-2.02-1.88c-2.65,4.13-3.75,9.33-9.26,11.15c-0.29-3.11-0.63-6.04-0.83-8.98
				c-0.14-2.12,1.04-2.92,3.01-2.77c0.04,0.74,0.08,1.37,0.11,2.03c2.07-0.65,3.95-1.23,6.45-2.02c-2.15-1.52-3.94-2.79-5.69-4.04
				c2.33-0.88,4.97,1.34,7.38-0.7c-1.33-0.81-2.51-1.52-3.81-2.31c1.12-1.06,2.18-2.05,3.23-3.04c-0.12-0.22-0.25-0.43-0.37-0.65
				c-1.87,0.82-3.74,1.65-5.6,2.47c-0.09-0.64-0.17-1.24-0.26-1.89c-2.73,1.34-1.76,5.44-4.94,6.14c-0.9-5.33,3.71-8.21,5.64-12.41
				c-2.92-1.04-3.34,1.72-5.01,3.06c-0.92-3.1,0.13-6.47-2.28-8.83c-0.15,0-0.3,0-0.45,0c0,3.43,0,6.86,0,10.28
				c-0.19,0.11-0.37,0.21-0.56,0.32c-1.23-1.53-2.45-3.05-3.68-4.58c-1.05,2.63,0.27,4.04,1.46,5.4c1.87,2.13,2.39,4.6,2.26,7.3
				c-0.01,0.24-0.08,0.47-0.23,0.72c0.12,0.79,0.07,1.62-0.2,2.48c-1.03-2.29-1.98-4.39-3.07-6.83c0.54,0.34,0.99,0.7,1.4,1.08
				c-0.14-0.46-0.29-0.92-0.46-1.38c-0.29-0.81-0.93-1.5-1.4-2.24c-0.45,0.68-0.9,1.36-1.45,2.18c-1.19-0.59-2.57-1.27-3.95-1.96
				c-0.25,0.23-0.49,0.45-0.74,0.68c0.77,1.32,1.47,2.7,2.33,3.95c0.82,1.19,2.04,2.22-0.05,3.36c-0.24,0.13-0.33,1.1-0.11,1.37
				c0.31,0.37,0.99,0.65,1.48,0.6c0.61-0.06,1.19-0.5,1.95-0.85c0,0.7,0,1.33,0,1.96c1.26,0.59,2.52,1.2,3.35,2.38
				c-0.76-1.69-1.51-3.35-2.34-5.21c2.84,1.79,3.92,4.17,3.07,6.83c0-0.01-0.01-0.02-0.01-0.03c0.09,0.37,0.16,0.77,0.2,1.22
				c-1.61-1.44-2.96-2.65-4.27-3.82c0,0.02,0,0.04,0,0.06c-1.34-0.57-2.52-1.07-3.7-1.57c-0.21,0.2-0.42,0.4-0.64,0.6
				c0.9,1.3,1.81,2.6,2.7,3.89c-2.11,2.76-4.23,1.15-6.43-0.37c-1.2-0.83-2.56-1.45-4-2.25c-1.19,2.78,1.24,3.43,2.37,4.73
				c-0.99,0.42-1.94,0.82-2.83,1.2c1.95,1.65,3.7,3.13,5.78,4.89c-1.5,0.39-2.54,0.53-3.46,0.95c-0.54,0.24-0.88,0.92-1.3,1.4
				c0.65,0.38,1.39,1.17,1.94,1.07c1.53-0.29,2.87-0.55,4.15,0.72c0.27,0.26,1.2-0.05,1.79-0.23c0.7-0.21,1.37-0.55,2.26-0.44
				c-0.65,0.76-1.3,1.52-1.95,2.28c0.08,0.21,0.16,0.42,0.24,0.63c1.05-0.17,2.11-0.34,3.08-0.5c0.21,0.57,0.48,1.34,0.76,2.11
				c1.3-0.59,2.6-1.18,4.02-1.83c0.18,0.5,0.54,1.54,0.91,2.58c-5.78,2.62-10.8,0.19-15.82-2.25c-0.12,0.31-0.24,0.62-0.36,0.93
				c0.74,0.69,1.48,1.38,2.22,2.08c-0.07,0.17-0.15,0.34-0.22,0.52c-2.14-1.03-4.3-2.04-6.42-3.11c-0.59-0.3-1.03-0.93-1.64-1.16
				c-0.7-0.26-1.5-0.24-2.26-0.34c-0.06,0.67-0.12,1.34-0.19,2.19c-1.86,0.32-3.87,0.66-5.93,1.01c0.93,2.17,1.47,2.36,7.65,2.82
				c-0.03,0.12-0.03,0.25-0.09,0.36c-0.48,0.82-0.97,1.62-1.46,2.44c1.08-0.16,2.25-0.1,3.21-0.52c1.14-0.5,2.09-1.42,3.51-1.93
				c-2.98,1.42-2.99,3.18-0.83,5.41c2.14-1,4.42-2.07,6.69-3.14c0.07,0.07,0.14,0.14,0.2,0.21c-0.82,0.67-1.7,1.28-2.43,2.05
				c-0.49,0.51-0.75,1.24-1.11,1.87c0.75-0.04,1.51-0.04,2.26-0.13c0.26-0.03,0.5-0.31,0.92-0.6c0.14,0.68,0.26,1.25,0.38,1.84
				c0.2-0.09,0.39-0.11,0.46-0.22c1.4-2.24,3.87-2.29,6.03-2.71c2.41-0.47,4.06-1.54,4.81-3.9c0.21,0.09,0.42,0.17,0.64,0.26
				c-0.41,0.95-0.55,2.27-1.27,2.8c-2.99,2.21-6.14,4.22-9.3,6.2c-0.41,0.25-1.27,0-1.82-0.24c-1.77-0.77-3.5-1.64-5.77-2.73
				c0.37,1.27,0.6,2.05,0.89,3.04c-1.84-0.52-3.67-1.03-5.64-1.58c-0.19,2.12-1.45,2.26-3.15,1.67c-1.46-0.51-2.67-0.34-3.15,1.64
				c0.57,0.22,1.14,0.44,1.78,0.68c-0.26,0.52-0.52,1.03-0.7,1.37c1.55,0.79,3,1.53,4.74,2.42c0.04,0.22,0.14,0.76,0.23,1.27
				c4.32,0.76,4.32,0.76,3.45,2.24c-2.48,0-4.64,0-6.66,0c0.55,1.7,1.05,3.23,1.54,4.76c-0.24,0.12-0.47,0.24-0.71,0.36
				c-0.9-0.55-1.81-1.1-2.81-1.71c0.23-0.26,0.47-0.53,0.76-0.86c-0.75,0-1.47,0-2.18,0c-0.39-0.24-0.78-0.48-1.21-0.74
				c0.07,0.27,0.12,0.51,0.18,0.74c-2.52,0-4.87,0-7.43,0c0.66-0.85,0.96-1.24,1.26-1.62c0.05,0.18,0.1,0.35,0.15,0.53
				c1.45-0.19,2.9-0.37,4.71-0.61c-0.78-0.88-1.19-1.33-1.79-2c1.28,0.14,2.23,0.24,2.65,0.29c1.73-1.24,3.1-2.21,4.46-3.19
				c-0.03-0.26-0.06-0.52-0.09-0.79c-2.03-0.34-4.05-0.68-5.95-1c0,0,0.3-0.39,0.71-0.92c-0.57,0.11-0.95,0.18-1.35,0.26
				c0-0.37,0-0.67,0-1.05c-4.19,2.38-8.85,1.71-9.54-0.74c1.43-0.21,3.07-0.9,4.42-0.54c2.1,0.57,3.88-0.87,5.12-0.36
				c1.58-1.78,2.84-3.2,4.02-4.53c-2.2-1.07-4.59-1.96-7.55-0.51c0.24-0.77,0.37-0.99,0.35-1.2c-0.02-0.3-0.14-0.59-0.25-0.99
				c-4.21,2.07-7.59,0.18-10.96-1.75c0.04-0.18,0.08-0.36,0.12-0.55c1.18,0.26,2.35,0.52,3.57,0.78c0.08-0.19,0.22-0.54,0.37-0.89
				c2.67,1.31,5.17,1.57,7.45-1.12c0-0.19,0-0.86,0-1.7c2.38,1.97,3-0.86,4.5-1.47c-1.41,0.23-2.66-1.54-4.15-0.37
				c-0.15,0.12-0.99-0.64-1.68-1.12c-1.32,0.78-2.75,2.33-4.94,1.25c-1.61-0.8-3.69-0.81-4.88-3.02c2.01,0.48,3.66,0.88,5.34,1.29
				c0.18-0.57,0.35-1.12,0.55-1.79c1.14,0.52,2.14,0.98,3.13,1.44c0.07-0.11,0.13-0.22,0.2-0.33c-0.48-0.54-0.97-1.07-1.66-1.84
				c1.24,0.46,2.21,0.83,3.1,1.16c0.44-2.14,2.43-2.19,3.84-2.93c-0.05-0.21-0.09-0.42-0.14-0.62c-2.13-0.17-4.27-0.34-6.87-0.54
				c-0.94-1.27-2.17-1.48-4.14-0.66c-1.11,0.46-2.43,0.42-3.91,0.65c0.36-0.98,0.51-1.39,0.68-1.84c-3.95-0.23-4.59-0.78-4.34-3.35
				c0.44,0.68,1,1.55,1.56,2.41c0.37-0.33,0.75-0.66,0.99-0.87c0.79,0.5,1.53,0.97,2.17,1.38c0.36-0.81,0.57-1.31,0.78-1.78
				c1,0.85,1.79,1.53,2.63,2.25c0.44-0.68,0.72-1.13,1.01-1.58c0.06,0.16,0.11,0.33,0.17,0.49c1.36-0.31,2.73-0.61,4.09-0.92
				c-0.03-0.18-0.06-0.36-0.09-0.55c-1.67-0.97-3.33-1.93-4.99-2.9c0.07-0.21,0.13-0.42,0.2-0.63c-1.02,0.26-2.04,0.52-3.21,0.82
				c0.63-1.1,1.18-2.06,1.73-3.01c-0.65-0.19-1.35-0.4-2.25-0.67c1.92-0.76,3.43-1.36,5.49-2.17c-1.32-0.46-2.04-0.7-2.9-1
				c0.72-0.86,1.32-1.58,2.02-2.41c-0.79-0.15-1.36-0.25-1.95-0.37c0.36-0.76,0.69-1.43,1.08-2.24c-1.45,0.54-2.63,0.97-3.81,1.4
				c-0.1-0.18-0.2-0.36-0.3-0.54c-1.19,2.12-2.06,4.56-4.78,5.3c-0.24-1.35-0.64-2.62-0.61-3.89c0.01-0.66,0.77-1.31,1.19-1.96
				c1.21,1.65,2.43-0.21,3.79-0.23c-0.9-0.6-1.81-1.21-3.07-2.05c1.64,0,2.89,0,4.58,0c-0.99-0.66-1.55-1.03-2.12-1.41
				c0.5-0.54,0.92-1,1.5-1.63c-1.4,0.28-2.52,0.51-3.64,0.73c-0.05-0.16-0.09-0.33-0.14-0.49c-0.69,1.04-1.38,2.07-2.32,3.49
				c-0.55-3.3,2.04-4.63,2.58-7.13c-0.76,0.49-1.52,0.97-2.28,1.46c-0.34-1.29-0.67-2.58-1.01-3.87c-0.24,0.04-0.47,0.08-0.71,0.12
				c0,1.58,0,3.16,0,4.96c-1.03-0.85-1.77-1.46-2.92-2.41c0.66,2.8,3.73,4.26,2.25,7.48c-0.57-1.59-1.02-2.83-1.63-4.54
				c-0.85,2.93-2.27,0.26-3.61,0.96c0.51,0.77,1.16,1.42,1.4,2.19c0.21,0.66-0.04,1.46-0.08,2.14c0.66,0.3,1.36,0.62,2.06,0.94
				c-0.1,0.19-0.2,0.38-0.29,0.57c-0.68-0.14-1.36-0.27-2.55-0.51c0.71,0.98,1.13,1.55,1.63,2.23c-2.4,2.06-3.89-1.47-6.39-0.96
				c0.67,0.81,1.19,1.44,1.67,2.02c-0.38,0.22-0.86,0.49-1.25,0.71c1.01,0.83,1.91,1.58,2.92,2.41c-1.05,0.38-1.73,0.64-2.42,0.89
				c0.02,0.24,0.05,0.48,0.07,0.73c1.82,0.12,3.65,0.24,5.41,0.36c-0.17,0.25-0.44,0.67-0.83,1.27c0.83-0.09,1.86-0.3,1.9-0.2
				c0.77,2.4,1.68,0.17,2.64,0.09c0.15,0.5,0.3,1.03,0.64,2.19c-3.35-0.53-6.2-0.98-9.07-1.43c0.25,0.33,0.46,0.6,0.89,1.16
				c-0.73-0.24-1.09-0.43-1.48-0.47c-1.74-0.18-3.2-3.22-5.22-0.51c-0.05,0.07-0.27-0.01-0.4,0.02c-0.71,0.13-1.41,0.27-2.12,0.41
				c-0.01,0.22-0.03,0.44-0.04,0.66c1.42,0.26,2.83,0.52,4.33,0.8c-0.31,0.33-0.68,0.73-1.47,1.58c1.32-0.17,2.07-0.27,2.73-0.36
				c0.41,0.55,0.81,1.08,1.19,1.6c0.97-0.37,1.9-0.72,3.2-1.21c-0.63,0.79-0.98,1.22-1.64,2.05c3.41-0.62,6.52-0.51,9-2.77
				c-0.54,0.84-1.2,1.59-1.98,2.18c-2.4,1.79-4.89,3.17-7.95,0.49c0.04,0.84,0.05,1.18,0.05,1.25c-2.15,0.17-4.23,0.34-6.38,0.52
				c0.76,3.07,3.93,2.98,5.74,4.94c-1.76,0-3.03,0-4.24,0c0.27,0.9,0.49,1.63,0.8,2.69c-0.82-0.39-1.46-0.7-2.06-0.98
				c0.01-0.05,0.02-0.1,0.03-0.16c-1.22-0.7-2.43-1.39-3.75-2.15c1.07-0.86,2.09-1.69,3.11-2.51c-0.09-0.2-0.17-0.39-0.26-0.59
				c-1.85,0.66-3.71,1.33-5.69,2.04c-0.05-0.39-0.12-0.98-0.27-2.13c-1.71,2.33-3.13,4.28-4.56,6.23c-0.1-0.41-0.16-0.8-0.19-1.18
				c0.93-0.98,1.94-1.9,0.63-3.43c1.16-2.38,3.53-4.15,4.7-6.61c-2.51-0.77-3.42,1.03-4.63,2.79c-1.84-2.31,0.57-6.02-2.97-7.41
				c-0.15,2.8-0.3,5.6-0.47,8.78c-1.63-1.34-3.03-2.5-4.42-3.65c-0.23,0.15-0.47,0.31-0.7,0.46c0.64,1.08,1.15,2.26,1.95,3.21
				c0.27,0.33,0.51,0.62,0.74,0.91c-0.65,0.15-1.3,0.3-1.95,0.44c-2.33,0.5-3.91-0.47-4.66-2.82c1.55,0.15,3,0.29,4.95,0.48
				c-1.06-1.2-1.72-1.95-2.43-2.74c1.18-0.24,2.22-0.45,3.27-0.67c-0.02-0.14-0.03-0.29-0.05-0.43c-0.33-0.15-0.67-0.31-1.01-0.47
				c0.66-0.61,1.29-1.2,2.12-1.96c-6.19,0.83-11.9,1.34-17.46-0.6c0.78-0.83,1.35-1.44,2.01-2.15c2.43,2.49,4.77-0.03,7.24-0.3
				c0.16-0.22,0.33-0.45,0.49-0.67c-1.17-0.76-2.35-1.51-3.52-2.27c0.16-0.16,0.31-0.32,0.47-0.49c1.28,0.19,2.56,0.4,3.85,0.55
				c0.93,0.11,1.94,0.46,1.92-1.23c-0.01-0.51,0.99-1.15,1.65-1.51c0.66-0.36,1.47-0.43,2.31-0.66c-0.25-0.28-0.4-0.46-0.44-0.51
				c0.91-0.79,1.67-1.45,2.53-2.2c-3.5-2.34-6.79-3.65-10.66-2.22c0.7-0.76,1.39-1.52,2.4-2.62c-1.33,0.41-2.13,0.66-3.1,0.96
				c0.28-0.86,0.47-1.45,0.66-2.03c-2.89,2.03-5.73,3.25-9.32,2.51c-5.14-1.05-6.61-2.01-7-4.86c2.01,0.47,4.23,0.99,6.41,1.5
				c0.33-0.81,0.54-1.33,0.76-1.87c1.18,0.59,2.21,1.09,3.43,1.7c0.08-0.71,0.13-1.18,0.21-1.92c2.23,0,4.47,0,6.92,0
				c-0.39-0.94-0.61-1.48-0.83-2.01c0.8-0.45,1.48-0.83,2.32-1.3c-0.51-0.37-0.83-0.6-1.1-0.81c1.82-1.3,3.52-2.51,5.45-3.88
				c-2.31-0.7-4.21-1.28-6.13-1.86c-0.04-0.39-0.09-0.88-0.12-1.19c-2.54,0.6-4.94,1.17-7.27,1.72c0.37-1.39,0.64-2.41,1.06-3.97
				c-7.66,4.55-13.16,0.33-18.85-2.92c0.06-0.26,0.12-0.53,0.18-0.79c2.11,0.52,4.23,1.03,6.31,1.54c0.07-0.43,0.16-1.07,0.26-1.69
				c1.62,0.09,2.73,3.22,4.19,0.96c1.18,0.49,2.35,1.44,3.23,1.22c1.42-0.35,2.74-1.41,2.27-3.44c1.06,0.21,1.91,0.37,2.72,0.53
				c0-1.47,0-2.77,0-4c1.15,0.38,2.58,0.86,4,1.33c0.14-0.11,0.28-0.21,0.41-0.32c-0.98-1.46-0.53-2.06,0.89-2.45
				c1.02-0.28,1.92-1,2.87-1.53c-0.07-0.17-0.14-0.34-0.21-0.5c-1.55,0-3.1,0-4.89,0c0.32-0.65,0.53-1.07,1.01-2.05
				c-1.92,1.09-3.32,1.87-4.52,2.55c-0.53-0.72-0.9-1.22-1.28-1.74c0.21-0.42,0.47-0.91,1.01-1.96c-3.26,1.81-5.31,5.1-9.26,3.39
				c-2.98-1.29-6.36-1.8-7.8-5.35c0.96,0.09,1.82,0.4,2.45,0.96c1.16,1.02,1.92,1.06,2.17-0.69c1.39,0.91,2.26,2.56,4.21,1.89
				c0-0.45-0.04-0.79,0.01-1.12c0.1-0.65,0.24-1.29,0.37-1.94c0.63,0.29,1.27,0.58,1.9,0.87c1.1,0.51,2.2,1.01,3.3,1.52
				c0.13-0.2,0.26-0.41,0.39-0.61c-0.9-0.98-1.79-1.96-2.69-2.94c0.08-0.06,0.16-0.13,0.23-0.19c1.64,0.77,3.28,1.54,4.92,2.31
				c0.1-0.16,0.21-0.32,0.31-0.49c-0.31-0.44-0.61-0.88-1.04-1.49c1.16-0.44,2.1-0.79,3.13-1.18c-0.28-0.41-0.51-0.76-0.88-1.31
				c0.99,0,1.82,0.19,2.48-0.05c0.66-0.25,1.15-0.94,1.71-1.44c-0.63-0.29-1.24-0.68-1.91-0.85c-0.78-0.21-2.07,0.05-2.34-0.38
				c-1.03-1.69-2.2-0.85-3.35-0.47c-1.1,0.36-2.16,0.82-3.15,1.21c-0.55-1.07-1.04-2.02-1.55-3c-0.75,0.18-1.48,0.35-2.25,0.54
				c-0.16-0.59-0.3-1.11-0.49-1.81c-2.87,2.16-5.54,4.46-9.1,2.03c0.37-0.66,0.75-1.33,1.1-1.95c-2.1-0.56-4.33-0.59-5.73-1.68
				c-1.5-1.17-2.17-3.35-1.64-5.71c2.05,5.12,2.05,5.12,3.3,5.8c0.4-0.88,0.79-1.74,1.24-2.71c0.81,1.86,1.7,3.26,4.04,2.93
				c-0.19-0.83-0.33-1.42-0.47-2c0.48-0.36,0.94-0.72,1.21-0.92c1.4,1.43,2.73,2.8,4.19,4.29c0.72-1.42,1.21-2.39,1.73-3.41
				c1.84,1.53,5.24,0.81,7.09-1.55c-2.76-1.34-5.45-2.65-8.03-3.91c0.04-0.58,0.3-1.59,0.09-1.7c-0.61-0.32-1.42-0.41-2.12-0.33
				c-0.57,0.07-1.08,0.59-1.66,0.78c-0.61,0.21-1.28,0.26-2.23,0.44c0.85-1.28,3.11-0.93,2.09-2.68c1.13-0.65,2.13-1.23,3.14-1.81
				c-0.04-0.19-0.09-0.38-0.13-0.57c-1.62-0.33-3.24-0.67-4.87-1.01c0.34-3.07,2.02-1.62,2.88-1.31c1.64-1.13,2.99-2.06,4.76-3.27
				c-1.51-0.63-2.8-1.17-4.17-1.75c1.33-1.47,2.46-2.72,3.81-4.22c-1.54-0.27-2.64-0.47-3.75-0.67c0.43-1.43,2.28-2.31,1.42-4.49
				c-1.47,1.24-2.7,2.28-3.92,3.3c-0.59-0.55-1.13-1.05-1.86-1.72c-2.43,3.79-3.45,8.56-8.5,10.23c-0.27-2.85-0.58-5.54-0.76-8.24
				c-0.13-1.94,0.95-2.68,2.76-2.54c0.04,0.68,0.07,1.26,0.1,1.86c1.9-0.59,3.62-1.13,5.92-1.85c-1.97-1.4-3.61-2.56-5.22-3.7
				c2.14-0.81,4.56,1.23,6.77-0.64c-1.22-0.74-2.31-1.4-3.5-2.12c1.03-0.97,2-1.88,2.97-2.79c-0.11-0.2-0.23-0.4-0.34-0.6
				c-1.72,0.76-3.43,1.51-5.14,2.27c-0.08-0.59-0.16-1.14-0.24-1.74c-2.5,1.23-1.61,4.99-4.54,5.64c-0.83-4.9,3.41-7.53,5.18-11.39
				c-2.68-0.95-3.06,1.58-4.6,2.81c-0.84-2.85,0.12-5.94-2.1-8.1c-0.14,0-0.28,0-0.41,0c0,3.15,0,6.29,0,9.44
				c-0.17,0.1-0.34,0.2-0.51,0.3c-1.13-1.4-2.25-2.8-3.38-4.2c-0.96,2.41,0.25,3.71,1.34,4.95c1.71,1.96,2.19,4.22,2.07,6.7
				c-0.02,0.43-0.24,0.86-0.87,1.34c-0.48-1.66-0.9-3.34-1.48-4.96c-0.27-0.74-0.85-1.37-1.29-2.06c-0.41,0.63-0.83,1.25-1.33,2
				c-1.09-0.54-2.36-1.17-3.63-1.8c-0.23,0.21-0.45,0.42-0.68,0.62c0.71,1.21,1.35,2.47,2.14,3.63c0.75,1.09,1.87,2.03-0.05,3.09
				c-0.22,0.12-0.31,1.01-0.1,1.26c0.28,0.34,0.91,0.6,1.36,0.55c0.56-0.06,1.09-0.46,1.79-0.78c0,1.11,0,2.04,0,3.12
				c-1.23-0.52-2.31-0.98-3.4-1.44c-0.19,0.18-0.39,0.37-0.58,0.55c0.83,1.19,1.66,2.39,2.47,3.57c-1.94,2.53-3.88,1.06-5.9-0.34
				c-1.1-0.76-2.35-1.33-3.67-2.06c-1.09,2.55,1.13,3.15,2.18,4.34c-0.91,0.38-1.78,0.75-2.6,1.1c1.79,1.51,3.39,2.87,5.31,4.49
				c-1.37,0.36-2.33,0.49-3.18,0.87c-0.49,0.22-0.8,0.84-1.2,1.29c0.6,0.35,1.27,1.08,1.78,0.98c1.41-0.27,2.63-0.51,3.81,0.66
				c0.24,0.24,1.1-0.05,1.64-0.21c0.64-0.19,1.25-0.5,2.07-0.4c-0.6,0.7-1.2,1.39-1.79,2.09c0.07,0.19,0.15,0.39,0.22,0.58
				c0.97-0.16,1.93-0.31,2.82-0.46c0.19,0.52,0.44,1.23,0.7,1.93c1.19-0.54,2.39-1.09,3.69-1.68c0.16,0.46,0.5,1.41,0.83,2.37
				c-5.3,2.4-9.91,0.17-14.52-2.06c-0.11,0.29-0.22,0.57-0.33,0.86c0.68,0.64,1.36,1.27,2.04,1.9c-0.07,0.16-0.13,0.32-0.2,0.47
				c-1.97-0.95-3.94-1.87-5.89-2.85c-0.54-0.27-0.95-0.86-1.5-1.06c-0.64-0.24-1.38-0.22-2.08-0.32c-0.05,0.62-0.11,1.23-0.18,2.01
				c-1.71,0.29-3.55,0.6-5.45,0.92c0.86,2,1.35,2.17,7.02,2.59c-0.03,0.11-0.03,0.23-0.08,0.33c-0.44,0.75-0.89,1.49-1.34,2.24
				c0.99-0.14,2.06-0.09,2.94-0.48c1.04-0.46,1.92-1.3,3.22-1.77c-2.74,1.3-2.74,2.91-0.76,4.96c1.96-0.92,4.05-1.9,6.14-2.88
				c0.06,0.06,0.12,0.13,0.19,0.19c-0.75,0.62-1.56,1.18-2.23,1.88c-0.45,0.47-0.69,1.14-1.02,1.72c0.69-0.03,1.39-0.03,2.07-0.12
				c0.24-0.03,0.45-0.28,0.85-0.55c0.13,0.63,0.24,1.15,0.35,1.69c0.18-0.08,0.36-0.1,0.42-0.2c1.29-2.05,3.56-2.1,5.53-2.49
				c2.21-0.43,3.72-1.41,4.41-3.58c0.19,0.08,0.39,0.16,0.58,0.24c-0.37,0.87-0.5,2.08-1.16,2.57c-2.75,2.03-5.63,3.88-8.53,5.69
				c-0.37,0.23-1.16,0-1.67-0.22c-1.63-0.71-3.21-1.51-5.3-2.51c0.34,1.16,0.55,1.88,0.81,2.79c-1.69-0.47-3.37-0.94-5.18-1.45
				c-0.17,1.94-1.33,2.08-2.89,1.53c-1.34-0.47-2.45-0.31-2.89,1.51c0.52,0.2,1.04,0.4,1.63,0.63c-0.24,0.47-0.48,0.94-0.64,1.26
				c1.42,0.73,2.75,1.41,4.35,2.22c0.04,0.2,0.13,0.7,0.21,1.17c3.96,0.7,3.96,0.7,3.17,2.06c-2.28,0-4.26,0-6.11,0
				c0.51,1.56,0.96,2.97,1.42,4.37c-0.22,0.11-0.44,0.22-0.65,0.33c-1.5-0.91-2.99-1.82-4.99-3.03c0.33,1.34,0.48,1.97,0.69,2.86
				c-2.02-0.24-3.82-0.45-5.62-0.66c-0.11,0.21-0.21,0.43-0.32,0.64c1.32,0.75,2.64,1.5,4.2,2.39c-0.02,0.2-0.09,0.75-0.12,0.99
				c2.25,1.06,4.35,2.04,6.45,3.03c-0.07,0.21-0.14,0.42-0.21,0.64c0.51-0.43,1.03-0.86,1.5-1.26c2.34,2.47,4.65,4.9,7.05,7.43
				c-4.09,1.46-8.2,3.31-12.57-0.24c-0.18,1.1-0.29,1.73-0.38,2.27c-1.57,1.49-3.75-1.55-5.13,0.66c1.09,1.25,2.12,2.43,3.14,3.61
				c-0.12,0.12-0.24,0.25-0.35,0.38c0.6,0.07,1.2,0.14,1.77,0.21c0.58,2.52,1,2.69,3.66,1.55c-0.69,3.22,1.93,1.56,3.14,2.05
				c-1.5,1.83-4.88,2.29-7.1,1.09c-0.84-0.45-1.87-1.68-2.45,0.35c-0.05,0.18-0.86,0.2-1.32,0.19c-0.85,0-1.71-0.08-2.56-0.12
				c-0.05,0.18-0.11,0.36-0.16,0.55c0.47,0.28,0.94,0.55,1.4,0.83c0.52,0.32,1.4,0.6,1.48,1.01c0.43,2.39,1.9,2.08,3.51,1.48
				c0.35,1.27,3.63,4.29,4.57,3.96c0.97-0.34,1.76-1.24,2.57-1.97c1.73-1.56,2.61-1.63,4.4-0.05c-1.09,0.11-1.98,0.2-3.25,0.33
				c0.42,1.17,0.79,2.21,1.15,3.21c-3.97,2.53-8.46,3.53-13.18,3.69c-0.32,0.01-0.84,0.16-0.9,0.37c-1.02,3.06-3.81,1.96-6.61,2.8
				c1.97,1.05,3.48,1.86,5.07,2.71c-0.02,0.34,0,0.97-0.12,1.58c-0.03,0.16-0.58,0.42-0.67,0.35c-1.7-1.34-3.38-0.11-5.06-0.01
				c-0.39,0.02-0.78,0-1.52,0c0.75-0.71,1.27-1.19,2.2-2.06c-1.24,0.19-1.97,0.3-2.92,0.44c0.3-0.66,0.51-1.1,0.99-2.15
				c-3.22,1.83-5.89,3.48-9.41,2.67c-3.14-0.72-6.53-0.56-7.64-4.22c2.13,0.41,4.38,0.85,6.75,1.31c0.17-0.7,0.29-1.2,0.44-1.79
				c1.22,0.53,2.38,1.03,3.73,1.62c0.09-0.66,0.15-1.1,0.23-1.63c2.26,0,4.53,0,7.25,0c-0.58-0.87-0.86-1.29-1.22-1.83
				c0.77-0.35,1.44-0.65,2.22-1c-0.26-0.4-0.46-0.7-0.66-1.01c1.69-1.03,3.36-2.05,5.31-3.24c-2.27-0.63-4.15-1.15-6.17-1.71
				c0.02-0.12,0.08-0.48,0.18-1.05c-2.59,0.51-5.12,1.01-7.63,1.51c0.34-1.23,0.58-2.13,0.97-3.55c-7.48,4.28-13.22,0.37-19.14-2.41
				c0.04-0.22,0.08-0.45,0.12-0.67c2.06,0.36,4.11,0.72,6.41,1.13c0.08-0.22,0.29-0.75,0.49-1.28c1.42-0.2,2.72,2.88,4.31,0.17
				c0.6,1.56,2.1,2,3.41,1.55c0.92-0.31,2.91-0.66,1.65-2.87c1.18,0.14,2.04,0.25,3.01,0.37c0-1.2,0-2.32,0-3.66
				c0.53,0.28,1.17,0.74,1.88,0.94c0.74,0.21,1.55,0.16,2.43,0.24c-0.13-0.71-0.22-1.16-0.3-1.59c1.41-0.6,2.76-1.18,4.12-1.76
				c-0.02-0.16-0.05-0.32-0.07-0.48c-1.5,0-3,0-4.75,0c0.25-0.72,0.39-1.14,0.64-1.87c-1.65,0.8-3.09,1.51-4.52,2.2
				c-0.26-0.49-0.51-0.96-0.95-1.8c0.01-0.03,0.23-0.48,0.63-1.31c-3.1,1.36-5.37,4.22-9.05,2.8c-2.95-1.14-6.23-1.53-8.32-4.24
				c0.08-0.21,0.16-0.43,0.24-0.64c0.83,0.33,1.72,0.57,2.49,1.01c1.05,0.59,1.96,1.12,2.3-0.5c1.22,0.68,2.43,1.35,3.7,2.06
				c0.23-0.53,0.38-0.71,0.38-0.89c0.1-2.84,0.18-2.84,2.7-1.42c0.95,0.54,2.09,0.73,3.15,1.08c0.09-0.17,0.19-0.35,0.28-0.52
				c-0.87-0.81-1.75-1.62-2.62-2.43c0.04-0.08,0.08-0.16,0.12-0.24c1.67,0.64,3.34,1.28,5.01,1.91c0.07-0.13,0.14-0.27,0.2-0.4
				c-0.23-0.37-0.46-0.73-0.78-1.25c1.04-0.37,1.98-0.71,2.96-1.06c-0.31-0.4-0.57-0.73-0.77-0.99c1.54-0.27,2.99-0.53,4.44-0.78
				c0-0.27-0.01-0.54-0.01-0.81c-0.67-0.23-1.32-0.55-2.01-0.68c-1.12-0.21-2.49,0.45-3.2-1.12c-0.08-0.18-1.05-0.08-1.55,0.07
				c-1.44,0.43-2.85,0.95-4.4,1.48c-0.62-1.8-1.46-3.3-3.79-2.15c-0.14-0.59-0.25-1.08-0.41-1.75c-2.96,1.88-5.74,4.01-9.33,1.88
				c0.34-0.58,0.66-1.14,1.08-1.86c-1.53-0.52-3.33-0.07-4.76-0.51c0.89-1.41,1.37-2.18,1.88-2.98c0.83,1.62,1.96,2.77,4.12,2.29
				c-0.2-0.61-0.38-1.17-0.56-1.74c0.53-0.24,1.05-0.49,1.32-0.61c1.47,1.26,2.81,2.41,4.25,3.64c0.69-1.25,1.13-2.05,1.61-2.92
				c2.76,2.03,4.81-0.03,7.07-0.62c0.07-0.25,0.14-0.5,0.2-0.75c-2.7-1.18-5.39-2.36-8.2-3.59c0.15-0.31,0.37-0.74,0.58-1.16
				c-0.07-0.22-0.15-0.44-0.22-0.66c-1.95,0.38-3.9,0.76-6.02,1.17c0.86-0.78,1.57-1.42,2.27-2.05c-0.09-0.11-0.19-0.22-0.28-0.32
				c1.03-0.48,2.05-0.95,3.08-1.43c-0.02-0.17-0.04-0.33-0.07-0.5c-1.63-0.33-3.26-0.67-5.11-1.05c0.32-0.69,0.58-1.27,0.89-1.92
				c0.92,0.34,1.67,0.62,2.16,0.81c1.52-0.91,2.86-1.72,4.72-2.84c-1.47-0.57-2.63-1.02-4.18-1.62c1.13-1.25,2.19-2.42,3.34-3.69
				c-0.79-0.14-1.93-0.34-3.19-0.56c0.64-1,1.31-2.04,2.16-3.36c-2.46-0.46-3.17,1.82-4.88,2.3c-0.44-0.39-0.93-0.83-1.69-1.5
				c-2.63,3.24-3.78,7.87-8.78,8.99c-0.07-0.74-0.11-1.44-0.2-2.14c-0.16-1.28-0.27-2.57-0.54-3.82c-0.47-2.13,0.26-3.17,2.65-3.55
				c0.17,0.57,0.34,1.14,0.51,1.71c0.54-0.23,1.07-0.5,1.63-0.68c0.53-0.17,1.08-0.27,1.64-0.35c0.63-0.09,1.26-0.13,1.89-0.19
				c0.08-0.24,0.16-0.47,0.24-0.71c-1.6-0.99-3.21-1.99-4.96-3.08c2.27,0,4.54,0,6.8,0c0.03-0.16,0.06-0.31,0.09-0.47
				c-1.12-0.64-2.23-1.28-3.44-1.97c0.98-0.79,1.92-1.55,2.86-2.3c-0.08-0.18-0.16-0.36-0.23-0.54c-1.7,0.61-3.4,1.22-5.22,1.87
				c-0.04-0.36-0.11-0.9-0.25-1.95c-1.57,2.14-2.88,3.93-4.19,5.72c-1.22-4.86,3.06-6.82,4.72-10.29c-2.31-0.7-3.13,0.94-4.24,2.56
				c-1.68-2.12,0.52-5.52-2.73-6.8c-0.14,2.57-0.28,5.14-0.44,8.06c-1.49-1.23-2.78-2.29-4.06-3.35c-0.22,0.14-0.43,0.28-0.65,0.42
				c0.59,0.99,1.06,2.08,1.79,2.95c2.68,3.22,2.96,3.97,1.97,7.77c-0.89-2.15-1.77-4.3-2.66-6.44c-0.22,0.04-0.43,0.08-0.65,0.12
				c-0.3,0.64-0.59,1.29-0.9,1.95c-1.34-0.55-2.69-1.09-4.03-1.64c-0.17,0.24-0.35,0.48-0.52,0.72c1.14,1.55,2.28,3.1,3.27,4.45
				c-0.45,0.89-0.85,1.67-1.24,2.45c0.97,0.08,1.94,0.16,3.21,0.26c0.05,0.35,0.16,1.12,0.34,2.33c-1.5-0.53-2.66-0.95-3.93-1.4
				c-0.5,2.15,1.52,2.59,2.33,3.77c-3.41,1.08-3.4,1.06-6.82-0.74c-0.99-0.52-2.06-0.9-3.25-1.4c-0.8,2.34,1.31,2.64,2.21,3.73
				c-0.88,0.37-1.71,0.71-2.57,1.07c1.8,1.27,3.42,2.4,5.4,3.79c-1.87,0.55-3.22,0.95-4.58,1.35c-0.01,0.29-0.02,0.58-0.04,0.88
				c0.87,0.19,1.73,0.46,2.61,0.55c0.52,0.06,1.12-0.32,1.59-0.19c0.88,0.25,1.7,1.02,2.55,1.03c0.84,0.01,1.69-0.65,2.81-0.65
				c-0.55,0.58-1.11,1.16-1.66,1.75c0.05,0.19,0.09,0.37,0.14,0.56c0.97-0.11,1.93-0.22,3.07-0.36c0.06,0.41,0.14,1.03,0.28,1.99
				c1.35-0.62,2.56-1.18,4-1.85c0.2,0.46,0.55,1.27,1.15,2.63c-2.95,0.1-5.51,0.27-8.07,0.26c-2.53-0.01-4.35-2.73-7.75-2.06
				c1.08,0.86,1.73,1.37,2.37,1.89c-0.06,0.16-0.13,0.31-0.19,0.47c-2.13-0.93-4.26-1.86-6.37-2.81c-0.43-0.19-0.77-0.64-1.21-0.76
				c-0.61-0.17-1.33-0.3-1.9-0.11c-0.22,0.07-0.16,1.03-0.24,1.71c-1.73,0.26-3.6,0.54-5.83,0.88c2.33,2.6,5.12,1.88,7.77,2.06
				c-0.8,0.76-1.46,1.38-2.3,2.18c3.02,1.84,4.34-1.99,7.04-1.62c-1.06,0.65-1.84,1.13-2.74,1.67c0.55,0.92,1.05,1.76,1.59,2.67
				c2.22-0.93,4.37-1.83,6.53-2.74c0.05,0.07,0.09,0.13,0.14,0.2c-1.25,0.93-2.49,1.87-3.74,2.8c0.07,0.21,0.13,0.41,0.2,0.62
				c0.97-0.12,1.95-0.25,3.07-0.39c0.06,0.21,0.19,0.67,0.4,1.42c1.82-2.34,4.36-2.18,6.66-2.82c1.56-0.44,2.89-1.67,4.38-2.57
				c-0.91,3.52-4.61,4.05-7.11,5.95c-3.49,2.66-6.27-0.44-9.76-1.03c0.36,0.85,0.59,1.42,0.93,2.21c-1.82-0.4-3.54-0.78-5.35-1.18
				c-0.55,2.01-2.08,1.41-3.37,1.11c-1.35-0.31-2.08,0.05-2.45,1.53c0.55,0.16,1.04,0.3,1.57,0.45c-0.22,0.39-0.44,0.77-0.53,0.93
				c1.68,0.93,3.28,1.82,4.88,2.71c-0.07,0.05-0.13,0.1-0.2,0.15c1.01,0.29,2.06,0.5,3.01,0.92c0.21,0.09,0.09,0.93,0.12,1.42
				c-0.41-0.01-0.82-0.01-1.24-0.04c-1.71-0.11-3.42-0.23-5.15-0.35c0.6,1.5,1.08,2.68,1.55,3.85c-0.21,0.15-0.41,0.31-0.62,0.46
				c-1.56-0.81-3.12-1.61-5.02-2.6c0.22,1.01,0.34,1.58,0.51,2.39c-1.98-0.18-3.79-0.34-5.6-0.51c-0.09,0.2-0.18,0.41-0.26,0.61
				c1.36,0.65,2.73,1.31,4.24,2.03c-0.03,0.25-0.08,0.73-0.09,0.87c2.32,0.97,4.43,1.85,6.88,2.88c0,0,0.49-0.36,0.98-0.73
				c2.34,2.14,4.68,4.28,7.15,6.53c-4.21,1.39-8.39,2.67-12.9-0.15c0.17,2.66-1.13,2.54-2.73,2.2c-0.9-0.19-1.88-0.03-3.16-0.03
				c1.43,1.43,2.43,2.42,3.42,3.41c-0.12,0.15-0.24,0.3-0.35,0.46c0.6,0.06,1.2,0.12,1.94,0.2c0.2,2.51,1.69,2.27,3.6,1.34
				c-0.28,3.17,2.09,1.28,3.27,1.81c-1.45,1.68-4.64,2.07-7.08,1c-0.82-0.36-1.57-1.41-2.68,0.15c-0.48,0.68-2.56,0.23-4.54,0.32
				c0.96,0.55,1.43,0.83,1.91,1.1c0.48,0.26,1.33,0.43,1.4,0.77c0.48,2.33,2.16,1.78,3.66,1.61c0.87,2.08,2.73,2.92,4.58,3.23
				c0.83,0.14,1.93-1.07,2.84-1.76c1.37-1.04,2.69-1.5,4.53,0.13c-1.29,0.12-2.18,0.2-3.4,0.31c0.38,1.01,0.71,1.9,1,2.69
				c-4.16,2.52-8.76,3.01-13.39,3.4c-0.27,0.02-0.74-0.02-0.79,0.1c-1.15,2.95-3.96,1.74-6,2.44c-0.04,0.01-0.06,0.1-0.28,0.53
				c1.54,0.63,3.05,1.25,4.71,1.94c-0.16,0.4-0.37,0.92-0.46,1.15c0.64,0.47,1.17,1.04,1.82,1.28c0.64,0.23,1.42,0.22,2.11,0.13
				c1.39-0.19,2.79-0.59,2.97,1.86c0.84-0.78,1.37-1.28,2.03-1.89c0.29,1.74,1.67,1.91,2.83,1.59c1.15-0.32,2.14-1.25,3.28-1.96
				c0.04,0.07,0.34,0.63,0.73,1.33c0.6-0.56,1.17-1.09,1.83-1.71c0.23,0.6,0.39,1.05,0.7,1.87c0.65-0.98,1.11-1.67,1.39-2.1
				c1.26,0.15,2.28,0.27,3.88,0.45c-4.04,2.73-8.2,3.55-12.53,3.92c0.62,1.18,0.62,1.18,4.71,2.47c-0.84,0.22-1.67,0.57-2.52,0.63
				c-5.9,0.44-11.81,0.78-17.7,1.25c-1.72,0.14-3.42,0.59-5.27,1.39c1.33,0.48,2.66,0.96,4.22,1.52c-1,0.71-1.93,1.36-3.03,2.14
				c1.7,0.34,3.3,0.29,4.46,0.98c1.68,1.02,2.76,0.18,4.2-0.44c-0.35,0.58-0.7,1.17-1.16,1.93c0.47,0.09,0.9,0.32,1.16,0.2
				c1.27-0.58,2.48-1.29,3.31,0.63c0.07,0.16,1.01,0.11,1.45-0.08c0.81-0.33,1.56-0.84,2.48-1.35c-0.07,0.88-0.13,1.63-0.23,2.92
				c1.39-0.57,2.46-1.01,3.67-1.51c-0.03,0.47-0.05,0.92-0.07,1.32c2.72,0.45,5.44,0.9,8.16,1.35c0.01,0.21,0.02,0.41,0.02,0.62
				c-6.06,1.78-12,4.59-19.11,1.31c0.63,0.97,0.91,1.41,1.36,2.1c-4.03-0.53-7.86-1.02-11.69-1.52c-0.06,0.13-0.12,0.26-0.18,0.39
				c1.87,0.85,3.74,1.7,5.56,2.53c-0.67,0.11-1.51,0.26-2.35,0.4c-0.03,0.24-0.05,0.49-0.08,0.74c1.22,0.3,2.44,0.6,3.86,0.95
				c-0.35,0.5-0.67,0.94-0.92,1.3c3.05,1.09,6.79-0.32,9.4,2.8c0.38-0.27,0.85-0.6,1.61-1.15c-0.38,0.97-0.64,1.63-1.11,2.84
				c1.82-0.57,3.2-1,4.69-1.47c-0.04,1.43-0.96,2.04-2.15,2.53c-4.63,1.88-9.31,2.65-14.2,0.96c-0.86-0.3-2.36-0.78-1.88,1.4
				c-1.98-0.32-3.91-0.63-6.43-1.04c0.82,1.12,1.31,1.79,1.79,2.46c-2.1-0.16-4.19-0.33-6.29-0.49c-0.93-0.28-1.83-0.56-2.74-0.83
				c-0.05-0.46-0.11-1.04-0.14-1.41c-3,0.71-5.83,1.38-8.59,2.03c0.44-1.65,0.76-2.84,1.25-4.69c-9.05,5.38-15.55,0.39-22.28-3.46
				c0.07-0.31,0.14-0.63,0.22-0.94c2.5,0.61,4.99,1.22,7.46,1.83c0.08-0.51,0.19-1.27,0.31-2c1.92,0.1,3.23,3.81,4.95,1.14
				c1.39,0.57,2.77,1.7,3.82,1.44c1.68-0.41,3.24-1.66,2.68-4.07c1.26,0.25,2.25,0.44,3.21,0.63c0-1.74,0-3.27,0-4.73
				c1.36,0.45,3.04,1.01,4.73,1.57c0.16-0.13,0.33-0.25,0.49-0.38c-1.16-1.73-0.63-2.44,1.05-2.9c1.21-0.33,2.27-1.19,3.39-1.81
				c-0.08-0.2-0.17-0.4-0.25-0.59c-1.83,0-3.66,0-5.78,0c0.38-0.77,0.62-1.27,1.19-2.42c-2.27,1.28-3.92,2.21-5.35,3.02
				c-0.62-0.85-1.06-1.44-1.52-2.06c0.25-0.49,0.55-1.07,1.19-2.31c-3.86,2.14-6.28,6.02-10.95,4c-3.52-1.52-7.52-2.13-9.22-6.32
				c1.13,0.11,2.15,0.47,2.9,1.14c1.37,1.21,2.27,1.25,2.57-0.82c1.65,1.08,2.67,3.02,4.97,2.23c0-0.53-0.05-0.93,0.01-1.32
				c0.12-0.77,0.29-1.53,0.44-2.29c0.75,0.34,1.5,0.69,2.24,1.03c1.3,0.6,2.6,1.2,3.9,1.8c0.15-0.24,0.3-0.48,0.46-0.72
				c-1.06-1.16-2.12-2.32-3.18-3.48c0.09-0.08,0.18-0.15,0.28-0.23c1.94,0.91,3.87,1.82,5.81,2.73c0.12-0.19,0.25-0.38,0.37-0.58
				c-0.36-0.52-0.73-1.04-1.23-1.76c1.37-0.52,2.48-0.94,3.69-1.4c-0.33-0.49-0.6-0.9-1.03-1.54c1.17,0,2.15,0.23,2.93-0.06
				c0.78-0.29,1.35-1.11,2.02-1.7c-0.75-0.34-1.47-0.8-2.26-1c-0.92-0.24-2.45,0.06-2.76-0.45c-1.21-1.99-2.6-1-3.96-0.55
				c-1.29,0.42-2.55,0.97-3.72,1.42c-0.65-1.26-1.23-2.39-1.83-3.54c-0.88,0.21-1.74,0.42-2.66,0.64c-0.19-0.69-0.36-1.32-0.58-2.14
				c-3.39,2.55-6.55,5.28-10.76,2.4c0.44-0.78,0.89-1.58,1.3-2.31c-2.48-0.66-5.12-0.7-6.78-1.99c-0.09-0.07-0.17-0.16-0.26-0.24
				c0.06,1.17,0.12,2.33,0.19,3.5c-0.32,0.02-0.63,0.04-0.95,0.06c0-1.47,0-2.94,0-4.42c-1.02-1.45-1.4-3.48-0.92-5.66
				c2.42,6.05,2.42,6.05,3.9,6.86c0.47-1.04,0.94-2.05,1.46-3.21c0.95,2.19,2.01,3.85,4.78,3.46c-0.23-0.99-0.39-1.67-0.55-2.37
				c0.56-0.43,1.11-0.85,1.43-1.09c1.65,1.69,3.22,3.31,4.95,5.07c0.85-1.68,1.43-2.83,2.04-4.03c2.17,1.81,6.19,0.96,8.38-1.84
				c-3.27-1.59-6.44-3.13-9.49-4.62c0.05-0.69,0.36-1.88,0.11-2.01c-0.72-0.38-1.68-0.49-2.5-0.39c-0.68,0.08-1.28,0.7-1.96,0.93
				c-0.72,0.24-1.51,0.31-2.64,0.52c1-1.51,3.67-1.1,2.47-3.16c1.33-0.77,2.52-1.45,3.71-2.14c-0.05-0.23-0.1-0.45-0.15-0.68
				c-1.92-0.4-3.83-0.79-5.76-1.19c0.4-3.63,2.38-1.91,3.4-1.54c1.94-1.33,3.54-2.43,5.63-3.87c-1.78-0.75-3.31-1.39-4.93-2.07
				c1.57-1.74,2.9-3.21,4.5-4.98c-1.82-0.32-3.12-0.56-4.43-0.79c0.51-1.69,2.7-2.73,1.68-5.31c-1.74,1.46-3.19,2.69-4.64,3.9
				c-0.7-0.65-1.33-1.24-2.19-2.04c-2.27,3.55-3.51,7.81-6.88,10.41c1.6-0.31,2.53-1.69,3.77-2.62c0.47-0.35,0.99-0.64,1.49-0.96
				c0.2,0.32,0.4,0.64,0.6,0.96c-2.7,1.78-5.4,3.56-8.41,5.54c-0.16-0.51-0.26-0.96-0.3-1.36c-0.11,0.04-0.2,0.08-0.31,0.12
				c-0.32-3.37-0.68-6.55-0.9-9.74c-0.16-2.3,1.13-3.17,3.26-3c0.04,0.8,0.08,1.49,0.12,2.2c2.24-0.7,4.28-1.34,7-2.19
				c-2.33-1.65-4.27-3.03-6.17-4.38c2.52-0.95,5.39,1.45,8-0.76c-1.44-0.88-2.73-1.65-4.13-2.51c1.22-1.15,2.36-2.22,3.51-3.3
				c-0.13-0.24-0.27-0.47-0.4-0.71c-2.03,0.89-4.06,1.79-6.08,2.68c-0.1-0.69-0.19-1.34-0.29-2.05c-2.96,1.45-1.9,5.89-5.36,6.66
				c-0.98-5.79,4.03-8.9,6.12-13.46c-3.16-1.13-3.62,1.87-5.43,3.32c-0.99-3.36,0.15-7.02-2.48-9.57c-0.16,0-0.33,0-0.49,0
				c0,3.72,0,7.44,0,11.15c-0.2,0.12-0.4,0.23-0.6,0.35c-1.33-1.65-2.66-3.31-3.99-4.96c-1.13,2.85,0.29,4.39,1.58,5.85
				c2.02,2.31,2.59,4.99,2.45,7.92c-0.01,0.28-0.11,0.56-0.31,0.85c0.24,0.98,0.19,2.02-0.16,3.11c-1.12-2.48-2.14-4.76-3.33-7.41
				c0.67,0.42,1.23,0.88,1.72,1.36c-0.22-0.73-0.44-1.47-0.7-2.19c-0.31-0.88-1-1.62-1.52-2.43c-0.49,0.74-0.98,1.48-1.57,2.37
				c-1.29-0.64-2.79-1.38-4.29-2.12c-0.27,0.25-0.53,0.49-0.8,0.74c0.84,1.43,1.59,2.92,2.53,4.29c0.89,1.29,2.22,2.4-0.06,3.65
				c-0.26,0.14-0.36,1.19-0.12,1.48c0.33,0.4,1.08,0.7,1.61,0.65c0.67-0.07,1.29-0.54,2.11-0.92c0,0.94,0,1.77,0,2.63
				c2.18,1.03,4.36,2.07,4.63,5.64c-2.13-1.91-3.84-3.44-5.55-4.97c0,0,0,0,0,0c-1.08-0.46-2.09-0.89-3.09-1.32
				c-0.23,0.22-0.46,0.43-0.69,0.65c0.98,1.41,1.96,2.82,2.93,4.21c-2.29,2.99-4.59,1.25-6.98-0.4c-1.31-0.9-2.77-1.57-4.33-2.44
				c-1.29,3.02,1.34,3.72,2.57,5.13c-1.07,0.45-2.1,0.89-3.07,1.3c2.12,1.79,4.01,3.39,6.27,5.3c-1.62,0.42-2.76,0.58-3.76,1.03
				c-0.58,0.26-0.95,1-1.41,1.52c0.71,0.41,1.5,1.27,2.11,1.16c1.66-0.32,3.11-0.6,4.5,0.78c0.29,0.29,1.3-0.06,1.94-0.25
				c0.76-0.23,1.48-0.6,2.45-0.48c-0.71,0.82-1.41,1.65-2.12,2.47c0.09,0.23,0.17,0.46,0.26,0.69c1.14-0.19,2.29-0.37,3.34-0.54
				c0.22,0.62,0.52,1.45,0.82,2.29c1.41-0.64,2.82-1.28,4.36-1.98c0.19,0.55,0.59,1.67,0.98,2.8c-6.27,2.84-11.71,0.2-17.16-2.44
				c-0.13,0.34-0.26,0.68-0.39,1.01c0.8,0.75,1.6,1.5,2.41,2.25c-0.08,0.19-0.16,0.37-0.24,0.56c-2.32-1.12-4.66-2.21-6.96-3.37
				c-0.64-0.32-1.12-1.01-1.78-1.26c-0.76-0.28-1.63-0.26-2.45-0.37c-0.06,0.73-0.13,1.46-0.21,2.38c-2.02,0.34-4.2,0.71-6.44,1.09
				c1.01,2.36,1.6,2.56,8.29,3.06c-0.03,0.13-0.03,0.28-0.1,0.39c-0.52,0.88-1.06,1.76-1.59,2.64c1.17-0.17,2.44-0.11,3.48-0.57
				c1.23-0.54,2.27-1.54,3.81-2.09c-3.23,1.54-3.24,3.44-0.9,5.86c2.32-1.09,4.79-2.24,7.26-3.4c0.07,0.08,0.15,0.15,0.22,0.23
				c-0.89,0.73-1.85,1.39-2.63,2.22c-0.53,0.56-0.81,1.35-1.21,2.03c0.82-0.04,1.64-0.04,2.45-0.14c0.29-0.04,0.54-0.34,1-0.65
				c0.15,0.74,0.28,1.36,0.42,2c0.21-0.1,0.43-0.12,0.5-0.24c1.52-2.43,4.2-2.48,6.54-2.94c2.61-0.51,4.4-1.67,5.22-4.23
				c0.23,0.09,0.46,0.19,0.69,0.28c-0.44,1.03-0.59,2.46-1.37,3.03c-3.25,2.4-6.66,4.58-10.08,6.72c-0.44,0.28-1.37,0-1.97-0.26
				c-1.92-0.83-3.8-1.78-6.26-2.96c0.4,1.37,0.65,2.22,0.96,3.3c-2-0.56-3.98-1.12-6.12-1.71c-0.21,2.29-1.57,2.45-3.42,1.81
				c-1.58-0.55-2.9-0.37-3.41,1.78c0.62,0.24,1.23,0.47,1.93,0.74c-0.29,0.56-0.57,1.11-0.76,1.49c1.68,0.86,3.25,1.66,5.14,2.63
				c0.04,0.24,0.15,0.83,0.25,1.38c4.68,0.83,4.68,0.83,3.75,2.43c-2.69,0-5.03,0-7.22,0c0.6,1.85,1.14,3.5,1.68,5.16
				c-0.26,0.13-0.51,0.26-0.77,0.39c-1.77-1.08-3.54-2.15-5.9-3.59c0.39,1.59,0.57,2.33,0.82,3.37c-2.39-0.28-4.51-0.53-6.64-0.79
				c-0.12,0.25-0.25,0.51-0.37,0.76c1.56,0.89,3.11,1.77,4.96,2.82c-0.03,0.24-0.1,0.89-0.14,1.17c2.66,1.25,5.14,2.42,7.63,3.58
				c-0.08,0.25-0.16,0.5-0.25,0.75c0.61-0.51,1.21-1.02,1.77-1.49c2.77,2.91,5.5,5.79,8.33,8.78c-4.83,1.72-9.69,3.91-14.86-0.29
				c-0.22,1.3-0.34,2.05-0.45,2.69c-1.86,1.76-4.43-1.84-6.07,0.78c1.29,1.48,2.5,2.87,3.71,4.26c-0.14,0.15-0.28,0.3-0.42,0.44
				c0.71,0.08,1.42,0.17,2.09,0.25c0.69,2.97,1.18,3.18,4.32,1.83c-0.82,3.81,2.28,1.84,3.71,2.42c-1.78,2.16-5.77,2.7-8.39,1.29
				c-1-0.54-2.2-1.99-2.9,0.41c-0.06,0.21-1.02,0.23-1.56,0.23c-1.01-0.01-2.02-0.09-3.03-0.15c-0.06,0.22-0.13,0.43-0.19,0.65
				c0.55,0.33,1.11,0.65,1.66,0.99c0.61,0.38,1.66,0.71,1.75,1.2c0.5,2.82,2.25,2.46,4.14,1.75c0.41,1.5,4.29,5.07,5.4,4.67
				c1.14-0.4,2.08-1.47,3.03-2.33c2.05-1.84,3.09-1.93,5.2-0.06c-1.29,0.13-2.34,0.24-3.84,0.39c0.5,1.39,0.94,2.61,1.36,3.79
				c-4.69,2.99-9.99,4.17-15.58,4.37c-0.37,0.01-0.99,0.19-1.07,0.43c-1.2,3.62-4.51,2.31-7.81,3.31c2.33,1.24,4.11,2.2,6,3.2
				c-0.02,0.38-0.01,1.04-0.12,1.71c0.47-0.15,0.94-0.3,1.36-0.48c-0.2-0.25-0.43-0.54-0.75-0.93c1.85-0.02,3.62-0.15,2.89-2.86
				c1.68,0.14,3.9-1.39,3.96,2.35l0.77-0.2c0.77-0.83,1.22-1.31,1.39-1.49c0.45,0.21,0.9,0.49,1.35,0.76l5.67-1.51
				c0.16-0.12,0.33-0.24,0.5-0.36c0.02,0.03,0.05,0.1,0.1,0.2l2.82-0.75c0.02-0.02,0.04-0.04,0.06-0.06c0,0.02,0.01,0.03,0.01,0.04
				c0.26,0.82,0.46,1.43,0.82,2.56l0.02-0.01c0.72-1.38,1.2-2.31,1.5-2.88c1.48,0.15,2.69,0.27,4.53,0.46
				c-0.54,0.46-1.09,0.87-1.65,1.25l54.55-14.58c0.3-0.92,0.52-1.58,0.73-2.23c-3.41,2.4-6.77,3.84-11.02,2.97
				c-6.08-1.24-7.81-2.38-8.27-5.75c2.38,0.56,5,1.17,7.58,1.78c0.39-0.96,0.64-1.57,0.9-2.21c1.39,0.69,2.61,1.29,4.06,2.01
				c0.09-0.84,0.16-1.4,0.25-2.27c2.64,0,5.29,0,8.18,0c-0.46-1.12-0.72-1.75-0.98-2.37c0.94-0.53,1.75-0.98,2.74-1.54
				c-0.6-0.44-0.98-0.71-1.3-0.95c1.82-1.3,3.56-2.53,5.43-3.87c0.74,0.2,1.49,0.4,2.23,0.6c-0.61,0.64-1.37,1.46-2.22,2.35
				c1.67,1.14,3.17,2.13,4.65,3.18c0.96,0.68,1.8,0.64,2.79-0.01c0.4-0.26,1.38-0.23,1.67,0.07c0.4,0.43,0.63,1.28,0.5,1.85
				c-0.08,0.35-0.96,0.62-1.52,0.72c-2.09,0.39-4.19,0.69-6.6,1.07c1.65,2.01,3.52,1.34,5.47,1.2c-0.38-0.12-0.76-0.25-1.17-0.38
				l7.84-2.1c-0.87-0.15-1.74-0.33-2.63-0.53c0.76-0.55,1.53-1.1,2.35-1.69c0.48,0.45,1.15,1.08,1.9,1.79l0.52-0.14
				c0.5-0.53,1-1.06,1.54-1.64c0.51,0.27,1.01,0.54,1.53,0.81l73.16-19.56l1.02,0.27l132.52,35.45c0.15-0.19,0.3-0.33,0.44-0.42
				c0.14,0.21,0.31,0.44,0.5,0.68l6.09,1.63c0.29-0.27,0.58-0.55,0.87-0.81c1.89-1.7,2.85-1.78,4.79-0.05
				c-1.19,0.12-2.16,0.22-3.54,0.36c0.15,0.41,0.29,0.8,0.43,1.19l50.14,13.41c0.55-0.59,1.03-1.1,1.56-1.67
				c2.65,2.71,5.2-0.04,7.89-0.33c0.18-0.24,0.36-0.49,0.54-0.73c-1.28-0.83-2.56-1.65-3.84-2.48c0.17-0.18,0.34-0.35,0.51-0.53
				c1.4,0.2,2.79,0.43,4.19,0.6c1.01,0.12,2.11,0.5,2.09-1.35c-0.01-0.55,1.08-1.25,1.8-1.64c0.72-0.39,1.6-0.47,2.52-0.72
				c-0.27-0.31-0.43-0.5-0.48-0.55c0.99-0.86,1.83-1.58,2.76-2.39C1172.22,479.32,1168.63,477.9,1164.42,479.46z M1121.45,402.52
				c0.24-0.23,0.47-0.46,0.71-0.68c2.05,0.97,4.15,1.9,4.41,5.26C1124.61,405.34,1123.03,403.93,1121.45,402.52z M992.81,317.6
				c0.22-0.21,0.43-0.42,0.65-0.63c1.89,0.89,3.81,1.74,4.05,4.83C995.7,320.19,994.26,318.9,992.81,317.6z M997.34,315.26
				c-0.95-2.1-1.81-4.03-2.82-6.27C997.12,310.64,998.11,312.82,997.34,315.26z M916.52,340.34c2.74-0.25,4.37,1.05,4.79,3.54
				C919.55,342.58,918.04,341.46,916.52,340.34z M921.14,338.24c-0.94-1.84-1.82-3.58-2.78-5.48
				C921,334.13,921.93,335.96,921.14,338.24z M817.08,387.46c0.26-0.25,0.51-0.49,0.77-0.74c2.23,1.05,4.5,2.06,4.78,5.71
				C820.5,390.52,818.79,388.99,817.08,387.46z M822.43,384.69c-1.12-2.48-2.14-4.76-3.33-7.41
				C822.18,379.23,823.34,381.81,822.43,384.69z M814.94,429.93c-2.59,0.5-5.21,1.09-7.83,1.12c-2.09,0.03-2.29-1.81-2.19-4.1
				c2.61,2.05,5.11,4.14,7.47,0.9c0.86,0.5,1.46,1.13,2.08,1.14c0.59,0.01,1.19-0.63,1.78-0.98c0.14,0.22,0.29,0.43,0.43,0.65
				C816.11,429.1,815.59,429.81,814.94,429.93z M814.94,423.99c-2.59,0.5-5.21,1.09-7.83,1.12c-2.09,0.03-2.29-1.81-2.19-4.1
				c2.61,2.05,5.11,4.14,7.47,0.9c0.86,0.5,1.46,1.13,2.08,1.14c0.59,0.01,1.19-0.63,1.78-0.98c0.14,0.22,0.29,0.43,0.43,0.65
				C816.11,423.16,815.59,423.87,814.94,423.99z M828.93,395.56c2.56,0.47,3.62-1.45,5.18-2.63c0.47-0.35,0.99-0.64,1.49-0.96
				c0.2,0.32,0.4,0.64,0.6,0.96c-2.7,1.78-5.4,3.56-8.41,5.54C827.18,396.54,827.33,395.26,828.93,395.56z M828.95,421.77
				c0-1.86,0-3.72,0-5.58c0.22-0.02,0.43-0.03,0.65-0.05c0.1,1.86,0.2,3.71,0.3,5.57C829.58,421.73,829.26,421.75,828.95,421.77z
				 M914.52,371.96c-2.07,0.36-4.16,0.64-6.26,0.83c-1.86,0.17-2.2-1.05-2.25-2.99c2.34,1.31,4.52,2.98,6.84,0.18
				c0.85,2.95,2.12,0,3.34,0.94C915.59,371.32,915.09,371.86,914.52,371.96z M914.52,366.02c-2.07,0.36-4.16,0.64-6.26,0.83
				c-1.86,0.17-2.2-1.05-2.25-2.99c2.34,1.31,4.52,2.98,6.84,0.18c0.85,2.95,2.12,0,3.34,0.94
				C915.59,365.38,915.09,365.92,914.52,366.02z M927.24,365.84c-0.16,0.01-0.33,0.03-0.49,0.04c0-1.4,0-2.79,0-4.19
				c0.16,0,0.33-0.01,0.49-0.01C927.24,363.07,927.24,364.46,927.24,365.84z M927.24,358.69c0,0.41,0,0.81,0,1.22
				c-0.16,0.01-0.33,0.03-0.49,0.04c0-0.74,0-1.48,0-2.22c-0.49-1.16-0.75-2.42-0.86-3.71c0.28,0.58,0.57,1.17,0.86,1.77
				c0-0.01,0-0.02,0-0.03c0.16,0,0.33-0.01,0.49-0.01c0,0.35,0,0.71,0,1.06c0.44,0.9,0.9,1.86,1.43,2.95
				C928.13,359.58,927.64,359.25,927.24,358.69z M926.93,352.23c-0.58-1.2-0.88-2.53-1.01-3.9c-0.23-0.22-0.46-0.45-0.68-0.67
				c0.39-0.45,0.81-1.3,1.17-1.28c2.19,0.15,3.72-0.85,5.08-2.39c0.2-0.22,0.74-0.15,1.12-0.21c0.1,0.21,0.21,0.42,0.31,0.63
				c-2.31,1.3-4.61,2.6-6.92,3.9c0.8,1.66,1.62,3.34,2.67,5.52C927.98,353.59,927.37,353.13,926.93,352.23z M958.01,415.92
				c-3.07-0.38-6.15-0.75-9.39-1.15c0.83-0.89,1.37-1.46,1.97-2.11c2.33,0.83,4.93,1.76,7.53,2.69
				C958.09,415.54,958.05,415.73,958.01,415.92z M959.32,420.53c2.06-1.59,4.43,2.19,6.32-0.91c0.63,0.96,1.09,1.66,1.75,2.67
				C964.33,422.49,961.39,423.68,959.32,420.53z M964.98,440.51c2.61-0.73,4.81-1.99,7.19-0.37
				C970,442.22,967.96,442.38,964.98,440.51z M967.89,427.02c2.29,1.47,3.29-0.07,4.27-1.04c0.46-0.45,0.22-1.62,0.29-2.46
				c-0.21-0.07-0.42-0.15-0.63-0.22c0.79-0.61,1.58-1.22,2.6-2.01c-0.12,0.83-0.19,1.36-0.3,2.12c1.48,0.09,2.82,0.17,4.36,0.26
				c1.05,0.34,2.36,0.76,3.6,1.16C980.27,427.35,970.06,429.47,967.89,427.02z M974.47,407.37c0.8,2.35,3.02,1.72,4.59,2.28
				c0.04,0.21,0.07,0.41,0.11,0.62c-1.7,0.32-3.39,0.78-5.1,0.92c-4.58,0.37-9.19,0.47-13.76,0.95c-2.35,0.24-3.24-1.6-4.75-2.72
				c1.08,0.08,2.17,0.12,3.24,0.24c1.27,0.15,2.42,0.65,2.91-1.4c0.18-0.73,2.15-1.03,3.42-1.57c-0.17-0.21-0.36-0.45-0.63-0.79
				c1.57-0.02,3.06-0.12,2.45-2.42c1.49,0.12,3.5-1.32,3.35,2.51c1.07-1.15,1.64-1.76,1.82-1.96c1.02,0.47,2.11,1.44,2.92,1.24
				c1.24-0.3,2.28-1.4,3.44-2.18c0.06,0.12,0.38,0.76,0.74,1.47c0.61-0.68,1.13-1.27,1.77-2c0.23,0.72,0.4,1.24,0.71,2.22
				c0.62-1.18,1.03-1.97,1.28-2.46c1.25,0.13,2.27,0.23,3.83,0.39C983.09,405.87,978.93,406.7,974.47,407.37z M991,353.54
				c-2.19,0.42-4.41,0.92-6.63,0.95c-1.77,0.02-1.94-1.53-1.85-3.47c2.21,1.73,4.33,3.5,6.32,0.76c0.72,0.43,1.24,0.96,1.76,0.97
				c0.5,0.01,1.01-0.53,1.51-0.83c0.12,0.18,0.24,0.37,0.37,0.55C991.99,352.84,991.54,353.43,991,353.54z M1002.83,324.45
				c2.17,0.4,3.06-1.23,4.39-2.23c0.4-0.3,0.84-0.54,1.26-0.81c0.17,0.27,0.34,0.54,0.51,0.81c-2.29,1.51-4.57,3.01-7.12,4.69
				C1001.36,325.29,1001.49,324.21,1002.83,324.45z M1002.85,346.63c0-1.58,0-3.15,0-4.73c0.18-0.01,0.37-0.03,0.55-0.04
				c0.08,1.57,0.17,3.14,0.25,4.71C1003.39,346.6,1003.12,346.62,1002.85,346.63z M1043.44,416.28c-0.01,0.05-0.02,0.1-0.03,0.15
				c-0.05-0.07-0.1-0.13-0.16-0.21C1043.32,416.25,1043.37,416.26,1043.44,416.28z M1043.2,421.59c-0.54,0.01-1.09-0.01-1.62-0.07
				c-0.41-0.81-0.83-1.63-1.26-2.48C1041.73,419.77,1042.68,420.62,1043.2,421.59z M1039.16,420.23c0.03,0.18,0.07,0.48,0.13,0.89
				c-1.04-0.25-2.06-0.62-3.05-1.12C1037.12,420.07,1038.03,420.14,1039.16,420.23z M1036.74,417.84c-0.34,0.66-0.66,1.29-0.97,1.91
				c-0.57-0.32-1.12-0.69-1.65-1.12C1035.08,418.34,1035.92,418.07,1036.74,417.84z M1027.89,446.9c0.74-0.31,1.49-0.62,2.22-0.93
				c0.48,0.07,0.96,0.14,1.43,0.21c-0.75,0.56-1.51,1.13-2.26,1.69C1028.82,447.56,1028.36,447.22,1027.89,446.9z M1030.64,448.54
				c0.63-0.08,1.28-0.16,1.99-0.25c0.05,0.18,0.16,0.56,0.32,1.13C1032.18,449.12,1031.41,448.82,1030.64,448.54z M1037.35,450.44
				c-0.22,0.16-0.43,0.3-0.64,0.43c-1.14-0.41-2.27-0.86-3.41-1.31c1.42-1.64,3.21-2.02,5-2.36c1.04,0.16,2.07,0.32,3.13,0.48
				c0.04-0.66,0.06-1.02,0.08-1.37c0.47,0.03,0.84,0.59,1.24,0.95C1041.12,448.47,1039,449.19,1037.35,450.44z M1042.58,430.45
				c0.24-0.09,0.49-0.16,0.74-0.22c0.1,0.29,0.17,0.6,0.23,0.94C1043.21,430.91,1042.89,430.68,1042.58,430.45z M1047.78,430.3
				c0-0.02,0-0.05-0.01-0.07c0.06,0.01,0.11,0.02,0.17,0.03C1047.88,430.26,1047.83,430.28,1047.78,430.3z M1047.67,429
				c-0.01-0.1-0.02-0.2-0.03-0.31c1.34-0.08,2.51-0.16,3.9-0.25c-0.82,0.68-1.77,1.25-2.93,1.62
				C1048.33,429.75,1048.03,429.41,1047.67,429z M1054.02,431.91c0.28,0.18,0.57,0.37,0.86,0.55c-0.92,0.52-1.85,1.04-2.77,1.56
				c-0.46-0.1-0.93-0.18-1.4-0.24C1052,433.53,1053.06,432.85,1054.02,431.91z M1049.97,445.18c-0.19-0.23-0.31-0.39-0.31-0.39
				c0.04-0.01,0.07-0.03,0.11-0.04C1049.84,444.89,1049.91,445.03,1049.97,445.18z M1050,453.6c-0.11-0.45-0.09-0.77,0-1
				C1050,452.94,1050,453.27,1050,453.6z M1050.64,447.97c-0.37-0.29-0.7-0.69-0.97-1.25c-0.09-0.19-0.16-0.38-0.24-0.57
				c0.26-0.16,0.52-0.32,0.8-0.46c0.34,0.7,0.69,1.43,1.08,2.22C1051.08,447.93,1050.86,447.95,1050.64,447.97z M1052.03,447.86
				c0.73-1.15,1.18-1.88,1.66-2.63c0.54,1.04,1.19,1.89,2.12,2.32C1054.55,447.65,1053.29,447.75,1052.03,447.86z M1051.76,428.26
				c-1.1-0.63-1.9-1.09-2.84-1.62c3.35-0.36,6.96-2.94,7.45-5.56c-2.41,0.54-4.65,1.05-7.13,1.61c0-0.84,0-1.38,0-1.61
				c-0.69,0.05-1.38,0.12-2.06,0.19c0.44-0.69,1.3-1.11,2.67-1.33c0.19,0.62,0.37,1.24,0.55,1.87c0.59-0.25,1.17-0.54,1.77-0.74
				c0.58-0.18,1.18-0.29,1.78-0.38c0.68-0.1,1.37-0.14,2.06-0.21c0.09-0.26,0.17-0.51,0.26-0.77c-1.75-1.08-3.5-2.17-5.41-3.35
				c2.1,0,4.2,0,6.29,0c-0.76,0.96-2.28-0.39-3.03,0.43c1.93,1.98,4.68,2.72,7.09,3.97c-0.64,0.56-1.24,1.15-2.05,1.38
				c-0.48-0.42-1.02-0.9-1.84-1.63C1055.35,422.96,1054.14,426.14,1051.76,428.26z M1058.06,447.36c-0.17-0.52-0.33-1.03-0.49-1.53
				c0.57-0.27,1.14-0.53,1.44-0.67c0.15,0.13,0.3,0.25,0.45,0.38c-0.06,0.02-0.12,0.04-0.19,0.06c0.16,0.06,0.3,0.11,0.45,0.17
				c0.52,0.45,1.04,0.89,1.55,1.33C1060.2,447.18,1059.13,447.27,1058.06,447.36z M1062.15,423.29c0.29-0.45,0.59-0.92,0.9-1.4
				c0.67,0.51,1.27,1.12,1.78,1.87C1064.07,423.62,1063.15,423.46,1062.15,423.29z M1065.3,415.66c-0.36,0.02-0.76-0.87-1.01-1.18
				c2.27,0,4.09,0,5.92,0c0.03,0.17,0.06,0.34,0.09,0.5C1068.63,415.24,1066.97,415.57,1065.3,415.66z M1100.12,445.6
				c0.41,0.06,0.95-0.06,1.5-0.28c0.46,0.21,0.91,0.43,1.37,0.64c-0.08,0.23-0.15,0.46-0.23,0.69c0.56-0.47,1.12-0.94,1.64-1.37
				c0.7,0.74,1.4,1.47,2.1,2.21c-3.54-0.06-6.94-0.02-10.07-2.02C1097.69,445.3,1098.91,445.43,1100.12,445.6z M1093.68,466.63
				c1.24,0.12,2.48,0.29,3.72,0.45c0.61,2.48,1.12,2.63,3.92,1.43c-0.21,0.98-0.13,1.54,0.11,1.86c-3.13-0.31-6.1-1.72-9.09-3.08
				C1092.82,466.86,1093.27,466.59,1093.68,466.63z M1105.92,473.13c0.23,0.64,0.45,1.24,0.65,1.82c-1.58,0.57-3.13,0.83-4.83,0.16
				c-2.67-1.05-5.32-2.15-7.98-3.22c0.05-0.19,0.1-0.39,0.16-0.58c1.01,0.18,2.01,0.35,2.82,0.5c0.17-0.21,0.32-0.36,0.48-0.47
				c0.99,1.56,3.77,3.95,4.65,3.64c1.06-0.37,1.92-1.35,2.8-2.14c1.89-1.7,2.85-1.78,4.79-0.05
				C1108.27,472.89,1107.3,472.99,1105.92,473.13z M1108.53,460.55c-2.71-0.43-5.47-0.87-8.24-1.3c0.02-0.31,0.04-0.62,0.06-0.94
				c1.53-0.11,3.06-0.23,4.58-0.34c-0.04-0.09-0.18-0.42-0.35-0.83c0.7-0.04,1.34-0.08,2.19-0.13c-0.5-0.42-0.79-0.67-0.85-0.72
				c0.67-0.44,1.34-0.89,2.03-1.33c1.37,1.44,2.74,2.88,4.14,4.36C1110.9,459.74,1109.72,460.18,1108.53,460.55z M1108.53,454.61
				c-2.71-0.43-5.47-0.87-8.24-1.3c0.01-0.11,0.01-0.22,0.02-0.34c-1.33-0.28-2.63-0.75-3.88-1.55c1.26-0.18,2.48-0.05,3.69,0.12
				c0.41,0.06,0.95-0.06,1.5-0.28c0.46,0.21,0.91,0.43,1.37,0.64c-0.03,0.09-0.06,0.19-0.09,0.28c0.13-0.01,0.26-0.02,0.4-0.03
				c0.38-0.32,0.75-0.63,1.11-0.93c0.11,0.12,0.23,0.24,0.34,0.36c-0.05-0.11-0.1-0.24-0.16-0.38c0.7-0.04,1.34-0.08,2.19-0.13
				c-0.5-0.42-0.79-0.67-0.85-0.72c0.67-0.44,1.34-0.89,2.03-1.33c1.37,1.44,2.74,2.88,4.14,4.36
				C1110.9,453.8,1109.72,454.24,1108.53,454.61z M1119.48,441.68c-2.39,0.46-4.81,1-7.22,1.03c-1.93,0.02-2.11-1.67-2.02-3.78
				c2.41,1.89,4.71,3.82,6.89,0.83c0.79,0.46,1.35,1.04,1.92,1.05c0.54,0.01,1.1-0.58,1.64-0.91c0.13,0.2,0.27,0.4,0.4,0.6
				C1120.56,440.91,1120.07,441.57,1119.48,441.68z M1119.48,435.74c-2.39,0.46-4.81,1-7.22,1.03c-1.93,0.02-2.11-1.67-2.02-3.78
				c2.41,1.89,4.71,3.82,6.89,0.83c0.79,0.46,1.35,1.04,1.92,1.05c0.54,0.01,1.1-0.58,1.64-0.91c0.13,0.2,0.27,0.4,0.4,0.6
				C1120.56,434.98,1120.07,435.63,1119.48,435.74z M1132.38,409.98c2.36,0.43,3.34-1.34,4.78-2.43c0.43-0.33,0.91-0.59,1.37-0.88
				c0.19,0.29,0.37,0.59,0.56,0.88c-2.49,1.64-4.98,3.28-7.76,5.11C1130.77,410.89,1130.91,409.71,1132.38,409.98z M1132.4,434.16
				c0-1.72,0-3.43,0-5.15c0.2-0.01,0.4-0.03,0.6-0.04c0.09,1.71,0.18,3.42,0.27,5.13C1132.98,434.12,1132.69,434.14,1132.4,434.16z"
				/>
			<path class="st0" d="M776.22,487.85c-0.46,0.03-0.93,0-1.79,0c0.89-0.83,1.51-1.41,2.6-2.43c-1.47,0.22-2.32,0.35-3.45,0.52
				c0.36-0.77,0.6-1.31,1.17-2.55c-3.81,2.16-6.96,4.11-11.12,3.16c-3.71-0.85-7.72-0.67-9.03-4.99c2.52,0.49,5.18,1,7.97,1.54
				c0.2-0.82,0.34-1.41,0.52-2.12c1.44,0.62,2.81,1.22,4.41,1.92c0.11-0.78,0.18-1.29,0.27-1.93c2.67,0,5.35,0,8.56,0
				c-0.69-1.03-1.02-1.53-1.44-2.16c0.92-0.41,1.7-0.77,2.62-1.19c-0.31-0.47-0.54-0.83-0.78-1.19c2-1.22,3.97-2.42,6.28-3.83
				c-2.69-0.74-4.91-1.36-7.29-2.02c0.02-0.14,0.1-0.57,0.21-1.25c-3.06,0.6-6.05,1.19-9.02,1.78c0.4-1.45,0.69-2.51,1.15-4.2
				c-8.84,5.06-15.62,0.43-22.63-2.85c0.05-0.27,0.09-0.53,0.14-0.8c2.43,0.43,4.86,0.86,7.58,1.33c0.1-0.25,0.34-0.88,0.58-1.51
				c1.68-0.23,3.22,3.4,5.1,0.21c0.71,1.85,2.48,2.36,4.03,1.83c1.08-0.37,3.44-0.79,1.96-3.39c1.4,0.17,2.41,0.29,3.56,0.43
				c0-1.42,0-2.74,0-4.32c0.63,0.33,1.38,0.88,2.22,1.11c0.87,0.25,1.83,0.19,2.87,0.28c-0.16-0.84-0.26-1.37-0.35-1.88
				c1.67-0.71,3.27-1.39,4.87-2.07c-0.03-0.19-0.06-0.38-0.08-0.57c-1.77,0-3.55,0-5.61,0c0.29-0.85,0.46-1.34,0.76-2.22
				c-1.95,0.95-3.65,1.78-5.34,2.6c-0.31-0.58-0.6-1.14-1.12-2.13c0.02-0.03,0.27-0.56,0.74-1.55c-3.66,1.61-6.34,4.99-10.69,3.31
				c-3.49-1.35-7.37-1.81-9.84-5.01c0.1-0.25,0.19-0.51,0.29-0.76c0.98,0.39,2.03,0.68,2.94,1.19c1.24,0.7,2.32,1.32,2.72-0.59
				c1.44,0.8,2.87,1.59,4.38,2.43c0.28-0.63,0.44-0.84,0.45-1.05c0.12-3.35,0.21-3.36,3.2-1.67c1.12,0.63,2.47,0.86,3.72,1.28
				c0.11-0.21,0.22-0.41,0.33-0.62c-1.03-0.96-2.07-1.91-3.1-2.87c0.05-0.1,0.09-0.19,0.14-0.29c1.97,0.75,3.95,1.51,5.92,2.26
				c0.08-0.16,0.16-0.31,0.24-0.47c-0.27-0.43-0.54-0.87-0.92-1.47c1.23-0.44,2.34-0.84,3.49-1.25c-0.37-0.48-0.67-0.87-0.91-1.17
				c1.82-0.32,3.53-0.62,5.24-0.92c-0.01-0.32-0.01-0.64-0.02-0.96c-0.79-0.27-1.56-0.65-2.37-0.8c-1.33-0.24-2.94,0.53-3.79-1.32
				c-0.1-0.22-1.24-0.1-1.83,0.08c-1.7,0.51-3.37,1.12-5.2,1.75c-0.73-2.13-1.72-3.9-4.47-2.55c-0.16-0.7-0.3-1.28-0.49-2.07
				c-3.49,2.22-6.78,4.75-11.03,2.22c0.4-0.69,0.78-1.35,1.28-2.2c-1.8-0.62-3.93-0.08-5.62-0.6c1.05-1.66,1.62-2.57,2.22-3.53
				c0.98,1.92,2.32,3.27,4.87,2.71c-0.23-0.72-0.44-1.38-0.66-2.06c0.62-0.29,1.24-0.58,1.56-0.73c1.73,1.49,3.32,2.84,5.02,4.3
				c0.81-1.48,1.34-2.42,1.9-3.45c3.26,2.4,5.68-0.03,8.35-0.73c0.08-0.3,0.16-0.59,0.24-0.89c-3.19-1.39-6.37-2.78-9.7-4.24
				c0.18-0.37,0.43-0.87,0.69-1.38c-0.09-0.26-0.18-0.52-0.26-0.78c-2.31,0.45-4.61,0.9-7.12,1.38c1.02-0.92,1.85-1.67,2.69-2.43
				c-0.11-0.13-0.22-0.26-0.34-0.38c1.21-0.56,2.42-1.12,3.64-1.68c-0.03-0.2-0.05-0.39-0.08-0.59c-1.92-0.39-3.85-0.79-6.04-1.24
				c0.37-0.81,0.69-1.5,1.05-2.27c1.09,0.41,1.98,0.74,2.55,0.95c1.79-1.08,3.38-2.03,5.58-3.36c-1.74-0.67-3.1-1.2-4.93-1.92
				c1.34-1.48,2.59-2.86,3.95-4.37c-0.94-0.16-2.28-0.4-3.77-0.66c0.76-1.19,1.55-2.41,2.55-3.97c-2.91-0.55-3.75,2.15-5.77,2.72
				c-0.52-0.46-1.1-0.98-1.99-1.77c-1.99,2.45-3.27,5.57-5.47,7.85c0.93-0.5,1.76-1.22,2.53-2.1c0.23-0.27,0.87-0.17,1.32-0.25
				c0.12,0.25,0.25,0.49,0.37,0.74c-2.75,1.55-5.5,3.1-8.26,4.65c-0.13-0.13-0.27-0.26-0.4-0.39c-0.16,0.04-0.3,0.09-0.47,0.13
				c-0.08-0.87-0.13-1.7-0.24-2.53c-0.19-1.51-0.32-3.03-0.64-4.52c-0.56-2.51,0.31-3.75,3.13-4.19c0.2,0.67,0.4,1.35,0.6,2.02
				c0.64-0.27,1.26-0.59,1.92-0.8c0.63-0.2,1.28-0.32,1.93-0.41c0.74-0.11,1.49-0.15,2.24-0.22c0.09-0.28,0.19-0.56,0.28-0.84
				c-1.9-1.18-3.79-2.35-5.87-3.64c2.68,0,5.36,0,8.04,0c0.04-0.18,0.07-0.37,0.11-0.55c-1.32-0.75-2.64-1.51-4.07-2.33
				c1.16-0.93,2.27-1.83,3.38-2.72c-0.09-0.21-0.18-0.43-0.28-0.64c-2.01,0.72-4.02,1.44-6.17,2.21c-0.05-0.42-0.13-1.06-0.29-2.31
				c-1.85,2.53-3.4,4.65-4.95,6.76c-1.44-5.74,3.62-8.06,5.58-12.16c-2.73-0.83-3.7,1.11-5.02,3.02c-1.99-2.51,0.62-6.53-3.23-8.04
				c-0.16,3.04-0.33,6.07-0.51,9.53c-1.77-1.46-3.28-2.71-4.8-3.96c-0.25,0.17-0.51,0.33-0.76,0.5c0.7,1.17,1.25,2.45,2.11,3.49
				c2.71,3.25,3.34,4.38,2.73,7.44c0.36,0.97,0.37,2.04-0.04,3.21c-1.11-2.18-2.15-4.24-3.29-6.48c0.42,0.22,0.79,0.44,1.13,0.68
				c-0.45-1.09-0.9-2.19-1.35-3.28c-0.26,0.05-0.51,0.1-0.77,0.14c-0.35,0.76-0.7,1.52-1.06,2.31c-1.59-0.65-3.18-1.29-4.77-1.94
				c-0.21,0.29-0.41,0.57-0.62,0.86c1.34,1.83,2.69,3.67,3.86,5.26c-0.53,1.05-1,1.97-1.47,2.9c1.15,0.09,2.3,0.19,3.79,0.31
				c0.04,0.3,0.13,0.87,0.25,1.7c1.4,0.07,2.48,0.57,3.25,1.42c-0.74-1.45-1.47-2.89-2.24-4.41c3.11,1.61,4.2,3.75,3.3,6.41
				c0.07,0.26,0.15,0.51,0.19,0.79c-1.58-1.17-2.99-2.21-4.36-3.22c0,0.02,0.01,0.04,0.01,0.06c-1.77-0.63-3.15-1.12-4.65-1.65
				c-0.59,2.54,1.79,3.06,2.75,4.46c-4.04,1.28-4.02,1.25-8.07-0.88c-1.17-0.62-2.43-1.06-3.84-1.66c-0.94,2.77,1.55,3.12,2.62,4.4
				c-1.04,0.43-2.02,0.84-3.03,1.26c2.13,1.5,4.04,2.84,6.38,4.48c-2.21,0.65-3.81,1.13-5.41,1.6c-0.01,0.34-0.03,0.69-0.04,1.03
				c1.03,0.23,2.04,0.54,3.08,0.65c0.61,0.07,1.32-0.38,1.88-0.22c1.04,0.29,2.01,1.2,3.01,1.21c1,0.01,2-0.77,3.32-0.77
				c-0.65,0.69-1.31,1.38-1.96,2.06c0.05,0.22,0.11,0.44,0.16,0.66c1.14-0.13,2.28-0.26,3.63-0.42c0.07,0.48,0.17,1.22,0.33,2.35
				c1.59-0.73,3.03-1.4,4.73-2.18c0.24,0.55,0.66,1.5,1.36,3.11c-3.49,0.12-6.52,0.32-9.54,0.31c-2.99-0.01-5.15-3.23-9.16-2.44
				c1.28,1.01,2.04,1.62,2.8,2.23c-0.08,0.19-0.15,0.37-0.23,0.56c-2.51-1.1-5.03-2.19-7.53-3.32c-0.51-0.23-0.91-0.75-1.43-0.9
				c-0.72-0.2-1.57-0.35-2.24-0.13c-0.26,0.09-0.19,1.22-0.29,2.02c-2.04,0.31-4.25,0.64-6.89,1.04c2.75,3.08,6.05,2.22,9.19,2.44
				c-0.95,0.9-1.73,1.63-2.71,2.57c3.57,2.18,5.13-2.35,8.31-1.91c-1.25,0.77-2.18,1.33-3.23,1.98c0.65,1.09,1.25,2.09,1.88,3.15
				c2.62-1.1,5.17-2.17,7.72-3.23c0.06,0.08,0.11,0.16,0.17,0.24c-1.47,1.1-2.94,2.21-4.42,3.31c0.08,0.24,0.16,0.49,0.24,0.73
				c1.15-0.15,2.3-0.29,3.63-0.46c0.07,0.25,0.23,0.8,0.48,1.68c2.15-2.77,5.16-2.57,7.87-3.34c1.84-0.52,3.42-1.97,5.18-3.04
				c-1.07,4.16-5.45,4.79-8.4,7.03c-4.13,3.14-7.41-0.52-11.54-1.22c0.42,1,0.7,1.67,1.09,2.61c-2.15-0.47-4.19-0.92-6.32-1.39
				c-0.65,2.38-2.46,1.67-3.98,1.31c-1.59-0.37-2.46,0.06-2.89,1.81c0.65,0.19,1.23,0.35,1.86,0.53c-0.26,0.46-0.53,0.91-0.63,1.1
				c1.98,1.1,3.88,2.15,5.77,3.21c-0.08,0.06-0.16,0.12-0.24,0.18c1.2,0.34,2.43,0.59,3.56,1.09c0.24,0.11,0.1,1.09,0.14,1.68
				c-0.49-0.01-0.97-0.02-1.46-0.05c-2.02-0.13-4.04-0.27-6.08-0.41c0.71,1.77,1.27,3.16,1.83,4.55c-0.24,0.18-0.49,0.37-0.73,0.55
				c-1.84-0.95-3.68-1.91-5.94-3.08c0.25,1.2,0.4,1.86,0.6,2.83c-2.34-0.21-4.48-0.4-6.62-0.6c-0.1,0.24-0.21,0.48-0.31,0.72
				c1.61,0.77,3.22,1.54,5.02,2.4c-0.03,0.3-0.09,0.87-0.11,1.03c2.75,1.15,5.24,2.19,8.13,3.4c0,0,0.58-0.43,1.16-0.86
				c2.77,2.53,5.53,5.05,8.45,7.72c-4.98,1.64-9.92,3.15-15.24-0.18c0.21,3.15-1.34,3-3.23,2.6c-1.07-0.23-2.23-0.04-3.74-0.04
				c1.69,1.69,2.87,2.86,4.04,4.03c-0.14,0.18-0.28,0.36-0.42,0.54c0.71,0.07,1.41,0.14,2.29,0.23c0.23,2.96,2,2.68,4.26,1.58
				c-0.33,3.75,2.47,1.51,3.86,2.14c-1.72,1.99-5.49,2.45-8.37,1.19c-0.97-0.43-1.85-1.67-3.16,0.18c-0.57,0.8-3.02,0.27-5.36,0.38
				c1.14,0.65,1.69,0.98,2.26,1.3c0.57,0.31,1.57,0.51,1.65,0.91c0.57,2.76,2.55,2.1,4.33,1.9c1.03,2.46,3.23,3.45,5.42,3.82
				c0.98,0.16,2.29-1.27,3.36-2.09c1.62-1.23,3.18-1.77,5.35,0.16c-1.52,0.14-2.58,0.24-4.02,0.37c0.45,1.2,0.84,2.25,1.18,3.18
				c-4.92,2.98-10.36,3.55-15.82,4.02c-0.32,0.03-0.88-0.02-0.93,0.12c-1.35,3.49-4.68,2.06-7.09,2.89
				c-0.05,0.02-0.07,0.12-0.33,0.62c1.82,0.75,3.6,1.48,5.57,2.29c-0.19,0.47-0.44,1.08-0.55,1.36c0.76,0.55,1.38,1.23,2.15,1.51
				c0.76,0.27,1.68,0.26,2.49,0.15c1.64-0.22,3.3-0.7,3.51,2.2c0.99-0.92,1.62-1.51,2.4-2.24c0.35,2.05,1.98,2.26,3.35,1.88
				c1.36-0.38,2.53-1.47,3.88-2.31c0.05,0.08,0.4,0.74,0.86,1.57c0.71-0.67,1.38-1.29,2.17-2.02c0.27,0.71,0.46,1.24,0.83,2.21
				c0.77-1.16,1.31-1.98,1.64-2.48c1.49,0.18,2.7,0.32,4.58,0.54c-4.78,3.23-9.69,4.2-14.81,4.63c0.63,1.2,0.73,1.37,3.77,2.35
				l57.8-15.45c0.21-0.22,0.42-0.45,0.63-0.67c0.26,0.09,0.54,0.19,0.81,0.29l7.42-1.98c-0.8-0.66-1.49-1.51-2.36-2.14
				c1.28,0.09,2.56,0.14,3.83,0.29c1.5,0.17,2.86,0.77,3.44-1.65c0.1-0.41,0.67-0.7,1.4-0.96c0.05-0.02,0.11-0.04,0.17-0.06
				C780,486.43,778.11,487.74,776.22,487.85z M726.92,414.33c3.24-0.3,5.16,1.24,5.66,4.19
				C730.49,416.98,728.71,415.66,726.92,414.33z M724.56,451.7c-2.45,0.43-4.92,0.76-7.39,0.99c-2.19,0.2-2.6-1.24-2.66-3.53
				c2.77,1.54,5.34,3.52,8.08,0.21c1.01,3.49,2.5,0,3.94,1.12C725.81,450.95,725.23,451.59,724.56,451.7z M724.56,445.77
				c-2.45,0.43-4.92,0.76-7.39,0.99c-2.19,0.2-2.6-1.24-2.66-3.53c2.77,1.54,5.34,3.52,8.08,0.21c1.01,3.49,2.5,0,3.94,1.12
				C725.81,445.01,725.23,445.65,724.56,445.77z M738.6,421.47c2.59,0.18,4.4-1,6.01-2.82c0.23-0.27,0.87-0.17,1.32-0.25
				c0.12,0.25,0.25,0.49,0.37,0.74c-2.75,1.55-5.5,3.1-8.26,4.65c-0.27-0.27-0.55-0.54-0.82-0.81
				C737.68,422.45,738.18,421.44,738.6,421.47z M739.59,444.48c-0.19,0.02-0.39,0.03-0.58,0.05c0-1.65,0-3.3,0-4.95
				c0.19-0.01,0.39-0.01,0.58-0.02C739.59,441.2,739.59,442.84,739.59,444.48z M739.59,436.02c0,0.84,0,1.68,0,2.52
				c-0.19,0.02-0.39,0.03-0.58,0.05c0-1.23,0-2.47,0-3.7c-0.57-1.37-0.89-2.86-1.01-4.39c0.49,1.02,0.98,2.03,1.51,3.13
				c0.03,0,0.05,0,0.08,0c0,0.06,0,0.11,0,0.17c0.52,1.07,1.07,2.2,1.69,3.49C740.63,437.07,740.06,436.68,739.59,436.02z
				 M739.22,429.46c-0.73-1.5-1.09-3.18-1.23-4.91c0.99,2.05,1.98,4.1,3.28,6.79C740.46,431.07,739.74,430.53,739.22,429.46z"/>
			<path class="st0" d="M721.67,527.83h-4.56l-7.58,2.03l-0.2-1.8c-5.52,1.71-11.17,2.98-17.64,0c0.74,1.15,1.08,1.67,1.61,2.48
				c-4.77-0.62-9.29-1.21-13.82-1.8c-0.07,0.15-0.14,0.31-0.22,0.46c2.21,1.01,4.42,2.01,6.57,2.99c-0.8,0.14-1.79,0.3-2.78,0.47
				c-0.03,0.29-0.06,0.58-0.09,0.87c1.44,0.36,2.88,0.71,4.56,1.13c-0.42,0.59-0.79,1.11-1.09,1.54c3.6,1.29,8.02-0.38,11.11,3.3
				c0.45-0.32,1-0.71,1.91-1.35c-0.45,1.15-0.75,1.93-1.31,3.35c2.15-0.67,3.78-1.18,5.55-1.74c-0.05,1.69-1.13,2.42-2.55,2.99
				c-5.47,2.22-11,3.13-16.78,1.14c-1.01-0.35-2.79-0.93-2.23,1.65c-2.34-0.38-4.63-0.75-7.6-1.23c0.97,1.33,1.54,2.11,2.12,2.9
				c-2.62-0.2-5.23-0.41-7.85-0.61c-0.07,0.4-0.15,0.81-0.22,1.21c2.48,0.67,4.96,1.34,7.42,2c-0.72,0.76-1.62,1.72-2.62,2.78
				c1.97,1.34,3.75,2.52,5.49,3.76c1.13,0.8,2.12,0.76,3.3-0.01c0.47-0.31,1.63-0.27,1.98,0.09c0.48,0.5,0.74,1.52,0.59,2.19
				c-0.1,0.41-1.14,0.73-1.8,0.85c-2.47,0.46-4.96,0.82-7.8,1.27c2.18,2.67,4.71,1.34,7.31,1.4c-1.43,1.03-2.61,1.87-3.87,2.78
				c2.2,0.71,3.98,1.29,5.76,1.87c-0.07,0.22-0.15,0.44-0.22,0.66c1.14-0.33,2.28-0.66,3.74-1.09c-0.32,0.68-0.49,1.05-0.66,1.43
				c1.56,0.14,3.12,0.28,4.67,0.42c-0.01,0.41-0.01,0.83-0.02,1.24c-6.16,0-12.33,0-18.49,0c-0.02,0.24-0.04,0.48-0.06,0.72
				c0.9,0.5,1.8,1,2.7,1.51c-0.03,0.21-0.06,0.42-0.09,0.63c-2.26,0.43-4.53,0.85-6.79,1.28c-0.01,0.37-0.03,0.74-0.04,1.11
				c1.45,0.19,2.91,0.6,4.35,0.52c1.57-0.09,3.11-0.63,5.02-1.06c-1.05,1.37-1.85,2.41-2.65,3.45c0.11,0.19,0.23,0.38,0.34,0.57
				c1.35-0.31,2.86-1.12,3.98-0.75c0.89,0.3,1.3,2.04,2.07,3.4c1.44-0.78,2.89-1.58,4.73-2.58c-0.2,1.36-0.37,2.54-0.63,4.27
				c2.65-1.95,4.94-3.64,7.49-5.52c-0.71,1.37-1.31,2.51-1.9,3.66c0.23,0.18,0.46,0.36,0.69,0.54c1-0.67,2-1.34,3-2.01
				c0.18,0.22,0.36,0.44,0.54,0.66c-0.78,0.63-1.47,1.59-2.36,1.85c-3.92,1.13-7.82,1.57-11.94,0.39c-1.72-0.49-3.85,0.44-6.01,0.76
				c0.19,0.48,0.38,0.98,0.76,1.96c-2.14,0-4,0-5.85,0c-0.02,0.26-0.03,0.51-0.05,0.77c1.03,0.23,2.05,0.46,3.71,0.84
				c-2.46,1.3-4.54,2.4-6.62,3.51c0.07,0.21,0.15,0.42,0.22,0.63c2.24-0.38,4.47-0.75,6.98-1.17c-0.64,0.87-1.1,1.48-1.77,2.38
				c1.11,0.13,1.92,0.23,2.81,0.33c-0.2,0.57-0.38,1.07-0.74,2.07c1.61-0.71,2.83-1.25,4.15-1.84c1.23,2.62,2.97,1.08,4.79,0.29
				c0.17,2.26,1.35,1.95,2.73,1.26c1.36-0.67,2.74-1.63,4.23-0.16c-2.65,0.73-5.31,1.45-8.16,2.23c1.19,1.31,1.19,1.31,6.11,0.54
				c-1.23,1.29-2.21,2.31-3.18,3.33c0.06,0.18,0.12,0.35,0.18,0.53c2.21-0.62,4.41-1.23,7.02-1.96c-0.64,1.15-1.14,2.07-1.65,2.97
				c1.02,0.46,1.95,0.88,3.25,1.47c0.3-0.16,1.07-0.59,1.83-1.01c1.42,2.64,3.15,1.38,6.61-1.08c0.05,0.99,0.09,1.91,0.16,3.21
				c1.11-0.58,1.99-0.94,2.76-1.47c0.79-0.54,1.48-1.25,2.39-2.04c0.26,0.78,0.54,1.35,0.63,1.94c0.23,1.56,0.96,1.59,2.22,1.02
				c0.8-0.37,1.77-0.38,2.79-0.09c1.25-1.13,2.5-2.27,3.86-3.5c4.49,3.08,4.3-2.82,6.89-3.95c0,0.68,0,1.25,0,2.34
				c2.51-1.97,5.5-2.82,5.71-6.35c1.27,0.68,2.13,1.14,2.7,1.61c0.07-0.25,0.16-0.5,0.22-0.75v-2.23v-2.78v-56.65h-21.98
				L721.67,527.83z M686.39,558.58c0.9-0.65,1.8-1.3,2.77-2c0.62,0.58,1.49,1.41,2.49,2.35c0.72-0.77,1.41-1.5,2.19-2.33
				c1.29,0.68,2.54,1.35,4.07,2.16c0.63-0.21,1.71-0.57,2.8-0.94c0.04,0.23,0.09,0.45,0.13,0.68
				C696.19,560.48,691.42,559.71,686.39,558.58z"/>
		</g>
		<g>
			<polygon class="st1" points="796.93,524.39 796.93,505.87 737.47,524.39 			"/>
			<polygon class="st1" points="862.2,487.99 802.96,504.36 802.96,524.39 862.2,524.39 			"/>
			<polygon class="st1" points="867.59,524.39 928.12,524.39 928.12,470.75 867.59,487.99 			"/>
			<rect x="737.47" y="529.78" class="st1" width="59.46" height="73.46"/>
			<rect x="803.82" y="529.78" class="st1" width="59.46" height="73.46"/>
			<rect x="868.66" y="529.78" class="st1" width="59.46" height="73.46"/>
			<polygon class="st1" points="1129.66,524.39 1189.12,524.39 1129.66,505.87 			"/>
			<polygon class="st1" points="1064.38,524.39 1123.63,524.39 1123.63,504.36 1064.38,487.99 			"/>
			<polygon class="st1" points="998.46,524.39 1059,524.39 1059,487.99 998.46,470.75 			"/>
			<rect x="1129.66" y="529.78" class="st1" width="59.46" height="73.46"/>
			<rect x="1063.31" y="529.78" class="st1" width="59.46" height="73.46"/>
			<rect x="998.46" y="529.78" class="st1" width="59.46" height="73.46"/>
			<rect x="933.51" y="529.78" class="st1" width="59.46" height="73.46"/>
			<polygon class="st1" points="963.24,460.63 934.37,469.03 933.51,524.39 963.24,524.39 992.97,524.39 992.11,469.03 			"/>
			<path class="st1" d="M963.24,446.56l-251.08,67.12c0.22,2.85,0.48,5.69,0.8,8.52l250.28-66.91l253.75,67.89
				c0.32-2.82,0.59-5.66,0.82-8.52L963.24,446.56z"/>
		</g>
	</g>
</g>
</svg>
