<?xml version="1.0" encoding="UTF-8"?>
<svg id="_Слой_1" data-name="Слой 1" xmlns="http://www.w3.org/2000/svg" viewBox="0 0 1665.34 572.5">
  <defs>
    <style>
      .cls-1 {
        fill: #3c5904;
      }

      .cls-1, .cls-2 {
        stroke-width: 0px;
      }

      .cls-2 {
        fill: #252d2a;
      }
    </style>
  </defs>
  <g>
    <path class="cls-1" d="m0,546.97v-9.47c2.2-.09,4.04-.38,5.52-.86,1.48-.48,2.63-1.58,3.44-3.3.81-1.72,1.22-4.49,1.22-8.32v-54.92c0-2.58.07-5.07.22-7.46.14-2.39.26-4.21.36-5.45-1.53.1-3.44.17-5.74.22-2.29.05-3.97.12-5.02.22v-11.04h41.16v9.47c-2.1.1-3.92.38-5.45.86-1.53.48-2.7,1.56-3.51,3.23-.81,1.67-1.22,4.47-1.22,8.39v67.54l20.36-.29c2.1-.19,3.89-.5,5.38-.93,1.48-.43,2.63-1.5,3.44-3.23.81-1.72,1.22-4.49,1.22-8.32v-53.2c0-2.58.05-5.07.14-7.46.09-2.39.19-4.21.29-5.45-1.53.1-3.44.17-5.74.22-2.29.05-3.97.12-5.02.22v-11.04h41.16v9.47c-2.1.1-3.92.38-5.45.86-1.53.48-2.7,1.56-3.51,3.23-.81,1.67-1.22,4.47-1.22,8.39v54.92c0,2.49-.05,4.9-.14,7.24-.1,2.34-.24,4.14-.43,5.38l20.94-.29c2.1-.09,3.89-.36,5.38-.79,1.48-.43,2.63-1.53,3.44-3.3.81-1.77,1.22-4.56,1.22-8.39v-53.2c0-2.58.05-5.07.14-7.46.09-2.39.24-4.21.43-5.45-1.53.1-3.44.17-5.74.22-2.29.05-3.97.12-5.02.22v-11.04h41.16v9.47c-2.1.1-3.92.38-5.45.86-1.53.48-2.7,1.56-3.51,3.23-.81,1.67-1.22,4.47-1.22,8.39v54.92c0,2.58-.05,5.07-.14,7.46-.1,2.39-.24,4.21-.43,5.45,1.53-.19,3.46-.31,5.81-.36,2.34-.05,3.99-.07,4.95-.07v11.04H0Z"/>
    <path class="cls-1" d="m151.15,546.97v-9.9c2.68,0,4.83-.76,6.45-2.29,1.62-1.53,2.99-3.54,4.09-6.02,1.1-2.49,2.17-5.16,3.23-8.03l27.96-76.72h10.04l30.55,78.15c.57,1.43,1.34,3.61,2.29,6.53.95,2.92,1.53,5.47,1.72,7.67,1.62-.19,3.18-.31,4.66-.36,1.48-.05,2.7-.07,3.66-.07v11.04h-38.58v-9.47c2.68,0,4.52-.55,5.52-1.65,1-1.1,1.46-2.6,1.36-4.52-.1-1.91-.62-4.06-1.58-6.45l-2.87-7.89-31.12.57-2.29,6.74c-.48,1.24-1.17,3.08-2.08,5.52-.91,2.44-1.75,4.47-2.51,6.09,1.53-.19,3.37-.31,5.52-.36,2.15-.05,3.7-.07,4.66-.07v11.47h-30.69Zm30.98-40.15h23.95l-6.6-17.92c-1.24-3.44-2.34-6.91-3.3-10.4-.96-3.49-1.67-6.57-2.15-9.25h-.14c-.38,1.63-.96,4.06-1.72,7.31-.77,3.25-1.96,7.12-3.58,11.62l-6.45,18.64Z"/>
    <path class="cls-1" d="m251.39,546.97v-9.47c2.77-.67,5.54-2.22,8.32-4.66,2.77-2.44,5.93-6,9.46-10.68l16.64-22.23c-3.82-4.88-7.65-9.75-11.47-14.63-3.83-4.88-7.7-9.75-11.62-14.63-1.53-2.01-2.92-4.23-4.16-6.67-1.24-2.44-2.25-4.71-3.01-6.81-1.53.1-2.85.17-3.94.22-1.1.05-2.18.12-3.23.22v-11.04h43.59v9.47h-1.43c-2.96,0-5.02.43-6.17,1.29s-1.56,2.03-1.22,3.51c.33,1.48,1.22,3.13,2.65,4.95,2.2,2.68,4.35,5.36,6.45,8.03,2.1,2.68,4.21,5.4,6.31,8.17l10.9-15.06c2.01-2.77,3.61-4.8,4.8-6.09,1.19-1.29,2.41-2.51,3.66-3.66-1.53.1-3.44.17-5.74.22-2.29.05-3.97.12-5.02.22v-11.04h32.55v9.47c-2.2.29-4.37,1.05-6.53,2.29-2.15,1.24-4.33,2.99-6.52,5.23-2.2,2.25-4.59,5.14-7.17,8.68l-13.77,18.79c3.06,3.83,6.07,7.65,9.03,11.47,2.96,3.83,5.95,7.65,8.96,11.47,3.01,3.82,6,7.65,8.96,11.47,1.62,2.01,3.11,3.92,4.45,5.74,1.34,1.82,2.34,3.54,3.01,5.16,1.62-.19,2.77-.31,3.44-.36.67-.05,1.48-.07,2.44-.07v11.04h-42.88v-9.47c3.54,0,5.83-.43,6.88-1.29,1.05-.86,1.31-2.03.79-3.51-.53-1.48-1.51-3.13-2.94-4.95-2.39-3.06-4.8-6.14-7.24-9.25-2.44-3.11-4.9-6.19-7.39-9.25-2.1,2.87-4.21,5.76-6.31,8.68-2.1,2.92-4.21,5.81-6.31,8.68-2.01,2.68-3.54,4.69-4.59,6.02-1.05,1.34-2.15,2.58-3.3,3.73,1.62-.09,3.49-.19,5.59-.29,2.1-.09,3.63-.14,4.59-.14v11.04h-31.55Z"/>
    <path class="cls-1" d="m401.53,549.27c-9.08,0-16.8-1.53-23.16-4.59-6.36-3.06-11.5-7.15-15.42-12.26-3.92-5.11-6.79-10.78-8.6-16.99-1.82-6.21-2.72-12.43-2.72-18.64s1.03-12.12,3.08-18.28c2.05-6.17,5.16-11.83,9.32-16.99,4.16-5.16,9.39-9.32,15.7-12.48,6.31-3.15,13.72-4.73,22.23-4.73s16.2,1.58,22.51,4.73c6.31,3.16,11.47,7.34,15.49,12.55,4.02,5.21,7,10.88,8.96,16.99,1.96,6.12,2.94,12.19,2.94,18.21s-1.03,11.95-3.08,18.07c-2.06,6.12-5.16,11.78-9.32,16.99-4.16,5.21-9.39,9.42-15.7,12.62-6.31,3.2-13.72,4.8-22.23,4.8Zm1.58-10.47c4.97,0,9.13-1.22,12.48-3.66,3.35-2.44,6.02-5.62,8.03-9.54,2.01-3.92,3.44-8.2,4.3-12.83.86-4.64,1.29-9.15,1.29-13.55,0-6.6-.57-12.62-1.72-18.07-1.15-5.45-2.92-10.16-5.31-14.13-2.39-3.97-5.43-7.03-9.11-9.18-3.68-2.15-8.01-3.18-12.98-3.08-4.88.1-8.99,1.41-12.33,3.94-3.35,2.53-6.02,5.79-8.03,9.75-2.01,3.97-3.44,8.29-4.3,12.98-.86,4.69-1.29,9.23-1.29,13.62s.5,9.28,1.51,14.34c1,5.07,2.6,9.85,4.8,14.34,2.2,4.5,5.16,8.13,8.89,10.9,3.73,2.77,8.32,4.16,13.77,4.16Z"/>
    <path class="cls-1" d="m462.33,546.97v-9.47c2.2-.09,4.04-.38,5.52-.86,1.48-.48,2.63-1.58,3.44-3.3.81-1.72,1.22-4.49,1.22-8.32v-54.92c0-2.58.07-5.07.22-7.46.14-2.39.26-4.21.36-5.45-1.53.1-3.44.17-5.74.22-2.29.05-3.97.12-5.02.22v-11.04c6.6-.09,13.22-.14,19.86-.14s13.26-.05,19.86-.14c11.47-.09,20.58,2.03,27.32,6.38,6.74,4.35,9.87,10.92,9.39,19.72-.19,2.77-1.05,5.47-2.58,8.1-1.53,2.63-3.8,5-6.81,7.1-3.01,2.1-6.76,3.78-11.26,5.02v.14c9.56,1.53,16.59,4.71,21.08,9.54,4.49,4.83,6.74,10.21,6.74,16.13s-1.5,11.45-4.52,15.7c-3.01,4.26-7.15,7.46-12.4,9.61-5.26,2.15-11.24,3.23-17.92,3.23h-48.76Zm30.4-10.18h4.88c1.53,0,3.06-.02,4.59-.07,1.53-.05,3.01-.07,4.45-.07,5.83-.29,10.09-2.15,12.76-5.59,2.68-3.44,4.02-7.79,4.02-13.05,0-4.4-.91-7.86-2.72-10.4-1.82-2.53-4.14-4.32-6.95-5.38-2.82-1.05-5.76-1.58-8.82-1.58h-6.17c-1.72,0-3.54.05-5.45.14v23.37c0,2.58-.05,5.02-.14,7.31-.1,2.3-.24,4.06-.43,5.31Zm.57-46.18l7.46-.14c4.02-.09,7.19-1,9.54-2.72,2.34-1.72,4.02-4.04,5.02-6.96,1-2.91,1.5-6.09,1.5-9.54,0-3.82-.77-6.81-2.29-8.96-1.53-2.15-3.44-3.7-5.74-4.66-2.29-.95-4.68-1.38-7.17-1.29-1.53,0-2.92.24-4.16.72-1.24.48-2.25,1.56-3.01,3.23-.77,1.67-1.15,4.37-1.15,8.1v22.23Z"/>
    <path class="cls-1" d="m631.12,478.71c-1.24-7.93-3.9-13.91-7.96-17.93-4.06-4.02-9.44-6.07-16.13-6.17-4.97,0-9.32,1.15-13.05,3.44-3.73,2.29-6.81,5.36-9.25,9.18-2.44,3.83-4.25,8.17-5.45,13.05-1.2,4.88-1.79,9.9-1.79,15.06,0,8.22,1.17,15.51,3.51,21.87,2.34,6.36,5.76,11.35,10.25,14.99,4.49,3.63,9.94,5.45,16.35,5.45,6.02,0,12-1.55,17.93-4.66,5.93-3.11,10.9-7.43,14.91-12.98l6.88,6.31c-4.68,6.41-9.61,11.26-14.77,14.56-5.16,3.3-10.21,5.52-15.13,6.67-4.93,1.15-9.35,1.72-13.27,1.72-7.36,0-14.05-1.31-20.08-3.94-6.02-2.63-11.21-6.26-15.56-10.9-4.35-4.64-7.7-10.04-10.04-16.2-2.34-6.17-3.51-12.83-3.51-20,0-6.5,1.05-12.95,3.15-19.36,2.1-6.4,5.23-12.21,9.39-17.42,4.16-5.21,9.39-9.37,15.7-12.48,6.31-3.11,13.62-4.66,21.94-4.66,3.73,0,7.82.6,12.26,1.79,4.45,1.2,8.63,2.94,12.55,5.23l-.57-6.02h11.04v33.41h-9.32Z"/>
    <path class="cls-1" d="m655.78,546.97v-9.47c2.2-.09,4.04-.38,5.52-.86,1.48-.48,2.63-1.58,3.44-3.3.81-1.72,1.22-4.49,1.22-8.32v-54.92c0-2.58.07-5.07.22-7.46.14-2.39.26-4.21.36-5.45-1.53.1-3.44.17-5.74.22-2.29.05-3.97.12-5.02.22v-11.04h41.16v9.47c-2.1.1-3.92.38-5.45.86-1.53.48-2.7,1.56-3.51,3.23-.81,1.67-1.22,4.47-1.22,8.39v21.8h10.32l11.04-18.79c1.62-2.87,3.34-5.74,5.16-8.6,1.81-2.87,3.35-4.83,4.59-5.88-1.53.1-3.16.19-4.88.29-1.72.1-3.11.19-4.16.29v-11.04h35.13v9.47c-2.1.1-4.37.48-6.81,1.15-2.44.67-4.95,2.01-7.53,4.02-2.58,2.01-5.21,5.16-7.89,9.47l-13.77,22.08c1.91,1.24,3.61,2.56,5.09,3.94,1.48,1.39,2.8,2.89,3.94,4.52l14.77,20.79c1.91,2.68,3.89,5.19,5.95,7.53,2.05,2.34,4.18,4.23,6.38,5.66,2.2,1.43,4.35,2.2,6.45,2.29v9.47h-22.08c-.77-.09-2.01-.95-3.73-2.58-1.72-1.62-3.54-3.58-5.45-5.88-1.91-2.29-3.54-4.35-4.88-6.17l-14.2-20.65c-1.24-1.81-2.61-3.68-4.09-5.59-1.48-1.91-2.89-3.34-4.23-4.3h-5.16v21.65c0,2.58-.05,5.07-.14,7.46-.1,2.39-.24,4.21-.43,5.45,1.53-.19,3.46-.31,5.81-.36,2.34-.05,3.99-.07,4.95-.07v11.04h-41.16Z"/>
    <path class="cls-1" d="m751.29,546.97v-9.9c2.68,0,4.83-.76,6.45-2.29,1.62-1.53,2.99-3.54,4.09-6.02,1.1-2.49,2.17-5.16,3.23-8.03l27.96-76.72h10.04l30.55,78.15c.57,1.43,1.34,3.61,2.29,6.53.96,2.92,1.53,5.47,1.72,7.67,1.62-.19,3.18-.31,4.66-.36,1.48-.05,2.7-.07,3.66-.07v11.04h-38.58v-9.47c2.68,0,4.52-.55,5.52-1.65,1-1.1,1.46-2.6,1.36-4.52-.1-1.91-.62-4.06-1.58-6.45l-2.87-7.89-31.12.57-2.3,6.74c-.48,1.24-1.17,3.08-2.08,5.52-.91,2.44-1.75,4.47-2.51,6.09,1.53-.19,3.37-.31,5.52-.36,2.15-.05,3.7-.07,4.66-.07v11.47h-30.69Zm30.97-40.15h23.95l-6.6-17.92c-1.24-3.44-2.34-6.91-3.3-10.4-.96-3.49-1.67-6.57-2.15-9.25h-.14c-.38,1.63-.96,4.06-1.72,7.31-.77,3.25-1.96,7.12-3.58,11.62l-6.45,18.64Z"/>
    <path class="cls-1" d="m851.1,546.97v-9.47c2.2-.09,4.37-.84,6.52-2.22,2.15-1.38,4.28-3.25,6.38-5.59,2.1-2.34,4.06-4.9,5.88-7.67l5.45-8.32c2.1-3.25,4.11-5.64,6.02-7.17,1.91-1.53,4.16-2.68,6.74-3.44-8.32-2.49-14.53-5.95-18.64-10.4-4.11-4.45-6.26-9.97-6.45-16.56-.19-6.31,1.41-11.69,4.8-16.13,3.39-4.45,8.22-7.86,14.48-10.25,6.26-2.39,13.55-3.54,21.87-3.44l40.73.29v9.47c-2.1.1-3.92.38-5.45.86-1.53.48-2.7,1.56-3.51,3.23-.81,1.67-1.22,4.47-1.22,8.39v54.92c0,2.58-.05,5.07-.14,7.46-.1,2.39-.24,4.21-.43,5.45l10.76-.43v11.04h-41.16v-9.47c2.2-.09,4.04-.38,5.52-.86,1.48-.48,2.63-1.58,3.44-3.3.81-1.72,1.22-4.49,1.22-8.32l.14-17.06h-7.17c-2.1,0-4.09.91-5.95,2.72-1.86,1.82-3.75,4.25-5.66,7.31l-9.18,14.34c-1.15,1.91-2.68,3.99-4.59,6.24-1.91,2.25-3.75,4.18-5.52,5.81-1.77,1.63-3.04,2.49-3.8,2.58h-21.08Zm56.5-49.33c1.15,0,2.27-.05,3.37-.14,1.1-.09,2.13-.19,3.08-.29v-40.87h-9.75c-3.73,0-7.05.57-9.97,1.72-2.92,1.15-5.19,3.11-6.81,5.88-1.63,2.77-2.44,6.69-2.44,11.76,0,4.59.81,8.53,2.44,11.83,1.62,3.3,4.11,5.81,7.46,7.53,3.35,1.72,7.55,2.58,12.62,2.58Z"/>
    <path class="cls-1" d="m1036.52,524.46l-33.99-53.2c-1.34-2.2-2.58-4.71-3.73-7.53-1.15-2.82-1.72-4.99-1.72-6.52l-7.03.43v-11.04h42.3v9.47c-2.77-.19-5.07.1-6.88.86-1.82.77-2.92,1.99-3.3,3.66-.38,1.67.19,3.85,1.72,6.53l11.9,20.65c1.43,2.39,3.11,5.07,5.02,8.03,1.91,2.96,3.3,5.26,4.16,6.88l-8.46,21.8Zm-19.07,24.81c-3.06,0-5.93-.6-8.6-1.79-2.68-1.19-4.83-2.87-6.45-5.02-1.63-2.15-2.44-4.61-2.44-7.39,0-2.96.86-5.69,2.58-8.17,1.72-2.49,4.49-3.73,8.32-3.73,3.25,0,5.71.88,7.39,2.65,1.67,1.77,2.51,3.85,2.51,6.24,0,1.05-.17,2.1-.5,3.15-.34,1.05-.88,2.1-1.65,3.15.19.29.45.53.79.72.33.19.74.29,1.22.29,2.48,0,5.11-1.86,7.89-5.59.86-1.24,1.67-2.53,2.44-3.87.76-1.34,1.58-2.99,2.44-4.95.86-1.96,1.86-4.4,3.01-7.31,1.15-2.92,2.51-6.5,4.09-10.75,1.58-4.25,3.46-9.39,5.66-15.42,2.2-6.02,4.78-13.1,7.74-21.22,1.05-2.68,2.05-5.16,3.01-7.46.95-2.29,2.05-4.21,3.3-5.74l-11.04.57v-11.04h31.12v9.47c-2.2,0-4.11.36-5.74,1.08-1.63.72-3.11,2.06-4.45,4.02-1.34,1.96-2.72,4.8-4.16,8.53l-20.94,55.21c-2.68,6.98-5.55,12.21-8.6,15.7-3.06,3.49-6.19,5.81-9.39,6.96-3.2,1.15-6.38,1.72-9.54,1.72Z"/>
    <path class="cls-1" d="m1165.29,478.71c-1.24-7.93-3.9-13.91-7.96-17.93-4.06-4.02-9.44-6.07-16.13-6.17-4.97,0-9.32,1.15-13.05,3.44-3.73,2.29-6.81,5.36-9.25,9.18-2.44,3.83-4.25,8.17-5.45,13.05-1.2,4.88-1.79,9.9-1.79,15.06,0,8.22,1.17,15.51,3.51,21.87,2.34,6.36,5.76,11.35,10.25,14.99,4.49,3.63,9.94,5.45,16.35,5.45,6.02,0,12-1.55,17.93-4.66,5.93-3.11,10.9-7.43,14.91-12.98l6.88,6.31c-4.68,6.41-9.61,11.26-14.77,14.56-5.16,3.3-10.21,5.52-15.13,6.67-4.93,1.15-9.35,1.72-13.27,1.72-7.36,0-14.05-1.31-20.08-3.94-6.02-2.63-11.21-6.26-15.56-10.9-4.35-4.64-7.7-10.04-10.04-16.2-2.34-6.17-3.51-12.83-3.51-20,0-6.5,1.05-12.95,3.15-19.36,2.1-6.4,5.23-12.21,9.39-17.42,4.16-5.21,9.39-9.37,15.7-12.48,6.31-3.11,13.62-4.66,21.94-4.66,3.73,0,7.82.6,12.26,1.79,4.45,1.2,8.63,2.94,12.55,5.23l-.57-6.02h11.04v33.41h-9.32Z"/>
    <path class="cls-1" d="m1182.36,546.97v-9.9c2.68,0,4.83-.76,6.45-2.29,1.62-1.53,2.99-3.54,4.09-6.02,1.1-2.49,2.17-5.16,3.23-8.03l27.96-76.72h10.04l30.55,78.15c.57,1.43,1.34,3.61,2.29,6.53.96,2.92,1.53,5.47,1.72,7.67,1.62-.19,3.18-.31,4.66-.36,1.48-.05,2.7-.07,3.66-.07v11.04h-38.58v-9.47c2.68,0,4.52-.55,5.52-1.65,1-1.1,1.46-2.6,1.36-4.52-.1-1.91-.62-4.06-1.58-6.45l-2.87-7.89-31.12.57-2.3,6.74c-.48,1.24-1.17,3.08-2.08,5.52-.91,2.44-1.75,4.47-2.51,6.09,1.53-.19,3.37-.31,5.52-.36,2.15-.05,3.7-.07,4.66-.07v11.47h-30.69Zm30.97-40.15h23.95l-6.6-17.92c-1.24-3.44-2.34-6.91-3.3-10.4-.96-3.49-1.67-6.57-2.15-9.25h-.14c-.38,1.63-.96,4.06-1.72,7.31-.77,3.25-1.96,7.12-3.58,11.62l-6.45,18.64Z"/>
    <path class="cls-1" d="m1281.45,572.5v-36.14h5.31c2.68,0,5.11-.76,7.31-2.29,2.2-1.53,4.16-3.8,5.88-6.81,1.72-3.01,3.23-6.76,4.52-11.26,1.29-4.49,2.37-9.68,3.23-15.56.86-5.88,1.48-12.43,1.86-19.65.38-7.22.52-15.08.43-23.59l-3.58.14-11.33.29v-11.04h80.45v9.47c-2.1.1-3.94.38-5.52.86-1.58.48-2.77,1.56-3.58,3.23-.81,1.67-1.22,4.47-1.22,8.39v54.92c0,2.58-.05,5.07-.14,7.46-.1,2.39-.24,4.21-.43,5.45l15.2-.57v36.71h-10.32c.09-7.55-.53-13.7-1.86-18.43-1.34-4.73-3.87-7.1-7.6-7.1h-58.8c-3.73,0-6.26,2.37-7.6,7.1-1.34,4.73-1.96,10.87-1.86,18.43h-10.33Zm23.66-36.14h26.67c2.2-.19,4.25-.5,6.17-.93,1.91-.43,3.49-1.51,4.73-3.23,1.24-1.72,1.86-4.49,1.86-8.32v-66.54l-14.05.43c-3.15.1-5.55.69-7.17,1.79-1.63,1.1-2.44,3.32-2.44,6.67-.1,9.08-.6,17.3-1.51,24.67-.91,7.36-2.08,13.91-3.51,19.65-1.43,5.74-3.06,10.73-4.88,14.99-1.82,4.25-3.78,7.86-5.88,10.83Z"/>
    <path class="cls-1" d="m1432.74,456.06c-2.1.1-3.92.38-5.45.86-1.53.48-2.7,1.56-3.51,3.23-.81,1.67-1.22,4.47-1.22,8.39v20.08l7.89-.29c8.6-.29,15.61.38,21.01,2.01,5.4,1.63,9.56,3.92,12.48,6.88,2.91,2.96,4.95,6.29,6.09,9.97,1.15,3.68,1.72,7.43,1.72,11.26,0,6.21-1.51,11.45-4.52,15.7-3.01,4.26-7.15,7.46-12.4,9.61-5.26,2.15-11.24,3.23-17.93,3.23h-45.32v-9.47c2.2-.09,4.04-.38,5.52-.86,1.48-.48,2.63-1.58,3.44-3.3.81-1.72,1.22-4.49,1.22-8.32v-54.92c0-2.58.07-5.07.22-7.46.14-2.39.26-4.21.36-5.45-1.53.1-3.44.17-5.74.22-2.29.05-3.97.12-5.02.22v-11.04h41.16v9.47Zm-10.18,68.12c0,2.58-.05,5.02-.14,7.31-.1,2.3-.24,4.06-.43,5.31h3.51c1.19,0,2.37-.02,3.51-.07,1.15-.05,2.29-.07,3.44-.07,5.83-.29,10.06-2.17,12.69-5.66,2.63-3.49,3.94-8.05,3.94-13.7,0-4.78-.79-8.51-2.37-11.19-1.58-2.68-3.75-4.59-6.52-5.74-2.77-1.15-5.98-1.72-9.61-1.72h-4.02c-1.34,0-2.68.1-4.02.29v25.24Z"/>
    <path class="cls-1" d="m1549.9,474.41c0-5.26-.91-9.2-2.72-11.83-1.82-2.63-4.09-4.42-6.81-5.38-2.73-.95-5.38-1.38-7.96-1.29l-9.32.14c-2.01,0-3.73.26-5.16.79-1.43.53-2.53,1.67-3.3,3.44-.77,1.77-1.15,4.52-1.15,8.25v20.08l8.6-.29c9.37-.29,16.94.34,22.73,1.86,5.78,1.53,10.23,3.71,13.34,6.52,3.11,2.82,5.21,6.05,6.31,9.68,1.1,3.64,1.65,7.46,1.65,11.47,0,6.31-1.5,11.64-4.52,15.99-3.01,4.35-7.15,7.63-12.4,9.82-5.26,2.2-11.23,3.3-17.92,3.3h-48.76v-9.47c2.2-.09,4.04-.38,5.52-.86,1.48-.48,2.63-1.58,3.44-3.3.81-1.72,1.22-4.49,1.22-8.32v-54.92c0-2.58.07-5.07.22-7.46.14-2.39.26-4.21.36-5.45-1.53.1-3.44.17-5.74.22-2.29.05-3.97.12-5.02.22v-11.04h76l.72,27.82h-9.32Zm-36.42,49.76c0,2.58-.05,5.02-.14,7.31-.1,2.3-.24,4.06-.43,5.31h4.88c1.53,0,3.06-.02,4.59-.07,1.53-.05,3.01-.07,4.45-.07,5.83-.29,10.09-2.2,12.76-5.74,2.68-3.54,4.02-8.08,4.02-13.62,0-4.97-.91-8.79-2.72-11.47-1.82-2.68-4.14-4.54-6.95-5.59-2.82-1.05-5.76-1.58-8.82-1.58-2.39,0-4.45-.02-6.17-.07-1.72-.05-3.54.03-5.45.22v25.38Z"/>
    <path class="cls-1" d="m1570.69,546.97v-9.9c2.68,0,4.83-.76,6.45-2.29,1.62-1.53,2.99-3.54,4.09-6.02,1.1-2.49,2.17-5.16,3.23-8.03l27.96-76.72h10.04l30.55,78.15c.57,1.43,1.34,3.61,2.29,6.53.96,2.92,1.53,5.47,1.72,7.67,1.62-.19,3.18-.31,4.66-.36,1.48-.05,2.7-.07,3.66-.07v11.04h-38.58v-9.47c2.68,0,4.52-.55,5.52-1.65,1-1.1,1.46-2.6,1.36-4.52-.1-1.91-.62-4.06-1.58-6.45l-2.87-7.89-31.12.57-2.3,6.74c-.48,1.24-1.17,3.08-2.08,5.52-.91,2.44-1.75,4.47-2.51,6.09,1.53-.19,3.37-.31,5.52-.36,2.15-.05,3.7-.07,4.66-.07v11.47h-30.69Zm30.97-40.15h23.95l-6.6-17.92c-1.24-3.44-2.34-6.91-3.3-10.4-.96-3.49-1.67-6.57-2.15-9.25h-.14c-.38,1.63-.96,4.06-1.72,7.31-.77,3.25-1.96,7.12-3.58,11.62l-6.45,18.64Z"/>
  </g>
  <g>
    <path class="cls-2" d="m523.8,321.6c-.1-82.29,31.99-159.79,90.37-218.22,58.38-58.44,135.93-90.68,218.35-90.79.14,0,.26,0,.4,0,82.12,0,159.46,32.09,217.79,90.39,58.43,58.39,90.67,135.95,90.77,218.38.01,8.45-.33,16.82-.99,25.11l12.51,3.35c.88-10.3,1.26-20.67,1.12-31.11-1.1-86.03-35.24-166.4-96.15-226.33-29.47-29-63.69-51.75-101.7-67.64C917.11,8.37,875.63.05,832.97,0h0c-44.16.05-86.84,8.78-126.87,25.96-38.52,16.53-73.02,40.15-102.54,70.21-29.67,30.22-52.79,65.38-68.7,104.51-16.43,40.39-24.38,83.13-23.62,127.03.12,7,.47,13.96,1.03,20.88l12.45-3.33c-.6-7.83-.91-15.73-.92-23.67Z"/>
    <g>
      <path class="cls-1" d="m1071.21,253.8h-1.06l1.7.46c-.06-.1-.12-.19-.17-.25h6.45c.03.18.07.37.1.55-1.11.17-2.22.36-3.33.52l19.43,5.2-.11,1.35c2.67,1.16,5.17,1.2,7.48-1.52v-1.86c2.6,2.15,3.27-.94,4.9-1.6-1.54.26-2.89-1.68-4.52-.41-.16.13-1.07-.7-1.83-1.22-1.44.85-3,2.54-5.39,1.36-1.76-.87-4.02-.88-5.31-3.29,2.19.53,3.98.96,5.82,1.4.19-.63.38-1.22.6-1.95,1.24.57,2.33,1.07,3.42,1.57.07-.12.14-.24.21-.36-.53-.58-1.05-1.17-1.81-2.01,1.35.51,2.41.9,3.38,1.26.48-2.33,2.65-2.39,4.18-3.2-.05-.23-.1-.45-.15-.68-2.33-.18-4.65-.37-7.49-.59-1.02-1.39-2.36-1.61-4.51-.72-1.21.5-2.65.46-4.26.71.39-1.07.56-1.52.74-2.01-4.3-.25-5-.85-4.73-3.65.48.74,1.09,1.69,1.71,2.63.41-.36.81-.72,1.07-.95.86.55,1.67,1.06,2.37,1.51.39-.89.63-1.43.85-1.94,1.09.93,1.95,1.67,2.86,2.45.48-.75.79-1.23,1.1-1.72.06.18.12.35.19.53,1.49-.33,2.97-.67,4.46-1-.03-.2-.06-.4-.09-.6-1.81-1.05-3.63-2.1-5.44-3.16.07-.23.14-.46.21-.69-1.11.29-2.22.57-3.5.9.69-1.19,1.29-2.24,1.88-3.28-.71-.21-1.47-.44-2.45-.73,2.1-.83,3.73-1.48,5.98-2.37-1.44-.5-2.22-.77-3.17-1.09.78-.93,1.44-1.72,2.2-2.63-.86-.16-1.48-.28-2.13-.4.4-.83.75-1.55,1.17-2.44-1.58.58-2.87,1.06-4.15,1.53-.11-.19-.22-.39-.33-.58-1.3,2.32-2.25,4.97-5.21,5.78-.26-1.47-.69-2.86-.67-4.23.01-.72.84-1.43,1.3-2.14,1.32,1.79,2.64-.23,4.13-.25-.99-.66-1.97-1.32-3.35-2.23h4.99c-1.08-.72-1.69-1.12-2.31-1.53.54-.59,1.01-1.09,1.64-1.78-1.53.31-2.75.55-3.97.8-.05-.18-.1-.36-.15-.53-.75,1.13-1.5,2.26-2.53,3.8-.6-3.6,2.22-5.05,2.81-7.77-.83.53-1.66,1.06-2.48,1.59-.37-1.41-.73-2.82-1.1-4.22-.26.04-.51.09-.77.13v5.41c-1.12-.92-1.93-1.59-3.18-2.62.71,3.05,4.07,4.64,2.45,8.16-.62-1.73-1.11-3.09-1.78-4.95-.92,3.19-2.48.28-3.94,1.05.56.84,1.26,1.54,1.53,2.39.23.72-.04,1.59-.09,2.33.72.33,1.48.68,2.25,1.03-.11.21-.21.42-.32.62-.74-.15-1.49-.3-2.78-.55.78,1.06,1.23,1.69,1.77,2.43-2.62,2.25-4.24-1.61-6.96-1.04.73.89,1.29,1.57,1.82,2.2-.42.24-.94.53-1.37.77,1.1.91,2.09,1.72,3.19,2.63-1.14.42-1.89.69-2.64.97.03.26.05.53.08.79,1.99.13,3.98.27,5.9.39-.18.28-.48.73-.91,1.39.9-.1,2.03-.33,2.07-.21.84,2.62,1.83.18,2.87.1.16.55.33,1.12.7,2.39-3.66-.58-6.76-1.07-9.89-1.56.27.36.5.65.97,1.26-.79-.26-1.19-.47-1.61-.51-1.89-.2-3.49-3.51-5.69-.56-.05.07-.29,0-.44.02-.77.14-1.54.3-2.31.45-.02.24-.03.48-.05.72,1.54.28,3.09.57,4.72.87-.34.36-.74.8-1.61,1.73,1.44-.19,2.25-.3,2.98-.39.45.6.88,1.18,1.3,1.74,1.06-.4,2.07-.78,3.49-1.32-.69.86-1.06,1.33-1.79,2.24,3.72-.68,7.11-.55,9.81-3.02-.59.92-1.31,1.74-2.16,2.37-2.61,1.95-5.33,3.46-8.67.54.04.92.06,1.29.06,1.36-2.34.19-4.61.37-6.95.56.82,3.35,4.29,3.24,6.25,5.38Z"/>
      <path class="cls-1" d="m1125.2,317.88c.01-.15.02-.3.04-.46-.75-.17-1.51-.34-2.28-.51.12-.39.23-.73.31-.99-2.2-.76-4.77,1.07-6.71-1.31-5.11,1.26-9.69-.95-14.31-3.06.52-.47,1-.76,1.46-.72,2.84.28,5.66.8,8.5.91,1.6.06,3.72,1.17,4.69-1.33.05-.12.26-.22.42-.26,2.32-.65,4.64-1.3,6.89-1.92-.57-.82-1.04-1.52-1.56-2.27,1.03-.45,1.82-.79,2.22-.96-4.47-.71-9.2-1.46-13.94-2.21l.07-1.02c1.67-.12,3.34-.25,4.99-.37-.04-.09-.2-.46-.39-.9.76-.05,1.46-.09,2.39-.14-.54-.46-.86-.73-.93-.79,1.46-.96,2.96-1.95,4.46-2.94-5.23-.5-10.27.51-14.79-2.37,1.37-.2,2.7-.06,4.02.13,1.51.22,4.65-1.74,4.84-3.02.13-.93.31-1.86.47-2.79-2.86-.01-6.01,2.7-9.52-.34h3.49c-.5-.63-.86-1.08-.92-1.16.65-.73,1.22-1.39,2.18-2.47h-11.59c.72-.93,1.05-1.35,1.38-1.77.05.19.11.38.16.58,1.58-.2,3.17-.41,5.13-.66-.85-.95-1.3-1.45-1.95-2.18,1.4.15,2.43.26,2.88.31,1.89-1.35,3.37-2.41,4.86-3.48-.03-.29-.07-.57-.1-.86-2.21-.37-4.42-.75-6.48-1.09,0,0,.33-.43.77-1-.63.12-1.04.2-1.47.28v-1.15c-4.56,2.59-9.65,1.86-10.39-.8,1.56-.23,3.34-.98,4.81-.58,2.28.62,4.23-.95,5.58-.39,1.72-1.94,3.1-3.49,4.38-4.93-2.39-1.17-5-2.13-8.22-.55.26-.83.4-1.07.38-1.3-.02-.33-.16-.64-.27-1.08-2.61,1.28-4.92,1.17-7.11.45-.22,2.66-.47,5.28-.76,7.8l-.52,4.55-11.23-3h-4.26l10.14,3.16h-21.98v9.05s.08,0,.11,0c.93,0,1.85-.36,2.78-.52.58-.1,1.18-.14,1.76-.23,1.35-.21,2.7-.43,4.05-.65.07.28.14.56.21.85-2.56.8-5.12,1.59-8.11,2.52,1.1.41,2.02.76,2.95,1.11.04.15.07.3.11.45-1.29.11-2.58.21-3.87.32v8.36c2.08-1.26,3.96-.72,5.87.58h-5.87v7.6s.09-.03.14-.04c-.04.08-.09.16-.14.25v36.11s.02,0,.03,0c.01.06.12.53.26,1.14.97-.71,1.74-1.28,2.62-1.92.25.69.46,1.26.83,2.27,2.97-1.51,5.75-2.92,8.77-4.45.53.41,1.73-.4,2.95-2.7q2.31.88.17,8.47h8.44c-.27-1.94-.52-3.81-.78-5.67.2-.08.41-.16.61-.24,3.35,4.46,8.2,3.29,12.84,3.53.08-.62.16-1.29.2-1.64,1.18-.11,2.32-.44,3.35-.24,1.03.2,1.93,1.01,2.95,1.42,2.22.9,3.49-.08,3.11-2.53,1.09.76,2.08,1.45,3.09,2.16.49-.52.84-.88,1.16-1.23.88.43,1.67.81,2.42,1.17.29-.74.55-1.4.89-2.26-.09-.11-.4-.49-.94-1.16,1.53.58,2.68,1.02,4.08,1.55-.27-.51-.4-.77-.56-1.07.92-.27,1.79-.52,3.08-.9-3.62-.72-6.73-1.34-10.16-2.02,1.8-.78,3.07-1.33,4.34-1.88-.09-.19-.17-.39-.26-.58.76-.1,1.53-.2,2.29-.3,0-.12.01-.25.02-.37-.42-.16-.83-.31-1.55-.59,1.42-.72,2.6-1.33,3.69-1.88-.25-.15-.73-.42-1.51-.87,1.08-.12,1.78-.2,2.49-.27.01-.12.03-.25.04-.37-1.26-.22-2.52-.45-3.78-.67.03-.13.06-.25.09-.38,1.49-.53,2.99-1.06,4.48-1.58-.04-.15-.09-.3-.13-.46-1.48.21-2.97.41-4.69.65.55-.73.92-1.21,1.63-2.15-3.39,1.3-6.15,3.22-9.46,1.92-2.91-1.15-5.8-2.34-8.7-3.51.06-.21.11-.42.17-.63,1.1.19,2.19.39,3.07.54,1.39-1.81,2.41.44,3.37-.03,1.05-.49,2.11-.97,3.14-1.45.83.58,1.59,1.1,2.35,1.63.09-.1.17-.2.26-.31-.37-.59-.75-1.18-1.47-2.33,2.97-.37,5.61-.71,8.41-1.06-.82-.43-1.49-.79-2.16-1.14.02-.12.04-.24.06-.37h4.21Z"/>
      <path class="cls-1" d="m554.17,264.67c2.01.4,3.91.34,5.27,1.16,1.99,1.21,3.26.22,4.97-.53-.41.69-.83,1.38-1.37,2.28.55.11,1.06.38,1.38.24,1.5-.69,2.93-1.52,3.91.75.08.19,1.19.12,1.72-.09.96-.39,1.84-.99,2.93-1.6-.08,1.04-.15,1.93-.27,3.45,1.65-.68,2.91-1.2,4.34-1.79-.03.56-.06,1.08-.09,1.56,1.46.24,2.91.48,4.37.73-.3-2.72-.56-5.5-.77-8.27l-.25-3.27.24-.06-.16-2.06c-.16.03-.31.06-.47.07-6.97.52-13.95.92-20.92,1.48-2.04.16-4.04.7-6.23,1.64,1.57.57,3.15,1.13,4.98,1.79-1.18.84-2.28,1.61-3.58,2.53Z"/>
      <path class="cls-1" d="m1036.76,225.38c.76-.83,1.52-1.65,2.62-2.85-1.45.45-2.33.72-3.37,1.05.31-.94.51-1.57.72-2.21-3.15,2.22-6.24,3.54-10.16,2.74-5.6-1.15-7.2-2.19-7.62-5.3,2.19.51,4.61,1.08,6.99,1.64.36-.89.59-1.45.83-2.04,1.29.64,2.4,1.19,3.74,1.86.09-.77.14-1.29.23-2.1h7.54c-.42-1.03-.67-1.62-.9-2.19.87-.49,1.61-.9,2.53-1.42-.56-.41-.9-.66-1.2-.88,1.98-1.41,3.83-2.73,5.93-4.23-2.52-.76-4.59-1.39-6.68-2.02-.04-.43-.1-.96-.13-1.3-2.77.66-5.38,1.27-7.92,1.88.41-1.52.7-2.62,1.15-4.33-8.34,4.96-14.34.36-20.55-3.19.07-.29.13-.58.2-.86,2.3.56,4.6,1.13,6.88,1.68.07-.47.18-1.17.28-1.84,1.77.09,2.97,3.51,4.56,1.05,1.28.53,2.56,1.57,3.52,1.33,1.55-.38,2.99-1.53,2.47-3.75,1.16.23,2.08.41,2.96.58v-4.36c1.25.42,2.81.93,4.36,1.45.15-.12.3-.23.45-.35-1.07-1.59-.58-2.25.97-2.67,1.11-.3,2.09-1.09,3.13-1.67-.08-.18-.15-.37-.23-.55h-5.33c.35-.71.58-1.17,1.1-2.23-2.1,1.18-3.61,2.04-4.93,2.78-.57-.78-.98-1.32-1.4-1.9.23-.45.51-.99,1.1-2.13-3.56,1.98-5.79,5.55-10.09,3.69-3.24-1.4-6.93-1.97-8.5-5.83,1.04.1,1.98.43,2.67,1.05,1.27,1.11,2.09,1.15,2.37-.76,1.52,1,2.46,2.79,4.58,2.05,0-.49-.04-.86,0-1.22.11-.71.27-1.41.4-2.12.69.32,1.38.63,2.07.95,1.2.55,2.4,1.1,3.6,1.66.14-.22.28-.44.42-.66-.98-1.07-1.95-2.14-2.93-3.21.09-.07.17-.14.26-.21,1.79.84,3.57,1.68,5.36,2.51.11-.18.23-.35.34-.53-.33-.48-.67-.96-1.13-1.62,1.26-.48,2.29-.87,3.41-1.29-.3-.45-.55-.83-.95-1.42,1.08,0,1.98.21,2.7-.06.72-.27,1.25-1.02,1.86-1.56-.69-.32-1.36-.74-2.08-.93-.85-.22-2.26.06-2.55-.42-1.12-1.84-2.4-.92-3.65-.51-1.19.39-2.35.89-3.43,1.31-.6-1.16-1.14-2.2-1.69-3.27-.82.2-1.61.38-2.45.59-.17-.64-.33-1.21-.54-1.97-3.13,2.35-6.04,4.86-9.92,2.22.41-.72.82-1.45,1.2-2.13-2.29-.61-4.72-.64-6.25-1.83-1.63-1.27-2.36-3.65-1.79-6.22q2.24,5.58,3.59,6.33c.44-.95.86-1.89,1.35-2.96.88,2.02,1.85,3.55,4.4,3.19-.21-.91-.36-1.54-.51-2.18.52-.4,1.03-.78,1.32-1.01,1.52,1.56,2.97,3.05,4.56,4.68.79-1.55,1.32-2.61,1.89-3.72,2,1.67,5.71.88,7.73-1.69-3.01-1.46-5.93-2.89-8.75-4.26.05-.63.33-1.73.1-1.85-.66-.35-1.55-.45-2.31-.36-.63.07-1.18.64-1.81.85-.67.22-1.39.28-2.43.48.92-1.4,3.38-1.01,2.28-2.92,1.23-.71,2.33-1.34,3.42-1.97-.05-.21-.1-.42-.14-.62-1.77-.36-3.54-.73-5.31-1.1.37-3.35,2.2-1.76,3.14-1.42,1.79-1.23,3.26-2.24,5.19-3.57-1.64-.69-3.05-1.28-4.55-1.91,1.45-1.6,2.68-2.96,4.15-4.59-1.68-.3-2.88-.51-4.08-.73.47-1.56,2.49-2.51,1.55-4.89-1.6,1.35-2.94,2.48-4.27,3.6-.65-.6-1.23-1.14-2.02-1.88-2.65,4.13-3.75,9.33-9.26,11.15-.29-3.11-.63-6.04-.83-8.98-.14-2.12,1.04-2.92,3.01-2.77.04.74.08,1.37.11,2.03,2.07-.65,3.95-1.23,6.45-2.02-2.15-1.52-3.94-2.79-5.69-4.04,2.33-.88,4.97,1.34,7.38-.7-1.33-.81-2.51-1.52-3.81-2.31,1.12-1.06,2.18-2.05,3.23-3.04-.12-.22-.25-.43-.37-.65-1.87.82-3.74,1.65-5.6,2.47-.09-.64-.17-1.24-.26-1.89-2.73,1.34-1.76,5.44-4.94,6.14-.9-5.33,3.71-8.21,5.64-12.41-2.92-1.04-3.34,1.72-5.01,3.06-.92-3.1.13-6.47-2.28-8.83h-.45v10.28c-.19.11-.37.21-.56.32-1.23-1.53-2.45-3.05-3.68-4.58-1.05,2.63.27,4.04,1.46,5.4,1.87,2.13,2.39,4.6,2.26,7.3-.01.24-.08.47-.23.72.12.79.07,1.62-.2,2.48-1.03-2.29-1.98-4.39-3.07-6.83.54.34.99.7,1.4,1.08-.14-.46-.29-.92-.46-1.38-.29-.81-.93-1.5-1.4-2.24-.45.68-.9,1.36-1.45,2.18-1.19-.59-2.57-1.27-3.95-1.96-.25.23-.49.45-.74.68.77,1.32,1.47,2.7,2.33,3.95.82,1.19,2.04,2.22-.05,3.36-.24.13-.33,1.1-.11,1.37.31.37.99.65,1.48.6.61-.06,1.19-.5,1.95-.85v1.96c1.26.59,2.52,1.2,3.35,2.38-.76-1.69-1.51-3.35-2.34-5.21,2.84,1.79,3.92,4.17,3.07,6.83,0,0,0-.02-.01-.03.09.37.16.77.2,1.22-1.61-1.44-2.96-2.65-4.27-3.82v.06c-1.34-.57-2.52-1.07-3.7-1.57l-.64.6c.9,1.3,1.81,2.6,2.7,3.89-2.11,2.76-4.23,1.15-6.43-.37-1.2-.83-2.56-1.45-4-2.25-1.19,2.78,1.24,3.43,2.37,4.73-.99.42-1.94.82-2.83,1.2,1.95,1.65,3.7,3.13,5.78,4.89-1.5.39-2.54.53-3.46.95-.54.24-.88.92-1.3,1.4.65.38,1.39,1.17,1.94,1.07,1.53-.29,2.87-.55,4.15.72.27.26,1.2-.05,1.79-.23.7-.21,1.37-.55,2.26-.44-.65.76-1.3,1.52-1.95,2.28.08.21.16.42.24.63,1.05-.17,2.11-.34,3.08-.5.21.57.48,1.34.76,2.11,1.3-.59,2.6-1.18,4.02-1.83.18.5.54,1.54.91,2.58-5.78,2.62-10.8.19-15.82-2.25-.12.31-.24.62-.36.93.74.69,1.48,1.38,2.22,2.08-.07.17-.15.34-.22.52-2.14-1.03-4.3-2.04-6.42-3.11-.59-.3-1.03-.93-1.64-1.16-.7-.26-1.5-.24-2.26-.34-.06.67-.12,1.34-.19,2.19-1.86.32-3.87.66-5.93,1.01.93,2.17,1.47,2.36,7.65,2.82-.03.12-.03.25-.09.36-.48.82-.97,1.62-1.46,2.44,1.08-.16,2.25-.1,3.21-.52,1.14-.5,2.09-1.42,3.51-1.93-2.98,1.42-2.99,3.18-.83,5.41,2.14-1,4.42-2.07,6.69-3.14.07.07.14.14.2.21-.82.67-1.7,1.28-2.43,2.05-.49.51-.75,1.24-1.11,1.87.75-.04,1.51-.04,2.26-.13.26-.03.5-.31.92-.6.14.68.26,1.25.38,1.84.2-.09.39-.11.46-.22,1.4-2.24,3.87-2.29,6.03-2.71,2.41-.47,4.06-1.54,4.81-3.9.21.09.42.17.64.26-.41.95-.55,2.27-1.27,2.8-2.99,2.21-6.14,4.22-9.3,6.2-.41.25-1.27,0-1.82-.24-1.77-.77-3.5-1.64-5.77-2.73.37,1.27.6,2.05.89,3.04-1.84-.52-3.67-1.03-5.64-1.58-.19,2.12-1.45,2.26-3.15,1.67-1.46-.51-2.67-.34-3.15,1.64.57.22,1.14.44,1.78.68-.26.52-.52,1.03-.7,1.37,1.55.79,3,1.53,4.74,2.42.04.22.14.76.23,1.27q4.32.76,3.45,2.24h-6.66c.55,1.7,1.05,3.23,1.54,4.76-.24.12-.47.24-.71.36-.9-.55-1.81-1.1-2.81-1.71.23-.26.47-.53.76-.86h-2.18c-.39-.24-.78-.48-1.21-.74.07.27.12.51.18.74h-7.43c.66-.85.96-1.24,1.26-1.62.05.18.1.35.15.53,1.45-.19,2.9-.37,4.71-.61-.78-.88-1.19-1.33-1.79-2,1.28.14,2.23.24,2.65.29,1.73-1.24,3.1-2.21,4.46-3.19-.03-.26-.06-.52-.09-.79-2.03-.34-4.05-.68-5.95-1,0,0,.3-.39.71-.92-.57.11-.95.18-1.35.26v-1.05c-4.19,2.38-8.85,1.71-9.54-.74,1.43-.21,3.07-.9,4.42-.54,2.1.57,3.88-.87,5.12-.36,1.58-1.78,2.84-3.2,4.02-4.53-2.2-1.07-4.59-1.96-7.55-.51.24-.77.37-.99.35-1.2-.02-.3-.14-.59-.25-.99-4.21,2.07-7.59.18-10.96-1.75.04-.18.08-.36.12-.55,1.18.26,2.35.52,3.57.78.08-.19.22-.54.37-.89,2.67,1.31,5.17,1.57,7.45-1.12v-1.7c2.38,1.97,3-.86,4.5-1.47-1.41.23-2.66-1.54-4.15-.37-.15.12-.99-.64-1.68-1.12-1.32.78-2.75,2.33-4.94,1.25-1.61-.8-3.69-.81-4.88-3.02,2.01.48,3.66.88,5.34,1.29.18-.57.35-1.12.55-1.79,1.14.52,2.14.98,3.13,1.44.07-.11.13-.22.2-.33-.48-.54-.97-1.07-1.66-1.84,1.24.46,2.21.83,3.1,1.16.44-2.14,2.43-2.19,3.84-2.93-.05-.21-.09-.42-.14-.62-2.13-.17-4.27-.34-6.87-.54-.94-1.27-2.17-1.48-4.14-.66-1.11.46-2.43.42-3.91.65.36-.98.51-1.39.68-1.84-3.95-.23-4.59-.78-4.34-3.35.44.68,1,1.55,1.56,2.41.37-.33.75-.66.99-.87.79.5,1.53.97,2.17,1.38.36-.81.57-1.31.78-1.78,1,.85,1.79,1.53,2.63,2.25.44-.68.72-1.13,1.01-1.58.06.16.11.33.17.49,1.36-.31,2.73-.61,4.09-.92-.03-.18-.06-.36-.09-.55-1.67-.97-3.33-1.93-4.99-2.9.07-.21.13-.42.2-.63-1.02.26-2.04.52-3.21.82.63-1.1,1.18-2.06,1.73-3.01-.65-.19-1.35-.4-2.25-.67,1.92-.76,3.43-1.36,5.49-2.17-1.32-.46-2.04-.7-2.9-1,.72-.86,1.32-1.58,2.02-2.41-.79-.15-1.36-.25-1.95-.37.36-.76.69-1.43,1.08-2.24-1.45.54-2.63.97-3.81,1.4l-.3-.54c-1.19,2.12-2.06,4.56-4.78,5.3-.24-1.35-.64-2.62-.61-3.89.01-.66.77-1.31,1.19-1.96,1.21,1.65,2.43-.21,3.79-.23-.9-.6-1.81-1.21-3.07-2.05h4.58c-.99-.66-1.55-1.03-2.12-1.41.5-.54.92-1,1.5-1.63-1.4.28-2.52.51-3.64.73-.05-.16-.09-.33-.14-.49-.69,1.04-1.38,2.07-2.32,3.49-.55-3.3,2.04-4.63,2.58-7.13-.76.49-1.52.97-2.28,1.46-.34-1.29-.67-2.58-1.01-3.87-.24.04-.47.08-.71.12v4.96c-1.03-.85-1.77-1.46-2.92-2.41.66,2.8,3.73,4.26,2.25,7.48-.57-1.59-1.02-2.83-1.63-4.54-.85,2.93-2.27.26-3.61.96.51.77,1.16,1.42,1.4,2.19.21.66-.04,1.46-.08,2.14.66.3,1.36.62,2.06.94-.1.19-.2.38-.29.57-.68-.14-1.36-.27-2.55-.51.71.98,1.13,1.55,1.63,2.23-2.4,2.06-3.89-1.47-6.39-.96.67.81,1.19,1.44,1.67,2.02-.38.22-.86.49-1.25.71,1.01.83,1.91,1.58,2.92,2.41-1.05.38-1.73.64-2.42.89.02.24.05.48.07.73,1.82.12,3.65.24,5.41.36-.17.25-.44.67-.83,1.27.83-.09,1.86-.3,1.9-.2.77,2.4,1.68.17,2.64.09.15.5.3,1.03.64,2.19-3.35-.53-6.2-.98-9.07-1.43.25.33.46.6.89,1.16-.73-.24-1.09-.43-1.48-.47-1.74-.18-3.2-3.22-5.22-.51-.05.07-.27,0-.4.02-.71.13-1.41.27-2.12.41-.01.22-.03.44-.04.66,1.42.26,2.83.52,4.33.8-.31.33-.68.73-1.47,1.58,1.32-.17,2.07-.27,2.73-.36.41.55.81,1.08,1.19,1.6.97-.37,1.9-.72,3.2-1.21-.63.79-.98,1.22-1.64,2.05,3.41-.62,6.52-.51,9-2.77-.54.84-1.2,1.59-1.98,2.18-2.4,1.79-4.89,3.17-7.95.49.04.84.05,1.18.05,1.25-2.15.17-4.23.34-6.38.52.76,3.07,3.93,2.98,5.74,4.94h-4.24c.27.9.49,1.63.8,2.69-.82-.39-1.46-.7-2.06-.98.01-.05.02-.1.03-.16-1.22-.7-2.43-1.39-3.75-2.15,1.07-.86,2.09-1.69,3.11-2.51-.09-.2-.17-.39-.26-.59-1.85.66-3.71,1.33-5.69,2.04-.05-.39-.12-.98-.27-2.13-1.71,2.33-3.13,4.28-4.56,6.23-.1-.41-.16-.8-.19-1.18.93-.98,1.94-1.9.63-3.43,1.16-2.38,3.53-4.15,4.7-6.61-2.51-.77-3.42,1.03-4.63,2.79-1.84-2.31.57-6.02-2.97-7.41-.15,2.8-.3,5.6-.47,8.78-1.63-1.34-3.03-2.5-4.42-3.65-.23.15-.47.31-.7.46.64,1.08,1.15,2.26,1.95,3.21.27.33.51.62.74.91-.65.15-1.3.3-1.95.44-2.33.5-3.91-.47-4.66-2.82,1.55.15,3,.29,4.95.48-1.06-1.2-1.72-1.95-2.43-2.74,1.18-.24,2.22-.45,3.27-.67-.02-.14-.03-.29-.05-.43-.33-.15-.67-.31-1.01-.47.66-.61,1.29-1.2,2.12-1.96-6.19.83-11.9,1.34-17.46-.6.78-.83,1.35-1.44,2.01-2.15,2.43,2.49,4.77-.03,7.24-.3.16-.22.33-.45.49-.67-1.17-.76-2.35-1.51-3.52-2.27.16-.16.31-.32.47-.49,1.28.19,2.56.4,3.85.55.93.11,1.94.46,1.92-1.23,0-.51.99-1.15,1.65-1.51.66-.36,1.47-.43,2.31-.66-.25-.28-.4-.46-.44-.51.91-.79,1.67-1.45,2.53-2.2-3.5-2.34-6.79-3.65-10.66-2.22.7-.76,1.39-1.52,2.4-2.62-1.33.41-2.13.66-3.1.96.28-.86.47-1.45.66-2.03-2.89,2.03-5.73,3.25-9.32,2.51-5.14-1.05-6.61-2.01-7-4.86,2.01.47,4.23.99,6.41,1.5.33-.81.54-1.33.76-1.87,1.18.59,2.21,1.09,3.43,1.7.08-.71.13-1.18.21-1.92h6.92c-.39-.94-.61-1.48-.83-2.01.8-.45,1.48-.83,2.32-1.3-.51-.37-.83-.6-1.1-.81,1.82-1.3,3.52-2.51,5.45-3.88-2.31-.7-4.21-1.28-6.13-1.86-.04-.39-.09-.88-.12-1.19-2.54.6-4.94,1.17-7.27,1.72.37-1.39.64-2.41,1.06-3.97-7.66,4.55-13.16.33-18.85-2.92l.18-.79c2.11.52,4.23,1.03,6.31,1.54.07-.43.16-1.07.26-1.69,1.62.09,2.73,3.22,4.19.96,1.18.49,2.35,1.44,3.23,1.22,1.42-.35,2.74-1.41,2.27-3.44,1.06.21,1.91.37,2.72.53v-4c1.15.38,2.58.86,4,1.33l.41-.32c-.98-1.46-.53-2.06.89-2.45,1.02-.28,1.92-1,2.87-1.53-.07-.17-.14-.34-.21-.5h-4.89c.32-.65.53-1.07,1.01-2.05-1.92,1.09-3.32,1.87-4.52,2.55-.53-.72-.9-1.22-1.28-1.74.21-.42.47-.91,1.01-1.96-3.26,1.81-5.31,5.1-9.26,3.39-2.98-1.29-6.36-1.8-7.8-5.35.96.09,1.82.4,2.45.96,1.16,1.02,1.92,1.06,2.17-.69,1.39.91,2.26,2.56,4.21,1.89,0-.45-.04-.79,0-1.12.1-.65.24-1.29.37-1.94.63.29,1.27.58,1.9.87,1.1.51,2.2,1.01,3.3,1.52.13-.2.26-.41.39-.61-.9-.98-1.79-1.96-2.69-2.94.08-.06.16-.13.23-.19,1.64.77,3.28,1.54,4.92,2.31.1-.16.21-.32.31-.49-.31-.44-.61-.88-1.04-1.49,1.16-.44,2.1-.79,3.13-1.18-.28-.41-.51-.76-.88-1.31.99,0,1.82.19,2.48-.05.66-.25,1.15-.94,1.71-1.44-.63-.29-1.24-.68-1.91-.85-.78-.21-2.07.05-2.34-.38-1.03-1.69-2.2-.85-3.35-.47-1.1.36-2.16.82-3.15,1.21-.55-1.07-1.04-2.02-1.55-3-.75.18-1.48.35-2.25.54-.16-.59-.3-1.11-.49-1.81-2.87,2.16-5.54,4.46-9.1,2.03.37-.66.75-1.33,1.1-1.95-2.1-.56-4.33-.59-5.73-1.68-1.5-1.17-2.17-3.35-1.64-5.71q2.05,5.12,3.3,5.8c.4-.88.79-1.74,1.24-2.71.81,1.86,1.7,3.26,4.04,2.93-.19-.83-.33-1.42-.47-2,.48-.36.94-.72,1.21-.92,1.4,1.43,2.73,2.8,4.19,4.29.72-1.42,1.21-2.39,1.73-3.41,1.84,1.53,5.24.81,7.09-1.55-2.76-1.34-5.45-2.65-8.03-3.91.04-.58.3-1.59.09-1.7-.61-.32-1.42-.41-2.12-.33-.57.07-1.08.59-1.66.78-.61.21-1.28.26-2.23.44.85-1.28,3.11-.93,2.09-2.68,1.13-.65,2.13-1.23,3.14-1.81-.04-.19-.09-.38-.13-.57-1.62-.33-3.24-.67-4.87-1.01.34-3.07,2.02-1.62,2.88-1.31,1.64-1.13,2.99-2.06,4.76-3.27-1.51-.63-2.8-1.17-4.17-1.75,1.33-1.47,2.46-2.72,3.81-4.22-1.54-.27-2.64-.47-3.75-.67.43-1.43,2.28-2.31,1.42-4.49-1.47,1.24-2.7,2.28-3.92,3.3-.59-.55-1.13-1.05-1.86-1.72-2.43,3.79-3.45,8.56-8.5,10.23-.27-2.85-.58-5.54-.76-8.24-.13-1.94.95-2.68,2.76-2.54.04.68.07,1.26.1,1.86,1.9-.59,3.62-1.13,5.92-1.85-1.97-1.4-3.61-2.56-5.22-3.7,2.14-.81,4.56,1.23,6.77-.64-1.22-.74-2.31-1.4-3.5-2.12,1.03-.97,2-1.88,2.97-2.79-.11-.2-.23-.4-.34-.6-1.72.76-3.43,1.51-5.14,2.27-.08-.59-.16-1.14-.24-1.74-2.5,1.23-1.61,4.99-4.54,5.64-.83-4.9,3.41-7.53,5.18-11.39-2.68-.95-3.06,1.58-4.6,2.81-.84-2.85.12-5.94-2.1-8.1h-.41v9.44c-.17.1-.34.2-.51.3-1.13-1.4-2.25-2.8-3.38-4.2-.96,2.41.25,3.71,1.34,4.95,1.71,1.96,2.19,4.22,2.07,6.7-.02.43-.24.86-.87,1.34-.48-1.66-.9-3.34-1.48-4.96-.27-.74-.85-1.37-1.29-2.06-.41.63-.83,1.25-1.33,2-1.09-.54-2.36-1.17-3.63-1.8-.23.21-.45.42-.68.62.71,1.21,1.35,2.47,2.14,3.63.75,1.09,1.87,2.03-.05,3.09-.22.12-.31,1.01-.1,1.26.28.34.91.6,1.36.55.56-.06,1.09-.46,1.79-.78v3.12c-1.23-.52-2.31-.98-3.4-1.44-.19.18-.39.37-.58.55.83,1.19,1.66,2.39,2.47,3.57-1.94,2.53-3.88,1.06-5.9-.34-1.1-.76-2.35-1.33-3.67-2.06-1.09,2.55,1.13,3.15,2.18,4.34-.91.38-1.78.75-2.6,1.1,1.79,1.51,3.39,2.87,5.31,4.49-1.37.36-2.33.49-3.18.87-.49.22-.8.84-1.2,1.29.6.35,1.27,1.08,1.78.98,1.41-.27,2.63-.51,3.81.66.24.24,1.1-.05,1.64-.21.64-.19,1.25-.5,2.07-.4-.6.7-1.2,1.39-1.79,2.09.07.19.15.39.22.58.97-.16,1.93-.31,2.82-.46.19.52.44,1.23.7,1.93,1.19-.54,2.39-1.09,3.69-1.68.16.46.5,1.41.83,2.37-5.3,2.4-9.91.17-14.52-2.06-.11.29-.22.57-.33.86.68.64,1.36,1.27,2.04,1.9-.07.16-.13.32-.2.47-1.97-.95-3.94-1.87-5.89-2.85-.54-.27-.95-.86-1.5-1.06-.64-.24-1.38-.22-2.08-.32-.05.62-.11,1.23-.18,2.01-1.71.29-3.55.6-5.45.92.86,2,1.35,2.17,7.02,2.59-.03.11-.03.23-.08.33-.44.75-.89,1.49-1.34,2.24.99-.14,2.06-.09,2.94-.48,1.04-.46,1.92-1.3,3.22-1.77-2.74,1.3-2.74,2.91-.76,4.96,1.96-.92,4.05-1.9,6.14-2.88.06.06.12.13.19.19-.75.62-1.56,1.18-2.23,1.88-.45.47-.69,1.14-1.02,1.72.69-.03,1.39-.03,2.07-.12.24-.03.45-.28.85-.55.13.63.24,1.15.35,1.69.18-.08.36-.1.42-.2,1.29-2.05,3.56-2.1,5.53-2.49,2.21-.43,3.72-1.41,4.41-3.58.19.08.39.16.58.24-.37.87-.5,2.08-1.16,2.57-2.75,2.03-5.63,3.88-8.53,5.69-.37.23-1.16,0-1.67-.22-1.63-.71-3.21-1.51-5.3-2.51.34,1.16.55,1.88.81,2.79-1.69-.47-3.37-.94-5.18-1.45-.17,1.94-1.33,2.08-2.89,1.53-1.34-.47-2.45-.31-2.89,1.51.52.2,1.04.4,1.63.63-.24.47-.48.94-.64,1.26,1.42.73,2.75,1.41,4.35,2.22.04.2.13.7.21,1.17q3.96.7,3.17,2.06h-6.11c.51,1.56.96,2.97,1.42,4.37-.22.11-.44.22-.65.33-1.5-.91-2.99-1.82-4.99-3.03.33,1.34.48,1.97.69,2.86-2.02-.24-3.82-.45-5.62-.66-.11.21-.21.43-.32.64,1.32.75,2.64,1.5,4.2,2.39-.02.2-.09.75-.12.99,2.25,1.06,4.35,2.04,6.45,3.03-.07.21-.14.42-.21.64.51-.43,1.03-.86,1.5-1.26,2.34,2.47,4.65,4.9,7.05,7.43-4.09,1.46-8.2,3.31-12.57-.24-.18,1.1-.29,1.73-.38,2.27-1.57,1.49-3.75-1.55-5.13.66,1.09,1.25,2.12,2.43,3.14,3.61-.12.12-.24.25-.35.38.6.07,1.2.14,1.77.21.58,2.52,1,2.69,3.66,1.55-.69,3.22,1.93,1.56,3.14,2.05-1.5,1.83-4.88,2.29-7.1,1.09-.84-.45-1.87-1.68-2.45.35-.05.18-.86.2-1.32.19-.85,0-1.71-.08-2.56-.12-.05.18-.11.36-.16.55.47.28.94.55,1.4.83.52.32,1.4.6,1.48,1.01.43,2.39,1.9,2.08,3.51,1.48.35,1.27,3.63,4.29,4.57,3.96.97-.34,1.76-1.24,2.57-1.97,1.73-1.56,2.61-1.63,4.4-.05-1.09.11-1.98.2-3.25.33.42,1.17.79,2.21,1.15,3.21-3.97,2.53-8.46,3.53-13.18,3.69-.32.01-.84.16-.9.37-1.02,3.06-3.81,1.96-6.61,2.8,1.97,1.05,3.48,1.86,5.07,2.71-.02.34,0,.97-.12,1.58-.03.16-.58.42-.67.35-1.7-1.34-3.38-.11-5.06,0-.39.02-.78,0-1.52,0,.75-.71,1.27-1.19,2.2-2.06-1.24.19-1.97.3-2.92.44.3-.66.51-1.1.99-2.15-3.22,1.83-5.89,3.48-9.41,2.67-3.14-.72-6.53-.56-7.64-4.22,2.13.41,4.38.85,6.75,1.31.17-.7.29-1.2.44-1.79,1.22.53,2.38,1.03,3.73,1.62.09-.66.15-1.1.23-1.63h7.25c-.58-.87-.86-1.29-1.22-1.83.77-.35,1.44-.65,2.22-1-.26-.4-.46-.7-.66-1.01,1.69-1.03,3.36-2.05,5.31-3.24-2.27-.63-4.15-1.15-6.17-1.71.02-.12.08-.48.18-1.05-2.59.51-5.12,1.01-7.63,1.51.34-1.23.58-2.13.97-3.55-7.48,4.28-13.22.37-19.14-2.41.04-.22.08-.45.12-.67,2.06.36,4.11.72,6.41,1.13.08-.22.29-.75.49-1.28,1.42-.2,2.72,2.88,4.31.17.6,1.56,2.1,2,3.41,1.55.92-.31,2.91-.66,1.65-2.87,1.18.14,2.04.25,3.01.37v-3.66c.53.28,1.17.74,1.88.94.74.21,1.55.16,2.43.24-.13-.71-.22-1.16-.3-1.59,1.41-.6,2.76-1.18,4.12-1.76-.02-.16-.05-.32-.07-.48h-4.75c.25-.72.39-1.14.64-1.87-1.65.8-3.09,1.51-4.52,2.2-.26-.49-.51-.96-.95-1.8.01-.03.23-.48.63-1.31-3.1,1.36-5.37,4.22-9.05,2.8-2.95-1.14-6.23-1.53-8.32-4.24.08-.21.16-.43.24-.64.83.33,1.72.57,2.49,1.01,1.05.59,1.96,1.12,2.3-.5,1.22.68,2.43,1.35,3.7,2.06.23-.53.38-.71.38-.89.1-2.84.18-2.84,2.7-1.42.95.54,2.09.73,3.15,1.08.09-.17.19-.35.28-.52-.87-.81-1.75-1.62-2.62-2.43.04-.08.08-.16.12-.24,1.67.64,3.34,1.28,5.01,1.91l.2-.4c-.23-.37-.46-.73-.78-1.25,1.04-.37,1.98-.71,2.96-1.06-.31-.4-.57-.73-.77-.99,1.54-.27,2.99-.53,4.44-.78v-.81c-.68-.23-1.33-.55-2.02-.68-1.12-.21-2.49.45-3.2-1.12-.08-.18-1.05-.08-1.55.07-1.44.43-2.85.95-4.4,1.48-.62-1.8-1.46-3.3-3.79-2.15-.14-.59-.25-1.08-.41-1.75-2.96,1.88-5.74,4.01-9.33,1.88.34-.58.66-1.14,1.08-1.86-1.53-.52-3.33-.07-4.76-.51.89-1.41,1.37-2.18,1.88-2.98.83,1.62,1.96,2.77,4.12,2.29-.2-.61-.38-1.17-.56-1.74.53-.24,1.05-.49,1.32-.61,1.47,1.26,2.81,2.41,4.25,3.64.69-1.25,1.13-2.05,1.61-2.92,2.76,2.03,4.81-.03,7.07-.62.07-.25.14-.5.2-.75-2.7-1.18-5.39-2.36-8.2-3.59.15-.31.37-.74.58-1.16-.07-.22-.15-.44-.22-.66-1.95.38-3.9.76-6.02,1.17.86-.78,1.57-1.42,2.27-2.05-.09-.11-.19-.22-.28-.32,1.03-.48,2.05-.95,3.08-1.43l-.07-.5c-1.63-.33-3.26-.67-5.11-1.05.32-.69.58-1.27.89-1.92.92.34,1.67.62,2.16.81,1.52-.91,2.86-1.72,4.72-2.84-1.47-.57-2.63-1.02-4.18-1.62,1.13-1.25,2.19-2.42,3.34-3.69-.79-.14-1.93-.34-3.19-.56.64-1,1.31-2.04,2.16-3.36-2.46-.46-3.17,1.82-4.88,2.3-.44-.39-.93-.83-1.69-1.5-2.63,3.24-3.78,7.87-8.78,8.99-.07-.74-.11-1.44-.2-2.14-.16-1.28-.27-2.57-.54-3.82-.47-2.13.26-3.17,2.65-3.55.17.57.34,1.14.51,1.71.54-.23,1.07-.5,1.63-.68.53-.17,1.08-.27,1.64-.35.63-.09,1.26-.13,1.89-.19.08-.24.16-.47.24-.71-1.6-.99-3.21-1.99-4.96-3.08h6.8c.03-.16.06-.31.09-.47-1.12-.64-2.23-1.28-3.44-1.97.98-.79,1.92-1.55,2.86-2.3l-.23-.54c-1.7.61-3.4,1.22-5.22,1.87-.04-.36-.11-.9-.25-1.95-1.57,2.14-2.88,3.93-4.19,5.72-1.22-4.86,3.06-6.82,4.72-10.29-2.31-.7-3.13.94-4.24,2.56-1.68-2.12.52-5.52-2.73-6.8-.14,2.57-.28,5.14-.44,8.06-1.49-1.23-2.78-2.29-4.06-3.35l-.65.42c.59.99,1.06,2.08,1.79,2.95,2.68,3.22,2.96,3.97,1.97,7.77-.89-2.15-1.77-4.3-2.66-6.44-.22.04-.43.08-.65.12-.3.64-.59,1.29-.9,1.95-1.34-.55-2.69-1.09-4.03-1.64-.17.24-.35.48-.52.72,1.14,1.55,2.28,3.1,3.27,4.45-.45.89-.85,1.67-1.24,2.45.97.08,1.94.16,3.21.26.05.35.16,1.12.34,2.33-1.5-.53-2.66-.95-3.93-1.4-.5,2.15,1.52,2.59,2.33,3.77-3.41,1.08-3.4,1.06-6.82-.74-.99-.52-2.06-.9-3.25-1.4-.8,2.34,1.31,2.64,2.21,3.73-.88.37-1.71.71-2.57,1.07,1.8,1.27,3.42,2.4,5.4,3.79-1.87.55-3.22.95-4.58,1.35-.01.29-.02.58-.04.88.87.19,1.73.46,2.61.55.52.06,1.12-.32,1.59-.19.88.25,1.7,1.02,2.55,1.03.84,0,1.69-.65,2.81-.65-.55.58-1.11,1.16-1.66,1.75.05.19.09.37.14.56.97-.11,1.93-.22,3.07-.36.06.41.14,1.03.28,1.99,1.35-.62,2.56-1.18,4-1.85.2.46.55,1.27,1.15,2.63-2.95.1-5.51.27-8.07.26-2.53,0-4.35-2.73-7.75-2.06,1.08.86,1.73,1.37,2.37,1.89-.06.16-.13.31-.19.47-2.13-.93-4.26-1.86-6.37-2.81-.43-.19-.77-.64-1.21-.76-.61-.17-1.33-.3-1.9-.11-.22.07-.16,1.03-.24,1.71-1.73.26-3.6.54-5.83.88,2.33,2.6,5.12,1.88,7.77,2.06-.8.76-1.46,1.38-2.3,2.18,3.02,1.84,4.34-1.99,7.04-1.62-1.06.65-1.84,1.13-2.74,1.67.55.92,1.05,1.76,1.59,2.67,2.22-.93,4.37-1.83,6.53-2.74.05.07.09.13.14.2-1.25.93-2.49,1.87-3.74,2.8.07.21.13.41.2.62.97-.12,1.95-.25,3.07-.39.06.21.19.67.4,1.42,1.82-2.34,4.36-2.18,6.66-2.82,1.56-.44,2.89-1.67,4.38-2.57-.91,3.52-4.61,4.05-7.11,5.95-3.49,2.66-6.27-.44-9.76-1.03.36.85.59,1.42.93,2.21-1.82-.4-3.54-.78-5.35-1.18-.55,2.01-2.08,1.41-3.37,1.11-1.35-.31-2.08.05-2.45,1.53.55.16,1.04.3,1.57.45-.22.39-.44.77-.53.93,1.68.93,3.28,1.82,4.88,2.71-.07.05-.13.1-.2.15,1.01.29,2.06.5,3.01.92.21.09.09.93.12,1.42-.41-.01-.82-.01-1.24-.04-1.71-.11-3.42-.23-5.15-.35.6,1.5,1.08,2.68,1.55,3.85-.21.15-.41.31-.62.46-1.56-.81-3.12-1.61-5.02-2.6.22,1.01.34,1.58.51,2.39-1.98-.18-3.79-.34-5.6-.51l-.26.61c1.36.65,2.73,1.31,4.24,2.03-.03.25-.08.73-.09.87,2.32.97,4.43,1.85,6.88,2.88,0,0,.49-.36.98-.73,2.34,2.14,4.68,4.28,7.15,6.53-4.21,1.39-8.39,2.67-12.9-.15.17,2.66-1.13,2.54-2.73,2.2-.9-.19-1.88-.03-3.16-.03,1.43,1.43,2.43,2.42,3.42,3.41-.12.15-.24.3-.35.46.6.06,1.2.12,1.94.2.2,2.51,1.69,2.27,3.6,1.34-.28,3.17,2.09,1.28,3.27,1.81-1.45,1.68-4.64,2.07-7.08,1-.82-.36-1.57-1.41-2.68.15-.48.68-2.56.23-4.54.32.96.55,1.43.83,1.91,1.1.48.26,1.33.43,1.4.77.48,2.33,2.16,1.78,3.66,1.61.87,2.08,2.73,2.92,4.58,3.23.83.14,1.93-1.07,2.84-1.76,1.37-1.04,2.69-1.5,4.53.13-1.29.12-2.18.2-3.4.31.38,1.01.71,1.9,1,2.69-4.16,2.52-8.76,3.01-13.39,3.4-.27.02-.74-.02-.79.1-1.15,2.95-3.96,1.74-6,2.44-.04.01-.06.1-.28.53,1.54.63,3.05,1.25,4.71,1.94-.16.4-.37.92-.46,1.15.64.47,1.17,1.04,1.82,1.28.64.23,1.42.22,2.11.13,1.39-.19,2.79-.59,2.97,1.86.84-.78,1.37-1.28,2.03-1.89.29,1.74,1.67,1.91,2.83,1.59,1.15-.32,2.14-1.25,3.28-1.96.04.07.34.63.73,1.33.6-.56,1.17-1.09,1.83-1.71.23.6.39,1.05.7,1.87.65-.98,1.11-1.67,1.39-2.1,1.26.15,2.28.27,3.88.45-4.04,2.73-8.2,3.55-12.53,3.92q.62,1.18,4.71,2.47c-.84.22-1.67.57-2.52.63-5.9.44-11.81.78-17.7,1.25-1.72.14-3.42.59-5.27,1.39,1.33.48,2.66.96,4.22,1.52-1,.71-1.93,1.36-3.03,2.14,1.7.34,3.3.29,4.46.98,1.68,1.02,2.76.18,4.2-.44-.35.58-.7,1.17-1.16,1.93.47.09.9.32,1.16.2,1.27-.58,2.48-1.29,3.31.63.07.16,1.01.11,1.45-.08.81-.33,1.56-.84,2.48-1.35-.07.88-.13,1.63-.23,2.92,1.39-.57,2.46-1.01,3.67-1.51-.03.47-.05.92-.07,1.32,2.72.45,5.44.9,8.16,1.35,0,.21.02.41.02.62-6.06,1.78-12,4.59-19.11,1.31.63.97.91,1.41,1.36,2.1-4.03-.53-7.86-1.02-11.69-1.52-.06.13-.12.26-.18.39,1.87.85,3.74,1.7,5.56,2.53-.67.11-1.51.26-2.35.4-.03.24-.05.49-.08.74,1.22.3,2.44.6,3.86.95-.35.5-.67.94-.92,1.3,3.05,1.09,6.79-.32,9.4,2.8.38-.27.85-.6,1.61-1.15-.38.97-.64,1.63-1.11,2.84,1.82-.57,3.2-1,4.69-1.47-.04,1.43-.96,2.04-2.15,2.53-4.63,1.88-9.31,2.65-14.2.96-.86-.3-2.36-.78-1.88,1.4-1.98-.32-3.91-.63-6.43-1.04.82,1.12,1.31,1.79,1.79,2.46-2.1-.16-4.19-.33-6.29-.49-.93-.28-1.83-.56-2.74-.83-.05-.46-.11-1.04-.14-1.41-3,.71-5.83,1.38-8.59,2.03.44-1.65.76-2.84,1.25-4.69-9.05,5.38-15.55.39-22.28-3.46.07-.31.14-.63.22-.94,2.5.61,4.99,1.22,7.46,1.83.08-.51.19-1.27.31-2,1.92.1,3.23,3.81,4.95,1.14,1.39.57,2.77,1.7,3.82,1.44,1.68-.41,3.24-1.66,2.68-4.07,1.26.25,2.25.44,3.21.63v-4.73c1.36.45,3.04,1.01,4.73,1.57.16-.13.33-.25.49-.38-1.16-1.73-.63-2.44,1.05-2.9,1.21-.33,2.27-1.19,3.39-1.81-.08-.2-.17-.4-.25-.59h-5.78c.38-.77.62-1.27,1.19-2.42-2.27,1.28-3.92,2.21-5.35,3.02-.62-.85-1.06-1.44-1.52-2.06.25-.49.55-1.07,1.19-2.31-3.86,2.14-6.28,6.02-10.95,4-3.52-1.52-7.52-2.13-9.22-6.32,1.13.11,2.15.47,2.9,1.14,1.37,1.21,2.27,1.25,2.57-.82,1.65,1.08,2.67,3.02,4.97,2.23,0-.53-.05-.93.01-1.32.12-.77.29-1.53.44-2.29.75.34,1.5.69,2.24,1.03l3.9,1.8c.15-.24.3-.48.46-.72-1.06-1.16-2.12-2.32-3.18-3.48.09-.08.18-.15.28-.23l5.81,2.73c.12-.19.25-.38.37-.58-.36-.52-.73-1.04-1.23-1.76,1.37-.52,2.48-.94,3.69-1.4-.33-.49-.6-.9-1.03-1.54,1.17,0,2.15.23,2.93-.06.78-.29,1.35-1.11,2.02-1.7-.75-.34-1.47-.8-2.26-1-.92-.24-2.45.06-2.76-.45-1.21-1.99-2.6-1-3.96-.55-1.29.42-2.55.97-3.72,1.42-.65-1.26-1.23-2.39-1.83-3.54-.88.21-1.74.42-2.66.64-.19-.69-.36-1.32-.58-2.14-3.39,2.55-6.55,5.28-10.76,2.4.44-.78.89-1.58,1.3-2.31-2.48-.66-5.12-.7-6.78-1.99-.09-.07-.17-.16-.26-.24.06,1.17.12,2.33.19,3.5-.32.02-.63.04-.95.06v-4.42c-1.02-1.45-1.4-3.48-.92-5.66q2.42,6.05,3.9,6.86c.47-1.04.94-2.05,1.46-3.21.95,2.19,2.01,3.85,4.78,3.46-.23-.99-.39-1.67-.55-2.37.56-.43,1.11-.85,1.43-1.09,1.65,1.69,3.22,3.31,4.95,5.07.85-1.68,1.43-2.83,2.04-4.03,2.17,1.81,6.19.96,8.38-1.84-3.27-1.59-6.44-3.13-9.49-4.62.05-.69.36-1.88.11-2.01-.72-.38-1.68-.49-2.5-.39-.68.08-1.28.7-1.96.93-.72.24-1.51.31-2.64.52,1-1.51,3.67-1.1,2.47-3.16,1.33-.77,2.52-1.45,3.71-2.14-.05-.23-.1-.45-.15-.68-1.92-.4-3.83-.79-5.76-1.19.4-3.63,2.38-1.91,3.4-1.54,1.94-1.33,3.54-2.43,5.63-3.87-1.78-.75-3.31-1.39-4.93-2.07,1.57-1.74,2.9-3.21,4.5-4.98-1.82-.32-3.12-.56-4.43-.79.51-1.69,2.7-2.73,1.68-5.31-1.74,1.46-3.19,2.69-4.64,3.9-.7-.65-1.33-1.24-2.19-2.04-2.27,3.55-3.51,7.81-6.88,10.41,1.6-.31,2.53-1.69,3.77-2.62.47-.35.99-.64,1.49-.96.2.32.4.64.6.96-2.7,1.78-5.4,3.56-8.41,5.54-.16-.51-.26-.96-.3-1.36-.11.04-.2.08-.31.12-.32-3.37-.68-6.55-.9-9.74-.16-2.3,1.13-3.17,3.26-3,.04.8.08,1.49.12,2.2,2.24-.7,4.28-1.34,7-2.19-2.33-1.65-4.27-3.03-6.17-4.38,2.52-.95,5.39,1.45,8-.76-1.44-.88-2.73-1.65-4.13-2.51,1.22-1.15,2.36-2.22,3.51-3.3l-.4-.71c-2.03.89-4.06,1.79-6.08,2.68-.1-.69-.19-1.34-.29-2.05-2.96,1.45-1.9,5.89-5.36,6.66-.98-5.79,4.03-8.9,6.12-13.46-3.16-1.13-3.62,1.87-5.43,3.32-.99-3.36.15-7.02-2.48-9.57h-.49v11.15c-.2.12-.4.23-.6.35l-3.99-4.96c-1.13,2.85.29,4.39,1.58,5.85,2.02,2.31,2.59,4.99,2.45,7.92-.01.28-.11.56-.31.85.24.98.19,2.02-.16,3.11-1.12-2.48-2.14-4.76-3.33-7.41.67.42,1.23.88,1.72,1.36-.22-.73-.44-1.47-.7-2.19-.31-.88-1-1.62-1.52-2.43-.49.74-.98,1.48-1.57,2.37-1.29-.64-2.79-1.38-4.29-2.12-.27.25-.53.49-.8.74.84,1.43,1.59,2.92,2.53,4.29.89,1.29,2.22,2.4-.06,3.65-.26.14-.36,1.19-.12,1.48.33.4,1.08.7,1.61.65.67-.07,1.29-.54,2.11-.92v2.63c2.18,1.03,4.36,2.07,4.63,5.64-2.13-1.91-3.84-3.44-5.55-4.97,0,0,0,0,0,0-1.08-.46-2.09-.89-3.09-1.32l-.69.65c.98,1.41,1.96,2.82,2.93,4.21-2.29,2.99-4.59,1.25-6.98-.4-1.31-.9-2.77-1.57-4.33-2.44-1.29,3.02,1.34,3.72,2.57,5.13-1.07.45-2.1.89-3.07,1.3,2.12,1.79,4.01,3.39,6.27,5.3-1.62.42-2.76.58-3.76,1.03-.58.26-.95,1-1.41,1.52.71.41,1.5,1.27,2.11,1.16,1.66-.32,3.11-.6,4.5.78.29.29,1.3-.06,1.94-.25.76-.23,1.48-.6,2.45-.48-.71.82-1.41,1.65-2.12,2.47l.26.69c1.14-.19,2.29-.37,3.34-.54.22.62.52,1.45.82,2.29,1.41-.64,2.82-1.28,4.36-1.98.19.55.59,1.67.98,2.8-6.27,2.84-11.71.2-17.16-2.44-.13.34-.26.68-.39,1.01.8.75,1.6,1.5,2.41,2.25-.08.19-.16.37-.24.56-2.32-1.12-4.66-2.21-6.96-3.37-.64-.32-1.12-1.01-1.78-1.26-.76-.28-1.63-.26-2.45-.37-.06.73-.13,1.46-.21,2.38-2.02.34-4.2.71-6.44,1.09,1.01,2.36,1.6,2.56,8.29,3.06-.03.13-.03.28-.1.39-.52.88-1.06,1.76-1.59,2.64,1.17-.17,2.44-.11,3.48-.57,1.23-.54,2.27-1.54,3.81-2.09-3.23,1.54-3.24,3.44-.9,5.86,2.32-1.09,4.79-2.24,7.26-3.4.07.08.15.15.22.23-.89.73-1.85,1.39-2.63,2.22-.53.56-.81,1.35-1.21,2.03.82-.04,1.64-.04,2.45-.14.29-.04.54-.34,1-.65.15.74.28,1.36.42,2,.21-.1.43-.12.5-.24,1.52-2.43,4.2-2.48,6.54-2.94,2.61-.51,4.4-1.67,5.22-4.23.23.09.46.19.69.28-.44,1.03-.59,2.46-1.37,3.03-3.25,2.4-6.66,4.58-10.08,6.72-.44.28-1.37,0-1.97-.26-1.92-.83-3.8-1.78-6.26-2.96.4,1.37.65,2.22.96,3.3-2-.56-3.98-1.12-6.12-1.71-.21,2.29-1.57,2.45-3.42,1.81-1.58-.55-2.9-.37-3.41,1.78.62.24,1.23.47,1.93.74-.29.56-.57,1.11-.76,1.49,1.68.86,3.25,1.66,5.14,2.63.04.24.15.83.25,1.38q4.68.83,3.75,2.43h-7.22c.6,1.85,1.14,3.5,1.68,5.16-.26.13-.51.26-.77.39-1.77-1.08-3.54-2.15-5.9-3.59.39,1.59.57,2.33.82,3.37-2.39-.28-4.51-.53-6.64-.79-.12.25-.25.51-.37.76,1.56.89,3.11,1.77,4.96,2.82-.03.24-.1.89-.14,1.17,2.66,1.25,5.14,2.42,7.63,3.58-.08.25-.16.5-.25.75.61-.51,1.21-1.02,1.77-1.49,2.77,2.91,5.5,5.79,8.33,8.78-4.83,1.72-9.69,3.91-14.86-.29-.22,1.3-.34,2.05-.45,2.69-1.86,1.76-4.43-1.84-6.07.78,1.29,1.48,2.5,2.87,3.71,4.26-.14.15-.28.3-.42.44.71.08,1.42.17,2.09.25.69,2.97,1.18,3.18,4.32,1.83-.82,3.81,2.28,1.84,3.71,2.42-1.78,2.16-5.77,2.7-8.39,1.29-1-.54-2.2-1.99-2.9.41-.06.21-1.02.23-1.56.23-1.01,0-2.02-.09-3.03-.15-.06.22-.13.43-.19.65.55.33,1.11.65,1.66.99.61.38,1.66.71,1.75,1.2.5,2.82,2.25,2.46,4.14,1.75.41,1.5,4.29,5.07,5.4,4.67,1.14-.4,2.08-1.47,3.03-2.33,2.05-1.84,3.09-1.93,5.2-.06-1.29.13-2.34.24-3.84.39.5,1.39.94,2.61,1.36,3.79-4.69,2.99-9.99,4.17-15.58,4.37-.37.01-.99.19-1.07.43-1.2,3.62-4.51,2.31-7.81,3.31,2.33,1.24,4.11,2.2,6,3.2-.02.38-.01,1.04-.12,1.71.47-.15.94-.3,1.36-.48-.2-.25-.43-.54-.75-.93,1.85-.02,3.62-.15,2.89-2.86,1.68.14,3.9-1.39,3.96,2.35l.77-.2c.77-.83,1.22-1.31,1.39-1.49.45.21.9.49,1.35.76l5.67-1.51c.16-.12.33-.24.5-.36.02.03.05.1.1.2l2.82-.75s.04-.04.06-.06c0,.02,0,.03.01.04.26.82.46,1.43.82,2.56h.02c.72-1.39,1.2-2.32,1.5-2.89,1.48.15,2.69.27,4.53.46-.54.46-1.09.87-1.65,1.25l54.55-14.58c.3-.92.52-1.58.73-2.23-3.41,2.4-6.77,3.84-11.02,2.97-6.08-1.24-7.81-2.38-8.27-5.75,2.38.56,5,1.17,7.58,1.78.39-.96.64-1.57.9-2.21,1.39.69,2.61,1.29,4.06,2.01.09-.84.16-1.4.25-2.27h8.18c-.46-1.12-.72-1.75-.98-2.37.94-.53,1.75-.98,2.74-1.54-.6-.44-.98-.71-1.3-.95,1.82-1.3,3.56-2.53,5.43-3.87.74.2,1.49.4,2.23.6-.61.64-1.37,1.46-2.22,2.35,1.67,1.14,3.17,2.13,4.65,3.18.96.68,1.8.64,2.79-.01.4-.26,1.38-.23,1.67.07.4.43.63,1.28.5,1.85-.08.35-.96.62-1.52.72-2.09.39-4.19.69-6.6,1.07,1.65,2.01,3.52,1.34,5.47,1.2-.38-.12-.76-.25-1.17-.38l7.84-2.1c-.87-.15-1.74-.33-2.63-.53.76-.55,1.53-1.1,2.35-1.69.48.45,1.15,1.08,1.9,1.79l.52-.14c.5-.53,1-1.06,1.54-1.64.51.27,1.01.54,1.53.81l73.16-19.56,1.02.27,132.52,35.45c.15-.19.3-.33.44-.42.14.21.31.44.5.68l6.09,1.63c.29-.27.58-.55.87-.81,1.89-1.7,2.85-1.78,4.79-.05-1.19.12-2.16.22-3.54.36.15.41.29.8.43,1.19l50.14,13.41c.55-.59,1.03-1.1,1.56-1.67,2.65,2.71,5.2-.04,7.89-.33.18-.24.36-.49.54-.73-1.28-.83-2.56-1.65-3.84-2.48.17-.18.34-.35.51-.53,1.4.2,2.79.43,4.19.6,1.01.12,2.11.5,2.09-1.35,0-.55,1.08-1.25,1.8-1.64.72-.39,1.6-.47,2.52-.72-.27-.31-.43-.5-.48-.55.99-.86,1.83-1.58,2.76-2.39-3.82-2.55-7.4-3.98-11.61-2.41Zm-42.97-76.95c.24-.23.47-.46.71-.68,2.05.97,4.15,1.9,4.41,5.26-1.96-1.76-3.54-3.17-5.12-4.58Zm-128.64-84.92c.22-.21.43-.42.65-.63,1.89.89,3.81,1.74,4.05,4.83-1.8-1.61-3.25-2.91-4.7-4.2Zm4.53-2.34c-.95-2.1-1.81-4.03-2.82-6.27,2.61,1.65,3.59,3.83,2.82,6.27Zm-80.81,25.08c2.74-.25,4.37,1.05,4.79,3.54-1.77-1.31-3.28-2.43-4.79-3.54Zm4.61-2.1c-.94-1.84-1.82-3.58-2.78-5.48,2.65,1.37,3.57,3.2,2.78,5.48Zm-104.06,49.22c.26-.25.51-.49.77-.74,2.23,1.05,4.5,2.06,4.78,5.71-2.13-1.91-3.84-3.44-5.55-4.97Zm5.35-2.76c-1.12-2.48-2.14-4.76-3.33-7.41,3.09,1.95,4.25,4.52,3.33,7.41Zm-7.48,45.24c-2.59.5-5.21,1.09-7.83,1.12-2.09.03-2.29-1.81-2.19-4.1,2.61,2.05,5.11,4.14,7.47.9.86.5,1.46,1.13,2.08,1.14.59,0,1.19-.63,1.78-.98.14.22.29.43.43.65-.58.44-1.11,1.15-1.75,1.27Zm0-5.94c-2.59.5-5.21,1.09-7.83,1.12-2.09.03-2.29-1.81-2.19-4.1,2.61,2.05,5.11,4.14,7.47.9.86.5,1.46,1.13,2.08,1.14.59,0,1.19-.63,1.78-.98.14.22.29.43.43.65-.58.44-1.11,1.15-1.75,1.27Zm13.98-28.44c2.56.47,3.62-1.45,5.18-2.63.47-.35.99-.64,1.49-.96.2.32.4.64.6.96-2.7,1.78-5.4,3.56-8.41,5.54-.61-1.93-.46-3.2,1.14-2.91Zm.02,26.21v-5.58c.22-.02.43-.03.65-.05.1,1.86.2,3.71.3,5.57-.32.02-.63.04-.95.06Zm85.57-49.81c-2.07.36-4.16.64-6.26.83-1.86.17-2.2-1.05-2.25-2.99,2.34,1.31,4.52,2.98,6.84.18.85,2.95,2.12,0,3.34.94-.6.39-1.1.93-1.67,1.03Zm0-5.94c-2.07.36-4.16.64-6.26.83-1.86.17-2.2-1.05-2.25-2.99,2.34,1.31,4.52,2.98,6.84.18.85,2.95,2.12,0,3.34.94-.6.39-1.1.93-1.67,1.03Zm12.72-.18c-.16.01-.33.03-.49.04v-4.19c.16,0,.33,0,.49-.01v4.16Zm0-7.16v1.22c-.16.01-.33.03-.49.04v-2.22c-.49-1.16-.75-2.42-.86-3.71.28.58.57,1.17.86,1.77v-.03c.16,0,.33,0,.49-.01v1.06c.44.9.9,1.86,1.43,2.95-.55-.18-1.03-.51-1.43-1.07Zm-.31-6.46c-.58-1.2-.88-2.53-1.01-3.9-.23-.22-.46-.45-.68-.67.39-.45.81-1.3,1.17-1.28,2.19.15,3.72-.85,5.08-2.39.2-.22.74-.15,1.12-.21.1.21.21.42.31.63-2.31,1.3-4.61,2.6-6.92,3.9.8,1.66,1.62,3.34,2.67,5.52-.7-.23-1.3-.69-1.74-1.59Zm31.08,63.69c-3.07-.38-6.15-.75-9.39-1.15.83-.89,1.37-1.46,1.97-2.11,2.33.83,4.93,1.76,7.53,2.69l-.12.57Zm1.31,4.6c2.06-1.59,4.43,2.19,6.32-.91.63.96,1.09,1.66,1.75,2.67-3.06.2-6.01,1.39-8.07-1.76Zm5.66,19.98c2.61-.73,4.81-1.99,7.19-.37-2.18,2.08-4.21,2.25-7.19.37Zm2.9-13.48c2.29,1.47,3.29-.07,4.27-1.04.46-.45.22-1.62.29-2.46l-.63-.22c.79-.61,1.58-1.22,2.6-2.01-.12.83-.19,1.36-.3,2.12,1.48.09,2.82.17,4.36.26,1.05.34,2.36.76,3.6,1.16-1.82,2.53-12.03,4.65-14.2,2.2Zm6.59-19.65c.8,2.35,3.02,1.72,4.59,2.28l.11.62c-1.7.32-3.39.78-5.1.92-4.58.37-9.19.47-13.76.95-2.35.24-3.24-1.6-4.75-2.72,1.08.08,2.17.12,3.24.24,1.27.15,2.42.65,2.91-1.4.18-.73,2.15-1.03,3.42-1.57-.17-.21-.36-.45-.63-.79,1.57-.02,3.06-.12,2.45-2.42,1.49.12,3.5-1.32,3.35,2.51,1.07-1.15,1.64-1.76,1.82-1.96,1.02.47,2.11,1.44,2.92,1.24,1.24-.3,2.28-1.4,3.44-2.18.06.12.38.76.74,1.47.61-.68,1.13-1.27,1.77-2,.23.72.4,1.24.71,2.22.62-1.18,1.03-1.97,1.28-2.46,1.25.13,2.27.23,3.83.39-3.74,3.16-7.9,3.98-12.36,4.65Zm16.53-53.83c-2.19.42-4.41.92-6.63.95-1.77.02-1.94-1.53-1.85-3.47,2.21,1.73,4.33,3.5,6.32.76.72.43,1.24.96,1.76.97.5,0,1.01-.53,1.51-.83.12.18.24.37.37.55-.49.37-.94.97-1.48,1.07Zm11.83-29.08c2.17.4,3.06-1.23,4.39-2.23.4-.3.84-.54,1.26-.81.17.27.34.54.51.81-2.29,1.51-4.57,3.01-7.12,4.69-.51-1.63-.39-2.71.96-2.46Zm.02,22.18v-4.73c.18-.01.37-.03.55-.04.08,1.57.17,3.14.25,4.71-.27.02-.53.04-.8.05Zm40.59,69.65s-.02.1-.03.15c-.05-.07-.1-.13-.16-.21.07.02.13.04.19.06Zm-.24,5.31c-.54,0-1.09-.01-1.62-.07-.41-.81-.83-1.63-1.26-2.48,1.41.73,2.37,1.58,2.88,2.55Zm-4.03-1.36c.03.18.07.48.13.89-1.04-.25-2.06-.62-3.05-1.12.88.07,1.79.15,2.92.24Zm-2.43-2.39c-.34.66-.66,1.29-.97,1.91-.57-.32-1.12-.69-1.65-1.12.96-.29,1.8-.55,2.62-.79Zm-8.84,29.06c.74-.31,1.49-.62,2.22-.93.48.07.96.14,1.43.21-.75.56-1.51,1.13-2.26,1.69-.47-.3-.93-.64-1.4-.97Zm2.75,1.64c.63-.08,1.28-.16,1.99-.25.05.18.16.56.32,1.13-.77-.3-1.54-.6-2.31-.88Zm6.71,1.9c-.22.16-.43.3-.64.43-1.14-.41-2.27-.86-3.41-1.31,1.42-1.64,3.21-2.02,5-2.36,1.04.16,2.07.32,3.13.48.04-.66.06-1.02.09-1.37.47.03.84.59,1.24.95-1.64,1.21-3.76,1.92-5.41,3.17Zm5.23-19.99c.24-.09.49-.16.74-.22.1.29.17.6.23.94-.33-.25-.65-.48-.97-.71Zm5.2-.15s0-.05,0-.07c.06,0,.11.02.17.03-.06.01-.11.03-.16.05Zm-.11-1.3c0-.1-.02-.2-.03-.31,1.34-.08,2.51-.16,3.9-.25-.82.68-1.77,1.25-2.93,1.62-.27-.31-.57-.65-.94-1.07Zm6.36,2.91c.28.18.57.37.86.55-.92.52-1.85,1.04-2.77,1.56-.46-.1-.93-.18-1.4-.24,1.29-.25,2.35-.93,3.31-1.87Zm-4.05,13.26c-.19-.23-.31-.39-.31-.39.04-.01.07-.03.11-.04.07.14.14.28.21.42Zm.03,8.43c-.11-.45-.09-.77,0-1v1Zm.63-5.63c-.37-.29-.7-.69-.97-1.25-.09-.19-.16-.38-.24-.57.26-.16.52-.32.8-.46.34.7.69,1.43,1.08,2.22-.22.02-.44.04-.66.05Zm1.4-.11c.73-1.15,1.18-1.88,1.66-2.63.54,1.04,1.19,1.89,2.12,2.32-1.26.1-2.52.21-3.77.31Zm-.27-19.6c-1.1-.63-1.9-1.09-2.84-1.62,3.35-.36,6.96-2.94,7.45-5.56-2.41.54-4.65,1.05-7.13,1.61v-1.61c-.69.05-1.38.12-2.06.19.44-.69,1.3-1.11,2.67-1.33.19.62.37,1.24.55,1.87.59-.25,1.17-.54,1.77-.74.58-.18,1.18-.29,1.78-.38.68-.1,1.37-.14,2.06-.21.09-.26.17-.51.26-.77-1.75-1.08-3.5-2.17-5.41-3.35h6.29c-.76.96-2.28-.39-3.03.43,1.93,1.98,4.68,2.72,7.09,3.97-.64.56-1.24,1.15-2.05,1.38-.48-.42-1.02-.9-1.84-1.63-1.99,2.45-3.21,5.63-5.59,7.76Zm6.31,19.1c-.17-.52-.33-1.03-.49-1.53.57-.27,1.14-.53,1.44-.67.15.13.3.25.45.38-.06.02-.12.04-.19.06.16.06.3.11.45.17.52.45,1.04.89,1.55,1.33-1.07.09-2.14.18-3.21.26Zm4.09-24.07c.29-.45.59-.92.9-1.4.67.51,1.27,1.12,1.78,1.87-.76-.13-1.68-.29-2.67-.47Zm3.14-7.62c-.36.02-.76-.87-1.01-1.18h5.92c.03.17.06.34.09.5-1.67.25-3.33.59-5,.68Zm34.82,29.94c.41.06.95-.06,1.5-.28.46.21.91.43,1.37.64-.08.23-.15.46-.23.69.56-.47,1.12-.94,1.64-1.37.7.74,1.4,1.47,2.1,2.21-3.54-.06-6.94-.02-10.07-2.02,1.26-.18,2.48-.05,3.69.12Zm-6.44,21.03c1.24.12,2.48.29,3.72.45.61,2.48,1.12,2.63,3.92,1.43-.21.98-.13,1.54.11,1.86-3.13-.31-6.1-1.72-9.09-3.08.47-.43.92-.7,1.34-.66Zm12.24,6.5c.23.64.45,1.24.65,1.82-1.58.57-3.13.83-4.83.16-2.67-1.05-5.32-2.15-7.98-3.22.05-.19.1-.39.16-.58,1.01.18,2.01.35,2.82.5.17-.21.32-.36.48-.47.99,1.56,3.77,3.95,4.65,3.64,1.06-.37,1.92-1.35,2.8-2.14,1.89-1.7,2.85-1.78,4.79-.05-1.19.12-2.16.22-3.54.36Zm2.61-12.58c-2.71-.43-5.47-.87-8.24-1.3.02-.31.04-.62.06-.94,1.53-.11,3.06-.23,4.58-.34-.04-.09-.18-.42-.35-.83.7-.04,1.34-.08,2.19-.13-.5-.42-.79-.67-.85-.72.67-.44,1.34-.89,2.03-1.33,1.37,1.44,2.74,2.88,4.14,4.36-1.18.42-2.36.87-3.55,1.23Zm0-5.94c-2.71-.43-5.47-.87-8.24-1.3,0-.11.01-.22.02-.34-1.33-.28-2.63-.75-3.88-1.55,1.26-.18,2.48-.05,3.69.12.41.06.95-.06,1.5-.28.46.21.91.43,1.37.64-.03.09-.06.19-.09.28.13,0,.26-.02.39-.03.38-.32.75-.63,1.11-.93.11.12.23.24.34.36-.05-.11-.1-.24-.16-.38.7-.04,1.34-.08,2.19-.13-.5-.42-.79-.67-.85-.72.67-.44,1.34-.89,2.03-1.33,1.37,1.44,2.74,2.88,4.14,4.36-1.18.42-2.36.87-3.55,1.23Zm10.95-12.93c-2.39.46-4.81,1-7.22,1.03-1.93.02-2.11-1.67-2.02-3.78,2.41,1.89,4.71,3.82,6.89.83.79.46,1.35,1.04,1.92,1.05.54,0,1.1-.58,1.64-.91.13.2.27.4.4.6-.53.4-1.02,1.06-1.61,1.17Zm0-5.94c-2.39.46-4.81,1-7.22,1.03-1.93.02-2.11-1.67-2.02-3.78,2.41,1.89,4.71,3.82,6.89.83.79.46,1.35,1.04,1.92,1.05.54,0,1.1-.58,1.64-.91.13.2.27.4.4.6-.53.4-1.02,1.06-1.61,1.17Zm12.89-25.76c2.36.43,3.34-1.34,4.78-2.43.43-.33.91-.59,1.37-.88.19.29.37.59.56.88-2.49,1.64-4.98,3.28-7.76,5.11-.56-1.78-.42-2.95,1.05-2.69Zm.02,24.17v-5.15c.2-.01.4-.03.6-.04.09,1.71.18,3.42.27,5.13-.29.02-.58.04-.87.06Z"/>
      <path class="cls-1" d="m648.55,233.77c-.46.03-.93,0-1.79,0,.89-.83,1.51-1.41,2.6-2.43-1.47.22-2.32.35-3.45.52.36-.77.6-1.31,1.17-2.55-3.81,2.16-6.96,4.11-11.12,3.16-3.71-.85-7.72-.67-9.03-4.99,2.52.49,5.18,1,7.97,1.54.2-.82.34-1.41.52-2.12,1.44.62,2.81,1.22,4.41,1.92.11-.78.18-1.29.27-1.93h8.56c-.69-1.03-1.02-1.53-1.44-2.16.92-.41,1.7-.77,2.62-1.19-.31-.47-.54-.83-.78-1.19,2-1.22,3.97-2.42,6.28-3.83-2.69-.74-4.91-1.36-7.29-2.02.02-.14.1-.57.21-1.25-3.06.6-6.05,1.19-9.02,1.78.4-1.45.69-2.51,1.15-4.2-8.84,5.06-15.62.43-22.63-2.85.05-.27.09-.53.14-.8,2.43.43,4.86.86,7.58,1.33.1-.25.34-.88.58-1.51,1.68-.23,3.22,3.4,5.1.21.71,1.85,2.48,2.36,4.03,1.83,1.08-.37,3.44-.79,1.96-3.39,1.4.17,2.41.29,3.56.43v-4.32c.63.33,1.38.88,2.22,1.11.87.25,1.83.19,2.87.28-.16-.84-.26-1.37-.35-1.88,1.67-.71,3.27-1.39,4.87-2.07-.03-.19-.06-.38-.08-.57h-5.61c.29-.85.46-1.34.76-2.22-1.95.95-3.65,1.78-5.34,2.6-.31-.58-.6-1.14-1.12-2.13.02-.03.27-.56.74-1.55-3.66,1.61-6.34,4.99-10.69,3.31-3.49-1.35-7.37-1.81-9.84-5.01.1-.25.19-.51.29-.76.98.39,2.03.68,2.94,1.19,1.24.7,2.32,1.32,2.72-.59,1.44.8,2.87,1.59,4.38,2.43.28-.63.44-.84.45-1.05.12-3.35.21-3.36,3.2-1.67,1.12.63,2.47.86,3.72,1.28.11-.21.22-.41.33-.62-1.03-.96-2.07-1.91-3.1-2.87.05-.1.09-.19.14-.29,1.97.75,3.95,1.51,5.92,2.26.08-.16.16-.31.24-.47-.27-.43-.54-.87-.92-1.47,1.23-.44,2.34-.84,3.49-1.25-.37-.48-.67-.87-.91-1.17,1.82-.32,3.53-.62,5.24-.92,0-.32-.01-.64-.02-.96-.79-.27-1.56-.65-2.37-.8-1.33-.24-2.94.53-3.79-1.32-.1-.22-1.24-.1-1.83.08-1.7.51-3.37,1.12-5.2,1.75-.73-2.13-1.72-3.9-4.47-2.55-.16-.7-.3-1.28-.49-2.07-3.49,2.22-6.78,4.75-11.03,2.22.4-.69.78-1.35,1.28-2.2-1.8-.62-3.93-.08-5.62-.6,1.05-1.66,1.62-2.57,2.22-3.53.98,1.92,2.32,3.27,4.87,2.71-.23-.72-.44-1.38-.66-2.06.62-.29,1.24-.58,1.56-.73,1.73,1.49,3.32,2.84,5.02,4.3.81-1.48,1.34-2.42,1.9-3.45,3.26,2.4,5.68-.03,8.35-.73l.24-.89c-3.19-1.39-6.37-2.78-9.7-4.24.18-.37.43-.87.69-1.38-.09-.26-.18-.52-.26-.78-2.31.45-4.61.9-7.12,1.38,1.02-.92,1.85-1.67,2.69-2.43-.11-.13-.22-.26-.34-.38,1.21-.56,2.42-1.12,3.64-1.68-.03-.2-.05-.39-.08-.59-1.92-.39-3.85-.79-6.04-1.24.37-.81.69-1.5,1.05-2.27,1.09.41,1.98.74,2.55.95,1.79-1.08,3.38-2.03,5.58-3.36-1.74-.67-3.1-1.2-4.93-1.92,1.34-1.48,2.59-2.86,3.95-4.37-.94-.16-2.28-.4-3.77-.66.76-1.19,1.55-2.41,2.55-3.97-2.91-.55-3.75,2.15-5.77,2.72-.52-.46-1.1-.98-1.99-1.77-1.99,2.45-3.27,5.57-5.47,7.85.93-.5,1.76-1.22,2.53-2.1.23-.27.87-.17,1.32-.25.12.25.25.49.37.74-2.75,1.55-5.5,3.1-8.26,4.65l-.4-.39c-.16.04-.3.09-.47.13-.08-.87-.13-1.7-.24-2.53-.19-1.51-.32-3.03-.64-4.52-.56-2.51.31-3.75,3.13-4.19.2.67.4,1.35.6,2.02.64-.27,1.26-.59,1.92-.8.63-.2,1.28-.32,1.93-.41.74-.11,1.49-.15,2.24-.22.09-.28.19-.56.28-.84-1.9-1.18-3.79-2.35-5.87-3.64h8.04l.11-.55c-1.32-.75-2.64-1.51-4.07-2.33,1.16-.93,2.27-1.83,3.38-2.72-.09-.21-.18-.43-.28-.64-2.01.72-4.02,1.44-6.17,2.21-.05-.42-.13-1.06-.29-2.31-1.85,2.53-3.4,4.65-4.95,6.76-1.44-5.74,3.62-8.06,5.58-12.16-2.73-.83-3.7,1.11-5.02,3.02-1.99-2.51.62-6.53-3.23-8.04-.16,3.04-.33,6.07-.51,9.53-1.77-1.46-3.28-2.71-4.8-3.96-.25.17-.51.33-.76.5.7,1.17,1.25,2.45,2.11,3.49,2.71,3.25,3.34,4.38,2.73,7.44.36.97.37,2.04-.04,3.21-1.11-2.18-2.15-4.24-3.29-6.48.42.22.79.44,1.13.68-.45-1.09-.9-2.19-1.35-3.28-.26.05-.51.1-.77.14-.35.76-.7,1.52-1.06,2.31-1.59-.65-3.18-1.29-4.77-1.94-.21.29-.41.57-.62.86,1.34,1.83,2.69,3.67,3.86,5.26-.53,1.05-1,1.97-1.47,2.9,1.15.09,2.3.19,3.79.31.04.3.13.87.25,1.7,1.4.07,2.48.57,3.25,1.42-.74-1.45-1.47-2.89-2.24-4.41,3.11,1.61,4.2,3.75,3.3,6.41.07.26.15.51.19.79-1.58-1.17-2.99-2.21-4.36-3.22,0,.02,0,.04,0,.06-1.77-.63-3.15-1.12-4.65-1.65-.59,2.54,1.79,3.06,2.75,4.46-4.04,1.28-4.02,1.25-8.07-.88-1.17-.62-2.43-1.06-3.84-1.66-.94,2.77,1.55,3.12,2.62,4.4-1.04.43-2.02.84-3.03,1.26,2.13,1.5,4.04,2.84,6.38,4.48-2.21.65-3.81,1.13-5.41,1.6-.01.34-.03.69-.04,1.03,1.03.23,2.04.54,3.08.65.61.07,1.32-.38,1.88-.22,1.04.29,2.01,1.2,3.01,1.21,1,.01,2-.77,3.32-.77-.65.69-1.31,1.38-1.96,2.06.05.22.11.44.16.66,1.14-.13,2.28-.26,3.63-.42.07.48.17,1.22.33,2.35,1.59-.73,3.03-1.4,4.73-2.18.24.55.66,1.5,1.36,3.11-3.49.12-6.52.32-9.54.31-2.99-.01-5.15-3.23-9.16-2.44,1.28,1.01,2.04,1.62,2.8,2.23-.08.19-.15.37-.23.56-2.51-1.1-5.03-2.19-7.53-3.32-.51-.23-.91-.75-1.43-.9-.72-.2-1.57-.35-2.24-.13-.26.09-.19,1.22-.29,2.02-2.04.31-4.25.64-6.89,1.04,2.75,3.08,6.05,2.22,9.19,2.44-.95.9-1.73,1.63-2.71,2.57,3.57,2.18,5.13-2.35,8.31-1.91-1.25.77-2.18,1.33-3.23,1.98.65,1.09,1.25,2.09,1.88,3.15,2.62-1.1,5.17-2.17,7.72-3.23.06.08.11.16.17.24-1.47,1.1-2.94,2.21-4.42,3.31.08.24.16.49.24.73,1.15-.15,2.3-.29,3.63-.46.07.25.23.8.48,1.68,2.15-2.77,5.16-2.57,7.87-3.34,1.84-.52,3.42-1.97,5.18-3.04-1.07,4.16-5.45,4.79-8.4,7.03-4.13,3.14-7.41-.52-11.54-1.22.42,1,.7,1.67,1.09,2.61-2.15-.47-4.19-.92-6.32-1.39-.65,2.38-2.46,1.67-3.98,1.31-1.59-.37-2.46.06-2.89,1.81.65.19,1.23.35,1.86.53-.26.46-.53.91-.63,1.1,1.98,1.1,3.88,2.15,5.77,3.21-.08.06-.16.12-.24.18,1.2.34,2.43.59,3.56,1.09.24.11.1,1.09.14,1.68-.49-.01-.97-.02-1.46-.05-2.02-.13-4.04-.27-6.08-.41.71,1.77,1.27,3.16,1.83,4.55l-.73.55c-1.84-.95-3.68-1.91-5.94-3.08.25,1.2.4,1.86.6,2.83-2.34-.21-4.48-.4-6.62-.6l-.31.72c1.61.77,3.22,1.54,5.02,2.4-.03.3-.09.87-.11,1.03,2.75,1.15,5.24,2.19,8.13,3.4,0,0,.58-.43,1.16-.86,2.77,2.53,5.53,5.05,8.45,7.72-4.98,1.64-9.92,3.15-15.24-.18.21,3.15-1.34,3-3.23,2.6-1.07-.23-2.23-.04-3.74-.04,1.69,1.69,2.87,2.86,4.04,4.03-.14.18-.28.36-.42.54.71.07,1.41.14,2.29.23.23,2.96,2,2.68,4.26,1.58-.33,3.75,2.47,1.51,3.86,2.14-1.72,1.99-5.49,2.45-8.37,1.19-.97-.43-1.85-1.67-3.16.18-.57.8-3.02.27-5.36.38,1.14.65,1.69.98,2.26,1.3.57.31,1.57.51,1.65.91.57,2.76,2.55,2.1,4.33,1.9,1.03,2.46,3.23,3.45,5.42,3.82.98.16,2.29-1.27,3.36-2.09,1.62-1.23,3.18-1.77,5.35.16-1.52.14-2.58.24-4.02.37.45,1.2.84,2.25,1.18,3.18-4.92,2.98-10.36,3.55-15.82,4.02-.32.03-.88-.02-.93.12-1.35,3.49-4.68,2.06-7.09,2.89-.05.02-.07.12-.33.62,1.82.75,3.6,1.48,5.57,2.29-.19.47-.44,1.08-.55,1.36.76.55,1.38,1.23,2.15,1.51.76.27,1.68.26,2.49.15,1.64-.22,3.3-.7,3.51,2.2.99-.92,1.62-1.51,2.4-2.24.35,2.05,1.98,2.26,3.35,1.88,1.36-.38,2.53-1.47,3.88-2.31.05.08.4.74.86,1.57.71-.67,1.38-1.29,2.17-2.02.27.71.46,1.24.83,2.21.77-1.16,1.31-1.98,1.64-2.48,1.49.18,2.7.32,4.58.54-4.78,3.23-9.69,4.2-14.81,4.63.63,1.2.73,1.37,3.77,2.35l57.8-15.45c.21-.22.42-.45.63-.67.26.09.54.19.81.29l7.42-1.98c-.8-.66-1.49-1.51-2.36-2.14,1.28.09,2.56.14,3.83.29,1.5.17,2.86.77,3.44-1.65.1-.41.67-.7,1.4-.96.05-.02.11-.04.17-.06-1.91-1.22-3.79.09-5.68.2Zm-49.3-73.52c3.24-.3,5.16,1.24,5.66,4.19-2.09-1.55-3.88-2.87-5.66-4.19Zm-2.36,37.37c-2.45.43-4.92.76-7.39.99-2.19.2-2.6-1.24-2.66-3.53,2.77,1.54,5.34,3.52,8.08.21,1.01,3.49,2.5,0,3.94,1.12-.71.46-1.3,1.1-1.97,1.22Zm0-5.94c-2.45.43-4.92.76-7.39.99-2.19.2-2.6-1.24-2.66-3.53,2.77,1.54,5.34,3.52,8.08.21,1.01,3.49,2.5,0,3.94,1.12-.71.46-1.3,1.1-1.97,1.22Zm14.05-24.3c2.59.18,4.4-1,6.01-2.82.23-.27.87-.17,1.32-.25.12.25.25.49.37.74-2.75,1.55-5.5,3.1-8.26,4.65-.27-.27-.55-.54-.82-.81.46-.53.96-1.54,1.38-1.51Zm.99,23.01c-.19.02-.39.03-.58.05v-4.95c.19,0,.39-.01.58-.02v4.92Zm0-8.46v2.52c-.19.02-.39.03-.58.05v-3.7c-.57-1.37-.89-2.86-1.01-4.39.49,1.02.98,2.03,1.51,3.13.03,0,.05,0,.08,0v.17c.52,1.07,1.07,2.2,1.69,3.49-.64-.21-1.22-.6-1.69-1.27Zm-.37-6.55c-.73-1.5-1.09-3.18-1.23-4.91.99,2.05,1.98,4.1,3.28,6.79-.82-.27-1.54-.81-2.06-1.88Z"/>
      <path class="cls-1" d="m594.01,273.74h-4.56l-7.58,2.03-.2-1.8c-5.52,1.71-11.17,2.98-17.64,0,.74,1.15,1.08,1.67,1.61,2.48-4.77-.62-9.29-1.21-13.82-1.8-.07.15-.14.31-.22.46,2.21,1.01,4.42,2.01,6.57,2.99-.8.14-1.79.3-2.78.47-.03.29-.06.58-.09.87,1.44.36,2.88.71,4.56,1.13-.42.59-.79,1.11-1.09,1.54,3.6,1.29,8.02-.38,11.11,3.3.45-.32,1-.71,1.91-1.35-.45,1.15-.75,1.93-1.31,3.35,2.15-.67,3.78-1.18,5.55-1.74-.05,1.69-1.13,2.42-2.55,2.99-5.47,2.22-11,3.13-16.78,1.14-1.01-.35-2.79-.93-2.23,1.65-2.34-.38-4.63-.75-7.6-1.23.97,1.33,1.54,2.11,2.12,2.9-2.62-.2-5.23-.41-7.85-.61-.07.4-.15.81-.22,1.21,2.48.67,4.96,1.34,7.42,2-.72.76-1.62,1.72-2.62,2.78,1.97,1.34,3.75,2.52,5.49,3.76,1.13.8,2.12.76,3.3-.01.47-.31,1.63-.27,1.98.09.48.5.74,1.52.59,2.19-.1.41-1.14.73-1.8.85-2.47.46-4.96.82-7.8,1.27,2.18,2.67,4.71,1.34,7.31,1.4-1.43,1.03-2.61,1.87-3.87,2.78,2.2.71,3.98,1.29,5.76,1.87-.07.22-.15.44-.22.66,1.14-.33,2.28-.66,3.74-1.09-.32.68-.49,1.05-.66,1.43,1.56.14,3.12.28,4.67.42,0,.41-.01.83-.02,1.24h-18.49c-.02.24-.04.48-.06.72.9.5,1.8,1,2.7,1.51-.03.21-.06.42-.09.63-2.26.43-4.53.85-6.79,1.28-.01.37-.03.74-.04,1.11,1.45.19,2.91.6,4.35.52,1.57-.09,3.11-.63,5.02-1.06-1.05,1.37-1.85,2.41-2.65,3.45l.34.57c1.35-.31,2.86-1.12,3.98-.75.89.3,1.3,2.04,2.07,3.4,1.44-.78,2.89-1.58,4.73-2.58-.2,1.36-.37,2.54-.63,4.27,2.65-1.95,4.94-3.64,7.49-5.52-.71,1.37-1.31,2.51-1.9,3.66.23.18.46.36.69.54,1-.67,2-1.34,3-2.01.18.22.36.44.54.66-.78.63-1.47,1.59-2.36,1.85-3.92,1.13-7.82,1.57-11.94.39-1.72-.49-3.85.44-6.01.76.19.48.38.98.76,1.96h-5.85c-.02.26-.03.51-.05.77,1.03.23,2.05.46,3.71.84-2.46,1.3-4.54,2.4-6.62,3.51.07.21.15.42.22.63,2.24-.38,4.47-.75,6.98-1.17-.64.87-1.1,1.48-1.77,2.38,1.11.13,1.92.23,2.81.33-.2.57-.38,1.07-.74,2.07,1.61-.71,2.83-1.25,4.15-1.84,1.23,2.62,2.97,1.08,4.79.29.17,2.26,1.35,1.95,2.73,1.26,1.36-.67,2.74-1.63,4.23-.16-2.65.73-5.31,1.45-8.16,2.23q1.19,1.31,6.11.54c-1.23,1.29-2.21,2.31-3.18,3.33.06.18.12.35.18.53,2.21-.62,4.41-1.23,7.02-1.96-.64,1.15-1.14,2.07-1.65,2.97,1.02.46,1.95.88,3.25,1.47.3-.16,1.07-.59,1.83-1.01,1.42,2.64,3.15,1.38,6.61-1.08.05.99.09,1.91.16,3.21,1.11-.58,1.99-.94,2.76-1.47.79-.54,1.48-1.25,2.39-2.04.26.78.54,1.35.63,1.94.23,1.56.96,1.59,2.22,1.02.8-.37,1.77-.38,2.79-.09,1.25-1.13,2.5-2.27,3.86-3.5,4.49,3.08,4.3-2.82,6.89-3.95v2.34c2.51-1.97,5.5-2.82,5.71-6.35,1.27.68,2.13,1.14,2.7,1.61.07-.25.16-.5.22-.75v-61.67h-21.98l10.14-3.16Zm-35.28,30.75c.9-.65,1.8-1.3,2.77-2,.62.58,1.49,1.41,2.49,2.35.72-.77,1.41-1.5,2.19-2.33,1.29.68,2.54,1.35,4.07,2.16.63-.21,1.71-.57,2.8-.94.04.23.09.45.13.68-4.66,1.98-9.43,1.21-14.46.08Z"/>
    </g>
    <g>
      <polygon class="cls-2" points="669.26 270.31 669.26 251.78 609.8 270.31 669.26 270.31"/>
      <polygon class="cls-2" points="734.54 233.9 675.29 250.27 675.29 270.31 734.54 270.31 734.54 233.9"/>
      <polygon class="cls-2" points="739.92 270.31 800.46 270.31 800.46 216.67 739.92 233.9 739.92 270.31"/>
      <rect class="cls-2" x="609.8" y="275.7" width="59.46" height="73.46"/>
      <rect class="cls-2" x="676.16" y="275.7" width="59.46" height="73.46"/>
      <rect class="cls-2" x="741" y="275.7" width="59.46" height="73.46"/>
      <polygon class="cls-2" points="1001.99 270.31 1061.45 270.31 1001.99 251.78 1001.99 270.31"/>
      <polygon class="cls-2" points="936.72 270.31 995.96 270.31 995.96 250.27 936.72 233.9 936.72 270.31"/>
      <polygon class="cls-2" points="870.8 270.31 931.33 270.31 931.33 233.9 870.8 216.67 870.8 270.31"/>
      <rect class="cls-2" x="1001.99" y="275.7" width="59.46" height="73.46"/>
      <rect class="cls-2" x="935.64" y="275.7" width="59.46" height="73.46"/>
      <rect class="cls-2" x="870.8" y="275.7" width="59.46" height="73.46"/>
      <rect class="cls-2" x="805.84" y="275.7" width="59.46" height="73.46"/>
      <polygon class="cls-2" points="835.57 206.54 806.71 214.95 805.84 270.31 835.57 270.31 865.3 270.31 864.44 214.95 835.57 206.54"/>
      <path class="cls-2" d="m835.57,192.48l-251.08,67.12c.22,2.85.48,5.69.8,8.52l250.28-66.91,253.75,67.89c.32-2.82.59-5.66.82-8.52l-254.57-68.11Z"/>
    </g>
  </g>
</svg>