<?xml version="1.0" encoding="utf-8"?>
<!-- Generator: Adobe Illustrator 28.0.0, SVG Export Plug-In . SVG Version: 6.00 Build 0)  -->
<svg version="1.1" id="Слой_1" xmlns="http://www.w3.org/2000/svg" xmlns:xlink="http://www.w3.org/1999/xlink" x="0px" y="0px"
	 viewBox="0 0 643 349.8" style="enable-background:new 0 0 643 349.8;" xml:space="preserve">
<style type="text/css">
	.st0{fill:#252D2A;}
	.st1{fill:#3C5904;}
</style>
<g>
	<path class="st0" d="M12.6,321.6c-0.1-82.3,32-159.8,90.4-218.2c58.4-58.4,135.9-90.7,218.3-90.8c0.1,0,0.3,0,0.4,0
		c82.1,0,159.5,32.1,217.8,90.4c58.4,58.4,90.7,135.9,90.8,218.4c0,8.5-0.3,16.8-1,25.1l12.5,3.3c0.9-10.3,1.3-20.7,1.1-31.1
		c-1.1-86-35.2-166.4-96.1-226.3c-29.5-29-63.7-51.8-101.7-67.6C405.9,8.4,364.4,0,321.8,0h0c-44.2,0-86.8,8.8-126.9,26
		c-38.5,16.5-73,40.2-102.5,70.2c-29.7,30.2-52.8,65.4-68.7,104.5C7.2,241.1-0.7,283.8,0,327.7c0.1,7,0.5,14,1,20.9l12.5-3.3
		C12.9,337.4,12.6,329.5,12.6,321.6z"/>
	<g>
		<path class="st1" d="M560,253.8c-0.4,0-0.7,0-1.1,0l1.7,0.5c-0.1-0.1-0.1-0.2-0.2-0.2c2.5,0,4.5,0,6.4,0c0,0.2,0.1,0.4,0.1,0.5
			c-1.1,0.2-2.2,0.4-3.3,0.5l19.4,5.2l-0.1,1.4c2.7,1.2,5.2,1.2,7.5-1.5c0-0.2,0-0.9,0-1.9c2.6,2.1,3.3-0.9,4.9-1.6
			c-1.5,0.3-2.9-1.7-4.5-0.4c-0.2,0.1-1.1-0.7-1.8-1.2c-1.4,0.8-3,2.5-5.4,1.4c-1.8-0.9-4-0.9-5.3-3.3c2.2,0.5,4,1,5.8,1.4
			c0.2-0.6,0.4-1.2,0.6-1.9c1.2,0.6,2.3,1.1,3.4,1.6c0.1-0.1,0.1-0.2,0.2-0.4c-0.5-0.6-1.1-1.2-1.8-2c1.4,0.5,2.4,0.9,3.4,1.3
			c0.5-2.3,2.7-2.4,4.2-3.2c0-0.2-0.1-0.5-0.1-0.7c-2.3-0.2-4.7-0.4-7.5-0.6c-1-1.4-2.4-1.6-4.5-0.7c-1.2,0.5-2.6,0.5-4.3,0.7
			c0.4-1.1,0.6-1.5,0.7-2c-4.3-0.2-5-0.9-4.7-3.7c0.5,0.7,1.1,1.7,1.7,2.6c0.4-0.4,0.8-0.7,1.1-0.9c0.9,0.5,1.7,1.1,2.4,1.5
			c0.4-0.9,0.6-1.4,0.8-1.9c1.1,0.9,1.9,1.7,2.9,2.4c0.5-0.7,0.8-1.2,1.1-1.7c0.1,0.2,0.1,0.4,0.2,0.5c1.5-0.3,3-0.7,4.5-1
			c0-0.2-0.1-0.4-0.1-0.6c-1.8-1.1-3.6-2.1-5.4-3.2c0.1-0.2,0.1-0.5,0.2-0.7c-1.1,0.3-2.2,0.6-3.5,0.9c0.7-1.2,1.3-2.2,1.9-3.3
			c-0.7-0.2-1.5-0.4-2.4-0.7c2.1-0.8,3.7-1.5,6-2.4c-1.4-0.5-2.2-0.8-3.2-1.1c0.8-0.9,1.4-1.7,2.2-2.6c-0.9-0.2-1.5-0.3-2.1-0.4
			c0.4-0.8,0.7-1.6,1.2-2.4c-1.6,0.6-2.9,1.1-4.1,1.5c-0.1-0.2-0.2-0.4-0.3-0.6c-1.3,2.3-2.2,5-5.2,5.8c-0.3-1.5-0.7-2.9-0.7-4.2
			c0-0.7,0.8-1.4,1.3-2.1c1.3,1.8,2.6-0.2,4.1-0.2c-1-0.7-2-1.3-3.3-2.2c1.8,0,3.1,0,5,0c-1.1-0.7-1.7-1.1-2.3-1.5
			c0.5-0.6,1-1.1,1.6-1.8c-1.5,0.3-2.8,0.6-4,0.8c-0.1-0.2-0.1-0.4-0.2-0.5c-0.8,1.1-1.5,2.3-2.5,3.8c-0.6-3.6,2.2-5,2.8-7.8
			c-0.8,0.5-1.7,1.1-2.5,1.6c-0.4-1.4-0.7-2.8-1.1-4.2c-0.3,0-0.5,0.1-0.8,0.1c0,1.7,0,3.4,0,5.4c-1.1-0.9-1.9-1.6-3.2-2.6
			c0.7,3.1,4.1,4.6,2.5,8.2c-0.6-1.7-1.1-3.1-1.8-4.9c-0.9,3.2-2.5,0.3-3.9,1c0.6,0.8,1.3,1.5,1.5,2.4c0.2,0.7,0,1.6-0.1,2.3
			c0.7,0.3,1.5,0.7,2.2,1c-0.1,0.2-0.2,0.4-0.3,0.6c-0.7-0.1-1.5-0.3-2.8-0.6c0.8,1.1,1.2,1.7,1.8,2.4c-2.6,2.3-4.2-1.6-7-1
			c0.7,0.9,1.3,1.6,1.8,2.2c-0.4,0.2-0.9,0.5-1.4,0.8c1.1,0.9,2.1,1.7,3.2,2.6c-1.1,0.4-1.9,0.7-2.6,1c0,0.3,0.1,0.5,0.1,0.8
			c2,0.1,4,0.3,5.9,0.4c-0.2,0.3-0.5,0.7-0.9,1.4c0.9-0.1,2-0.3,2.1-0.2c0.8,2.6,1.8,0.2,2.9,0.1c0.2,0.5,0.3,1.1,0.7,2.4
			c-3.7-0.6-6.8-1.1-9.9-1.6c0.3,0.4,0.5,0.7,1,1.3c-0.8-0.3-1.2-0.5-1.6-0.5c-1.9-0.2-3.5-3.5-5.7-0.6c-0.1,0.1-0.3,0-0.4,0
			c-0.8,0.1-1.5,0.3-2.3,0.4c0,0.2,0,0.5,0,0.7c1.5,0.3,3.1,0.6,4.7,0.9c-0.3,0.4-0.7,0.8-1.6,1.7c1.4-0.2,2.3-0.3,3-0.4
			c0.5,0.6,0.9,1.2,1.3,1.7c1.1-0.4,2.1-0.8,3.5-1.3c-0.7,0.9-1.1,1.3-1.8,2.2c3.7-0.7,7.1-0.6,9.8-3c-0.6,0.9-1.3,1.7-2.2,2.4
			c-2.6,1.9-5.3,3.5-8.7,0.5c0,0.9,0.1,1.3,0.1,1.4c-2.3,0.2-4.6,0.4-7,0.6C554.6,251.8,558.1,251.7,560,253.8z"/>
		<path class="st1" d="M614,317.9c0-0.2,0-0.3,0-0.5c-0.8-0.2-1.5-0.3-2.3-0.5c0.1-0.4,0.2-0.7,0.3-1c-2.2-0.8-4.8,1.1-6.7-1.3
			c-5.1,1.3-9.7-0.9-14.3-3.1c0.5-0.5,1-0.8,1.5-0.7c2.8,0.3,5.7,0.8,8.5,0.9c1.6,0.1,3.7,1.2,4.7-1.3c0-0.1,0.3-0.2,0.4-0.3
			c2.3-0.7,4.6-1.3,6.9-1.9c-0.6-0.8-1-1.5-1.6-2.3c1-0.4,1.8-0.8,2.2-1c-4.5-0.7-9.2-1.5-13.9-2.2c0-0.3,0-0.7,0.1-1
			c1.7-0.1,3.3-0.2,5-0.4c0-0.1-0.2-0.5-0.4-0.9c0.8,0,1.5-0.1,2.4-0.1c-0.5-0.5-0.9-0.7-0.9-0.8c1.5-1,3-1.9,4.5-2.9
			c-5.2-0.5-10.3,0.5-14.8-2.4c1.4-0.2,2.7-0.1,4,0.1c1.5,0.2,4.7-1.7,4.8-3c0.1-0.9,0.3-1.9,0.5-2.8c-2.9,0-6,2.7-9.5-0.3
			c1.4,0,2.4,0,3.5,0c-0.5-0.6-0.9-1.1-0.9-1.2c0.6-0.7,1.2-1.4,2.2-2.5c-4.2,0-7.7,0-11.6,0c0.7-0.9,1-1.3,1.4-1.8
			c0.1,0.2,0.1,0.4,0.2,0.6c1.6-0.2,3.2-0.4,5.1-0.7c-0.9-1-1.3-1.5-1.9-2.2c1.4,0.2,2.4,0.3,2.9,0.3c1.9-1.4,3.4-2.4,4.9-3.5
			c0-0.3-0.1-0.6-0.1-0.9c-2.2-0.4-4.4-0.7-6.5-1.1c0,0,0.3-0.4,0.8-1c-0.6,0.1-1,0.2-1.5,0.3c0-0.4,0-0.7,0-1.1
			c-4.6,2.6-9.6,1.9-10.4-0.8c1.6-0.2,3.3-1,4.8-0.6c2.3,0.6,4.2-0.9,5.6-0.4c1.7-1.9,3.1-3.5,4.4-4.9c-2.4-1.2-5-2.1-8.2-0.6
			c0.3-0.8,0.4-1.1,0.4-1.3c0-0.3-0.2-0.6-0.3-1.1c-2.6,1.3-4.9,1.2-7.1,0.4c-0.2,2.7-0.5,5.3-0.8,7.8l-0.5,4.5l-11.2-3h-4.3
			l10.1,3.2h-22v5.9v3.2c0,0,0.1,0,0.1,0c0.9,0,1.9-0.4,2.8-0.5c0.6-0.1,1.2-0.1,1.8-0.2c1.4-0.2,2.7-0.4,4-0.7
			c0.1,0.3,0.1,0.6,0.2,0.8c-2.6,0.8-5.1,1.6-8.1,2.5c1.1,0.4,2,0.8,2.9,1.1c0,0.1,0.1,0.3,0.1,0.4c-1.3,0.1-2.6,0.2-3.9,0.3v5.2
			v0.6v2.6c2.1-1.3,4-0.7,5.9,0.6c-1.9,0-3.7,0-5.9,0v4.4v0.2v3c0,0,0.1,0,0.1,0c0,0.1-0.1,0.2-0.1,0.2v30.2v2.8v3.2c0,0,0,0,0,0
			c0,0.1,0.1,0.5,0.3,1.1c1-0.7,1.7-1.3,2.6-1.9c0.3,0.7,0.5,1.3,0.8,2.3c3-1.5,5.7-2.9,8.8-4.5c0.5,0.4,1.7-0.4,3-2.7
			c2.3,0.9,2.3,0.9,0.2,8.5c2.8,0,5.7,0,8.4,0c-0.3-1.9-0.5-3.8-0.8-5.7c0.2-0.1,0.4-0.2,0.6-0.2c3.4,4.5,8.2,3.3,12.8,3.5
			c0.1-0.6,0.2-1.3,0.2-1.6c1.2-0.1,2.3-0.4,3.3-0.2c1,0.2,1.9,1,2.9,1.4c2.2,0.9,3.5-0.1,3.1-2.5c1.1,0.8,2.1,1.5,3.1,2.2
			c0.5-0.5,0.8-0.9,1.2-1.2c0.9,0.4,1.7,0.8,2.4,1.2c0.3-0.7,0.5-1.4,0.9-2.3c-0.1-0.1-0.4-0.5-0.9-1.2c1.5,0.6,2.7,1,4.1,1.5
			c-0.3-0.5-0.4-0.8-0.6-1.1c0.9-0.3,1.8-0.5,3.1-0.9c-3.6-0.7-6.7-1.3-10.2-2c1.8-0.8,3.1-1.3,4.3-1.9c-0.1-0.2-0.2-0.4-0.3-0.6
			c0.8-0.1,1.5-0.2,2.3-0.3c0-0.1,0-0.2,0-0.4c-0.4-0.2-0.8-0.3-1.6-0.6c1.4-0.7,2.6-1.3,3.7-1.9c-0.3-0.1-0.7-0.4-1.5-0.9
			c1.1-0.1,1.8-0.2,2.5-0.3c0-0.1,0-0.2,0-0.4c-1.3-0.2-2.5-0.4-3.8-0.7c0-0.1,0.1-0.3,0.1-0.4c1.5-0.5,3-1.1,4.5-1.6
			c0-0.2-0.1-0.3-0.1-0.5c-1.5,0.2-3,0.4-4.7,0.6c0.6-0.7,0.9-1.2,1.6-2.1c-3.4,1.3-6.2,3.2-9.5,1.9c-2.9-1.1-5.8-2.3-8.7-3.5
			c0.1-0.2,0.1-0.4,0.2-0.6c1.1,0.2,2.2,0.4,3.1,0.5c1.4-1.8,2.4,0.4,3.4,0c1.1-0.5,2.1-1,3.1-1.4c0.8,0.6,1.6,1.1,2.4,1.6
			c0.1-0.1,0.2-0.2,0.3-0.3c-0.4-0.6-0.7-1.2-1.5-2.3c3-0.4,5.6-0.7,8.4-1.1c-0.8-0.4-1.5-0.8-2.2-1.1c0-0.1,0-0.2,0.1-0.4
			C611.2,317.9,612.6,317.9,614,317.9z"/>
		<path class="st1" d="M43,264.7c2,0.4,3.9,0.3,5.3,1.2c2,1.2,3.3,0.2,5-0.5c-0.4,0.7-0.8,1.4-1.4,2.3c0.6,0.1,1.1,0.4,1.4,0.2
			c1.5-0.7,2.9-1.5,3.9,0.7c0.1,0.2,1.2,0.1,1.7-0.1c1-0.4,1.8-1,2.9-1.6c-0.1,1-0.2,1.9-0.3,3.4c1.6-0.7,2.9-1.2,4.3-1.8
			c0,0.6-0.1,1.1-0.1,1.6c1.5,0.2,2.9,0.5,4.4,0.7c-0.3-2.7-0.6-5.5-0.8-8.3l-0.3-3.3l0.2-0.1l-0.2-2.1c-0.2,0-0.3,0.1-0.5,0.1
			c-7,0.5-14,0.9-20.9,1.5c-2,0.2-4,0.7-6.2,1.6c1.6,0.6,3.1,1.1,5,1.8C45.4,263,44.3,263.8,43,264.7z"/>
		<path class="st1" d="M525.6,225.4c0.8-0.8,1.5-1.7,2.6-2.9c-1.5,0.5-2.3,0.7-3.4,1c0.3-0.9,0.5-1.6,0.7-2.2
			c-3.1,2.2-6.2,3.5-10.2,2.7c-5.6-1.1-7.2-2.2-7.6-5.3c2.2,0.5,4.6,1.1,7,1.6c0.4-0.9,0.6-1.5,0.8-2c1.3,0.6,2.4,1.2,3.7,1.9
			c0.1-0.8,0.1-1.3,0.2-2.1c2.4,0,4.9,0,7.5,0c-0.4-1-0.7-1.6-0.9-2.2c0.9-0.5,1.6-0.9,2.5-1.4c-0.6-0.4-0.9-0.7-1.2-0.9
			c2-1.4,3.8-2.7,5.9-4.2c-2.5-0.8-4.6-1.4-6.7-2c0-0.4-0.1-1-0.1-1.3c-2.8,0.7-5.4,1.3-7.9,1.9c0.4-1.5,0.7-2.6,1.2-4.3
			c-8.3,5-14.3,0.4-20.5-3.2c0.1-0.3,0.1-0.6,0.2-0.9c2.3,0.6,4.6,1.1,6.9,1.7c0.1-0.5,0.2-1.2,0.3-1.8c1.8,0.1,3,3.5,4.6,1.1
			c1.3,0.5,2.6,1.6,3.5,1.3c1.6-0.4,3-1.5,2.5-3.8c1.2,0.2,2.1,0.4,3,0.6c0-1.6,0-3,0-4.4c1.3,0.4,2.8,0.9,4.4,1.4
			c0.2-0.1,0.3-0.2,0.5-0.3c-1.1-1.6-0.6-2.2,1-2.7c1.1-0.3,2.1-1.1,3.1-1.7c-0.1-0.2-0.2-0.4-0.2-0.5c-1.7,0-3.4,0-5.3,0
			c0.3-0.7,0.6-1.2,1.1-2.2c-2.1,1.2-3.6,2-4.9,2.8c-0.6-0.8-1-1.3-1.4-1.9c0.2-0.5,0.5-1,1.1-2.1c-3.6,2-5.8,5.6-10.1,3.7
			c-3.2-1.4-6.9-2-8.5-5.8c1,0.1,2,0.4,2.7,1c1.3,1.1,2.1,1.2,2.4-0.8c1.5,1,2.5,2.8,4.6,2.1c0-0.5,0-0.9,0-1.2
			c0.1-0.7,0.3-1.4,0.4-2.1c0.7,0.3,1.4,0.6,2.1,1c1.2,0.6,2.4,1.1,3.6,1.7c0.1-0.2,0.3-0.4,0.4-0.7c-1-1.1-2-2.1-2.9-3.2
			c0.1-0.1,0.2-0.1,0.3-0.2c1.8,0.8,3.6,1.7,5.4,2.5c0.1-0.2,0.2-0.4,0.3-0.5c-0.3-0.5-0.7-1-1.1-1.6c1.3-0.5,2.3-0.9,3.4-1.3
			c-0.3-0.4-0.6-0.8-1-1.4c1.1,0,2,0.2,2.7-0.1c0.7-0.3,1.2-1,1.9-1.6c-0.7-0.3-1.4-0.7-2.1-0.9c-0.9-0.2-2.3,0.1-2.5-0.4
			c-1.1-1.8-2.4-0.9-3.7-0.5c-1.2,0.4-2.3,0.9-3.4,1.3c-0.6-1.2-1.1-2.2-1.7-3.3c-0.8,0.2-1.6,0.4-2.5,0.6c-0.2-0.6-0.3-1.2-0.5-2
			c-3.1,2.3-6,4.9-9.9,2.2c0.4-0.7,0.8-1.5,1.2-2.1c-2.3-0.6-4.7-0.6-6.2-1.8c-1.6-1.3-2.4-3.6-1.8-6.2c2.2,5.6,2.2,5.6,3.6,6.3
			c0.4-1,0.9-1.9,1.3-3c0.9,2,1.9,3.6,4.4,3.2c-0.2-0.9-0.4-1.5-0.5-2.2c0.5-0.4,1-0.8,1.3-1c1.5,1.6,3,3,4.6,4.7
			c0.8-1.6,1.3-2.6,1.9-3.7c2,1.7,5.7,0.9,7.7-1.7c-3-1.5-5.9-2.9-8.8-4.3c0-0.6,0.3-1.7,0.1-1.9c-0.7-0.3-1.5-0.5-2.3-0.4
			c-0.6,0.1-1.2,0.6-1.8,0.9c-0.7,0.2-1.4,0.3-2.4,0.5c0.9-1.4,3.4-1,2.3-2.9c1.2-0.7,2.3-1.3,3.4-2c0-0.2-0.1-0.4-0.1-0.6
			c-1.8-0.4-3.5-0.7-5.3-1.1c0.4-3.3,2.2-1.8,3.1-1.4c1.8-1.2,3.3-2.2,5.2-3.6c-1.6-0.7-3.1-1.3-4.5-1.9c1.4-1.6,2.7-3,4.1-4.6
			c-1.7-0.3-2.9-0.5-4.1-0.7c0.5-1.6,2.5-2.5,1.5-4.9c-1.6,1.4-2.9,2.5-4.3,3.6c-0.6-0.6-1.2-1.1-2-1.9c-2.6,4.1-3.8,9.3-9.3,11.1
			c-0.3-3.1-0.6-6-0.8-9c-0.1-2.1,1-2.9,3-2.8c0,0.7,0.1,1.4,0.1,2c2.1-0.6,3.9-1.2,6.5-2c-2.1-1.5-3.9-2.8-5.7-4
			c2.3-0.9,5,1.3,7.4-0.7c-1.3-0.8-2.5-1.5-3.8-2.3c1.1-1.1,2.2-2.1,3.2-3c-0.1-0.2-0.2-0.4-0.4-0.7c-1.9,0.8-3.7,1.6-5.6,2.5
			c-0.1-0.6-0.2-1.2-0.3-1.9c-2.7,1.3-1.8,5.4-4.9,6.1c-0.9-5.3,3.7-8.2,5.6-12.4c-2.9-1-3.3,1.7-5,3.1c-0.9-3.1,0.1-6.5-2.3-8.8
			c-0.2,0-0.3,0-0.5,0c0,3.4,0,6.9,0,10.3c-0.2,0.1-0.4,0.2-0.6,0.3c-1.2-1.5-2.5-3.1-3.7-4.6c-1,2.6,0.3,4,1.5,5.4
			c1.9,2.1,2.4,4.6,2.3,7.3c0,0.2-0.1,0.5-0.2,0.7c0.1,0.8,0.1,1.6-0.2,2.5c-1-2.3-2-4.4-3.1-6.8c0.5,0.3,1,0.7,1.4,1.1
			c-0.1-0.5-0.3-0.9-0.5-1.4c-0.3-0.8-0.9-1.5-1.4-2.2c-0.5,0.7-0.9,1.4-1.4,2.2c-1.2-0.6-2.6-1.3-4-2c-0.2,0.2-0.5,0.5-0.7,0.7
			c0.8,1.3,1.5,2.7,2.3,4c0.8,1.2,2,2.2-0.1,3.4c-0.2,0.1-0.3,1.1-0.1,1.4c0.3,0.4,1,0.6,1.5,0.6c0.6-0.1,1.2-0.5,1.9-0.8
			c0,0.7,0,1.3,0,2c1.3,0.6,2.5,1.2,3.4,2.4c-0.8-1.7-1.5-3.4-2.3-5.2c2.8,1.8,3.9,4.2,3.1,6.8c0,0,0,0,0,0c0.1,0.4,0.2,0.8,0.2,1.2
			c-1.6-1.4-3-2.7-4.3-3.8c0,0,0,0,0,0.1c-1.3-0.6-2.5-1.1-3.7-1.6c-0.2,0.2-0.4,0.4-0.6,0.6c0.9,1.3,1.8,2.6,2.7,3.9
			c-2.1,2.8-4.2,1.2-6.4-0.4c-1.2-0.8-2.6-1.4-4-2.2c-1.2,2.8,1.2,3.4,2.4,4.7c-1,0.4-1.9,0.8-2.8,1.2c2,1.7,3.7,3.1,5.8,4.9
			c-1.5,0.4-2.5,0.5-3.5,1c-0.5,0.2-0.9,0.9-1.3,1.4c0.7,0.4,1.4,1.2,1.9,1.1c1.5-0.3,2.9-0.6,4.1,0.7c0.3,0.3,1.2-0.1,1.8-0.2
			c0.7-0.2,1.4-0.5,2.3-0.4c-0.7,0.8-1.3,1.5-2,2.3c0.1,0.2,0.2,0.4,0.2,0.6c1.1-0.2,2.1-0.3,3.1-0.5c0.2,0.6,0.5,1.3,0.8,2.1
			c1.3-0.6,2.6-1.2,4-1.8c0.2,0.5,0.5,1.5,0.9,2.6c-5.8,2.6-10.8,0.2-15.8-2.2c-0.1,0.3-0.2,0.6-0.4,0.9c0.7,0.7,1.5,1.4,2.2,2.1
			c-0.1,0.2-0.1,0.3-0.2,0.5c-2.1-1-4.3-2-6.4-3.1c-0.6-0.3-1-0.9-1.6-1.2c-0.7-0.3-1.5-0.2-2.3-0.3c-0.1,0.7-0.1,1.3-0.2,2.2
			c-1.9,0.3-3.9,0.7-5.9,1c0.9,2.2,1.5,2.4,7.6,2.8c0,0.1,0,0.3-0.1,0.4c-0.5,0.8-1,1.6-1.5,2.4c1.1-0.2,2.2-0.1,3.2-0.5
			c1.1-0.5,2.1-1.4,3.5-1.9c-3,1.4-3,3.2-0.8,5.4c2.1-1,4.4-2.1,6.7-3.1c0.1,0.1,0.1,0.1,0.2,0.2c-0.8,0.7-1.7,1.3-2.4,2
			c-0.5,0.5-0.8,1.2-1.1,1.9c0.8,0,1.5,0,2.3-0.1c0.3,0,0.5-0.3,0.9-0.6c0.1,0.7,0.3,1.3,0.4,1.8c0.2-0.1,0.4-0.1,0.5-0.2
			c1.4-2.2,3.9-2.3,6-2.7c2.4-0.5,4.1-1.5,4.8-3.9c0.2,0.1,0.4,0.2,0.6,0.3c-0.4,1-0.5,2.3-1.3,2.8c-3,2.2-6.1,4.2-9.3,6.2
			c-0.4,0.3-1.3,0-1.8-0.2c-1.8-0.8-3.5-1.6-5.8-2.7c0.4,1.3,0.6,2,0.9,3c-1.8-0.5-3.7-1-5.6-1.6c-0.2,2.1-1.4,2.3-3.2,1.7
			c-1.5-0.5-2.7-0.3-3.1,1.6c0.6,0.2,1.1,0.4,1.8,0.7c-0.3,0.5-0.5,1-0.7,1.4c1.6,0.8,3,1.5,4.7,2.4c0,0.2,0.1,0.8,0.2,1.3
			c4.3,0.8,4.3,0.8,3.5,2.2c-2.5,0-4.6,0-6.7,0c0.6,1.7,1,3.2,1.5,4.8c-0.2,0.1-0.5,0.2-0.7,0.4c-0.9-0.5-1.8-1.1-2.8-1.7
			c0.2-0.3,0.5-0.5,0.8-0.9c-0.8,0-1.5,0-2.2,0c-0.4-0.2-0.8-0.5-1.2-0.7c0.1,0.3,0.1,0.5,0.2,0.7c-2.5,0-4.9,0-7.4,0
			c0.7-0.9,1-1.2,1.3-1.6c0.1,0.2,0.1,0.4,0.2,0.5c1.5-0.2,2.9-0.4,4.7-0.6c-0.8-0.9-1.2-1.3-1.8-2c1.3,0.1,2.2,0.2,2.6,0.3
			c1.7-1.2,3.1-2.2,4.5-3.2c0-0.3-0.1-0.5-0.1-0.8c-2-0.3-4.1-0.7-5.9-1c0,0,0.3-0.4,0.7-0.9c-0.6,0.1-1,0.2-1.4,0.3
			c0-0.4,0-0.7,0-1.1c-4.2,2.4-8.9,1.7-9.5-0.7c1.4-0.2,3.1-0.9,4.4-0.5c2.1,0.6,3.9-0.9,5.1-0.4c1.6-1.8,2.8-3.2,4-4.5
			c-2.2-1.1-4.6-2-7.5-0.5c0.2-0.8,0.4-1,0.4-1.2c0-0.3-0.1-0.6-0.3-1c-4.2,2.1-7.6,0.2-11-1.8c0-0.2,0.1-0.4,0.1-0.5
			c1.2,0.3,2.4,0.5,3.6,0.8c0.1-0.2,0.2-0.5,0.4-0.9c2.7,1.3,5.2,1.6,7.5-1.1c0-0.2,0-0.9,0-1.7c2.4,2,3-0.9,4.5-1.5
			c-1.4,0.2-2.7-1.5-4.1-0.4c-0.1,0.1-1-0.6-1.7-1.1c-1.3,0.8-2.8,2.3-4.9,1.2c-1.6-0.8-3.7-0.8-4.9-3c2,0.5,3.7,0.9,5.3,1.3
			c0.2-0.6,0.3-1.1,0.6-1.8c1.1,0.5,2.1,1,3.1,1.4c0.1-0.1,0.1-0.2,0.2-0.3c-0.5-0.5-1-1.1-1.7-1.8c1.2,0.5,2.2,0.8,3.1,1.2
			c0.4-2.1,2.4-2.2,3.8-2.9c0-0.2-0.1-0.4-0.1-0.6c-2.1-0.2-4.3-0.3-6.9-0.5c-0.9-1.3-2.2-1.5-4.1-0.7c-1.1,0.5-2.4,0.4-3.9,0.6
			c0.4-1,0.5-1.4,0.7-1.8c-3.9-0.2-4.6-0.8-4.3-3.4c0.4,0.7,1,1.5,1.6,2.4c0.4-0.3,0.7-0.7,1-0.9c0.8,0.5,1.5,1,2.2,1.4
			c0.4-0.8,0.6-1.3,0.8-1.8c1,0.9,1.8,1.5,2.6,2.2c0.4-0.7,0.7-1.1,1-1.6c0.1,0.2,0.1,0.3,0.2,0.5c1.4-0.3,2.7-0.6,4.1-0.9
			c0-0.2-0.1-0.4-0.1-0.5c-1.7-1-3.3-1.9-5-2.9c0.1-0.2,0.1-0.4,0.2-0.6c-1,0.3-2,0.5-3.2,0.8c0.6-1.1,1.2-2.1,1.7-3
			c-0.6-0.2-1.4-0.4-2.2-0.7c1.9-0.8,3.4-1.4,5.5-2.2c-1.3-0.5-2-0.7-2.9-1c0.7-0.9,1.3-1.6,2-2.4c-0.8-0.1-1.4-0.3-2-0.4
			c0.4-0.8,0.7-1.4,1.1-2.2c-1.5,0.5-2.6,1-3.8,1.4c-0.1-0.2-0.2-0.4-0.3-0.5c-1.2,2.1-2.1,4.6-4.8,5.3c-0.2-1.4-0.6-2.6-0.6-3.9
			c0-0.7,0.8-1.3,1.2-2c1.2,1.6,2.4-0.2,3.8-0.2c-0.9-0.6-1.8-1.2-3.1-2c1.6,0,2.9,0,4.6,0c-1-0.7-1.5-1-2.1-1.4
			c0.5-0.5,0.9-1,1.5-1.6c-1.4,0.3-2.5,0.5-3.6,0.7c0-0.2-0.1-0.3-0.1-0.5c-0.7,1-1.4,2.1-2.3,3.5c-0.6-3.3,2-4.6,2.6-7.1
			c-0.8,0.5-1.5,1-2.3,1.5c-0.3-1.3-0.7-2.6-1-3.9c-0.2,0-0.5,0.1-0.7,0.1c0,1.6,0,3.2,0,5c-1-0.8-1.8-1.5-2.9-2.4
			c0.7,2.8,3.7,4.3,2.3,7.5c-0.6-1.6-1-2.8-1.6-4.5c-0.8,2.9-2.3,0.3-3.6,1c0.5,0.8,1.2,1.4,1.4,2.2c0.2,0.7,0,1.5-0.1,2.1
			c0.7,0.3,1.4,0.6,2.1,0.9c-0.1,0.2-0.2,0.4-0.3,0.6c-0.7-0.1-1.4-0.3-2.5-0.5c0.7,1,1.1,1.6,1.6,2.2c-2.4,2.1-3.9-1.5-6.4-1
			c0.7,0.8,1.2,1.4,1.7,2c-0.4,0.2-0.9,0.5-1.3,0.7c1,0.8,1.9,1.6,2.9,2.4c-1,0.4-1.7,0.6-2.4,0.9c0,0.2,0,0.5,0.1,0.7
			c1.8,0.1,3.6,0.2,5.4,0.4c-0.2,0.3-0.4,0.7-0.8,1.3c0.8-0.1,1.9-0.3,1.9-0.2c0.8,2.4,1.7,0.2,2.6,0.1c0.1,0.5,0.3,1,0.6,2.2
			c-3.4-0.5-6.2-1-9.1-1.4c0.3,0.3,0.5,0.6,0.9,1.2c-0.7-0.2-1.1-0.4-1.5-0.5c-1.7-0.2-3.2-3.2-5.2-0.5c-0.1,0.1-0.3,0-0.4,0
			c-0.7,0.1-1.4,0.3-2.1,0.4c0,0.2,0,0.4,0,0.7c1.4,0.3,2.8,0.5,4.3,0.8c-0.3,0.3-0.7,0.7-1.5,1.6c1.3-0.2,2.1-0.3,2.7-0.4
			c0.4,0.6,0.8,1.1,1.2,1.6c1-0.4,1.9-0.7,3.2-1.2c-0.6,0.8-1,1.2-1.6,2.1c3.4-0.6,6.5-0.5,9-2.8c-0.5,0.8-1.2,1.6-2,2.2
			c-2.4,1.8-4.9,3.2-8,0.5c0,0.8,0.1,1.2,0.1,1.2c-2.1,0.2-4.2,0.3-6.4,0.5c0.8,3.1,3.9,3,5.7,4.9c-1.8,0-3,0-4.2,0
			c0.3,0.9,0.5,1.6,0.8,2.7c-0.8-0.4-1.5-0.7-2.1-1c0-0.1,0-0.1,0-0.2c-1.2-0.7-2.4-1.4-3.8-2.1c1.1-0.9,2.1-1.7,3.1-2.5
			c-0.1-0.2-0.2-0.4-0.3-0.6c-1.9,0.7-3.7,1.3-5.7,2c0-0.4-0.1-1-0.3-2.1c-1.7,2.3-3.1,4.3-4.6,6.2c-0.1-0.4-0.2-0.8-0.2-1.2
			c0.9-1,1.9-1.9,0.6-3.4c1.2-2.4,3.5-4.2,4.7-6.6c-2.5-0.8-3.4,1-4.6,2.8c-1.8-2.3,0.6-6-3-7.4c-0.2,2.8-0.3,5.6-0.5,8.8
			c-1.6-1.3-3-2.5-4.4-3.7c-0.2,0.2-0.5,0.3-0.7,0.5c0.6,1.1,1.2,2.3,1.9,3.2c0.3,0.3,0.5,0.6,0.7,0.9c-0.6,0.2-1.3,0.3-1.9,0.4
			c-2.3,0.5-3.9-0.5-4.7-2.8c1.6,0.1,3,0.3,4.9,0.5c-1.1-1.2-1.7-1.9-2.4-2.7c1.2-0.2,2.2-0.5,3.3-0.7c0-0.1,0-0.3-0.1-0.4
			c-0.3-0.2-0.7-0.3-1-0.5c0.7-0.6,1.3-1.2,2.1-2c-6.2,0.8-11.9,1.3-17.5-0.6c0.8-0.8,1.3-1.4,2-2.1c2.4,2.5,4.8,0,7.2-0.3
			c0.2-0.2,0.3-0.4,0.5-0.7c-1.2-0.8-2.3-1.5-3.5-2.3c0.2-0.2,0.3-0.3,0.5-0.5c1.3,0.2,2.6,0.4,3.8,0.5c0.9,0.1,1.9,0.5,1.9-1.2
			c0-0.5,1-1.2,1.7-1.5c0.7-0.4,1.5-0.4,2.3-0.7c-0.2-0.3-0.4-0.5-0.4-0.5c0.9-0.8,1.7-1.5,2.5-2.2c-3.5-2.3-6.8-3.7-10.7-2.2
			c0.7-0.8,1.4-1.5,2.4-2.6c-1.3,0.4-2.1,0.7-3.1,1c0.3-0.9,0.5-1.4,0.7-2c-2.9,2-5.7,3.2-9.3,2.5c-5.1-1.1-6.6-2-7-4.9
			c2,0.5,4.2,1,6.4,1.5c0.3-0.8,0.5-1.3,0.8-1.9c1.2,0.6,2.2,1.1,3.4,1.7c0.1-0.7,0.1-1.2,0.2-1.9c2.2,0,4.5,0,6.9,0
			c-0.4-0.9-0.6-1.5-0.8-2c0.8-0.4,1.5-0.8,2.3-1.3c-0.5-0.4-0.8-0.6-1.1-0.8c1.8-1.3,3.5-2.5,5.4-3.9c-2.3-0.7-4.2-1.3-6.1-1.9
			c0-0.4-0.1-0.9-0.1-1.2c-2.5,0.6-4.9,1.2-7.3,1.7c0.4-1.4,0.6-2.4,1.1-4c-7.7,4.6-13.2,0.3-18.9-2.9c0.1-0.3,0.1-0.5,0.2-0.8
			c2.1,0.5,4.2,1,6.3,1.5c0.1-0.4,0.2-1.1,0.3-1.7c1.6,0.1,2.7,3.2,4.2,1c1.2,0.5,2.3,1.4,3.2,1.2c1.4-0.3,2.7-1.4,2.3-3.4
			c1.1,0.2,1.9,0.4,2.7,0.5c0-1.5,0-2.8,0-4c1.1,0.4,2.6,0.9,4,1.3c0.1-0.1,0.3-0.2,0.4-0.3c-1-1.5-0.5-2.1,0.9-2.5
			c1-0.3,1.9-1,2.9-1.5c-0.1-0.2-0.1-0.3-0.2-0.5c-1.5,0-3.1,0-4.9,0c0.3-0.6,0.5-1.1,1-2c-1.9,1.1-3.3,1.9-4.5,2.6
			c-0.5-0.7-0.9-1.2-1.3-1.7c0.2-0.4,0.5-0.9,1-2c-3.3,1.8-5.3,5.1-9.3,3.4c-3-1.3-6.4-1.8-7.8-5.3c1,0.1,1.8,0.4,2.5,1
			c1.2,1,1.9,1.1,2.2-0.7c1.4,0.9,2.3,2.6,4.2,1.9c0-0.4,0-0.8,0-1.1c0.1-0.7,0.2-1.3,0.4-1.9c0.6,0.3,1.3,0.6,1.9,0.9
			c1.1,0.5,2.2,1,3.3,1.5c0.1-0.2,0.3-0.4,0.4-0.6c-0.9-1-1.8-2-2.7-2.9c0.1-0.1,0.2-0.1,0.2-0.2c1.6,0.8,3.3,1.5,4.9,2.3
			c0.1-0.2,0.2-0.3,0.3-0.5c-0.3-0.4-0.6-0.9-1-1.5c1.2-0.4,2.1-0.8,3.1-1.2c-0.3-0.4-0.5-0.8-0.9-1.3c1,0,1.8,0.2,2.5-0.1
			c0.7-0.2,1.1-0.9,1.7-1.4c-0.6-0.3-1.2-0.7-1.9-0.8c-0.8-0.2-2.1,0.1-2.3-0.4c-1-1.7-2.2-0.8-3.4-0.5c-1.1,0.4-2.2,0.8-3.2,1.2
			c-0.6-1.1-1-2-1.5-3c-0.7,0.2-1.5,0.4-2.3,0.5c-0.2-0.6-0.3-1.1-0.5-1.8c-2.9,2.2-5.5,4.5-9.1,2c0.4-0.7,0.8-1.3,1.1-2
			c-2.1-0.6-4.3-0.6-5.7-1.7c-1.5-1.2-2.2-3.3-1.6-5.7c2.1,5.1,2.1,5.1,3.3,5.8c0.4-0.9,0.8-1.7,1.2-2.7c0.8,1.9,1.7,3.3,4,2.9
			c-0.2-0.8-0.3-1.4-0.5-2c0.5-0.4,0.9-0.7,1.2-0.9c1.4,1.4,2.7,2.8,4.2,4.3c0.7-1.4,1.2-2.4,1.7-3.4c1.8,1.5,5.2,0.8,7.1-1.6
			c-2.8-1.3-5.4-2.6-8-3.9c0-0.6,0.3-1.6,0.1-1.7c-0.6-0.3-1.4-0.4-2.1-0.3c-0.6,0.1-1.1,0.6-1.7,0.8c-0.6,0.2-1.3,0.3-2.2,0.4
			c0.8-1.3,3.1-0.9,2.1-2.7c1.1-0.6,2.1-1.2,3.1-1.8c0-0.2-0.1-0.4-0.1-0.6c-1.6-0.3-3.2-0.7-4.9-1c0.3-3.1,2-1.6,2.9-1.3
			c1.6-1.1,3-2.1,4.8-3.3c-1.5-0.6-2.8-1.2-4.2-1.7c1.3-1.5,2.5-2.7,3.8-4.2c-1.5-0.3-2.6-0.5-3.7-0.7c0.4-1.4,2.3-2.3,1.4-4.5
			c-1.5,1.2-2.7,2.3-3.9,3.3c-0.6-0.6-1.1-1-1.9-1.7c-2.4,3.8-3.4,8.6-8.5,10.2c-0.3-2.9-0.6-5.5-0.8-8.2c-0.1-1.9,1-2.7,2.8-2.5
			c0,0.7,0.1,1.3,0.1,1.9c1.9-0.6,3.6-1.1,5.9-1.9c-2-1.4-3.6-2.6-5.2-3.7c2.1-0.8,4.6,1.2,6.8-0.6c-1.2-0.7-2.3-1.4-3.5-2.1
			c1-1,2-1.9,3-2.8c-0.1-0.2-0.2-0.4-0.3-0.6c-1.7,0.8-3.4,1.5-5.1,2.3c-0.1-0.6-0.2-1.1-0.2-1.7c-2.5,1.2-1.6,5-4.5,5.6
			c-0.8-4.9,3.4-7.5,5.2-11.4c-2.7-1-3.1,1.6-4.6,2.8c-0.8-2.8,0.1-5.9-2.1-8.1c-0.1,0-0.3,0-0.4,0c0,3.1,0,6.3,0,9.4
			c-0.2,0.1-0.3,0.2-0.5,0.3c-1.1-1.4-2.3-2.8-3.4-4.2c-1,2.4,0.2,3.7,1.3,5c1.7,2,2.2,4.2,2.1,6.7c0,0.4-0.2,0.9-0.9,1.3
			c-0.5-1.7-0.9-3.3-1.5-5c-0.3-0.7-0.8-1.4-1.3-2.1c-0.4,0.6-0.8,1.3-1.3,2c-1.1-0.5-2.4-1.2-3.6-1.8c-0.2,0.2-0.5,0.4-0.7,0.6
			c0.7,1.2,1.3,2.5,2.1,3.6c0.7,1.1,1.9,2,0,3.1c-0.2,0.1-0.3,1-0.1,1.3c0.3,0.3,0.9,0.6,1.4,0.6c0.6-0.1,1.1-0.5,1.8-0.8
			c0,1.1,0,2,0,3.1c-1.2-0.5-2.3-1-3.4-1.4c-0.2,0.2-0.4,0.4-0.6,0.5c0.8,1.2,1.7,2.4,2.5,3.6c-1.9,2.5-3.9,1.1-5.9-0.3
			c-1.1-0.8-2.3-1.3-3.7-2.1c-1.1,2.6,1.1,3.1,2.2,4.3c-0.9,0.4-1.8,0.8-2.6,1.1c1.8,1.5,3.4,2.9,5.3,4.5c-1.4,0.4-2.3,0.5-3.2,0.9
			c-0.5,0.2-0.8,0.8-1.2,1.3c0.6,0.4,1.3,1.1,1.8,1c1.4-0.3,2.6-0.5,3.8,0.7c0.2,0.2,1.1,0,1.6-0.2c0.6-0.2,1.3-0.5,2.1-0.4
			c-0.6,0.7-1.2,1.4-1.8,2.1c0.1,0.2,0.1,0.4,0.2,0.6c1-0.2,1.9-0.3,2.8-0.5c0.2,0.5,0.4,1.2,0.7,1.9c1.2-0.5,2.4-1.1,3.7-1.7
			c0.2,0.5,0.5,1.4,0.8,2.4c-5.3,2.4-9.9,0.2-14.5-2.1c-0.1,0.3-0.2,0.6-0.3,0.9c0.7,0.6,1.4,1.3,2,1.9c-0.1,0.2-0.1,0.3-0.2,0.5
			c-2-0.9-3.9-1.9-5.9-2.9c-0.5-0.3-0.9-0.9-1.5-1.1c-0.6-0.2-1.4-0.2-2.1-0.3c-0.1,0.6-0.1,1.2-0.2,2c-1.7,0.3-3.6,0.6-5.4,0.9
			c0.9,2,1.4,2.2,7,2.6c0,0.1,0,0.2-0.1,0.3c-0.4,0.7-0.9,1.5-1.3,2.2c1-0.1,2.1-0.1,2.9-0.5c1-0.5,1.9-1.3,3.2-1.8
			c-2.7,1.3-2.7,2.9-0.8,5c2-0.9,4.1-1.9,6.1-2.9c0.1,0.1,0.1,0.1,0.2,0.2c-0.8,0.6-1.6,1.2-2.2,1.9c-0.4,0.5-0.7,1.1-1,1.7
			c0.7,0,1.4,0,2.1-0.1c0.2,0,0.5-0.3,0.8-0.5c0.1,0.6,0.2,1.2,0.4,1.7c0.2-0.1,0.4-0.1,0.4-0.2c1.3-2.1,3.6-2.1,5.5-2.5
			c2.2-0.4,3.7-1.4,4.4-3.6c0.2,0.1,0.4,0.2,0.6,0.2c-0.4,0.9-0.5,2.1-1.2,2.6c-2.7,2-5.6,3.9-8.5,5.7c-0.4,0.2-1.2,0-1.7-0.2
			c-1.6-0.7-3.2-1.5-5.3-2.5c0.3,1.2,0.5,1.9,0.8,2.8c-1.7-0.5-3.4-0.9-5.2-1.4c-0.2,1.9-1.3,2.1-2.9,1.5c-1.3-0.5-2.5-0.3-2.9,1.5
			c0.5,0.2,1,0.4,1.6,0.6c-0.2,0.5-0.5,0.9-0.6,1.3c1.4,0.7,2.8,1.4,4.3,2.2c0,0.2,0.1,0.7,0.2,1.2c4,0.7,4,0.7,3.2,2.1
			c-2.3,0-4.3,0-6.1,0c0.5,1.6,1,3,1.4,4.4c-0.2,0.1-0.4,0.2-0.7,0.3c-1.5-0.9-3-1.8-5-3c0.3,1.3,0.5,2,0.7,2.9
			c-2-0.2-3.8-0.5-5.6-0.7c-0.1,0.2-0.2,0.4-0.3,0.6c1.3,0.8,2.6,1.5,4.2,2.4c0,0.2-0.1,0.7-0.1,1c2.3,1.1,4.4,2,6.5,3
			c-0.1,0.2-0.1,0.4-0.2,0.6c0.5-0.4,1-0.9,1.5-1.3c2.3,2.5,4.6,4.9,7,7.4c-4.1,1.5-8.2,3.3-12.6-0.2c-0.2,1.1-0.3,1.7-0.4,2.3
			c-1.6,1.5-3.7-1.6-5.1,0.7c1.1,1.3,2.1,2.4,3.1,3.6c-0.1,0.1-0.2,0.3-0.4,0.4c0.6,0.1,1.2,0.1,1.8,0.2c0.6,2.5,1,2.7,3.7,1.6
			c-0.7,3.2,1.9,1.6,3.1,2c-1.5,1.8-4.9,2.3-7.1,1.1c-0.8-0.5-1.9-1.7-2.5,0.3c-0.1,0.2-0.9,0.2-1.3,0.2c-0.9,0-1.7-0.1-2.6-0.1
			c-0.1,0.2-0.1,0.4-0.2,0.5c0.5,0.3,0.9,0.5,1.4,0.8c0.5,0.3,1.4,0.6,1.5,1c0.4,2.4,1.9,2.1,3.5,1.5c0.3,1.3,3.6,4.3,4.6,4
			c1-0.3,1.8-1.2,2.6-2c1.7-1.6,2.6-1.6,4.4,0c-1.1,0.1-2,0.2-3.2,0.3c0.4,1.2,0.8,2.2,1.2,3.2c-4,2.5-8.5,3.5-13.2,3.7
			c-0.3,0-0.8,0.2-0.9,0.4c-1,3.1-3.8,2-6.6,2.8c2,1.1,3.5,1.9,5.1,2.7c0,0.3,0,1-0.1,1.6c0,0.2-0.6,0.4-0.7,0.3
			c-1.7-1.3-3.4-0.1-5.1,0c-0.4,0-0.8,0-1.5,0c0.8-0.7,1.3-1.2,2.2-2.1c-1.2,0.2-2,0.3-2.9,0.4c0.3-0.7,0.5-1.1,1-2.2
			c-3.2,1.8-5.9,3.5-9.4,2.7c-3.1-0.7-6.5-0.6-7.6-4.2c2.1,0.4,4.4,0.8,6.7,1.3c0.2-0.7,0.3-1.2,0.4-1.8c1.2,0.5,2.4,1,3.7,1.6
			c0.1-0.7,0.2-1.1,0.2-1.6c2.3,0,4.5,0,7.2,0c-0.6-0.9-0.9-1.3-1.2-1.8c0.8-0.4,1.4-0.6,2.2-1c-0.3-0.4-0.5-0.7-0.7-1
			c1.7-1,3.4-2.1,5.3-3.2c-2.3-0.6-4.2-1.1-6.2-1.7c0-0.1,0.1-0.5,0.2-1.1c-2.6,0.5-5.1,1-7.6,1.5c0.3-1.2,0.6-2.1,1-3.6
			c-7.5,4.3-13.2,0.4-19.1-2.4c0-0.2,0.1-0.4,0.1-0.7c2.1,0.4,4.1,0.7,6.4,1.1c0.1-0.2,0.3-0.7,0.5-1.3c1.4-0.2,2.7,2.9,4.3,0.2
			c0.6,1.6,2.1,2,3.4,1.6c0.9-0.3,2.9-0.7,1.7-2.9c1.2,0.1,2,0.2,3,0.4c0-1.2,0-2.3,0-3.7c0.5,0.3,1.2,0.7,1.9,0.9
			c0.7,0.2,1.6,0.2,2.4,0.2c-0.1-0.7-0.2-1.2-0.3-1.6c1.4-0.6,2.8-1.2,4.1-1.8c0-0.2,0-0.3-0.1-0.5c-1.5,0-3,0-4.7,0
			c0.2-0.7,0.4-1.1,0.6-1.9c-1.6,0.8-3.1,1.5-4.5,2.2c-0.3-0.5-0.5-1-0.9-1.8c0,0,0.2-0.5,0.6-1.3c-3.1,1.4-5.4,4.2-9,2.8
			c-3-1.1-6.2-1.5-8.3-4.2c0.1-0.2,0.2-0.4,0.2-0.6c0.8,0.3,1.7,0.6,2.5,1c1,0.6,2,1.1,2.3-0.5c1.2,0.7,2.4,1.3,3.7,2.1
			c0.2-0.5,0.4-0.7,0.4-0.9c0.1-2.8,0.2-2.8,2.7-1.4c0.9,0.5,2.1,0.7,3.1,1.1c0.1-0.2,0.2-0.3,0.3-0.5c-0.9-0.8-1.7-1.6-2.6-2.4
			c0-0.1,0.1-0.2,0.1-0.2c1.7,0.6,3.3,1.3,5,1.9c0.1-0.1,0.1-0.3,0.2-0.4c-0.2-0.4-0.5-0.7-0.8-1.2c1-0.4,2-0.7,3-1.1
			c-0.3-0.4-0.6-0.7-0.8-1c1.5-0.3,3-0.5,4.4-0.8c0-0.3,0-0.5,0-0.8c-0.7-0.2-1.3-0.5-2-0.7c-1.1-0.2-2.5,0.4-3.2-1.1
			c-0.1-0.2-1-0.1-1.6,0.1c-1.4,0.4-2.8,1-4.4,1.5c-0.6-1.8-1.5-3.3-3.8-2.2c-0.1-0.6-0.3-1.1-0.4-1.8c-3,1.9-5.7,4-9.3,1.9
			c0.3-0.6,0.7-1.1,1.1-1.9c-1.5-0.5-3.3-0.1-4.8-0.5c0.9-1.4,1.4-2.2,1.9-3c0.8,1.6,2,2.8,4.1,2.3c-0.2-0.6-0.4-1.2-0.6-1.7
			c0.5-0.2,1-0.5,1.3-0.6c1.5,1.3,2.8,2.4,4.2,3.6c0.7-1.2,1.1-2.1,1.6-2.9c2.8,2,4.8,0,7.1-0.6c0.1-0.2,0.1-0.5,0.2-0.8
			c-2.7-1.2-5.4-2.4-8.2-3.6c0.2-0.3,0.4-0.7,0.6-1.2c-0.1-0.2-0.1-0.4-0.2-0.7c-2,0.4-3.9,0.8-6,1.2c0.9-0.8,1.6-1.4,2.3-2.1
			c-0.1-0.1-0.2-0.2-0.3-0.3c1-0.5,2.1-1,3.1-1.4c0-0.2,0-0.3-0.1-0.5c-1.6-0.3-3.3-0.7-5.1-1c0.3-0.7,0.6-1.3,0.9-1.9
			c0.9,0.3,1.7,0.6,2.2,0.8c1.5-0.9,2.9-1.7,4.7-2.8c-1.5-0.6-2.6-1-4.2-1.6c1.1-1.3,2.2-2.4,3.3-3.7c-0.8-0.1-1.9-0.3-3.2-0.6
			c0.6-1,1.3-2,2.2-3.4c-2.5-0.5-3.2,1.8-4.9,2.3c-0.4-0.4-0.9-0.8-1.7-1.5c-2.6,3.2-3.8,7.9-8.8,9c-0.1-0.7-0.1-1.4-0.2-2.1
			c-0.2-1.3-0.3-2.6-0.5-3.8c-0.5-2.1,0.3-3.2,2.7-3.5c0.2,0.6,0.3,1.1,0.5,1.7c0.5-0.2,1.1-0.5,1.6-0.7c0.5-0.2,1.1-0.3,1.6-0.3
			c0.6-0.1,1.3-0.1,1.9-0.2c0.1-0.2,0.2-0.5,0.2-0.7c-1.6-1-3.2-2-5-3.1c2.3,0,4.5,0,6.8,0c0-0.2,0.1-0.3,0.1-0.5
			c-1.1-0.6-2.2-1.3-3.4-2c1-0.8,1.9-1.5,2.9-2.3c-0.1-0.2-0.2-0.4-0.2-0.5c-1.7,0.6-3.4,1.2-5.2,1.9c0-0.4-0.1-0.9-0.2-2
			c-1.6,2.1-2.9,3.9-4.2,5.7c-1.2-4.9,3.1-6.8,4.7-10.3c-2.3-0.7-3.1,0.9-4.2,2.6c-1.7-2.1,0.5-5.5-2.7-6.8
			c-0.1,2.6-0.3,5.1-0.4,8.1c-1.5-1.2-2.8-2.3-4.1-3.3c-0.2,0.1-0.4,0.3-0.6,0.4c0.6,1,1.1,2.1,1.8,2.9c2.7,3.2,3,4,2,7.8
			c-0.9-2.1-1.8-4.3-2.7-6.4c-0.2,0-0.4,0.1-0.7,0.1c-0.3,0.6-0.6,1.3-0.9,2c-1.3-0.5-2.7-1.1-4-1.6c-0.2,0.2-0.3,0.5-0.5,0.7
			c1.1,1.6,2.3,3.1,3.3,4.5c-0.5,0.9-0.8,1.7-1.2,2.5c1,0.1,1.9,0.2,3.2,0.3c0.1,0.3,0.2,1.1,0.3,2.3c-1.5-0.5-2.7-0.9-3.9-1.4
			c-0.5,2.2,1.5,2.6,2.3,3.8c-3.4,1.1-3.4,1.1-6.8-0.7c-1-0.5-2.1-0.9-3.2-1.4c-0.8,2.3,1.3,2.6,2.2,3.7c-0.9,0.4-1.7,0.7-2.6,1.1
			c1.8,1.3,3.4,2.4,5.4,3.8c-1.9,0.6-3.2,1-4.6,1.4c0,0.3,0,0.6,0,0.9c0.9,0.2,1.7,0.5,2.6,0.6c0.5,0.1,1.1-0.3,1.6-0.2
			c0.9,0.2,1.7,1,2.5,1c0.8,0,1.7-0.6,2.8-0.7c-0.6,0.6-1.1,1.2-1.7,1.7c0,0.2,0.1,0.4,0.1,0.6c1-0.1,1.9-0.2,3.1-0.4
			c0.1,0.4,0.1,1,0.3,2c1.3-0.6,2.6-1.2,4-1.8c0.2,0.5,0.6,1.3,1.2,2.6c-3,0.1-5.5,0.3-8.1,0.3c-2.5,0-4.4-2.7-7.7-2.1
			c1.1,0.9,1.7,1.4,2.4,1.9c-0.1,0.2-0.1,0.3-0.2,0.5c-2.1-0.9-4.3-1.9-6.4-2.8c-0.4-0.2-0.8-0.6-1.2-0.8c-0.6-0.2-1.3-0.3-1.9-0.1
			c-0.2,0.1-0.2,1-0.2,1.7c-1.7,0.3-3.6,0.5-5.8,0.9c2.3,2.6,5.1,1.9,7.8,2.1c-0.8,0.8-1.5,1.4-2.3,2.2c3,1.8,4.3-2,7-1.6
			c-1.1,0.6-1.8,1.1-2.7,1.7c0.5,0.9,1.1,1.8,1.6,2.7c2.2-0.9,4.4-1.8,6.5-2.7c0,0.1,0.1,0.1,0.1,0.2c-1.2,0.9-2.5,1.9-3.7,2.8
			c0.1,0.2,0.1,0.4,0.2,0.6c1-0.1,1.9-0.2,3.1-0.4c0.1,0.2,0.2,0.7,0.4,1.4c1.8-2.3,4.4-2.2,6.7-2.8c1.6-0.4,2.9-1.7,4.4-2.6
			c-0.9,3.5-4.6,4.1-7.1,6c-3.5,2.7-6.3-0.4-9.8-1c0.4,0.8,0.6,1.4,0.9,2.2c-1.8-0.4-3.5-0.8-5.3-1.2c-0.5,2-2.1,1.4-3.4,1.1
			c-1.3-0.3-2.1,0.1-2.4,1.5c0.6,0.2,1,0.3,1.6,0.4c-0.2,0.4-0.4,0.8-0.5,0.9c1.7,0.9,3.3,1.8,4.9,2.7c-0.1,0.1-0.1,0.1-0.2,0.1
			c1,0.3,2.1,0.5,3,0.9c0.2,0.1,0.1,0.9,0.1,1.4c-0.4,0-0.8,0-1.2,0c-1.7-0.1-3.4-0.2-5.1-0.3c0.6,1.5,1.1,2.7,1.6,3.9
			c-0.2,0.2-0.4,0.3-0.6,0.5c-1.6-0.8-3.1-1.6-5-2.6c0.2,1,0.3,1.6,0.5,2.4c-2-0.2-3.8-0.3-5.6-0.5c-0.1,0.2-0.2,0.4-0.3,0.6
			c1.4,0.7,2.7,1.3,4.2,2c0,0.3-0.1,0.7-0.1,0.9c2.3,1,4.4,1.9,6.9,2.9c0,0,0.5-0.4,1-0.7c2.3,2.1,4.7,4.3,7.1,6.5
			c-4.2,1.4-8.4,2.7-12.9-0.2c0.2,2.7-1.1,2.5-2.7,2.2c-0.9-0.2-1.9,0-3.2,0c1.4,1.4,2.4,2.4,3.4,3.4c-0.1,0.2-0.2,0.3-0.4,0.5
			c0.6,0.1,1.2,0.1,1.9,0.2c0.2,2.5,1.7,2.3,3.6,1.3c-0.3,3.2,2.1,1.3,3.3,1.8c-1.5,1.7-4.6,2.1-7.1,1c-0.8-0.4-1.6-1.4-2.7,0.2
			c-0.5,0.7-2.6,0.2-4.5,0.3c1,0.6,1.4,0.8,1.9,1.1c0.5,0.3,1.3,0.4,1.4,0.8c0.5,2.3,2.2,1.8,3.7,1.6c0.9,2.1,2.7,2.9,4.6,3.2
			c0.8,0.1,1.9-1.1,2.8-1.8c1.4-1,2.7-1.5,4.5,0.1c-1.3,0.1-2.2,0.2-3.4,0.3c0.4,1,0.7,1.9,1,2.7c-4.2,2.5-8.8,3-13.4,3.4
			c-0.3,0-0.7,0-0.8,0.1c-1.1,2.9-4,1.7-6,2.4c0,0-0.1,0.1-0.3,0.5c1.5,0.6,3,1.3,4.7,1.9c-0.2,0.4-0.4,0.9-0.5,1.1
			c0.6,0.5,1.2,1,1.8,1.3c0.6,0.2,1.4,0.2,2.1,0.1c1.4-0.2,2.8-0.6,3,1.9c0.8-0.8,1.4-1.3,2-1.9c0.3,1.7,1.7,1.9,2.8,1.6
			c1.2-0.3,2.1-1.2,3.3-2c0,0.1,0.3,0.6,0.7,1.3c0.6-0.6,1.2-1.1,1.8-1.7c0.2,0.6,0.4,1.1,0.7,1.9c0.6-1,1.1-1.7,1.4-2.1
			c1.3,0.1,2.3,0.3,3.9,0.5c-4,2.7-8.2,3.5-12.5,3.9c0.6,1.2,0.6,1.2,4.7,2.5c-0.8,0.2-1.7,0.6-2.5,0.6c-5.9,0.4-11.8,0.8-17.7,1.3
			c-1.7,0.1-3.4,0.6-5.3,1.4c1.3,0.5,2.7,1,4.2,1.5c-1,0.7-1.9,1.4-3,2.1c1.7,0.3,3.3,0.3,4.5,1c1.7,1,2.8,0.2,4.2-0.4
			c-0.4,0.6-0.7,1.2-1.2,1.9c0.5,0.1,0.9,0.3,1.2,0.2c1.3-0.6,2.5-1.3,3.3,0.6c0.1,0.2,1,0.1,1.5-0.1c0.8-0.3,1.6-0.8,2.5-1.4
			c-0.1,0.9-0.1,1.6-0.2,2.9c1.4-0.6,2.5-1,3.7-1.5c0,0.5-0.1,0.9-0.1,1.3c2.7,0.5,5.4,0.9,8.2,1.4c0,0.2,0,0.4,0,0.6
			c-6.1,1.8-12,4.6-19.1,1.3c0.6,1,0.9,1.4,1.4,2.1c-4-0.5-7.9-1-11.7-1.5c-0.1,0.1-0.1,0.3-0.2,0.4c1.9,0.9,3.7,1.7,5.6,2.5
			c-0.7,0.1-1.5,0.3-2.4,0.4c0,0.2-0.1,0.5-0.1,0.7c1.2,0.3,2.4,0.6,3.9,1c-0.4,0.5-0.7,0.9-0.9,1.3c3,1.1,6.8-0.3,9.4,2.8
			c0.4-0.3,0.8-0.6,1.6-1.1c-0.4,1-0.6,1.6-1.1,2.8c1.8-0.6,3.2-1,4.7-1.5c0,1.4-1,2-2.2,2.5c-4.6,1.9-9.3,2.6-14.2,1
			c-0.9-0.3-2.4-0.8-1.9,1.4c-2-0.3-3.9-0.6-6.4-1c0.8,1.1,1.3,1.8,1.8,2.5c-2.1-0.2-4.2-0.3-6.3-0.5c-0.9-0.3-1.8-0.6-2.7-0.8
			c0-0.5-0.1-1-0.1-1.4c-3,0.7-5.8,1.4-8.6,2c0.4-1.6,0.8-2.8,1.3-4.7c-9,5.4-15.6,0.4-22.3-3.5c0.1-0.3,0.1-0.6,0.2-0.9
			c2.5,0.6,5,1.2,7.5,1.8c0.1-0.5,0.2-1.3,0.3-2c1.9,0.1,3.2,3.8,5,1.1c1.4,0.6,2.8,1.7,3.8,1.4c1.7-0.4,3.2-1.7,2.7-4.1
			c1.3,0.2,2.3,0.4,3.2,0.6c0-1.7,0-3.3,0-4.7c1.4,0.5,3,1,4.7,1.6c0.2-0.1,0.3-0.3,0.5-0.4c-1.2-1.7-0.6-2.4,1.1-2.9
			c1.2-0.3,2.3-1.2,3.4-1.8c-0.1-0.2-0.2-0.4-0.2-0.6c-1.8,0-3.7,0-5.8,0c0.4-0.8,0.6-1.3,1.2-2.4c-2.3,1.3-3.9,2.2-5.3,3
			c-0.6-0.8-1.1-1.4-1.5-2.1c0.3-0.5,0.6-1.1,1.2-2.3c-3.9,2.1-6.3,6-10.9,4c-3.5-1.5-7.5-2.1-9.2-6.3c1.1,0.1,2.1,0.5,2.9,1.1
			c1.4,1.2,2.3,1.2,2.6-0.8c1.6,1.1,2.7,3,5,2.2c0-0.5,0-0.9,0-1.3c0.1-0.8,0.3-1.5,0.4-2.3c0.7,0.3,1.5,0.7,2.2,1
			c1.3,0.6,2.6,1.2,3.9,1.8c0.2-0.2,0.3-0.5,0.5-0.7c-1.1-1.2-2.1-2.3-3.2-3.5c0.1-0.1,0.2-0.2,0.3-0.2c1.9,0.9,3.9,1.8,5.8,2.7
			c0.1-0.2,0.2-0.4,0.4-0.6c-0.4-0.5-0.7-1-1.2-1.8c1.4-0.5,2.5-0.9,3.7-1.4c-0.3-0.5-0.6-0.9-1-1.5c1.2,0,2.1,0.2,2.9-0.1
			c0.8-0.3,1.4-1.1,2-1.7c-0.7-0.3-1.5-0.8-2.3-1c-0.9-0.2-2.4,0.1-2.8-0.5c-1.2-2-2.6-1-4-0.6c-1.3,0.4-2.5,1-3.7,1.4
			c-0.7-1.3-1.2-2.4-1.8-3.5c-0.9,0.2-1.7,0.4-2.7,0.6c-0.2-0.7-0.4-1.3-0.6-2.1c-3.4,2.5-6.5,5.3-10.8,2.4c0.4-0.8,0.9-1.6,1.3-2.3
			c-2.5-0.7-5.1-0.7-6.8-2c-0.1-0.1-0.2-0.2-0.3-0.2c0.1,1.2,0.1,2.3,0.2,3.5c-0.3,0-0.6,0-0.9,0.1c0-1.5,0-2.9,0-4.4
			c-1-1.4-1.4-3.5-0.9-5.7c2.4,6,2.4,6,3.9,6.9c0.5-1,0.9-2.1,1.5-3.2c1,2.2,2,3.9,4.8,3.5c-0.2-1-0.4-1.7-0.6-2.4
			c0.6-0.4,1.1-0.9,1.4-1.1c1.7,1.7,3.2,3.3,4.9,5.1c0.9-1.7,1.4-2.8,2-4c2.2,1.8,6.2,1,8.4-1.8c-3.3-1.6-6.4-3.1-9.5-4.6
			c0.1-0.7,0.4-1.9,0.1-2c-0.7-0.4-1.7-0.5-2.5-0.4c-0.7,0.1-1.3,0.7-2,0.9c-0.7,0.2-1.5,0.3-2.6,0.5c1-1.5,3.7-1.1,2.5-3.2
			c1.3-0.8,2.5-1.5,3.7-2.1c-0.1-0.2-0.1-0.5-0.2-0.7c-1.9-0.4-3.8-0.8-5.8-1.2c0.4-3.6,2.4-1.9,3.4-1.5c1.9-1.3,3.5-2.4,5.6-3.9
			c-1.8-0.7-3.3-1.4-4.9-2.1c1.6-1.7,2.9-3.2,4.5-5c-1.8-0.3-3.1-0.6-4.4-0.8c0.5-1.7,2.7-2.7,1.7-5.3c-1.7,1.5-3.2,2.7-4.6,3.9
			c-0.7-0.7-1.3-1.2-2.2-2c-2.3,3.5-3.5,7.8-6.9,10.4c1.6-0.3,2.5-1.7,3.8-2.6c0.5-0.4,1-0.6,1.5-1c0.2,0.3,0.4,0.6,0.6,1
			c-2.7,1.8-5.4,3.6-8.4,5.5c-0.2-0.5-0.3-1-0.3-1.4c-0.1,0-0.2,0.1-0.3,0.1c-0.3-3.4-0.7-6.5-0.9-9.7c-0.2-2.3,1.1-3.2,3.3-3
			c0,0.8,0.1,1.5,0.1,2.2c2.2-0.7,4.3-1.3,7-2.2c-2.3-1.7-4.3-3-6.2-4.4c2.5-1,5.4,1.5,8-0.8c-1.4-0.9-2.7-1.7-4.1-2.5
			c1.2-1.1,2.4-2.2,3.5-3.3c-0.1-0.2-0.3-0.5-0.4-0.7c-2,0.9-4.1,1.8-6.1,2.7c-0.1-0.7-0.2-1.3-0.3-2.1c-3,1.4-1.9,5.9-5.4,6.7
			c-1-5.8,4-8.9,6.1-13.5c-3.2-1.1-3.6,1.9-5.4,3.3c-1-3.4,0.1-7-2.5-9.6c-0.2,0-0.3,0-0.5,0c0,3.7,0,7.4,0,11.2
			c-0.2,0.1-0.4,0.2-0.6,0.3c-1.3-1.7-2.7-3.3-4-5c-1.1,2.9,0.3,4.4,1.6,5.9c2,2.3,2.6,5,2.5,7.9c0,0.3-0.1,0.6-0.3,0.9
			c0.2,1,0.2,2-0.2,3.1c-1.1-2.5-2.1-4.8-3.3-7.4c0.7,0.4,1.2,0.9,1.7,1.4c-0.2-0.7-0.4-1.5-0.7-2.2c-0.3-0.9-1-1.6-1.5-2.4
			c-0.5,0.7-1,1.5-1.6,2.4c-1.3-0.6-2.8-1.4-4.3-2.1c-0.3,0.2-0.5,0.5-0.8,0.7c0.8,1.4,1.6,2.9,2.5,4.3c0.9,1.3,2.2,2.4-0.1,3.6
			c-0.3,0.1-0.4,1.2-0.1,1.5c0.3,0.4,1.1,0.7,1.6,0.7c0.7-0.1,1.3-0.5,2.1-0.9c0,0.9,0,1.8,0,2.6c2.2,1,4.4,2.1,4.6,5.6
			c-2.1-1.9-3.8-3.4-5.6-5c0,0,0,0,0,0c-1.1-0.5-2.1-0.9-3.1-1.3c-0.2,0.2-0.5,0.4-0.7,0.6c1,1.4,2,2.8,2.9,4.2
			c-2.3,3-4.6,1.3-7-0.4c-1.3-0.9-2.8-1.6-4.3-2.4c-1.3,3,1.3,3.7,2.6,5.1c-1.1,0.5-2.1,0.9-3.1,1.3c2.1,1.8,4,3.4,6.3,5.3
			c-1.6,0.4-2.8,0.6-3.8,1c-0.6,0.3-1,1-1.4,1.5c0.7,0.4,1.5,1.3,2.1,1.2c1.7-0.3,3.1-0.6,4.5,0.8c0.3,0.3,1.3-0.1,1.9-0.2
			c0.8-0.2,1.5-0.6,2.4-0.5c-0.7,0.8-1.4,1.6-2.1,2.5c0.1,0.2,0.2,0.5,0.3,0.7c1.1-0.2,2.3-0.4,3.3-0.5c0.2,0.6,0.5,1.5,0.8,2.3
			c1.4-0.6,2.8-1.3,4.4-2c0.2,0.5,0.6,1.7,1,2.8c-6.3,2.8-11.7,0.2-17.2-2.4c-0.1,0.3-0.3,0.7-0.4,1c0.8,0.8,1.6,1.5,2.4,2.3
			c-0.1,0.2-0.2,0.4-0.2,0.6c-2.3-1.1-4.7-2.2-7-3.4c-0.6-0.3-1.1-1-1.8-1.3c-0.8-0.3-1.6-0.3-2.5-0.4c-0.1,0.7-0.1,1.5-0.2,2.4
			c-2,0.3-4.2,0.7-6.4,1.1c1,2.4,1.6,2.6,8.3,3.1c0,0.1,0,0.3-0.1,0.4c-0.5,0.9-1.1,1.8-1.6,2.6c1.2-0.2,2.4-0.1,3.5-0.6
			c1.2-0.5,2.3-1.5,3.8-2.1c-3.2,1.5-3.2,3.4-0.9,5.9c2.3-1.1,4.8-2.2,7.3-3.4c0.1,0.1,0.1,0.2,0.2,0.2c-0.9,0.7-1.8,1.4-2.6,2.2
			c-0.5,0.6-0.8,1.3-1.2,2c0.8,0,1.6,0,2.5-0.1c0.3,0,0.5-0.3,1-0.6c0.2,0.7,0.3,1.4,0.4,2c0.2-0.1,0.4-0.1,0.5-0.2
			c1.5-2.4,4.2-2.5,6.5-2.9c2.6-0.5,4.4-1.7,5.2-4.2c0.2,0.1,0.5,0.2,0.7,0.3c-0.4,1-0.6,2.5-1.4,3c-3.2,2.4-6.7,4.6-10.1,6.7
			c-0.4,0.3-1.4,0-2-0.3c-1.9-0.8-3.8-1.8-6.3-3c0.4,1.4,0.6,2.2,1,3.3c-2-0.6-4-1.1-6.1-1.7c-0.2,2.3-1.6,2.5-3.4,1.8
			c-1.6-0.6-2.9-0.4-3.4,1.8c0.6,0.2,1.2,0.5,1.9,0.7c-0.3,0.6-0.6,1.1-0.8,1.5c1.7,0.9,3.3,1.7,5.1,2.6c0,0.2,0.2,0.8,0.3,1.4
			c4.7,0.8,4.7,0.8,3.7,2.4c-2.7,0-5,0-7.2,0c0.6,1.8,1.1,3.5,1.7,5.2c-0.3,0.1-0.5,0.3-0.8,0.4c-1.8-1.1-3.5-2.2-5.9-3.6
			c0.4,1.6,0.6,2.3,0.8,3.4c-2.4-0.3-4.5-0.5-6.6-0.8c-0.1,0.3-0.2,0.5-0.4,0.8c1.6,0.9,3.1,1.8,5,2.8c0,0.2-0.1,0.9-0.1,1.2
			c2.7,1.3,5.1,2.4,7.6,3.6c-0.1,0.3-0.2,0.5-0.2,0.8c0.6-0.5,1.2-1,1.8-1.5c2.8,2.9,5.5,5.8,8.3,8.8c-4.8,1.7-9.7,3.9-14.9-0.3
			c-0.2,1.3-0.3,2-0.4,2.7c-1.9,1.8-4.4-1.8-6.1,0.8c1.3,1.5,2.5,2.9,3.7,4.3c-0.1,0.1-0.3,0.3-0.4,0.4c0.7,0.1,1.4,0.2,2.1,0.2
			c0.7,3,1.2,3.2,4.3,1.8c-0.8,3.8,2.3,1.8,3.7,2.4c-1.8,2.2-5.8,2.7-8.4,1.3c-1-0.5-2.2-2-2.9,0.4c-0.1,0.2-1,0.2-1.6,0.2
			c-1,0-2-0.1-3-0.1c-0.1,0.2-0.1,0.4-0.2,0.6c0.6,0.3,1.1,0.6,1.7,1c0.6,0.4,1.7,0.7,1.7,1.2c0.5,2.8,2.2,2.5,4.1,1.7
			c0.4,1.5,4.3,5.1,5.4,4.7c1.1-0.4,2.1-1.5,3-2.3c2-1.8,3.1-1.9,5.2-0.1c-1.3,0.1-2.3,0.2-3.8,0.4c0.5,1.4,0.9,2.6,1.4,3.8
			c-4.7,3-10,4.2-15.6,4.4c-0.4,0-1,0.2-1.1,0.4c-1.2,3.6-4.5,2.3-7.8,3.3c2.3,1.2,4.1,2.2,6,3.2c0,0.4,0,1-0.1,1.7
			c0.5-0.1,0.9-0.3,1.4-0.5c-0.2-0.3-0.4-0.5-0.7-0.9c1.9,0,3.6-0.1,2.9-2.9c1.7,0.1,3.9-1.4,4,2.3l0.8-0.2c0.8-0.8,1.2-1.3,1.4-1.5
			c0.4,0.2,0.9,0.5,1.3,0.8l5.7-1.5c0.2-0.1,0.3-0.2,0.5-0.4c0,0,0.1,0.1,0.1,0.2l2.8-0.8c0,0,0,0,0.1-0.1c0,0,0,0,0,0
			c0.3,0.8,0.5,1.4,0.8,2.6l0,0c0.7-1.4,1.2-2.3,1.5-2.9c1.5,0.2,2.7,0.3,4.5,0.5c-0.5,0.5-1.1,0.9-1.6,1.3l54.5-14.6
			c0.3-0.9,0.5-1.6,0.7-2.2c-3.4,2.4-6.8,3.8-11,3c-6.1-1.2-7.8-2.4-8.3-5.7c2.4,0.6,5,1.2,7.6,1.8c0.4-1,0.6-1.6,0.9-2.2
			c1.4,0.7,2.6,1.3,4.1,2c0.1-0.8,0.2-1.4,0.3-2.3c2.6,0,5.3,0,8.2,0c-0.5-1.1-0.7-1.8-1-2.4c0.9-0.5,1.7-1,2.7-1.5
			c-0.6-0.4-1-0.7-1.3-1c1.8-1.3,3.6-2.5,5.4-3.9c0.7,0.2,1.5,0.4,2.2,0.6c-0.6,0.6-1.4,1.5-2.2,2.4c1.7,1.1,3.2,2.1,4.6,3.2
			c1,0.7,1.8,0.6,2.8,0c0.4-0.3,1.4-0.2,1.7,0.1c0.4,0.4,0.6,1.3,0.5,1.9c-0.1,0.3-1,0.6-1.5,0.7c-2.1,0.4-4.2,0.7-6.6,1.1
			c1.6,2,3.5,1.3,5.5,1.2c-0.4-0.1-0.8-0.2-1.2-0.4l7.8-2.1c-0.9-0.2-1.7-0.3-2.6-0.5c0.8-0.6,1.5-1.1,2.3-1.7
			c0.5,0.5,1.1,1.1,1.9,1.8l0.5-0.1c0.5-0.5,1-1.1,1.5-1.6c0.5,0.3,1,0.5,1.5,0.8l73.2-19.6l1,0.3l132.5,35.5
			c0.2-0.2,0.3-0.3,0.4-0.4c0.1,0.2,0.3,0.4,0.5,0.7l6.1,1.6c0.3-0.3,0.6-0.5,0.9-0.8c1.9-1.7,2.8-1.8,4.8-0.1
			c-1.2,0.1-2.2,0.2-3.5,0.4c0.1,0.4,0.3,0.8,0.4,1.2l50.1,13.4c0.6-0.6,1-1.1,1.6-1.7c2.7,2.7,5.2,0,7.9-0.3
			c0.2-0.2,0.4-0.5,0.5-0.7c-1.3-0.8-2.6-1.7-3.8-2.5c0.2-0.2,0.3-0.4,0.5-0.5c1.4,0.2,2.8,0.4,4.2,0.6c1,0.1,2.1,0.5,2.1-1.3
			c0-0.6,1.1-1.3,1.8-1.6c0.7-0.4,1.6-0.5,2.5-0.7c-0.3-0.3-0.4-0.5-0.5-0.6c1-0.9,1.8-1.6,2.8-2.4
			C533.4,225.2,529.8,223.8,525.6,225.4z M482.6,148.4c0.2-0.2,0.5-0.5,0.7-0.7c2.1,1,4.2,1.9,4.4,5.3
			C485.8,151.3,484.2,149.8,482.6,148.4z M354,63.5c0.2-0.2,0.4-0.4,0.6-0.6c1.9,0.9,3.8,1.7,4,4.8C356.9,66.1,355.4,64.8,354,63.5z
			 M358.5,61.2c-0.9-2.1-1.8-4-2.8-6.3C358.3,56.6,359.3,58.7,358.5,61.2z M277.7,86.3c2.7-0.3,4.4,1.1,4.8,3.5
			C280.7,88.5,279.2,87.4,277.7,86.3z M282.3,84.2c-0.9-1.8-1.8-3.6-2.8-5.5C282.2,80,283.1,81.9,282.3,84.2z M178.2,133.4
			c0.3-0.2,0.5-0.5,0.8-0.7c2.2,1.1,4.5,2.1,4.8,5.7C181.6,136.4,179.9,134.9,178.2,133.4z M183.6,130.6c-1.1-2.5-2.1-4.8-3.3-7.4
			C183.3,125.1,184.5,127.7,183.6,130.6z M176.1,175.8c-2.6,0.5-5.2,1.1-7.8,1.1c-2.1,0-2.3-1.8-2.2-4.1c2.6,2,5.1,4.1,7.5,0.9
			c0.9,0.5,1.5,1.1,2.1,1.1c0.6,0,1.2-0.6,1.8-1c0.1,0.2,0.3,0.4,0.4,0.7C177.3,175,176.7,175.7,176.1,175.8z M176.1,169.9
			c-2.6,0.5-5.2,1.1-7.8,1.1c-2.1,0-2.3-1.8-2.2-4.1c2.6,2,5.1,4.1,7.5,0.9c0.9,0.5,1.5,1.1,2.1,1.1c0.6,0,1.2-0.6,1.8-1
			c0.1,0.2,0.3,0.4,0.4,0.7C177.3,169.1,176.7,169.8,176.1,169.9z M190.1,141.5c2.6,0.5,3.6-1.5,5.2-2.6c0.5-0.4,1-0.6,1.5-1
			c0.2,0.3,0.4,0.6,0.6,1c-2.7,1.8-5.4,3.6-8.4,5.5C188.3,142.5,188.5,141.2,190.1,141.5z M190.1,167.7c0-1.9,0-3.7,0-5.6
			c0.2,0,0.4,0,0.7,0c0.1,1.9,0.2,3.7,0.3,5.6C190.7,167.6,190.4,167.7,190.1,167.7z M275.7,117.9c-2.1,0.4-4.2,0.6-6.3,0.8
			c-1.9,0.2-2.2-1.1-2.2-3c2.3,1.3,4.5,3,6.8,0.2c0.9,3,2.1,0,3.3,0.9C276.7,117.2,276.2,117.8,275.7,117.9z M275.7,111.9
			c-2.1,0.4-4.2,0.6-6.3,0.8c-1.9,0.2-2.2-1.1-2.2-3c2.3,1.3,4.5,3,6.8,0.2c0.9,3,2.1,0,3.3,0.9
			C276.7,111.3,276.2,111.8,275.7,111.9z M288.4,111.8c-0.2,0-0.3,0-0.5,0c0-1.4,0-2.8,0-4.2c0.2,0,0.3,0,0.5,0
			C288.4,109,288.4,110.4,288.4,111.8z M288.4,104.6c0,0.4,0,0.8,0,1.2c-0.2,0-0.3,0-0.5,0c0-0.7,0-1.5,0-2.2
			c-0.5-1.2-0.8-2.4-0.9-3.7c0.3,0.6,0.6,1.2,0.9,1.8c0,0,0,0,0,0c0.2,0,0.3,0,0.5,0c0,0.4,0,0.7,0,1.1c0.4,0.9,0.9,1.9,1.4,3
			C289.3,105.5,288.8,105.2,288.4,104.6z M288.1,98.1c-0.6-1.2-0.9-2.5-1-3.9c-0.2-0.2-0.5-0.4-0.7-0.7c0.4-0.4,0.8-1.3,1.2-1.3
			c2.2,0.2,3.7-0.8,5.1-2.4c0.2-0.2,0.7-0.1,1.1-0.2c0.1,0.2,0.2,0.4,0.3,0.6c-2.3,1.3-4.6,2.6-6.9,3.9c0.8,1.7,1.6,3.3,2.7,5.5
			C289.1,99.5,288.5,99,288.1,98.1z M319.2,161.8c-3.1-0.4-6.1-0.8-9.4-1.1c0.8-0.9,1.4-1.5,2-2.1c2.3,0.8,4.9,1.8,7.5,2.7
			C319.2,161.5,319.2,161.6,319.2,161.8z M320.5,166.4c2.1-1.6,4.4,2.2,6.3-0.9c0.6,1,1.1,1.7,1.8,2.7
			C325.5,168.4,322.5,169.6,320.5,166.4z M326.1,186.4c2.6-0.7,4.8-2,7.2-0.4C331.1,188.1,329.1,188.3,326.1,186.4z M329,172.9
			c2.3,1.5,3.3-0.1,4.3-1c0.5-0.5,0.2-1.6,0.3-2.5c-0.2-0.1-0.4-0.1-0.6-0.2c0.8-0.6,1.6-1.2,2.6-2c-0.1,0.8-0.2,1.4-0.3,2.1
			c1.5,0.1,2.8,0.2,4.4,0.3c1,0.3,2.4,0.8,3.6,1.2C341.4,173.3,331.2,175.4,329,172.9z M335.6,153.3c0.8,2.3,3,1.7,4.6,2.3
			c0,0.2,0.1,0.4,0.1,0.6c-1.7,0.3-3.4,0.8-5.1,0.9c-4.6,0.4-9.2,0.5-13.8,0.9c-2.4,0.2-3.2-1.6-4.7-2.7c1.1,0.1,2.2,0.1,3.2,0.2
			c1.3,0.1,2.4,0.7,2.9-1.4c0.2-0.7,2.2-1,3.4-1.6c-0.2-0.2-0.4-0.5-0.6-0.8c1.6,0,3.1-0.1,2.4-2.4c1.5,0.1,3.5-1.3,3.3,2.5
			c1.1-1.2,1.6-1.8,1.8-2c1,0.5,2.1,1.4,2.9,1.2c1.2-0.3,2.3-1.4,3.4-2.2c0.1,0.1,0.4,0.8,0.7,1.5c0.6-0.7,1.1-1.3,1.8-2
			c0.2,0.7,0.4,1.2,0.7,2.2c0.6-1.2,1-2,1.3-2.5c1.3,0.1,2.3,0.2,3.8,0.4C344.2,151.8,340.1,152.6,335.6,153.3z M352.2,99.5
			c-2.2,0.4-4.4,0.9-6.6,0.9c-1.8,0-1.9-1.5-1.9-3.5c2.2,1.7,4.3,3.5,6.3,0.8c0.7,0.4,1.2,1,1.8,1c0.5,0,1-0.5,1.5-0.8
			c0.1,0.2,0.2,0.4,0.4,0.6C353.1,98.8,352.7,99.4,352.2,99.5z M364,70.4c2.2,0.4,3.1-1.2,4.4-2.2c0.4-0.3,0.8-0.5,1.3-0.8
			c0.2,0.3,0.3,0.5,0.5,0.8c-2.3,1.5-4.6,3-7.1,4.7C362.5,71.2,362.6,70.1,364,70.4z M364,92.6c0-1.6,0-3.2,0-4.7c0.2,0,0.4,0,0.6,0
			c0.1,1.6,0.2,3.1,0.3,4.7C364.5,92.5,364.3,92.5,364,92.6z M404.6,162.2c0,0,0,0.1,0,0.1c-0.1-0.1-0.1-0.1-0.2-0.2
			C404.5,162.2,404.5,162.2,404.6,162.2z M404.3,167.5c-0.5,0-1.1,0-1.6-0.1c-0.4-0.8-0.8-1.6-1.3-2.5
			C402.9,165.7,403.8,166.5,404.3,167.5z M400.3,166.1c0,0.2,0.1,0.5,0.1,0.9c-1-0.3-2.1-0.6-3-1.1
			C398.3,166,399.2,166.1,400.3,166.1z M397.9,163.8c-0.3,0.7-0.7,1.3-1,1.9c-0.6-0.3-1.1-0.7-1.6-1.1
			C396.2,164.3,397.1,164,397.9,163.8z M389,192.8c0.7-0.3,1.5-0.6,2.2-0.9c0.5,0.1,1,0.1,1.4,0.2c-0.8,0.6-1.5,1.1-2.3,1.7
			C390,193.5,389.5,193.1,389,192.8z M391.8,194.5c0.6-0.1,1.3-0.2,2-0.3c0.1,0.2,0.2,0.6,0.3,1.1
			C393.3,195,392.6,194.7,391.8,194.5z M398.5,196.4c-0.2,0.2-0.4,0.3-0.6,0.4c-1.1-0.4-2.3-0.9-3.4-1.3c1.4-1.6,3.2-2,5-2.4
			c1,0.2,2.1,0.3,3.1,0.5c0-0.7,0.1-1,0.1-1.4c0.5,0,0.8,0.6,1.2,1C402.3,194.4,400.1,195.1,398.5,196.4z M403.7,176.4
			c0.2-0.1,0.5-0.2,0.7-0.2c0.1,0.3,0.2,0.6,0.2,0.9C404.4,176.8,404,176.6,403.7,176.4z M408.9,176.2
			C408.9,176.2,408.9,176.2,408.9,176.2c0.1-0.1,0.1-0.1,0.2,0C409,176.2,409,176.2,408.9,176.2z M408.8,174.9c0-0.1,0-0.2,0-0.3
			c1.3-0.1,2.5-0.2,3.9-0.2c-0.8,0.7-1.8,1.2-2.9,1.6C409.5,175.7,409.2,175.3,408.8,174.9z M415.2,177.8c0.3,0.2,0.6,0.4,0.9,0.6
			c-0.9,0.5-1.8,1-2.8,1.6c-0.5-0.1-0.9-0.2-1.4-0.2C413.2,179.4,414.2,178.8,415.2,177.8z M411.1,191.1c-0.2-0.2-0.3-0.4-0.3-0.4
			c0,0,0.1,0,0.1,0C411,190.8,411.1,190.9,411.1,191.1z M411.2,199.5c-0.1-0.4-0.1-0.8,0-1C411.2,198.9,411.2,199.2,411.2,199.5z
			 M411.8,193.9c-0.4-0.3-0.7-0.7-1-1.2c-0.1-0.2-0.2-0.4-0.2-0.6c0.3-0.2,0.5-0.3,0.8-0.5c0.3,0.7,0.7,1.4,1.1,2.2
			C412.2,193.9,412,193.9,411.8,193.9z M413.2,193.8c0.7-1.2,1.2-1.9,1.7-2.6c0.5,1,1.2,1.9,2.1,2.3
			C415.7,193.6,414.4,193.7,413.2,193.8z M412.9,174.2c-1.1-0.6-1.9-1.1-2.8-1.6c3.4-0.4,7-2.9,7.5-5.6c-2.4,0.5-4.7,1.1-7.1,1.6
			c0-0.8,0-1.4,0-1.6c-0.7,0-1.4,0.1-2.1,0.2c0.4-0.7,1.3-1.1,2.7-1.3c0.2,0.6,0.4,1.2,0.6,1.9c0.6-0.3,1.2-0.5,1.8-0.7
			c0.6-0.2,1.2-0.3,1.8-0.4c0.7-0.1,1.4-0.1,2.1-0.2c0.1-0.3,0.2-0.5,0.3-0.8c-1.7-1.1-3.5-2.2-5.4-3.4c2.1,0,4.2,0,6.3,0
			c-0.8,1-2.3-0.4-3,0.4c1.9,2,4.7,2.7,7.1,4c-0.6,0.6-1.2,1.2-2.1,1.4c-0.5-0.4-1-0.9-1.8-1.6C416.5,168.9,415.3,172.1,412.9,174.2
			z M419.2,193.3c-0.2-0.5-0.3-1-0.5-1.5c0.6-0.3,1.1-0.5,1.4-0.7c0.2,0.1,0.3,0.3,0.4,0.4c-0.1,0-0.1,0-0.2,0.1
			c0.2,0.1,0.3,0.1,0.5,0.2c0.5,0.4,1,0.9,1.5,1.3C421.4,193.1,420.3,193.2,419.2,193.3z M423.3,169.2c0.3-0.5,0.6-0.9,0.9-1.4
			c0.7,0.5,1.3,1.1,1.8,1.9C425.2,169.5,424.3,169.4,423.3,169.2z M426.4,161.6c-0.4,0-0.8-0.9-1-1.2c2.3,0,4.1,0,5.9,0
			c0,0.2,0.1,0.3,0.1,0.5C429.8,161.2,428.1,161.5,426.4,161.6z M461.3,191.5c0.4,0.1,0.9-0.1,1.5-0.3c0.5,0.2,0.9,0.4,1.4,0.6
			c-0.1,0.2-0.2,0.5-0.2,0.7c0.6-0.5,1.1-0.9,1.6-1.4c0.7,0.7,1.4,1.5,2.1,2.2c-3.5-0.1-6.9,0-10.1-2
			C458.8,191.2,460.1,191.3,461.3,191.5z M454.8,212.5c1.2,0.1,2.5,0.3,3.7,0.5c0.6,2.5,1.1,2.6,3.9,1.4c-0.2,1-0.1,1.5,0.1,1.9
			c-3.1-0.3-6.1-1.7-9.1-3.1C454,212.8,454.4,212.5,454.8,212.5z M467.1,219c0.2,0.6,0.4,1.2,0.7,1.8c-1.6,0.6-3.1,0.8-4.8,0.2
			c-2.7-1.1-5.3-2.1-8-3.2c0.1-0.2,0.1-0.4,0.2-0.6c1,0.2,2,0.4,2.8,0.5c0.2-0.2,0.3-0.4,0.5-0.5c1,1.6,3.8,4,4.7,3.6
			c1.1-0.4,1.9-1.4,2.8-2.1c1.9-1.7,2.8-1.8,4.8-0.1C469.4,218.8,468.5,218.9,467.1,219z M469.7,206.5c-2.7-0.4-5.5-0.9-8.2-1.3
			c0-0.3,0-0.6,0.1-0.9c1.5-0.1,3.1-0.2,4.6-0.3c0-0.1-0.2-0.4-0.4-0.8c0.7,0,1.3-0.1,2.2-0.1c-0.5-0.4-0.8-0.7-0.9-0.7
			c0.7-0.4,1.3-0.9,2-1.3c1.4,1.4,2.7,2.9,4.1,4.4C472.1,205.7,470.9,206.1,469.7,206.5z M469.7,200.5c-2.7-0.4-5.5-0.9-8.2-1.3
			c0-0.1,0-0.2,0-0.3c-1.3-0.3-2.6-0.7-3.9-1.5c1.3-0.2,2.5-0.1,3.7,0.1c0.4,0.1,0.9-0.1,1.5-0.3c0.5,0.2,0.9,0.4,1.4,0.6
			c0,0.1-0.1,0.2-0.1,0.3c0.1,0,0.3,0,0.4,0c0.4-0.3,0.8-0.6,1.1-0.9c0.1,0.1,0.2,0.2,0.3,0.4c0-0.1-0.1-0.2-0.2-0.4
			c0.7,0,1.3-0.1,2.2-0.1c-0.5-0.4-0.8-0.7-0.9-0.7c0.7-0.4,1.3-0.9,2-1.3c1.4,1.4,2.7,2.9,4.1,4.4
			C472.1,199.7,470.9,200.2,469.7,200.5z M480.6,187.6c-2.4,0.5-4.8,1-7.2,1c-1.9,0-2.1-1.7-2-3.8c2.4,1.9,4.7,3.8,6.9,0.8
			c0.8,0.5,1.3,1,1.9,1.1c0.5,0,1.1-0.6,1.6-0.9c0.1,0.2,0.3,0.4,0.4,0.6C481.7,186.8,481.2,187.5,480.6,187.6z M480.6,181.7
			c-2.4,0.5-4.8,1-7.2,1c-1.9,0-2.1-1.7-2-3.8c2.4,1.9,4.7,3.8,6.9,0.8c0.8,0.5,1.3,1,1.9,1.1c0.5,0,1.1-0.6,1.6-0.9
			c0.1,0.2,0.3,0.4,0.4,0.6C481.7,180.9,481.2,181.5,480.6,181.7z M493.5,155.9c2.4,0.4,3.3-1.3,4.8-2.4c0.4-0.3,0.9-0.6,1.4-0.9
			c0.2,0.3,0.4,0.6,0.6,0.9c-2.5,1.6-5,3.3-7.8,5.1C491.9,156.8,492.1,155.6,493.5,155.9z M493.5,180.1c0-1.7,0-3.4,0-5.1
			c0.2,0,0.4,0,0.6,0c0.1,1.7,0.2,3.4,0.3,5.1C494.1,180,493.8,180.1,493.5,180.1z"/>
		<path class="st1" d="M137.4,233.8c-0.5,0-0.9,0-1.8,0c0.9-0.8,1.5-1.4,2.6-2.4c-1.5,0.2-2.3,0.4-3.5,0.5c0.4-0.8,0.6-1.3,1.2-2.5
			c-3.8,2.2-7,4.1-11.1,3.2c-3.7-0.9-7.7-0.7-9-5c2.5,0.5,5.2,1,8,1.5c0.2-0.8,0.3-1.4,0.5-2.1c1.4,0.6,2.8,1.2,4.4,1.9
			c0.1-0.8,0.2-1.3,0.3-1.9c2.7,0,5.3,0,8.6,0c-0.7-1-1-1.5-1.4-2.2c0.9-0.4,1.7-0.8,2.6-1.2c-0.3-0.5-0.5-0.8-0.8-1.2
			c2-1.2,4-2.4,6.3-3.8c-2.7-0.7-4.9-1.4-7.3-2c0-0.1,0.1-0.6,0.2-1.2c-3.1,0.6-6.1,1.2-9,1.8c0.4-1.5,0.7-2.5,1.1-4.2
			c-8.8,5.1-15.6,0.4-22.6-2.9c0-0.3,0.1-0.5,0.1-0.8c2.4,0.4,4.9,0.9,7.6,1.3c0.1-0.3,0.3-0.9,0.6-1.5c1.7-0.2,3.2,3.4,5.1,0.2
			c0.7,1.8,2.5,2.4,4,1.8c1.1-0.4,3.4-0.8,2-3.4c1.4,0.2,2.4,0.3,3.6,0.4c0-1.4,0-2.7,0-4.3c0.6,0.3,1.4,0.9,2.2,1.1
			c0.9,0.2,1.8,0.2,2.9,0.3c-0.2-0.8-0.3-1.4-0.4-1.9c1.7-0.7,3.3-1.4,4.9-2.1c0-0.2-0.1-0.4-0.1-0.6c-1.8,0-3.5,0-5.6,0
			c0.3-0.8,0.5-1.3,0.8-2.2c-1.9,0.9-3.6,1.8-5.3,2.6c-0.3-0.6-0.6-1.1-1.1-2.1c0,0,0.3-0.6,0.7-1.6c-3.7,1.6-6.3,5-10.7,3.3
			c-3.5-1.3-7.4-1.8-9.8-5c0.1-0.3,0.2-0.5,0.3-0.8c1,0.4,2,0.7,2.9,1.2c1.2,0.7,2.3,1.3,2.7-0.6c1.4,0.8,2.9,1.6,4.4,2.4
			c0.3-0.6,0.4-0.8,0.5-1.1c0.1-3.4,0.2-3.4,3.2-1.7c1.1,0.6,2.5,0.9,3.7,1.3c0.1-0.2,0.2-0.4,0.3-0.6c-1-1-2.1-1.9-3.1-2.9
			c0-0.1,0.1-0.2,0.1-0.3c2,0.8,3.9,1.5,5.9,2.3c0.1-0.2,0.2-0.3,0.2-0.5c-0.3-0.4-0.5-0.9-0.9-1.5c1.2-0.4,2.3-0.8,3.5-1.3
			c-0.4-0.5-0.7-0.9-0.9-1.2c1.8-0.3,3.5-0.6,5.2-0.9c0-0.3,0-0.6,0-1c-0.8-0.3-1.6-0.6-2.4-0.8c-1.3-0.2-2.9,0.5-3.8-1.3
			c-0.1-0.2-1.2-0.1-1.8,0.1c-1.7,0.5-3.4,1.1-5.2,1.8c-0.7-2.1-1.7-3.9-4.5-2.5c-0.2-0.7-0.3-1.3-0.5-2.1c-3.5,2.2-6.8,4.7-11,2.2
			c0.4-0.7,0.8-1.3,1.3-2.2c-1.8-0.6-3.9-0.1-5.6-0.6c1-1.7,1.6-2.6,2.2-3.5c1,1.9,2.3,3.3,4.9,2.7c-0.2-0.7-0.4-1.4-0.7-2.1
			c0.6-0.3,1.2-0.6,1.6-0.7c1.7,1.5,3.3,2.8,5,4.3c0.8-1.5,1.3-2.4,1.9-3.5c3.3,2.4,5.7,0,8.4-0.7c0.1-0.3,0.2-0.6,0.2-0.9
			c-3.2-1.4-6.4-2.8-9.7-4.2c0.2-0.4,0.4-0.9,0.7-1.4c-0.1-0.3-0.2-0.5-0.3-0.8c-2.3,0.4-4.6,0.9-7.1,1.4c1-0.9,1.9-1.7,2.7-2.4
			c-0.1-0.1-0.2-0.3-0.3-0.4c1.2-0.6,2.4-1.1,3.6-1.7c0-0.2-0.1-0.4-0.1-0.6c-1.9-0.4-3.8-0.8-6-1.2c0.4-0.8,0.7-1.5,1-2.3
			c1.1,0.4,2,0.7,2.6,1c1.8-1.1,3.4-2,5.6-3.4c-1.7-0.7-3.1-1.2-4.9-1.9c1.3-1.5,2.6-2.9,3.9-4.4c-0.9-0.2-2.3-0.4-3.8-0.7
			c0.8-1.2,1.5-2.4,2.5-4c-2.9-0.5-3.7,2.2-5.8,2.7c-0.5-0.5-1.1-1-2-1.8c-2,2.5-3.3,5.6-5.5,7.8c0.9-0.5,1.8-1.2,2.5-2.1
			c0.2-0.3,0.9-0.2,1.3-0.2c0.1,0.2,0.2,0.5,0.4,0.7c-2.8,1.6-5.5,3.1-8.3,4.7c-0.1-0.1-0.3-0.3-0.4-0.4c-0.2,0-0.3,0.1-0.5,0.1
			c-0.1-0.9-0.1-1.7-0.2-2.5c-0.2-1.5-0.3-3-0.6-4.5c-0.6-2.5,0.3-3.7,3.1-4.2c0.2,0.7,0.4,1.3,0.6,2c0.6-0.3,1.3-0.6,1.9-0.8
			c0.6-0.2,1.3-0.3,1.9-0.4c0.7-0.1,1.5-0.2,2.2-0.2c0.1-0.3,0.2-0.6,0.3-0.8c-1.9-1.2-3.8-2.4-5.9-3.6c2.7,0,5.4,0,8,0
			c0-0.2,0.1-0.4,0.1-0.6c-1.3-0.8-2.6-1.5-4.1-2.3c1.2-0.9,2.3-1.8,3.4-2.7c-0.1-0.2-0.2-0.4-0.3-0.6c-2,0.7-4,1.4-6.2,2.2
			c-0.1-0.4-0.1-1.1-0.3-2.3c-1.9,2.5-3.4,4.6-4.9,6.8c-1.4-5.7,3.6-8.1,5.6-12.2c-2.7-0.8-3.7,1.1-5,3c-2-2.5,0.6-6.5-3.2-8
			c-0.2,3-0.3,6.1-0.5,9.5c-1.8-1.5-3.3-2.7-4.8-4c-0.3,0.2-0.5,0.3-0.8,0.5c0.7,1.2,1.3,2.5,2.1,3.5c2.7,3.2,3.3,4.4,2.7,7.4
			c0.4,1,0.4,2,0,3.2c-1.1-2.2-2.2-4.2-3.3-6.5c0.4,0.2,0.8,0.4,1.1,0.7c-0.5-1.1-0.9-2.2-1.4-3.3c-0.3,0-0.5,0.1-0.8,0.1
			c-0.3,0.8-0.7,1.5-1.1,2.3c-1.6-0.6-3.2-1.3-4.8-1.9c-0.2,0.3-0.4,0.6-0.6,0.9c1.3,1.8,2.7,3.7,3.9,5.3c-0.5,1-1,2-1.5,2.9
			c1.1,0.1,2.3,0.2,3.8,0.3c0,0.3,0.1,0.9,0.2,1.7c1.4,0.1,2.5,0.6,3.2,1.4c-0.7-1.5-1.5-2.9-2.2-4.4c3.1,1.6,4.2,3.7,3.3,6.4
			c0.1,0.3,0.1,0.5,0.2,0.8c-1.6-1.2-3-2.2-4.4-3.2c0,0,0,0,0,0.1c-1.8-0.6-3.1-1.1-4.6-1.6c-0.6,2.5,1.8,3.1,2.7,4.5
			c-4,1.3-4,1.3-8.1-0.9c-1.2-0.6-2.4-1.1-3.8-1.7c-0.9,2.8,1.6,3.1,2.6,4.4c-1,0.4-2,0.8-3,1.3c2.1,1.5,4,2.8,6.4,4.5
			c-2.2,0.7-3.8,1.1-5.4,1.6c0,0.3,0,0.7,0,1c1,0.2,2,0.5,3.1,0.7c0.6,0.1,1.3-0.4,1.9-0.2c1,0.3,2,1.2,3,1.2c1,0,2-0.8,3.3-0.8
			c-0.7,0.7-1.3,1.4-2,2.1c0.1,0.2,0.1,0.4,0.2,0.7c1.1-0.1,2.3-0.3,3.6-0.4c0.1,0.5,0.2,1.2,0.3,2.3c1.6-0.7,3-1.4,4.7-2.2
			c0.2,0.5,0.7,1.5,1.4,3.1c-3.5,0.1-6.5,0.3-9.5,0.3c-3,0-5.1-3.2-9.2-2.4c1.3,1,2,1.6,2.8,2.2c-0.1,0.2-0.2,0.4-0.2,0.6
			c-2.5-1.1-5-2.2-7.5-3.3c-0.5-0.2-0.9-0.8-1.4-0.9c-0.7-0.2-1.6-0.4-2.2-0.1c-0.3,0.1-0.2,1.2-0.3,2c-2,0.3-4.3,0.6-6.9,1
			c2.8,3.1,6.1,2.2,9.2,2.4c-0.9,0.9-1.7,1.6-2.7,2.6c3.6,2.2,5.1-2.3,8.3-1.9c-1.3,0.8-2.2,1.3-3.2,2c0.6,1.1,1.2,2.1,1.9,3.1
			c2.6-1.1,5.2-2.2,7.7-3.2c0.1,0.1,0.1,0.2,0.2,0.2c-1.5,1.1-2.9,2.2-4.4,3.3c0.1,0.2,0.2,0.5,0.2,0.7c1.2-0.1,2.3-0.3,3.6-0.5
			c0.1,0.2,0.2,0.8,0.5,1.7c2.1-2.8,5.2-2.6,7.9-3.3c1.8-0.5,3.4-2,5.2-3c-1.1,4.2-5.4,4.8-8.4,7c-4.1,3.1-7.4-0.5-11.5-1.2
			c0.4,1,0.7,1.7,1.1,2.6c-2.2-0.5-4.2-0.9-6.3-1.4c-0.6,2.4-2.5,1.7-4,1.3c-1.6-0.4-2.5,0.1-2.9,1.8c0.7,0.2,1.2,0.4,1.9,0.5
			c-0.3,0.5-0.5,0.9-0.6,1.1c2,1.1,3.9,2.2,5.8,3.2c-0.1,0.1-0.2,0.1-0.2,0.2c1.2,0.3,2.4,0.6,3.6,1.1c0.2,0.1,0.1,1.1,0.1,1.7
			c-0.5,0-1,0-1.5,0c-2-0.1-4-0.3-6.1-0.4c0.7,1.8,1.3,3.2,1.8,4.6c-0.2,0.2-0.5,0.4-0.7,0.5c-1.8-1-3.7-1.9-5.9-3.1
			c0.3,1.2,0.4,1.9,0.6,2.8c-2.3-0.2-4.5-0.4-6.6-0.6c-0.1,0.2-0.2,0.5-0.3,0.7c1.6,0.8,3.2,1.5,5,2.4c0,0.3-0.1,0.9-0.1,1
			c2.7,1.1,5.2,2.2,8.1,3.4c0,0,0.6-0.4,1.2-0.9c2.8,2.5,5.5,5.1,8.4,7.7c-5,1.6-9.9,3.2-15.2-0.2c0.2,3.1-1.3,3-3.2,2.6
			c-1.1-0.2-2.2,0-3.7,0c1.7,1.7,2.9,2.9,4,4c-0.1,0.2-0.3,0.4-0.4,0.5c0.7,0.1,1.4,0.1,2.3,0.2c0.2,3,2,2.7,4.3,1.6
			c-0.3,3.7,2.5,1.5,3.9,2.1c-1.7,2-5.5,2.4-8.4,1.2c-1-0.4-1.8-1.7-3.2,0.2c-0.6,0.8-3,0.3-5.4,0.4c1.1,0.7,1.7,1,2.3,1.3
			c0.6,0.3,1.6,0.5,1.7,0.9c0.6,2.8,2.6,2.1,4.3,1.9c1,2.5,3.2,3.5,5.4,3.8c1,0.2,2.3-1.3,3.4-2.1c1.6-1.2,3.2-1.8,5.3,0.2
			c-1.5,0.1-2.6,0.2-4,0.4c0.4,1.2,0.8,2.2,1.2,3.2c-4.9,3-10.4,3.6-15.8,4c-0.3,0-0.9,0-0.9,0.1c-1.4,3.5-4.7,2.1-7.1,2.9
			c0,0-0.1,0.1-0.3,0.6c1.8,0.7,3.6,1.5,5.6,2.3c-0.2,0.5-0.4,1.1-0.5,1.4c0.8,0.6,1.4,1.2,2.2,1.5c0.8,0.3,1.7,0.3,2.5,0.2
			c1.6-0.2,3.3-0.7,3.5,2.2c1-0.9,1.6-1.5,2.4-2.2c0.3,2.1,2,2.3,3.3,1.9c1.4-0.4,2.5-1.5,3.9-2.3c0,0.1,0.4,0.7,0.9,1.6
			c0.7-0.7,1.4-1.3,2.2-2c0.3,0.7,0.5,1.2,0.8,2.2c0.8-1.2,1.3-2,1.6-2.5c1.5,0.2,2.7,0.3,4.6,0.5c-4.8,3.2-9.7,4.2-14.8,4.6
			c0.6,1.2,0.7,1.4,3.8,2.4l57.8-15.5c0.2-0.2,0.4-0.4,0.6-0.7c0.3,0.1,0.5,0.2,0.8,0.3l7.4-2c-0.8-0.7-1.5-1.5-2.4-2.1
			c1.3,0.1,2.6,0.1,3.8,0.3c1.5,0.2,2.9,0.8,3.4-1.7c0.1-0.4,0.7-0.7,1.4-1c0.1,0,0.1,0,0.2-0.1
			C141.1,232.3,139.3,233.7,137.4,233.8z M88.1,160.3c3.2-0.3,5.2,1.2,5.7,4.2C91.6,162.9,89.9,161.6,88.1,160.3z M85.7,197.6
			c-2.4,0.4-4.9,0.8-7.4,1c-2.2,0.2-2.6-1.2-2.7-3.5c2.8,1.5,5.3,3.5,8.1,0.2c1,3.5,2.5,0,3.9,1.1C87,196.9,86.4,197.5,85.7,197.6z
			 M85.7,191.7c-2.4,0.4-4.9,0.8-7.4,1c-2.2,0.2-2.6-1.2-2.7-3.5c2.8,1.5,5.3,3.5,8.1,0.2c1,3.5,2.5,0,3.9,1.1
			C87,190.9,86.4,191.6,85.7,191.7z M99.8,167.4c2.6,0.2,4.4-1,6-2.8c0.2-0.3,0.9-0.2,1.3-0.2c0.1,0.2,0.2,0.5,0.4,0.7
			c-2.8,1.6-5.5,3.1-8.3,4.7c-0.3-0.3-0.5-0.5-0.8-0.8C98.8,168.4,99.3,167.4,99.8,167.4z M100.7,190.4c-0.2,0-0.4,0-0.6,0
			c0-1.6,0-3.3,0-4.9c0.2,0,0.4,0,0.6,0C100.7,187.1,100.7,188.8,100.7,190.4z M100.7,181.9c0,0.8,0,1.7,0,2.5c-0.2,0-0.4,0-0.6,0
			c0-1.2,0-2.5,0-3.7c-0.6-1.4-0.9-2.9-1-4.4c0.5,1,1,2,1.5,3.1c0,0,0.1,0,0.1,0c0,0.1,0,0.1,0,0.2c0.5,1.1,1.1,2.2,1.7,3.5
			C101.8,183,101.2,182.6,100.7,181.9z M100.4,175.4c-0.7-1.5-1.1-3.2-1.2-4.9c1,2,2,4.1,3.3,6.8C101.6,177,100.9,176.4,100.4,175.4
			z"/>
		<path class="st1" d="M82.8,273.7h-4.6l-7.6,2l-0.2-1.8c-5.5,1.7-11.2,3-17.6,0c0.7,1.1,1.1,1.7,1.6,2.5c-4.8-0.6-9.3-1.2-13.8-1.8
			c-0.1,0.2-0.1,0.3-0.2,0.5c2.2,1,4.4,2,6.6,3c-0.8,0.1-1.8,0.3-2.8,0.5c0,0.3-0.1,0.6-0.1,0.9c1.4,0.4,2.9,0.7,4.6,1.1
			c-0.4,0.6-0.8,1.1-1.1,1.5c3.6,1.3,8-0.4,11.1,3.3c0.4-0.3,1-0.7,1.9-1.4c-0.4,1.1-0.8,1.9-1.3,3.4c2.2-0.7,3.8-1.2,5.5-1.7
			c0,1.7-1.1,2.4-2.5,3c-5.5,2.2-11,3.1-16.8,1.1c-1-0.4-2.8-0.9-2.2,1.7c-2.3-0.4-4.6-0.7-7.6-1.2c1,1.3,1.5,2.1,2.1,2.9
			c-2.6-0.2-5.2-0.4-7.9-0.6c-0.1,0.4-0.1,0.8-0.2,1.2c2.5,0.7,5,1.3,7.4,2c-0.7,0.8-1.6,1.7-2.6,2.8c2,1.3,3.8,2.5,5.5,3.8
			c1.1,0.8,2.1,0.8,3.3,0c0.5-0.3,1.6-0.3,2,0.1c0.5,0.5,0.7,1.5,0.6,2.2c-0.1,0.4-1.1,0.7-1.8,0.9c-2.5,0.5-5,0.8-7.8,1.3
			c2.2,2.7,4.7,1.3,7.3,1.4c-1.4,1-2.6,1.9-3.9,2.8c2.2,0.7,4,1.3,5.8,1.9c-0.1,0.2-0.1,0.4-0.2,0.7c1.1-0.3,2.3-0.7,3.7-1.1
			c-0.3,0.7-0.5,1.1-0.7,1.4c1.6,0.1,3.1,0.3,4.7,0.4c0,0.4,0,0.8,0,1.2c-6.2,0-12.3,0-18.5,0c0,0.2,0,0.5-0.1,0.7
			c0.9,0.5,1.8,1,2.7,1.5c0,0.2-0.1,0.4-0.1,0.6c-2.3,0.4-4.5,0.9-6.8,1.3c0,0.4,0,0.7,0,1.1c1.4,0.2,2.9,0.6,4.3,0.5
			c1.6-0.1,3.1-0.6,5-1.1c-1.1,1.4-1.8,2.4-2.6,3.5c0.1,0.2,0.2,0.4,0.3,0.6c1.3-0.3,2.9-1.1,4-0.8c0.9,0.3,1.3,2,2.1,3.4
			c1.4-0.8,2.9-1.6,4.7-2.6c-0.2,1.4-0.4,2.5-0.6,4.3c2.6-2,4.9-3.6,7.5-5.5c-0.7,1.4-1.3,2.5-1.9,3.7c0.2,0.2,0.5,0.4,0.7,0.5
			c1-0.7,2-1.3,3-2c0.2,0.2,0.4,0.4,0.5,0.7c-0.8,0.6-1.5,1.6-2.4,1.8c-3.9,1.1-7.8,1.6-11.9,0.4c-1.7-0.5-3.8,0.4-6,0.8
			c0.2,0.5,0.4,1,0.8,2c-2.1,0-4,0-5.9,0c0,0.3,0,0.5,0,0.8c1,0.2,2.1,0.5,3.7,0.8c-2.5,1.3-4.5,2.4-6.6,3.5
			c0.1,0.2,0.1,0.4,0.2,0.6c2.2-0.4,4.5-0.8,7-1.2c-0.6,0.9-1.1,1.5-1.8,2.4c1.1,0.1,1.9,0.2,2.8,0.3c-0.2,0.6-0.4,1.1-0.7,2.1
			c1.6-0.7,2.8-1.3,4.2-1.8c1.2,2.6,3,1.1,4.8,0.3c0.2,2.3,1.3,1.9,2.7,1.3c1.4-0.7,2.7-1.6,4.2-0.2c-2.7,0.7-5.3,1.5-8.2,2.2
			c1.2,1.3,1.2,1.3,6.1,0.5c-1.2,1.3-2.2,2.3-3.2,3.3c0.1,0.2,0.1,0.4,0.2,0.5c2.2-0.6,4.4-1.2,7-2c-0.6,1.2-1.1,2.1-1.6,3
			c1,0.5,2,0.9,3.2,1.5c0.3-0.2,1.1-0.6,1.8-1c1.4,2.6,3.2,1.4,6.6-1.1c0,1,0.1,1.9,0.2,3.2c1.1-0.6,2-0.9,2.8-1.5
			c0.8-0.5,1.5-1.2,2.4-2c0.3,0.8,0.5,1.3,0.6,1.9c0.2,1.6,1,1.6,2.2,1c0.8-0.4,1.8-0.4,2.8-0.1c1.3-1.1,2.5-2.3,3.9-3.5
			c4.5,3.1,4.3-2.8,6.9-4c0,0.7,0,1.2,0,2.3c2.5-2,5.5-2.8,5.7-6.4c1.3,0.7,2.1,1.1,2.7,1.6c0.1-0.2,0.2-0.5,0.2-0.7v-2.2v-2.8
			v-56.7h-22L82.8,273.7z M47.5,304.5c0.9-0.7,1.8-1.3,2.8-2c0.6,0.6,1.5,1.4,2.5,2.3c0.7-0.8,1.4-1.5,2.2-2.3
			c1.3,0.7,2.5,1.3,4.1,2.2c0.6-0.2,1.7-0.6,2.8-0.9c0,0.2,0.1,0.5,0.1,0.7C57.3,306.4,52.6,305.6,47.5,304.5z"/>
	</g>
	<g>
		<polygon class="st0" points="158.1,270.3 158.1,251.8 98.6,270.3 		"/>
		<polygon class="st0" points="223.4,233.9 164.1,250.3 164.1,270.3 223.4,270.3 		"/>
		<polygon class="st0" points="228.7,270.3 289.3,270.3 289.3,216.7 228.7,233.9 		"/>
		<rect x="98.6" y="275.7" class="st0" width="59.5" height="73.5"/>
		<rect x="165" y="275.7" class="st0" width="59.5" height="73.5"/>
		<rect x="229.8" y="275.7" class="st0" width="59.5" height="73.5"/>
		<polygon class="st0" points="490.8,270.3 550.3,270.3 490.8,251.8 		"/>
		<polygon class="st0" points="425.5,270.3 484.8,270.3 484.8,250.3 425.5,233.9 		"/>
		<polygon class="st0" points="359.6,270.3 420.1,270.3 420.1,233.9 359.6,216.7 		"/>
		<rect x="490.8" y="275.7" class="st0" width="59.5" height="73.5"/>
		<rect x="424.5" y="275.7" class="st0" width="59.5" height="73.5"/>
		<rect x="359.6" y="275.7" class="st0" width="59.5" height="73.5"/>
		<rect x="294.7" y="275.7" class="st0" width="59.5" height="73.5"/>
		<polygon class="st0" points="324.4,206.5 295.5,214.9 294.7,270.3 324.4,270.3 354.1,270.3 353.3,214.9 		"/>
		<path class="st0" d="M324.4,192.5L73.3,259.6c0.2,2.9,0.5,5.7,0.8,8.5l250.3-66.9l253.8,67.9c0.3-2.8,0.6-5.7,0.8-8.5L324.4,192.5
			z"/>
	</g>
</g>
</svg>
