<svg width="180" height="72" viewBox="0 0 180 72" fill="none" xmlns="http://www.w3.org/2000/svg">
<path fill-rule="evenodd" clip-rule="evenodd" d="M16.2248 17V25.5092L23.1422 17H16.2248Z" fill="#4EAF46"/>
<path fill-rule="evenodd" clip-rule="evenodd" d="M1.33016 21.0481C1.81291 20.2721 2.33125 19.6598 3.04816 19.0837L3.59331 18.714C4.10804 18.4332 4.5748 18.2468 5.14987 18.1038C5.50008 18.0408 5.82036 18.0067 6.17985 17.9943C6.66053 18.0109 7.07159 18.0713 7.53836 18.1859C7.86586 18.2912 8.16242 18.4084 8.47343 18.556C9.1795 18.9463 9.71692 19.3847 10.2585 19.9789L10.6639 20.4921C11.2596 21.3651 11.6459 22.2303 11.9295 23.2412L12.0837 23.9278C12.1033 24.0373 12.1198 24.1462 12.1343 24.2515V17H0.272339V24.2712C0.41933 23.4699 0.655032 22.4167 1.01658 21.6361L1.33016 21.0481Z" fill="#4EAF46"/>
<path fill-rule="evenodd" clip-rule="evenodd" d="M28.0873 18.1761L16.2248 32.7685V36.0783C16.2387 35.9714 16.2573 35.8646 16.2748 35.7556L16.4285 35.07C16.7132 34.0597 17.099 33.1929 17.6947 32.3199L18.1001 31.8041C18.5627 31.3013 19.0125 30.911 19.5948 30.5454C19.8944 30.3776 20.1838 30.2414 20.4973 30.1149C21.1957 29.8939 21.7929 29.8092 22.5305 29.8314L23.2128 29.9311C23.7838 30.0741 24.25 30.2599 24.7632 30.5454C25.0479 30.7205 25.3042 30.9073 25.5647 31.1154C26.3363 31.8077 26.8732 32.5455 27.3435 33.4634L27.6128 34.0819C27.8283 34.6663 27.9836 35.5249 28.0873 36.1026V18.1761Z" fill="#4EAF46"/>
<path fill-rule="evenodd" clip-rule="evenodd" d="M22.1787 31.5604C19.8083 31.5604 17.8762 34.2559 17.8762 37.5646C17.8762 40.8729 19.8083 43.5715 22.1787 43.5715C24.5491 43.5715 26.4832 40.8729 26.4832 37.5646C26.4853 34.2579 24.5491 31.5604 22.1787 31.5604ZM22.1787 42.3283C20.5045 42.3283 19.1419 40.1899 19.1419 37.5646C19.1419 34.9409 20.5045 32.8025 22.1787 32.8025C23.8544 32.8025 25.2196 34.9409 25.2196 37.5646C25.2196 40.1899 23.8544 42.3283 22.1787 42.3283Z" fill="#4EAF46"/>
<path fill-rule="evenodd" clip-rule="evenodd" d="M16.4285 40.0624L16.2748 39.3726C16.2573 39.2637 16.2387 39.1573 16.2248 39.0525V46.3056H28.0873V39.0887C27.9372 39.8925 27.703 40.8868 27.3435 41.6695L27.0269 42.2581C26.5441 43.0314 26.0263 43.6412 25.3104 44.2199L24.7632 44.5875C24.25 44.8725 23.7838 45.0568 23.2128 45.1998C22.8595 45.2622 22.5361 45.2963 22.1787 45.3087C21.7001 45.2927 21.2865 45.2344 20.8202 45.1172C20.4932 45.0119 20.1961 44.8947 19.8857 44.7496C19.1791 44.3567 18.6411 43.9194 18.1001 43.3257L17.6947 42.8094C17.099 41.9385 16.7158 41.0712 16.4285 40.0624Z" fill="#4EAF46"/>
<path fill-rule="evenodd" clip-rule="evenodd" d="M12.1343 27.2248C12.1198 27.3317 12.1033 27.439 12.0837 27.548L11.9295 28.2346C11.6459 29.2455 11.2596 30.1128 10.6639 30.9838L10.2585 31.4995C9.79841 32.0024 9.34403 32.3921 8.76225 32.7603C8.46518 32.9239 8.17635 33.0618 7.85967 33.1888C7.15876 33.4108 6.5677 33.4965 5.83068 33.4691L5.14987 33.3746C4.5748 33.2311 4.10804 33.0447 3.59331 32.7603C3.31068 32.5821 3.05383 32.3963 2.79389 32.1882C2.02128 31.4933 1.4854 30.7612 1.01658 29.8397C0.641623 28.9786 0.439445 28.1665 0.272339 27.2367V45.127L12.1343 30.5393V27.2248Z" fill="#4EAF46"/>
<path fill-rule="evenodd" clip-rule="evenodd" d="M6.17986 19.7347C3.80943 19.7347 1.87482 22.4307 1.87482 25.739C1.87482 29.0457 3.80943 31.7416 6.17986 31.7416C8.54823 31.7416 10.4808 29.0457 10.4808 25.739C10.4808 22.4307 8.54823 19.7347 6.17986 19.7347ZM6.17986 30.5005C4.5057 30.5005 3.13946 28.3626 3.13946 25.739C3.13946 23.1158 4.5057 20.9732 6.17986 20.9732C7.85195 20.9732 9.21459 23.1158 9.21459 25.739C9.21459 28.3626 7.85195 30.5005 6.17986 30.5005Z" fill="#4EAF46"/>
<path fill-rule="evenodd" clip-rule="evenodd" d="M12.1343 37.7996L5.21588 46.3056H12.1343V37.7996Z" fill="#4EAF46"/>
<path fill-rule="evenodd" clip-rule="evenodd" d="M27.7427 17H24.4104L0.629272 46.3056H3.91414L27.7427 17Z" fill="#4EAF46"/>
<path fill-rule="evenodd" clip-rule="evenodd" d="M13.1684 46.3056H15.2031V44.288H13.1684V46.3056Z" fill="#4EAF46"/>
<path fill-rule="evenodd" clip-rule="evenodd" d="M29.1121 44.288V46.3056C30.5031 46.3056 31.6326 47.4213 31.6326 48.7966C31.6326 50.1735 30.5031 51.2892 29.1121 51.2892C28.0883 51.2892 27.1537 51.0595 25.2093 50.5819C21.4438 49.6578 16.8076 48.5189 13.0957 47.6071C6.42175 45.9706 0.300718 47.8266 0.274414 52.1669H2.30908C2.30908 50.5535 5.43046 49.4833 12.1157 51.1219C17.8984 52.5417 20.0729 53.076 24.4274 54.1447C27.3028 54.8504 29.6593 54.6801 31.3536 53.8726L31.3597 53.8783C33.0535 53.0554 34.2181 51.3315 34.2181 49.3413C34.2181 46.5498 31.9312 44.288 29.1121 44.288Z" fill="#4EAF46"/>
<path fill-rule="evenodd" clip-rule="evenodd" d="M99.2156 41.8239H105.179V39.0329H99.2156V41.8239Z" fill="#4EAF46"/>
<path fill-rule="evenodd" clip-rule="evenodd" d="M77.9204 34.4448H81.1238V46.3056H84.2838V34.4448H87.4862V31.6662H77.9204V34.4448ZM73.5277 37.1795H67.892V31.6662H64.7319V46.3056H67.892V39.9591H73.5277V46.3056H76.6888V31.6662H73.5277V37.1795ZM51.3583 31.6662H48.1977V43.5265H42.9457V31.6662H39.7852V46.3056H50.1184V49.5112H53.066V43.5265H51.3583V31.6662ZM148.369 46.3056H156.655V43.5265H151.53V40.0231H156.441V37.2435H151.53V34.4448H156.655V31.6662H148.369V46.3056ZM144.071 38.417C144.261 38.2766 144.474 38.0892 144.677 37.8336C145.053 37.3628 145.377 36.6674 145.376 35.705C145.375 34.4567 144.866 33.2899 143.977 32.6033C142.756 31.6564 141.172 31.6688 140.379 31.6662H136.664V46.3056H141.64C142.897 46.3061 144.257 46.0883 145.374 45.1037C146.412 44.176 146.656 42.939 146.656 42.0743C146.655 41.2999 146.482 40.1315 145.572 39.2627C145.256 38.9642 144.785 38.6152 144.071 38.417ZM139.825 34.3168H140.443C140.982 34.3168 141.477 34.4355 141.822 34.689C142.165 34.9435 142.383 35.3163 142.387 35.9193C142.385 36.3426 142.286 36.6452 142.14 36.8708C141.921 37.2074 141.58 37.3881 141.24 37.4836C140.901 37.5791 140.576 37.5863 140.422 37.5863H139.825V34.3168ZM143.247 42.6158C143.126 42.876 142.936 43.1146 142.63 43.2978C142.07 43.6288 141.334 43.6561 140.828 43.6551H139.825V40.1083H140.657C141.255 40.1068 141.932 40.1135 142.476 40.3685L142.484 40.3716L142.478 40.3695C142.887 40.5554 143.111 40.8115 143.244 41.0758C143.375 41.3391 143.411 41.6143 143.411 41.8172C143.411 42.0732 143.366 42.3561 143.247 42.6158ZM54.3884 46.3056H62.6725V43.5265H57.5484V40.0231H62.459V37.2435H57.5484V34.4448H62.6725V31.6662H54.3884V46.3056ZM170.208 31.6662V34.4448H173.41V46.3056H176.571V34.4448H179.773V31.6662H170.208ZM96.9375 32.8036C96.3949 32.3255 95.8219 32.0359 95.1885 31.8727C94.5542 31.7081 93.8605 31.6662 93.0533 31.6662H88.7189V46.3056H91.8794V41.0273H93.4809C95.1591 41.0283 96.3928 40.543 97.2242 39.7103C98.3733 38.5538 98.4538 36.9632 98.4554 36.3891C98.4554 35.3292 98.1459 33.88 96.9385 32.8046L96.9375 32.8036ZM94.5155 37.8393C93.978 38.242 93.3535 38.2487 92.8181 38.2487H91.8794V34.4448H92.6474C93.3019 34.4438 93.9832 34.4928 94.4979 34.8568C94.8631 35.1284 95.2076 35.6007 95.2086 36.3251C95.2092 36.893 94.9735 37.4769 94.5155 37.8393ZM165.604 31.3451C163.544 31.3441 161.713 31.8929 160.242 33.2791C158.991 34.4417 157.897 36.356 157.897 38.9968C157.894 41.129 158.56 42.9731 160.242 44.5844C161.459 45.7439 163.042 46.6304 165.583 46.6262C167.153 46.6267 168.32 46.2318 169.196 45.7713L169.298 45.716V41.8265L168.961 42.2266C168.16 43.1693 167.043 43.7186 165.776 43.7196C164.626 43.7196 163.464 43.3071 162.595 42.5193C161.728 41.7299 161.145 40.5709 161.142 39.0391C161.142 37.7701 161.592 36.5708 162.381 35.6932C163.169 34.815 164.292 34.2533 165.669 34.2522C166.158 34.2533 167.712 34.3529 168.961 35.7892L169.298 36.1774V32.2992L169.199 32.245C167.864 31.5217 166.629 31.3451 165.604 31.3451ZM109.958 40.8801V31.6662H106.798V46.3056H109.225L116.575 37.0489V46.3056H119.736V31.6662H117.274L109.958 40.8801ZM131.018 37.1795H125.383V31.6662H122.222V46.3056H125.383V39.9591H131.018V46.3056H134.178V31.6662H131.018V37.1795Z" fill="#4EAF46"/>
<path fill-rule="evenodd" clip-rule="evenodd" d="M46.6644 22.487L46.6633 22.4859C45.7272 21.6589 44.5719 21.5221 43.706 21.5221H42.3748V19.3145H46.7118V17.0279H39.7852V28.7266H43.723C44.2243 28.7261 44.8417 28.6879 45.4539 28.4876C46.0661 28.2883 46.6747 27.9202 47.1337 27.2707L47.1368 27.2666L47.1342 27.2697C47.5453 26.6791 47.7954 25.9449 47.7954 25.1406C47.7964 24.0208 47.3493 23.0987 46.6644 22.487ZM44.8097 25.9966C44.5544 26.2387 44.0845 26.4395 43.232 26.4395L42.3748 26.4401V23.8086H43.2655C44.0747 23.8091 44.5338 24.0079 44.7932 24.2583C45.0526 24.5092 45.1377 24.835 45.1387 25.1581C45.1372 25.4488 45.065 25.7544 44.8097 25.9966ZM76.8574 22.4508L81.8185 17.0279H78.5125L74.6433 21.4854V17.0279H72.0542V28.7266H74.6433V23.7962L74.6871 23.7529L78.626 28.7266H82.0449L76.8574 22.4508ZM52.7947 17.0279L47.8351 28.7266H50.6445L51.644 26.3523H55.9444L56.9445 28.7266H59.7337L54.9108 17.0279H52.7947ZM52.4966 24.1674L53.835 20.8168L55.145 24.1674H52.4966ZM67.5273 21.4028H63.1372V17.0279H60.547V28.7266H63.1372V23.6894H67.5273V28.7261H70.117V17.0279H67.5273V21.4028Z" fill="#4EAF46"/>
</svg>
