<svg width="263" height="87" viewBox="0 0 263 87" fill="none" xmlns="http://www.w3.org/2000/svg">
<path d="M6.5436 70.0063H39.2616V56.2647H13.7416V28.1273L32.718 15.0401L51.6944 28.1273V40.5601H65.436V24.8555C65.436 22.238 64.3156 19.7461 62.1642 18.3119L36.6441 1.29851C34.0267 -0.446443 31.4093 -0.419178 28.7918 1.29851C21.812 5.87903 7.06709 15.8907 3.92616 17.9847C0.785232 20.0786 0 22.548 0 24.8555V63.4627C0 66.6036 3.2718 70.0063 6.5436 70.0063Z" fill="url(#paint0_linear_0_2766)"/>
<path d="M39.2617 70.0063V47.7181C39.2617 43.7621 42.3866 40.5602 46.2476 40.5602H65.4361L39.2617 70.0063Z" fill="#FBBC33"/>
<path d="M80.4603 43.4707H83.9154C85.2503 41.9133 86.9516 38.3274 87.5013 27.0725L87.5667 21H106.936V43.4838H111.32V53.0898H106.02V48.8888H85.7607V53.0898H80.4473V43.4707H80.4603ZM90.1449 43.4707H101.308V25.947L93.1026 26.0386L92.8801 31.1688C92.2781 38.9818 91.3096 42.1358 90.1449 43.4707Z" fill="#0E3A57"/>
<path d="M124.041 27.1902C131.03 27.1902 135.532 31.7707 135.532 37.9086C135.532 44.0334 131.03 48.627 124.041 48.627C117.053 48.627 112.551 44.0465 112.551 37.9086C112.551 31.7707 117.053 27.1902 124.041 27.1902ZM124.041 43.7585C127.365 43.7585 129.813 41.4421 129.813 37.9086C129.813 34.4536 127.326 32.0979 124.041 32.0979C120.848 32.0979 118.322 34.3619 118.322 37.9086C118.322 41.3112 120.756 43.7585 124.041 43.7585Z" fill="#0E3A57"/>
<path d="M138.449 27.6872H143.331L150.503 35.0946L157.308 27.6872H162.045V48.1164H156.653V35.6312L150.411 42.1224H150.267L143.841 35.6312V48.1164H138.449V27.6872Z" fill="#0E3A57"/>
<path d="M241.939 27.6872H247.331V48.1164H241.939V27.6872ZM252.645 37.3979L262.892 48.1164H255.851L245.198 37.8167L255.288 27.6872H262.094L252.645 37.3979Z" fill="#0E3A57"/>
<path d="M167.381 27.6872H172.773V48.1164H167.381V27.6872ZM178.086 37.3979L188.333 48.1164H181.293L170.64 37.8167L180.73 27.6872H187.535L178.086 37.3979Z" fill="#0E3A57"/>
<path d="M205.442 32.909H200.011L199.933 35.1208C199.671 46.7553 196.033 48.81 190.209 48.2472V43.1956C193.337 43.405 194.606 41.9392 194.75 34.0869L194.855 27.6872H210.847V48.1164H205.456V32.909H205.442Z" fill="#0E3A57"/>
<path d="M216.184 48.1164V27.6872H221.576V40.6305L231.43 27.6872H236.822V48.1164H231.43V35.1731L221.576 48.1164H216.184Z" fill="#0E3A57"/>
<path d="M242.087 67.2274L245.83 64.4791H233.318V81.0213H245.83V78.2599H236.891V74.0327H244.508V71.2713H236.891V67.2274H242.087Z" fill="#21A038"/>
<path d="M223.883 70.931H219.538V67.2404H226.474L230.217 64.4791H215.979V81.0213H223.425C227.613 81.0213 229.995 79.1236 229.995 75.8126C229.995 72.6586 227.822 70.931 223.883 70.931ZM223.255 78.2599H219.538V73.6794H223.255C225.519 73.6794 226.579 74.4515 226.579 75.9696C226.579 77.5401 225.454 78.2599 223.255 78.2599Z" fill="#21A038"/>
<path d="M255.96 64.4661H249.154V81.0215H252.727V76.3362H255.96C260.305 76.3362 263.001 74.046 263.001 70.3946C263.001 66.7433 260.305 64.4661 255.96 64.4661ZM255.881 73.5748H252.714V67.2275H255.881C258.171 67.2275 259.428 68.353 259.428 70.3946C259.428 72.4493 258.171 73.5748 255.881 73.5748Z" fill="#21A038"/>
<path d="M209.841 77.4352C208.925 77.9456 207.864 78.2074 206.752 78.2074C203.533 78.2074 201.203 75.904 201.203 72.75C201.203 69.596 203.533 67.2926 206.752 67.2926C207.969 67.2926 209.068 67.6329 209.998 68.3004L212.55 66.4158L212.38 66.2587C210.888 64.9369 208.885 64.2564 206.595 64.2564C204.122 64.2564 201.871 65.094 200.261 66.6121C198.638 68.1433 197.748 70.2896 197.748 72.6584C197.748 75.0403 198.638 77.2127 200.248 78.7832C201.857 80.3668 204.108 81.2305 206.569 81.2305C209.147 81.2305 211.385 80.3275 212.916 78.6916C211.738 77.8278 210.6 76.9903 210.6 76.9903L209.841 77.4352Z" fill="#21A038"/>
<path d="M186.708 64.2833C187.359 65.1234 187.901 66.0449 188.361 67.0206L175.84 76.2627L170.582 72.9561V68.9991L175.813 72.2786L186.708 64.2833Z" fill="#21A038"/>
<path d="M165.243 72.6852C165.243 72.4955 165.243 72.3329 165.27 72.1432L162.099 71.9806C162.099 72.1974 162.072 72.4413 162.072 72.6581C162.072 76.4525 163.617 79.8946 166.111 82.388L168.36 80.1385C166.436 78.2413 165.243 75.6123 165.243 72.6852Z" fill="url(#paint1_linear_0_2766)"/>
<path d="M175.812 62.1152C176.002 62.1152 176.164 62.1152 176.354 62.1423L176.517 58.9713C176.3 58.9713 176.056 58.9442 175.839 58.9442C172.045 58.9442 168.603 60.489 166.109 62.9825L168.359 65.232C170.256 63.3077 172.912 62.1152 175.812 62.1152Z" fill="url(#paint2_linear_0_2766)"/>
<path d="M175.812 83.255C175.622 83.255 175.46 83.255 175.27 83.2279L175.107 86.3989C175.324 86.3989 175.568 86.426 175.785 86.426C179.579 86.426 183.021 84.8812 185.515 82.3877L183.265 80.1382C181.368 82.0896 178.739 83.255 175.812 83.255Z" fill="url(#paint3_linear_0_2766)"/>
<path d="M181.775 63.9582L184.458 61.9797C182.1 60.0825 179.092 58.9171 175.812 58.9171V62.0881C178.035 62.1152 180.095 62.7927 181.775 63.9582Z" fill="url(#paint4_linear_0_2766)"/>
<path d="M189.581 72.6852C189.581 71.845 189.5 71.0319 189.365 70.2188L186.41 72.4142C186.41 72.4955 186.41 72.6039 186.41 72.6852C186.41 75.802 185.055 78.5936 182.914 80.5179L185.055 82.8758C187.82 80.3824 189.581 76.7235 189.581 72.6852Z" fill="#21A038"/>
<path d="M175.814 83.2553C172.697 83.2553 169.905 81.9002 167.981 79.759L165.623 81.9002C168.144 84.6917 171.775 86.4263 175.814 86.4263V83.2553Z" fill="url(#paint5_linear_0_2766)"/>
<path d="M168.74 64.8525L166.598 62.4946C163.807 65.0151 162.072 68.6469 162.072 72.6852H165.243C165.243 69.5955 166.598 66.7768 168.74 64.8525Z" fill="url(#paint6_linear_0_2766)"/>
<defs>
<linearGradient id="paint0_linear_0_2766" x1="1.4595" y1="13.7492" x2="48.7895" y2="57.1265" gradientUnits="userSpaceOnUse">
<stop stop-color="#6BBD3F"/>
<stop offset="0.427083" stop-color="#2CA465"/>
<stop offset="0.828125" stop-color="#148F82"/>
<stop offset="1" stop-color="#0276A2"/>
</linearGradient>
<linearGradient id="paint1_linear_0_2766" x1="166.755" y1="82.0048" x2="163.283" y2="71.968" gradientUnits="userSpaceOnUse">
<stop offset="0.1444" stop-color="#F2E913"/>
<stop offset="0.3037" stop-color="#E7E518"/>
<stop offset="0.5823" stop-color="#CADB26"/>
<stop offset="0.891" stop-color="#A3CD39"/>
</linearGradient>
<linearGradient id="paint2_linear_0_2766" x1="167.016" y1="63.5424" x2="175.959" y2="60.1343" gradientUnits="userSpaceOnUse">
<stop offset="0.0592" stop-color="#0FA8E0"/>
<stop offset="0.5385" stop-color="#0099F9"/>
<stop offset="0.9234" stop-color="#0291EB"/>
</linearGradient>
<linearGradient id="paint3_linear_0_2766" x1="174.923" y1="84.4965" x2="185.036" y2="82.2108" gradientUnits="userSpaceOnUse">
<stop offset="0.1226" stop-color="#A3CD39"/>
<stop offset="0.2846" stop-color="#86C339"/>
<stop offset="0.8693" stop-color="#21A038"/>
</linearGradient>
<linearGradient id="paint4_linear_0_2766" x1="175.158" y1="59.9969" x2="183.804" y2="62.6648" gradientUnits="userSpaceOnUse">
<stop offset="0.0566" stop-color="#0291EB"/>
<stop offset="0.79" stop-color="#0C8ACB"/>
</linearGradient>
<linearGradient id="paint5_linear_0_2766" x1="166.426" y1="81.515" x2="175.837" y2="85.0315" gradientUnits="userSpaceOnUse">
<stop offset="0.1324" stop-color="#F2E913"/>
<stop offset="0.2977" stop-color="#EBE716"/>
<stop offset="0.5306" stop-color="#D9E01F"/>
<stop offset="0.8023" stop-color="#BBD62D"/>
<stop offset="0.9829" stop-color="#A3CD39"/>
</linearGradient>
<linearGradient id="paint6_linear_0_2766" x1="163.26" y1="73.0677" x2="167.038" y2="63.2398" gradientUnits="userSpaceOnUse">
<stop offset="0.0698" stop-color="#A3CD39"/>
<stop offset="0.2599" stop-color="#81C55F"/>
<stop offset="0.9216" stop-color="#0FA8E0"/>
</linearGradient>
</defs>
</svg>
