<?xml version="1.0" encoding="UTF-8"?>
<svg width="48" height="48" viewBox="0 0 48 48" fill="none" xmlns="http://www.w3.org/2000/svg" data-v-7cafeeda=""><path d="M47.9986 28.2603H0.0830078V31.0441H47.9986V28.2603Z" fill="#252628" data-v-7cafeeda=""></path><path d="M0.0830078 48.0002H3.03555V44.7946H19.8229V33.828H0.0830078V48.0002ZM3.03555 36.6118H16.8703V42.0108H3.03555V36.6118Z" fill="#252628" data-v-7cafeeda=""></path><path d="M22.6094 44.7947H33.7447V48.0003H36.7816V44.7947H47.9169V33.8281H22.6094V44.7947ZM36.7816 36.612H45.0487V42.0109H36.7816V36.612ZM25.5619 36.612H33.7447V42.0109H25.5619V36.612Z" fill="#252628" data-v-7cafeeda=""></path><path d="M25.4759 0H14.1719V25.3919H25.4759V0ZM22.5234 22.6081H17.1244V2.86819H22.5234V22.6081Z" fill="#252628" data-v-7cafeeda=""></path><path d="M31.2963 8.52021L36.6952 2.86819V25.4763H39.6478V8.52021L44.9624 2.86819V25.4763H47.9149V0H43.7814L39.6478 4.38664V0H35.5142L28.3438 7.42355V25.4763H31.2963V8.52021Z" fill="#252628" data-v-7cafeeda=""></path><path d="M8.35149 25.4763H11.304V22.6924V0H7.17047L0 7.42355V22.6081V25.3919H2.95255H8.35149V25.4763ZM3.0369 8.52021L8.43585 2.86819V22.6081H3.0369V8.52021Z" fill="#252628" data-v-7cafeeda=""></path></svg>