<svg width="171" height="37" viewBox="0 0 171 37" fill="none" xmlns="http://www.w3.org/2000/svg">
<path fill-rule="evenodd" clip-rule="evenodd" d="M18.0122 0.5C8.07617 0.5 0 8.57324 0 18.5098C0 28.4258 8.07617 36.5 18.0122 36.5C27.9258 36.5 36 28.4258 36 18.5098C36 8.57324 27.9258 0.5 18.0122 0.5ZM18.0122 35.5996C8.57617 35.5996 0.899902 27.9297 0.899902 18.5098C0.899902 9.07031 8.57324 1.40039 18.0122 1.40039C27.4321 1.40039 35.1001 9.07422 35.1001 18.5098C35.1001 27.9277 27.4292 35.5996 18.0122 35.5996ZM70.8911 15.3281C70.8911 16.4727 69.8281 16.8486 69.2461 16.8486H67.707V20.1777H69.1641C70.3921 20.1777 70.9521 20.7607 70.9521 21.6357C70.9521 22.2578 70.4961 23.1143 69.3301 23.1143C68.6431 23.1143 67.957 23.0742 66.937 22.6338L66.874 25.8643C67.2075 26.0459 67.5239 26.1904 67.8413 26.3037C68.5742 26.5645 69.3145 26.6602 70.2871 26.6738C72.9102 26.6738 74.9492 25.0508 74.9492 22.1143C74.9492 19.7393 73.5332 18.7227 72.4731 18.3857V18.2412C73.5742 17.7812 74.7002 16.5977 74.7002 14.6396C74.7002 12.6211 73.3892 10.5596 70.4312 10.5596C69.8184 10.5527 69.207 10.5947 68.6025 10.6836C68.1611 10.749 67.7231 10.8389 67.291 10.9541L67.332 14.3291C68.103 13.9541 68.8931 13.8906 69.3081 13.8906C69.6641 13.8906 70.8911 13.9756 70.8911 15.3281ZM104.645 26.5498C108.911 26.5498 110.345 22.5498 110.345 18.5742C110.345 14.5996 108.911 10.6006 104.645 10.6006C100.379 10.6006 98.9448 14.5996 98.9448 18.5742C98.9448 22.5498 100.379 26.5488 104.645 26.5498ZM104.645 22.7793C103.373 22.7793 102.731 21.3027 102.731 18.5742C102.731 15.8457 103.373 14.3682 104.645 14.3682C105.916 14.3682 106.558 15.8457 106.558 18.5742C106.558 21.3027 105.916 22.7793 104.645 22.7793ZM115.134 10.8301H112.075V26.3613H115.674V16.8877L117.836 19.5938L120 16.8877V26.3613H123.603V10.8291H120.565L117.836 14.4941L115.134 10.8301ZM126.037 26.3613H130.323C131.259 26.3613 135.152 25.9648 135.172 21.2578C135.172 17.3076 132.156 16.6182 130.199 16.6182H129.554V14.5576H134.319V10.8301H126.037V26.3613ZM129.554 23.2383V19.7197H130.074C130.295 19.7197 130.693 19.7256 131.032 19.9385C131.362 20.1465 131.636 20.5518 131.636 21.3428C131.636 22.9697 130.51 23.2383 130.074 23.2383H129.554ZM148.117 10.8301H151.634V16.4307H154.152V10.8301H157.667V26.3623H154.152V20.1367H151.634V26.3623H148.117V10.8301ZM160.039 10.8301H163.578L163.557 16.4102H164.326L166.345 10.8301H170.174L167.426 18.2021L170.57 26.3623H166.427L164.39 20.1152H163.557L163.578 26.3613H160.039V10.8301ZM139.523 26.3818H135.86L138.96 10.8516H143.497L146.577 26.3818H142.915L142.477 23.6963H139.961L139.523 26.3818ZM141.894 20.2812L141.228 15.5547L140.541 20.2812H141.894ZM92.1162 26.3613H88.5161V10.8291H93.3252C96.7153 10.8291 97.9854 13.9932 97.9854 15.9912C97.9854 18.0342 96.8813 21.2412 93.3252 21.2412H92.1162V26.3613ZM92.9702 14.2441H92.1162L92.1172 17.8242H92.9702C93.4282 17.8242 94.3032 17.7002 94.3032 16.0342C94.3032 14.7441 93.7822 14.2441 92.9702 14.2441ZM76.6338 10.8301H86.4556V26.3604H82.855V14.5771H80.2349V26.3613H76.6338V10.8301ZM55.0981 26.3613H58.7383L59.1973 23.6738H61.7153L62.1514 26.3613H65.791L62.7109 10.8291H58.1763L55.0981 26.3613ZM60.4443 15.5137L61.1323 20.2607H59.7573L60.4443 15.5137ZM55.5107 10.8301H48.127V26.3604H51.7871V14.7002H55.5107V10.8301ZM23.1196 7.19336C20.271 5.92285 14.9629 5.79688 10.6147 7.7334C11.1748 7.33301 11.7744 6.99316 12.4048 6.7168C13.7739 6.0791 15.9819 5.46094 18.7339 5.46094C18.8638 5.46094 18.9937 5.46191 19.124 5.46484C21.4771 5.50684 24.2666 6.31934 25.9717 8.00586C26.1426 8.21387 26.271 8.42188 26.3604 8.61328C26.4229 8.74707 26.4663 8.87207 26.4917 8.98438C27.8447 9.67188 28.6348 10.3164 29.0708 11.0664C29.2598 11.4609 29.3218 11.876 29.2368 12.3555C29.6807 12.6045 30.0654 12.9463 30.3647 13.3584C30.4604 13.5205 30.5454 13.6924 30.6113 13.8652C30.6729 14.0254 30.7173 14.1855 30.7378 14.3379C30.7988 14.751 30.8398 15.2295 30.4028 15.793C30.8608 16.0225 31.2339 16.665 31.2788 16.9385C31.5078 17.9551 30.8398 18.9551 29.9878 19.7275C28.9878 20.6006 26.7817 21.6416 24.9917 22.1006C21.458 22.9951 18.313 23.3711 15.8179 23.8301C16.9409 24.0996 18.459 24.4551 20.937 24.4551C26.2407 24.4551 30.9238 21.9541 30.9238 21.9541C30.9238 21.9541 30.8208 22.2686 30.7148 22.5605C27.3447 24.5996 21.998 25.4521 19.707 25.3477C17.397 25.2422 15.4419 24.8896 13.5269 24.3057C12.9419 24.4707 12.3657 24.665 11.8008 24.8896C14.7158 26.2217 16.9199 26.5146 19.397 26.7002C21.9336 26.8896 26.1396 26.2832 29.6738 24.9961C29.5078 25.1641 29.4248 25.4121 29.2598 25.5576C28.0537 26.1953 25.9541 26.833 24.1143 27.2119C23.1909 27.4023 22.333 27.5283 21.686 27.5557C19.77 27.6396 17.4399 27.5557 15.3999 27.1797C13.6519 26.8281 12.2139 26.2832 10.7168 25.6201C10.4487 25.8252 10.3237 26.0781 10.2588 26.3701C16.1099 29.4297 21.5586 29.4902 27.7837 27.5557L27.2197 28.0977C20.373 30.8877 15.0249 29.8037 10.8818 27.8047L10.707 27.7295C10.6147 27.6895 10.5234 27.6465 10.4487 27.5967C10.8447 28.2637 14.0049 30.5742 17.543 30.8662C19.98 31.0742 22.9546 30.6572 24.7227 29.9512L23.6826 30.4912C22.8286 30.9082 20.561 31.8682 17.396 31.6582C13.1729 31.3652 10.7998 29.4912 9.73779 28.5146C9.23877 28.0537 9.01172 27.5352 8.86475 26.8896C8.17236 26.5283 7.66504 26.1553 7.24951 25.6777C7.09033 25.4941 6.94434 25.2959 6.80664 25.0771C6.51465 24.6406 6.57471 24.1211 6.63672 23.6807L6.7666 23.3105C6.30566 22.9736 5.82764 22.6201 5.64062 22.2686C5.22168 21.5186 5.47559 20.8721 5.76562 20.3721C5.51465 20.0811 5.28467 19.79 5.18506 19.499C5.05859 19.166 5.03906 18.8291 5.07666 18.4561C5.16162 17.833 5.49463 17.252 5.93164 16.75C6.8457 15.6875 8.30566 14.8555 10.7788 14.0439C13.2158 13.2295 14.1948 13.1045 16.0259 12.6865C16.8398 12.498 17.7144 12.3574 18.603 12.2139C20.0537 11.9805 21.5425 11.7402 22.8706 11.2754C16.8979 10.2354 10.6978 11.1914 5.64062 14.665L5.97266 13.6875C10.5088 10.7324 15.5249 8.98438 24.0146 10.4629C24.4727 10.1914 24.7427 9.91992 24.8696 9.37988C22.7456 8.61035 20.437 8.33984 17.4619 8.37988C14.7969 8.46484 9.98779 9.45996 7.41162 10.9854L8.19873 10.0049C9.98779 8.93945 14.6699 7.54688 18.1899 7.48438C20.6641 7.42285 21.9336 7.56738 24.8896 8.35938C24.6353 7.89648 24.0952 7.64648 23.2993 7.27637L23.1196 7.19336ZM27.6558 11.5254C27.5747 10.9424 26.9087 10.3799 26.3247 10.0049C26.2417 10.2969 25.9326 10.6504 25.7227 10.8799C26.3677 11.0479 27.0337 11.2939 27.6558 11.5254ZM24.8076 11.7109C24.3887 12.0449 23.9126 12.335 23.2026 12.6084C23.8325 12.7188 24.3774 12.8662 24.9014 13.0225C25.3491 13.1553 25.7817 13.2939 26.2407 13.4189C26.251 13.4238 26.2627 13.4258 26.2739 13.4248C26.4907 13.4248 27.2036 12.7656 27.3267 12.585C26.6147 12.2725 25.7407 11.959 24.8076 11.7109ZM29.2598 14.7715C29.5288 14.251 29.3628 13.918 28.8027 13.4385C28.5728 13.7119 28.3228 13.9385 28.0527 14.1465C28.4888 14.3545 28.8867 14.502 29.2598 14.7715ZM19.897 13.6699C17.1499 14.0029 14.1099 14.583 11.5098 15.3545L11.3711 15.3965C10.0806 15.7891 5.20068 17.2695 6.68262 19.3105C6.69775 19.3105 7.62305 18.0342 11.1128 17.0195C13.3936 16.3496 15.7319 15.9238 18.1069 15.4912C20.2402 15.1025 22.4033 14.708 24.5796 14.127C22.7891 13.6504 21.7866 13.4385 19.897 13.6699ZM22.8721 16.1885C21.395 16.5625 17.814 17.083 13.9658 17.915C12.7578 18.1855 9.44775 18.9551 7.82471 20.3301C8.03564 20.5039 8.21143 20.6152 8.38818 20.7129C8.59473 20.8271 8.80322 20.9229 9.07178 21.0801C9.73779 20.6416 10.6548 20.2256 12.0098 19.8701C14.3569 19.2471 16.1299 18.9785 18.252 18.627C20.354 18.3086 24.3276 17.4766 26.5117 16.6855C27.0254 16.5117 27.5063 16.2949 27.9121 16.043C28.084 15.9365 28.2427 15.8242 28.3848 15.7061C28.2388 15.542 26.8237 14.8555 26.7817 14.9189C25.9106 15.334 24.6616 15.749 22.8721 16.1885ZM17.75 20.375C16.1582 20.6387 14.6245 20.8926 13.0059 21.29C12.2778 21.4746 11.5288 21.7051 10.8447 21.9951C11.5288 22.3496 12.2788 22.6631 13.0269 22.9551C14.5249 22.5176 15.2358 22.3301 17.396 21.9766C18.229 21.8281 20.7681 21.3711 22.5986 21C25.9106 20.2891 30.7588 18.748 29.4688 16.75C29.4043 16.8047 29.3398 16.8545 29.2754 16.9043C29.1938 16.9688 29.1128 17.0332 29.0317 17.1045C28.0527 17.8496 26.4917 18.4561 24.3496 19.0195C21.8643 19.6924 19.7607 20.041 17.75 20.375ZM7.75098 22.0967C7.81348 22.0488 7.87451 22.001 7.92969 21.9541C7.66162 21.8154 7.46045 21.6943 7.25586 21.5654L6.95068 21.3701C6.87744 21.5371 6.90137 21.71 6.979 21.8672C7.07812 22.0674 7.26514 22.2432 7.45068 22.3496C7.54053 22.2598 7.64746 22.1768 7.75098 22.0967ZM11.3198 23.5576C10.7168 23.2871 10.0728 23.0186 9.44775 22.7266C9.15674 22.9141 8.8877 23.0996 8.67871 23.2871C9.17773 23.5791 9.65771 23.8477 10.1577 24.1221C10.5254 23.8955 10.9146 23.7061 11.3198 23.5576ZM8.8877 25.4951C8.94775 25.2852 9.05371 25.1201 9.19971 24.9121C8.84375 24.7217 8.49072 24.5361 8.1377 24.3057C8.11475 24.7031 8.3667 25.0566 8.8877 25.4951Z" fill="#476BF0"/>
</svg>
